G04 #@! TF.GenerationSoftware,KiCad,Pcbnew,7.0.1*
G04 #@! TF.CreationDate,2023-07-15T13:09:29+01:00*
G04 #@! TF.ProjectId,ElectronULA,456c6563-7472-46f6-9e55-4c412e6b6963,rev?*
G04 #@! TF.SameCoordinates,Original*
G04 #@! TF.FileFunction,Legend,Bot*
G04 #@! TF.FilePolarity,Positive*
%FSLAX46Y46*%
G04 Gerber Fmt 4.6, Leading zero omitted, Abs format (unit mm)*
G04 Created by KiCad (PCBNEW 7.0.1) date 2023-07-15 13:09:29*
%MOMM*%
%LPD*%
G01*
G04 APERTURE LIST*
G04 Aperture macros list*
%AMRoundRect*
0 Rectangle with rounded corners*
0 $1 Rounding radius*
0 $2 $3 $4 $5 $6 $7 $8 $9 X,Y pos of 4 corners*
0 Add a 4 corners polygon primitive as box body*
4,1,4,$2,$3,$4,$5,$6,$7,$8,$9,$2,$3,0*
0 Add four circle primitives for the rounded corners*
1,1,$1+$1,$2,$3*
1,1,$1+$1,$4,$5*
1,1,$1+$1,$6,$7*
1,1,$1+$1,$8,$9*
0 Add four rect primitives between the rounded corners*
20,1,$1+$1,$2,$3,$4,$5,0*
20,1,$1+$1,$4,$5,$6,$7,0*
20,1,$1+$1,$6,$7,$8,$9,0*
20,1,$1+$1,$8,$9,$2,$3,0*%
G04 Aperture macros list end*
%ADD10C,0.125000*%
%ADD11C,0.200000*%
%ADD12C,0.150000*%
%ADD13C,0.120000*%
%ADD14R,1.422400X1.422400*%
%ADD15C,1.422400*%
%ADD16R,1.700000X1.700000*%
%ADD17O,1.700000X1.700000*%
%ADD18C,4.000000*%
%ADD19RoundRect,0.237500X0.237500X-0.287500X0.237500X0.287500X-0.237500X0.287500X-0.237500X-0.287500X0*%
%ADD20RoundRect,0.237500X-0.287500X-0.237500X0.287500X-0.237500X0.287500X0.237500X-0.287500X0.237500X0*%
%ADD21RoundRect,0.237500X-0.237500X0.287500X-0.237500X-0.287500X0.237500X-0.287500X0.237500X0.287500X0*%
%ADD22RoundRect,0.237500X0.287500X0.237500X-0.287500X0.237500X-0.287500X-0.237500X0.287500X-0.237500X0*%
%ADD23RoundRect,0.249999X0.450001X-0.325001X0.450001X0.325001X-0.450001X0.325001X-0.450001X-0.325001X0*%
%ADD24RoundRect,0.249999X-0.325001X-0.450001X0.325001X-0.450001X0.325001X0.450001X-0.325001X0.450001X0*%
%ADD25R,1.800000X1.800000*%
%ADD26R,1.500000X2.000000*%
%ADD27R,3.800000X2.000000*%
%ADD28R,1.000000X1.000000*%
%ADD29R,1.750000X0.700000*%
%ADD30R,1.000000X1.450000*%
%ADD31R,1.550000X1.000000*%
%ADD32R,1.500000X0.800000*%
%ADD33R,1.500000X1.300000*%
%ADD34R,1.500000X1.500000*%
%ADD35R,1.400000X0.800000*%
%ADD36RoundRect,0.250000X-0.475000X0.337500X-0.475000X-0.337500X0.475000X-0.337500X0.475000X0.337500X0*%
%ADD37RoundRect,0.237500X0.237500X-0.300000X0.237500X0.300000X-0.237500X0.300000X-0.237500X-0.300000X0*%
G04 APERTURE END LIST*
D10*
X177565033Y-94366000D02*
X177531700Y-94266000D01*
X177531700Y-94266000D02*
X177498366Y-94232666D01*
X177498366Y-94232666D02*
X177431700Y-94199333D01*
X177431700Y-94199333D02*
X177331700Y-94199333D01*
X177331700Y-94199333D02*
X177265033Y-94232666D01*
X177265033Y-94232666D02*
X177231700Y-94266000D01*
X177231700Y-94266000D02*
X177198366Y-94332666D01*
X177198366Y-94332666D02*
X177198366Y-94599333D01*
X177198366Y-94599333D02*
X177898366Y-94599333D01*
X177898366Y-94599333D02*
X177898366Y-94366000D01*
X177898366Y-94366000D02*
X177865033Y-94299333D01*
X177865033Y-94299333D02*
X177831700Y-94266000D01*
X177831700Y-94266000D02*
X177765033Y-94232666D01*
X177765033Y-94232666D02*
X177698366Y-94232666D01*
X177698366Y-94232666D02*
X177631700Y-94266000D01*
X177631700Y-94266000D02*
X177598366Y-94299333D01*
X177598366Y-94299333D02*
X177565033Y-94366000D01*
X177565033Y-94366000D02*
X177565033Y-94599333D01*
X177198366Y-93799333D02*
X177231700Y-93866000D01*
X177231700Y-93866000D02*
X177265033Y-93899333D01*
X177265033Y-93899333D02*
X177331700Y-93932666D01*
X177331700Y-93932666D02*
X177531700Y-93932666D01*
X177531700Y-93932666D02*
X177598366Y-93899333D01*
X177598366Y-93899333D02*
X177631700Y-93866000D01*
X177631700Y-93866000D02*
X177665033Y-93799333D01*
X177665033Y-93799333D02*
X177665033Y-93699333D01*
X177665033Y-93699333D02*
X177631700Y-93632666D01*
X177631700Y-93632666D02*
X177598366Y-93599333D01*
X177598366Y-93599333D02*
X177531700Y-93566000D01*
X177531700Y-93566000D02*
X177331700Y-93566000D01*
X177331700Y-93566000D02*
X177265033Y-93599333D01*
X177265033Y-93599333D02*
X177231700Y-93632666D01*
X177231700Y-93632666D02*
X177198366Y-93699333D01*
X177198366Y-93699333D02*
X177198366Y-93799333D01*
X177198366Y-92966000D02*
X177565033Y-92966000D01*
X177565033Y-92966000D02*
X177631700Y-92999333D01*
X177631700Y-92999333D02*
X177665033Y-93066000D01*
X177665033Y-93066000D02*
X177665033Y-93199333D01*
X177665033Y-93199333D02*
X177631700Y-93266000D01*
X177231700Y-92966000D02*
X177198366Y-93032667D01*
X177198366Y-93032667D02*
X177198366Y-93199333D01*
X177198366Y-93199333D02*
X177231700Y-93266000D01*
X177231700Y-93266000D02*
X177298366Y-93299333D01*
X177298366Y-93299333D02*
X177365033Y-93299333D01*
X177365033Y-93299333D02*
X177431700Y-93266000D01*
X177431700Y-93266000D02*
X177465033Y-93199333D01*
X177465033Y-93199333D02*
X177465033Y-93032667D01*
X177465033Y-93032667D02*
X177498366Y-92966000D01*
X177198366Y-92632667D02*
X177665033Y-92632667D01*
X177531700Y-92632667D02*
X177598366Y-92599334D01*
X177598366Y-92599334D02*
X177631700Y-92566000D01*
X177631700Y-92566000D02*
X177665033Y-92499334D01*
X177665033Y-92499334D02*
X177665033Y-92432667D01*
X177198366Y-91899334D02*
X177898366Y-91899334D01*
X177231700Y-91899334D02*
X177198366Y-91966001D01*
X177198366Y-91966001D02*
X177198366Y-92099334D01*
X177198366Y-92099334D02*
X177231700Y-92166001D01*
X177231700Y-92166001D02*
X177265033Y-92199334D01*
X177265033Y-92199334D02*
X177331700Y-92232667D01*
X177331700Y-92232667D02*
X177531700Y-92232667D01*
X177531700Y-92232667D02*
X177598366Y-92199334D01*
X177598366Y-92199334D02*
X177631700Y-92166001D01*
X177631700Y-92166001D02*
X177665033Y-92099334D01*
X177665033Y-92099334D02*
X177665033Y-91966001D01*
X177665033Y-91966001D02*
X177631700Y-91899334D01*
X177465033Y-91032668D02*
X177465033Y-90499335D01*
X177398366Y-89666001D02*
X177398366Y-89332668D01*
X177198366Y-89732668D02*
X177898366Y-89499335D01*
X177898366Y-89499335D02*
X177198366Y-89266001D01*
X177665033Y-89032668D02*
X177198366Y-89032668D01*
X177598366Y-89032668D02*
X177631700Y-88999335D01*
X177631700Y-88999335D02*
X177665033Y-88932668D01*
X177665033Y-88932668D02*
X177665033Y-88832668D01*
X177665033Y-88832668D02*
X177631700Y-88766001D01*
X177631700Y-88766001D02*
X177565033Y-88732668D01*
X177565033Y-88732668D02*
X177198366Y-88732668D01*
X177198366Y-88099335D02*
X177898366Y-88099335D01*
X177231700Y-88099335D02*
X177198366Y-88166002D01*
X177198366Y-88166002D02*
X177198366Y-88299335D01*
X177198366Y-88299335D02*
X177231700Y-88366002D01*
X177231700Y-88366002D02*
X177265033Y-88399335D01*
X177265033Y-88399335D02*
X177331700Y-88432668D01*
X177331700Y-88432668D02*
X177531700Y-88432668D01*
X177531700Y-88432668D02*
X177598366Y-88399335D01*
X177598366Y-88399335D02*
X177631700Y-88366002D01*
X177631700Y-88366002D02*
X177665033Y-88299335D01*
X177665033Y-88299335D02*
X177665033Y-88166002D01*
X177665033Y-88166002D02*
X177631700Y-88099335D01*
X177665033Y-87832669D02*
X177198366Y-87666002D01*
X177665033Y-87499335D02*
X177198366Y-87666002D01*
X177198366Y-87666002D02*
X177031700Y-87732669D01*
X177031700Y-87732669D02*
X176998366Y-87766002D01*
X176998366Y-87766002D02*
X176965033Y-87832669D01*
X177565033Y-86466003D02*
X177531700Y-86366003D01*
X177531700Y-86366003D02*
X177498366Y-86332669D01*
X177498366Y-86332669D02*
X177431700Y-86299336D01*
X177431700Y-86299336D02*
X177331700Y-86299336D01*
X177331700Y-86299336D02*
X177265033Y-86332669D01*
X177265033Y-86332669D02*
X177231700Y-86366003D01*
X177231700Y-86366003D02*
X177198366Y-86432669D01*
X177198366Y-86432669D02*
X177198366Y-86699336D01*
X177198366Y-86699336D02*
X177898366Y-86699336D01*
X177898366Y-86699336D02*
X177898366Y-86466003D01*
X177898366Y-86466003D02*
X177865033Y-86399336D01*
X177865033Y-86399336D02*
X177831700Y-86366003D01*
X177831700Y-86366003D02*
X177765033Y-86332669D01*
X177765033Y-86332669D02*
X177698366Y-86332669D01*
X177698366Y-86332669D02*
X177631700Y-86366003D01*
X177631700Y-86366003D02*
X177598366Y-86399336D01*
X177598366Y-86399336D02*
X177565033Y-86466003D01*
X177565033Y-86466003D02*
X177565033Y-86699336D01*
X177665033Y-85699336D02*
X177198366Y-85699336D01*
X177665033Y-85999336D02*
X177298366Y-85999336D01*
X177298366Y-85999336D02*
X177231700Y-85966003D01*
X177231700Y-85966003D02*
X177198366Y-85899336D01*
X177198366Y-85899336D02*
X177198366Y-85799336D01*
X177198366Y-85799336D02*
X177231700Y-85732669D01*
X177231700Y-85732669D02*
X177265033Y-85699336D01*
X177198366Y-85366003D02*
X177665033Y-85366003D01*
X177531700Y-85366003D02*
X177598366Y-85332670D01*
X177598366Y-85332670D02*
X177631700Y-85299336D01*
X177631700Y-85299336D02*
X177665033Y-85232670D01*
X177665033Y-85232670D02*
X177665033Y-85166003D01*
X177665033Y-84632670D02*
X177098366Y-84632670D01*
X177098366Y-84632670D02*
X177031700Y-84666003D01*
X177031700Y-84666003D02*
X176998366Y-84699337D01*
X176998366Y-84699337D02*
X176965033Y-84766003D01*
X176965033Y-84766003D02*
X176965033Y-84866003D01*
X176965033Y-84866003D02*
X176998366Y-84932670D01*
X177231700Y-84632670D02*
X177198366Y-84699337D01*
X177198366Y-84699337D02*
X177198366Y-84832670D01*
X177198366Y-84832670D02*
X177231700Y-84899337D01*
X177231700Y-84899337D02*
X177265033Y-84932670D01*
X177265033Y-84932670D02*
X177331700Y-84966003D01*
X177331700Y-84966003D02*
X177531700Y-84966003D01*
X177531700Y-84966003D02*
X177598366Y-84932670D01*
X177598366Y-84932670D02*
X177631700Y-84899337D01*
X177631700Y-84899337D02*
X177665033Y-84832670D01*
X177665033Y-84832670D02*
X177665033Y-84699337D01*
X177665033Y-84699337D02*
X177631700Y-84632670D01*
X177231700Y-84032670D02*
X177198366Y-84099337D01*
X177198366Y-84099337D02*
X177198366Y-84232670D01*
X177198366Y-84232670D02*
X177231700Y-84299337D01*
X177231700Y-84299337D02*
X177298366Y-84332670D01*
X177298366Y-84332670D02*
X177565033Y-84332670D01*
X177565033Y-84332670D02*
X177631700Y-84299337D01*
X177631700Y-84299337D02*
X177665033Y-84232670D01*
X177665033Y-84232670D02*
X177665033Y-84099337D01*
X177665033Y-84099337D02*
X177631700Y-84032670D01*
X177631700Y-84032670D02*
X177565033Y-83999337D01*
X177565033Y-83999337D02*
X177498366Y-83999337D01*
X177498366Y-83999337D02*
X177431700Y-84332670D01*
X177231700Y-83732670D02*
X177198366Y-83666004D01*
X177198366Y-83666004D02*
X177198366Y-83532670D01*
X177198366Y-83532670D02*
X177231700Y-83466004D01*
X177231700Y-83466004D02*
X177298366Y-83432670D01*
X177298366Y-83432670D02*
X177331700Y-83432670D01*
X177331700Y-83432670D02*
X177398366Y-83466004D01*
X177398366Y-83466004D02*
X177431700Y-83532670D01*
X177431700Y-83532670D02*
X177431700Y-83632670D01*
X177431700Y-83632670D02*
X177465033Y-83699337D01*
X177465033Y-83699337D02*
X177531700Y-83732670D01*
X177531700Y-83732670D02*
X177565033Y-83732670D01*
X177565033Y-83732670D02*
X177631700Y-83699337D01*
X177631700Y-83699337D02*
X177665033Y-83632670D01*
X177665033Y-83632670D02*
X177665033Y-83532670D01*
X177665033Y-83532670D02*
X177631700Y-83466004D01*
X177231700Y-83166003D02*
X177198366Y-83099337D01*
X177198366Y-83099337D02*
X177198366Y-82966003D01*
X177198366Y-82966003D02*
X177231700Y-82899337D01*
X177231700Y-82899337D02*
X177298366Y-82866003D01*
X177298366Y-82866003D02*
X177331700Y-82866003D01*
X177331700Y-82866003D02*
X177398366Y-82899337D01*
X177398366Y-82899337D02*
X177431700Y-82966003D01*
X177431700Y-82966003D02*
X177431700Y-83066003D01*
X177431700Y-83066003D02*
X177465033Y-83132670D01*
X177465033Y-83132670D02*
X177531700Y-83166003D01*
X177531700Y-83166003D02*
X177565033Y-83166003D01*
X177565033Y-83166003D02*
X177631700Y-83132670D01*
X177631700Y-83132670D02*
X177665033Y-83066003D01*
X177665033Y-83066003D02*
X177665033Y-82966003D01*
X177665033Y-82966003D02*
X177631700Y-82899337D01*
X176931700Y-81832670D02*
X176965033Y-81866003D01*
X176965033Y-81866003D02*
X177065033Y-81932670D01*
X177065033Y-81932670D02*
X177131700Y-81966003D01*
X177131700Y-81966003D02*
X177231700Y-81999337D01*
X177231700Y-81999337D02*
X177398366Y-82032670D01*
X177398366Y-82032670D02*
X177531700Y-82032670D01*
X177531700Y-82032670D02*
X177698366Y-81999337D01*
X177698366Y-81999337D02*
X177798366Y-81966003D01*
X177798366Y-81966003D02*
X177865033Y-81932670D01*
X177865033Y-81932670D02*
X177965033Y-81866003D01*
X177965033Y-81866003D02*
X177998366Y-81832670D01*
X177565033Y-81332670D02*
X177531700Y-81232670D01*
X177531700Y-81232670D02*
X177498366Y-81199336D01*
X177498366Y-81199336D02*
X177431700Y-81166003D01*
X177431700Y-81166003D02*
X177331700Y-81166003D01*
X177331700Y-81166003D02*
X177265033Y-81199336D01*
X177265033Y-81199336D02*
X177231700Y-81232670D01*
X177231700Y-81232670D02*
X177198366Y-81299336D01*
X177198366Y-81299336D02*
X177198366Y-81566003D01*
X177198366Y-81566003D02*
X177898366Y-81566003D01*
X177898366Y-81566003D02*
X177898366Y-81332670D01*
X177898366Y-81332670D02*
X177865033Y-81266003D01*
X177865033Y-81266003D02*
X177831700Y-81232670D01*
X177831700Y-81232670D02*
X177765033Y-81199336D01*
X177765033Y-81199336D02*
X177698366Y-81199336D01*
X177698366Y-81199336D02*
X177631700Y-81232670D01*
X177631700Y-81232670D02*
X177598366Y-81266003D01*
X177598366Y-81266003D02*
X177565033Y-81332670D01*
X177565033Y-81332670D02*
X177565033Y-81566003D01*
X177665033Y-80566003D02*
X177198366Y-80566003D01*
X177665033Y-80866003D02*
X177298366Y-80866003D01*
X177298366Y-80866003D02*
X177231700Y-80832670D01*
X177231700Y-80832670D02*
X177198366Y-80766003D01*
X177198366Y-80766003D02*
X177198366Y-80666003D01*
X177198366Y-80666003D02*
X177231700Y-80599336D01*
X177231700Y-80599336D02*
X177265033Y-80566003D01*
X177198366Y-79932670D02*
X177898366Y-79932670D01*
X177231700Y-79932670D02*
X177198366Y-79999337D01*
X177198366Y-79999337D02*
X177198366Y-80132670D01*
X177198366Y-80132670D02*
X177231700Y-80199337D01*
X177231700Y-80199337D02*
X177265033Y-80232670D01*
X177265033Y-80232670D02*
X177331700Y-80266003D01*
X177331700Y-80266003D02*
X177531700Y-80266003D01*
X177531700Y-80266003D02*
X177598366Y-80232670D01*
X177598366Y-80232670D02*
X177631700Y-80199337D01*
X177631700Y-80199337D02*
X177665033Y-80132670D01*
X177665033Y-80132670D02*
X177665033Y-79999337D01*
X177665033Y-79999337D02*
X177631700Y-79932670D01*
X177665033Y-79299337D02*
X177098366Y-79299337D01*
X177098366Y-79299337D02*
X177031700Y-79332670D01*
X177031700Y-79332670D02*
X176998366Y-79366004D01*
X176998366Y-79366004D02*
X176965033Y-79432670D01*
X176965033Y-79432670D02*
X176965033Y-79532670D01*
X176965033Y-79532670D02*
X176998366Y-79599337D01*
X177231700Y-79299337D02*
X177198366Y-79366004D01*
X177198366Y-79366004D02*
X177198366Y-79499337D01*
X177198366Y-79499337D02*
X177231700Y-79566004D01*
X177231700Y-79566004D02*
X177265033Y-79599337D01*
X177265033Y-79599337D02*
X177331700Y-79632670D01*
X177331700Y-79632670D02*
X177531700Y-79632670D01*
X177531700Y-79632670D02*
X177598366Y-79599337D01*
X177598366Y-79599337D02*
X177631700Y-79566004D01*
X177631700Y-79566004D02*
X177665033Y-79499337D01*
X177665033Y-79499337D02*
X177665033Y-79366004D01*
X177665033Y-79366004D02*
X177631700Y-79299337D01*
X177198366Y-78966004D02*
X177665033Y-78966004D01*
X177898366Y-78966004D02*
X177865033Y-78999337D01*
X177865033Y-78999337D02*
X177831700Y-78966004D01*
X177831700Y-78966004D02*
X177865033Y-78932671D01*
X177865033Y-78932671D02*
X177898366Y-78966004D01*
X177898366Y-78966004D02*
X177831700Y-78966004D01*
X177231700Y-78366004D02*
X177198366Y-78432671D01*
X177198366Y-78432671D02*
X177198366Y-78566004D01*
X177198366Y-78566004D02*
X177231700Y-78632671D01*
X177231700Y-78632671D02*
X177298366Y-78666004D01*
X177298366Y-78666004D02*
X177565033Y-78666004D01*
X177565033Y-78666004D02*
X177631700Y-78632671D01*
X177631700Y-78632671D02*
X177665033Y-78566004D01*
X177665033Y-78566004D02*
X177665033Y-78432671D01*
X177665033Y-78432671D02*
X177631700Y-78366004D01*
X177631700Y-78366004D02*
X177565033Y-78332671D01*
X177565033Y-78332671D02*
X177498366Y-78332671D01*
X177498366Y-78332671D02*
X177431700Y-78666004D01*
X176931700Y-78099338D02*
X176965033Y-78066004D01*
X176965033Y-78066004D02*
X177065033Y-77999338D01*
X177065033Y-77999338D02*
X177131700Y-77966004D01*
X177131700Y-77966004D02*
X177231700Y-77932671D01*
X177231700Y-77932671D02*
X177398366Y-77899338D01*
X177398366Y-77899338D02*
X177531700Y-77899338D01*
X177531700Y-77899338D02*
X177698366Y-77932671D01*
X177698366Y-77932671D02*
X177798366Y-77966004D01*
X177798366Y-77966004D02*
X177865033Y-77999338D01*
X177865033Y-77999338D02*
X177965033Y-78066004D01*
X177965033Y-78066004D02*
X177998366Y-78099338D01*
X176431033Y-94366000D02*
X176431033Y-94599333D01*
X176064366Y-94599333D02*
X176764366Y-94599333D01*
X176764366Y-94599333D02*
X176764366Y-94266000D01*
X176064366Y-93999333D02*
X176764366Y-93999333D01*
X176764366Y-93999333D02*
X176764366Y-93732666D01*
X176764366Y-93732666D02*
X176731033Y-93666000D01*
X176731033Y-93666000D02*
X176697700Y-93632666D01*
X176697700Y-93632666D02*
X176631033Y-93599333D01*
X176631033Y-93599333D02*
X176531033Y-93599333D01*
X176531033Y-93599333D02*
X176464366Y-93632666D01*
X176464366Y-93632666D02*
X176431033Y-93666000D01*
X176431033Y-93666000D02*
X176397700Y-93732666D01*
X176397700Y-93732666D02*
X176397700Y-93999333D01*
X176731033Y-92932666D02*
X176764366Y-92999333D01*
X176764366Y-92999333D02*
X176764366Y-93099333D01*
X176764366Y-93099333D02*
X176731033Y-93199333D01*
X176731033Y-93199333D02*
X176664366Y-93266000D01*
X176664366Y-93266000D02*
X176597700Y-93299333D01*
X176597700Y-93299333D02*
X176464366Y-93332666D01*
X176464366Y-93332666D02*
X176364366Y-93332666D01*
X176364366Y-93332666D02*
X176231033Y-93299333D01*
X176231033Y-93299333D02*
X176164366Y-93266000D01*
X176164366Y-93266000D02*
X176097700Y-93199333D01*
X176097700Y-93199333D02*
X176064366Y-93099333D01*
X176064366Y-93099333D02*
X176064366Y-93032666D01*
X176064366Y-93032666D02*
X176097700Y-92932666D01*
X176097700Y-92932666D02*
X176131033Y-92899333D01*
X176131033Y-92899333D02*
X176364366Y-92899333D01*
X176364366Y-92899333D02*
X176364366Y-93032666D01*
X176264366Y-92632666D02*
X176264366Y-92299333D01*
X176064366Y-92699333D02*
X176764366Y-92466000D01*
X176764366Y-92466000D02*
X176064366Y-92232666D01*
X176131033Y-91066000D02*
X176097700Y-91099333D01*
X176097700Y-91099333D02*
X176064366Y-91199333D01*
X176064366Y-91199333D02*
X176064366Y-91266000D01*
X176064366Y-91266000D02*
X176097700Y-91366000D01*
X176097700Y-91366000D02*
X176164366Y-91432667D01*
X176164366Y-91432667D02*
X176231033Y-91466000D01*
X176231033Y-91466000D02*
X176364366Y-91499333D01*
X176364366Y-91499333D02*
X176464366Y-91499333D01*
X176464366Y-91499333D02*
X176597700Y-91466000D01*
X176597700Y-91466000D02*
X176664366Y-91432667D01*
X176664366Y-91432667D02*
X176731033Y-91366000D01*
X176731033Y-91366000D02*
X176764366Y-91266000D01*
X176764366Y-91266000D02*
X176764366Y-91199333D01*
X176764366Y-91199333D02*
X176731033Y-91099333D01*
X176731033Y-91099333D02*
X176697700Y-91066000D01*
X176064366Y-90666000D02*
X176097700Y-90732667D01*
X176097700Y-90732667D02*
X176131033Y-90766000D01*
X176131033Y-90766000D02*
X176197700Y-90799333D01*
X176197700Y-90799333D02*
X176397700Y-90799333D01*
X176397700Y-90799333D02*
X176464366Y-90766000D01*
X176464366Y-90766000D02*
X176497700Y-90732667D01*
X176497700Y-90732667D02*
X176531033Y-90666000D01*
X176531033Y-90666000D02*
X176531033Y-90566000D01*
X176531033Y-90566000D02*
X176497700Y-90499333D01*
X176497700Y-90499333D02*
X176464366Y-90466000D01*
X176464366Y-90466000D02*
X176397700Y-90432667D01*
X176397700Y-90432667D02*
X176197700Y-90432667D01*
X176197700Y-90432667D02*
X176131033Y-90466000D01*
X176131033Y-90466000D02*
X176097700Y-90499333D01*
X176097700Y-90499333D02*
X176064366Y-90566000D01*
X176064366Y-90566000D02*
X176064366Y-90666000D01*
X176064366Y-89832667D02*
X176764366Y-89832667D01*
X176097700Y-89832667D02*
X176064366Y-89899334D01*
X176064366Y-89899334D02*
X176064366Y-90032667D01*
X176064366Y-90032667D02*
X176097700Y-90099334D01*
X176097700Y-90099334D02*
X176131033Y-90132667D01*
X176131033Y-90132667D02*
X176197700Y-90166000D01*
X176197700Y-90166000D02*
X176397700Y-90166000D01*
X176397700Y-90166000D02*
X176464366Y-90132667D01*
X176464366Y-90132667D02*
X176497700Y-90099334D01*
X176497700Y-90099334D02*
X176531033Y-90032667D01*
X176531033Y-90032667D02*
X176531033Y-89899334D01*
X176531033Y-89899334D02*
X176497700Y-89832667D01*
X176097700Y-89232667D02*
X176064366Y-89299334D01*
X176064366Y-89299334D02*
X176064366Y-89432667D01*
X176064366Y-89432667D02*
X176097700Y-89499334D01*
X176097700Y-89499334D02*
X176164366Y-89532667D01*
X176164366Y-89532667D02*
X176431033Y-89532667D01*
X176431033Y-89532667D02*
X176497700Y-89499334D01*
X176497700Y-89499334D02*
X176531033Y-89432667D01*
X176531033Y-89432667D02*
X176531033Y-89299334D01*
X176531033Y-89299334D02*
X176497700Y-89232667D01*
X176497700Y-89232667D02*
X176431033Y-89199334D01*
X176431033Y-89199334D02*
X176364366Y-89199334D01*
X176364366Y-89199334D02*
X176297700Y-89532667D01*
X176331033Y-88366001D02*
X176331033Y-87832668D01*
X176064366Y-86966001D02*
X176764366Y-86966001D01*
X176764366Y-86966001D02*
X176764366Y-86799334D01*
X176764366Y-86799334D02*
X176731033Y-86699334D01*
X176731033Y-86699334D02*
X176664366Y-86632668D01*
X176664366Y-86632668D02*
X176597700Y-86599334D01*
X176597700Y-86599334D02*
X176464366Y-86566001D01*
X176464366Y-86566001D02*
X176364366Y-86566001D01*
X176364366Y-86566001D02*
X176231033Y-86599334D01*
X176231033Y-86599334D02*
X176164366Y-86632668D01*
X176164366Y-86632668D02*
X176097700Y-86699334D01*
X176097700Y-86699334D02*
X176064366Y-86799334D01*
X176064366Y-86799334D02*
X176064366Y-86966001D01*
X176064366Y-85966001D02*
X176431033Y-85966001D01*
X176431033Y-85966001D02*
X176497700Y-85999334D01*
X176497700Y-85999334D02*
X176531033Y-86066001D01*
X176531033Y-86066001D02*
X176531033Y-86199334D01*
X176531033Y-86199334D02*
X176497700Y-86266001D01*
X176097700Y-85966001D02*
X176064366Y-86032668D01*
X176064366Y-86032668D02*
X176064366Y-86199334D01*
X176064366Y-86199334D02*
X176097700Y-86266001D01*
X176097700Y-86266001D02*
X176164366Y-86299334D01*
X176164366Y-86299334D02*
X176231033Y-86299334D01*
X176231033Y-86299334D02*
X176297700Y-86266001D01*
X176297700Y-86266001D02*
X176331033Y-86199334D01*
X176331033Y-86199334D02*
X176331033Y-86032668D01*
X176331033Y-86032668D02*
X176364366Y-85966001D01*
X176531033Y-85699335D02*
X176064366Y-85532668D01*
X176064366Y-85532668D02*
X176531033Y-85366001D01*
X176097700Y-84832668D02*
X176064366Y-84899335D01*
X176064366Y-84899335D02*
X176064366Y-85032668D01*
X176064366Y-85032668D02*
X176097700Y-85099335D01*
X176097700Y-85099335D02*
X176164366Y-85132668D01*
X176164366Y-85132668D02*
X176431033Y-85132668D01*
X176431033Y-85132668D02*
X176497700Y-85099335D01*
X176497700Y-85099335D02*
X176531033Y-85032668D01*
X176531033Y-85032668D02*
X176531033Y-84899335D01*
X176531033Y-84899335D02*
X176497700Y-84832668D01*
X176497700Y-84832668D02*
X176431033Y-84799335D01*
X176431033Y-84799335D02*
X176364366Y-84799335D01*
X176364366Y-84799335D02*
X176297700Y-85132668D01*
X176431033Y-83732669D02*
X176397700Y-83632669D01*
X176397700Y-83632669D02*
X176364366Y-83599335D01*
X176364366Y-83599335D02*
X176297700Y-83566002D01*
X176297700Y-83566002D02*
X176197700Y-83566002D01*
X176197700Y-83566002D02*
X176131033Y-83599335D01*
X176131033Y-83599335D02*
X176097700Y-83632669D01*
X176097700Y-83632669D02*
X176064366Y-83699335D01*
X176064366Y-83699335D02*
X176064366Y-83966002D01*
X176064366Y-83966002D02*
X176764366Y-83966002D01*
X176764366Y-83966002D02*
X176764366Y-83732669D01*
X176764366Y-83732669D02*
X176731033Y-83666002D01*
X176731033Y-83666002D02*
X176697700Y-83632669D01*
X176697700Y-83632669D02*
X176631033Y-83599335D01*
X176631033Y-83599335D02*
X176564366Y-83599335D01*
X176564366Y-83599335D02*
X176497700Y-83632669D01*
X176497700Y-83632669D02*
X176464366Y-83666002D01*
X176464366Y-83666002D02*
X176431033Y-83732669D01*
X176431033Y-83732669D02*
X176431033Y-83966002D01*
X176064366Y-82966002D02*
X176431033Y-82966002D01*
X176431033Y-82966002D02*
X176497700Y-82999335D01*
X176497700Y-82999335D02*
X176531033Y-83066002D01*
X176531033Y-83066002D02*
X176531033Y-83199335D01*
X176531033Y-83199335D02*
X176497700Y-83266002D01*
X176097700Y-82966002D02*
X176064366Y-83032669D01*
X176064366Y-83032669D02*
X176064366Y-83199335D01*
X176064366Y-83199335D02*
X176097700Y-83266002D01*
X176097700Y-83266002D02*
X176164366Y-83299335D01*
X176164366Y-83299335D02*
X176231033Y-83299335D01*
X176231033Y-83299335D02*
X176297700Y-83266002D01*
X176297700Y-83266002D02*
X176331033Y-83199335D01*
X176331033Y-83199335D02*
X176331033Y-83032669D01*
X176331033Y-83032669D02*
X176364366Y-82966002D01*
X176531033Y-82632669D02*
X176064366Y-82632669D01*
X176464366Y-82632669D02*
X176497700Y-82599336D01*
X176497700Y-82599336D02*
X176531033Y-82532669D01*
X176531033Y-82532669D02*
X176531033Y-82432669D01*
X176531033Y-82432669D02*
X176497700Y-82366002D01*
X176497700Y-82366002D02*
X176431033Y-82332669D01*
X176431033Y-82332669D02*
X176064366Y-82332669D01*
X176064366Y-81999336D02*
X176764366Y-81999336D01*
X176331033Y-81932669D02*
X176064366Y-81732669D01*
X176531033Y-81732669D02*
X176264366Y-81999336D01*
X176097700Y-81466002D02*
X176064366Y-81399336D01*
X176064366Y-81399336D02*
X176064366Y-81266002D01*
X176064366Y-81266002D02*
X176097700Y-81199336D01*
X176097700Y-81199336D02*
X176164366Y-81166002D01*
X176164366Y-81166002D02*
X176197700Y-81166002D01*
X176197700Y-81166002D02*
X176264366Y-81199336D01*
X176264366Y-81199336D02*
X176297700Y-81266002D01*
X176297700Y-81266002D02*
X176297700Y-81366002D01*
X176297700Y-81366002D02*
X176331033Y-81432669D01*
X176331033Y-81432669D02*
X176397700Y-81466002D01*
X176397700Y-81466002D02*
X176431033Y-81466002D01*
X176431033Y-81466002D02*
X176497700Y-81432669D01*
X176497700Y-81432669D02*
X176531033Y-81366002D01*
X176531033Y-81366002D02*
X176531033Y-81266002D01*
X176531033Y-81266002D02*
X176497700Y-81199336D01*
X175797700Y-80132669D02*
X175831033Y-80166002D01*
X175831033Y-80166002D02*
X175931033Y-80232669D01*
X175931033Y-80232669D02*
X175997700Y-80266002D01*
X175997700Y-80266002D02*
X176097700Y-80299336D01*
X176097700Y-80299336D02*
X176264366Y-80332669D01*
X176264366Y-80332669D02*
X176397700Y-80332669D01*
X176397700Y-80332669D02*
X176564366Y-80299336D01*
X176564366Y-80299336D02*
X176664366Y-80266002D01*
X176664366Y-80266002D02*
X176731033Y-80232669D01*
X176731033Y-80232669D02*
X176831033Y-80166002D01*
X176831033Y-80166002D02*
X176864366Y-80132669D01*
X176064366Y-79866002D02*
X176764366Y-79866002D01*
X176431033Y-79866002D02*
X176431033Y-79466002D01*
X176064366Y-79466002D02*
X176764366Y-79466002D01*
X176064366Y-79032669D02*
X176097700Y-79099336D01*
X176097700Y-79099336D02*
X176131033Y-79132669D01*
X176131033Y-79132669D02*
X176197700Y-79166002D01*
X176197700Y-79166002D02*
X176397700Y-79166002D01*
X176397700Y-79166002D02*
X176464366Y-79132669D01*
X176464366Y-79132669D02*
X176497700Y-79099336D01*
X176497700Y-79099336D02*
X176531033Y-79032669D01*
X176531033Y-79032669D02*
X176531033Y-78932669D01*
X176531033Y-78932669D02*
X176497700Y-78866002D01*
X176497700Y-78866002D02*
X176464366Y-78832669D01*
X176464366Y-78832669D02*
X176397700Y-78799336D01*
X176397700Y-78799336D02*
X176197700Y-78799336D01*
X176197700Y-78799336D02*
X176131033Y-78832669D01*
X176131033Y-78832669D02*
X176097700Y-78866002D01*
X176097700Y-78866002D02*
X176064366Y-78932669D01*
X176064366Y-78932669D02*
X176064366Y-79032669D01*
X176531033Y-78199336D02*
X175964366Y-78199336D01*
X175964366Y-78199336D02*
X175897700Y-78232669D01*
X175897700Y-78232669D02*
X175864366Y-78266003D01*
X175864366Y-78266003D02*
X175831033Y-78332669D01*
X175831033Y-78332669D02*
X175831033Y-78432669D01*
X175831033Y-78432669D02*
X175864366Y-78499336D01*
X176097700Y-78199336D02*
X176064366Y-78266003D01*
X176064366Y-78266003D02*
X176064366Y-78399336D01*
X176064366Y-78399336D02*
X176097700Y-78466003D01*
X176097700Y-78466003D02*
X176131033Y-78499336D01*
X176131033Y-78499336D02*
X176197700Y-78532669D01*
X176197700Y-78532669D02*
X176397700Y-78532669D01*
X176397700Y-78532669D02*
X176464366Y-78499336D01*
X176464366Y-78499336D02*
X176497700Y-78466003D01*
X176497700Y-78466003D02*
X176531033Y-78399336D01*
X176531033Y-78399336D02*
X176531033Y-78266003D01*
X176531033Y-78266003D02*
X176497700Y-78199336D01*
X176064366Y-77766003D02*
X176097700Y-77832670D01*
X176097700Y-77832670D02*
X176164366Y-77866003D01*
X176164366Y-77866003D02*
X176764366Y-77866003D01*
X176097700Y-77232669D02*
X176064366Y-77299336D01*
X176064366Y-77299336D02*
X176064366Y-77432669D01*
X176064366Y-77432669D02*
X176097700Y-77499336D01*
X176097700Y-77499336D02*
X176164366Y-77532669D01*
X176164366Y-77532669D02*
X176431033Y-77532669D01*
X176431033Y-77532669D02*
X176497700Y-77499336D01*
X176497700Y-77499336D02*
X176531033Y-77432669D01*
X176531033Y-77432669D02*
X176531033Y-77299336D01*
X176531033Y-77299336D02*
X176497700Y-77232669D01*
X176497700Y-77232669D02*
X176431033Y-77199336D01*
X176431033Y-77199336D02*
X176364366Y-77199336D01*
X176364366Y-77199336D02*
X176297700Y-77532669D01*
X176531033Y-76999336D02*
X176531033Y-76732669D01*
X176764366Y-76899336D02*
X176164366Y-76899336D01*
X176164366Y-76899336D02*
X176097700Y-76866003D01*
X176097700Y-76866003D02*
X176064366Y-76799336D01*
X176064366Y-76799336D02*
X176064366Y-76732669D01*
X175797700Y-76566003D02*
X175831033Y-76532669D01*
X175831033Y-76532669D02*
X175931033Y-76466003D01*
X175931033Y-76466003D02*
X175997700Y-76432669D01*
X175997700Y-76432669D02*
X176097700Y-76399336D01*
X176097700Y-76399336D02*
X176264366Y-76366003D01*
X176264366Y-76366003D02*
X176397700Y-76366003D01*
X176397700Y-76366003D02*
X176564366Y-76399336D01*
X176564366Y-76399336D02*
X176664366Y-76432669D01*
X176664366Y-76432669D02*
X176731033Y-76466003D01*
X176731033Y-76466003D02*
X176831033Y-76532669D01*
X176831033Y-76532669D02*
X176864366Y-76566003D01*
X173529700Y-94399333D02*
X173563033Y-94432666D01*
X173563033Y-94432666D02*
X173663033Y-94499333D01*
X173663033Y-94499333D02*
X173729700Y-94532666D01*
X173729700Y-94532666D02*
X173829700Y-94566000D01*
X173829700Y-94566000D02*
X173996366Y-94599333D01*
X173996366Y-94599333D02*
X174129700Y-94599333D01*
X174129700Y-94599333D02*
X174296366Y-94566000D01*
X174296366Y-94566000D02*
X174396366Y-94532666D01*
X174396366Y-94532666D02*
X174463033Y-94499333D01*
X174463033Y-94499333D02*
X174563033Y-94432666D01*
X174563033Y-94432666D02*
X174596366Y-94399333D01*
X173863033Y-93732666D02*
X173829700Y-93765999D01*
X173829700Y-93765999D02*
X173796366Y-93865999D01*
X173796366Y-93865999D02*
X173796366Y-93932666D01*
X173796366Y-93932666D02*
X173829700Y-94032666D01*
X173829700Y-94032666D02*
X173896366Y-94099333D01*
X173896366Y-94099333D02*
X173963033Y-94132666D01*
X173963033Y-94132666D02*
X174096366Y-94165999D01*
X174096366Y-94165999D02*
X174196366Y-94165999D01*
X174196366Y-94165999D02*
X174329700Y-94132666D01*
X174329700Y-94132666D02*
X174396366Y-94099333D01*
X174396366Y-94099333D02*
X174463033Y-94032666D01*
X174463033Y-94032666D02*
X174496366Y-93932666D01*
X174496366Y-93932666D02*
X174496366Y-93865999D01*
X174496366Y-93865999D02*
X174463033Y-93765999D01*
X174463033Y-93765999D02*
X174429700Y-93732666D01*
X173529700Y-93499333D02*
X173563033Y-93465999D01*
X173563033Y-93465999D02*
X173663033Y-93399333D01*
X173663033Y-93399333D02*
X173729700Y-93365999D01*
X173729700Y-93365999D02*
X173829700Y-93332666D01*
X173829700Y-93332666D02*
X173996366Y-93299333D01*
X173996366Y-93299333D02*
X174129700Y-93299333D01*
X174129700Y-93299333D02*
X174296366Y-93332666D01*
X174296366Y-93332666D02*
X174396366Y-93365999D01*
X174396366Y-93365999D02*
X174463033Y-93399333D01*
X174463033Y-93399333D02*
X174563033Y-93465999D01*
X174563033Y-93465999D02*
X174596366Y-93499333D01*
X174429700Y-92465999D02*
X174463033Y-92432666D01*
X174463033Y-92432666D02*
X174496366Y-92365999D01*
X174496366Y-92365999D02*
X174496366Y-92199333D01*
X174496366Y-92199333D02*
X174463033Y-92132666D01*
X174463033Y-92132666D02*
X174429700Y-92099333D01*
X174429700Y-92099333D02*
X174363033Y-92065999D01*
X174363033Y-92065999D02*
X174296366Y-92065999D01*
X174296366Y-92065999D02*
X174196366Y-92099333D01*
X174196366Y-92099333D02*
X173796366Y-92499333D01*
X173796366Y-92499333D02*
X173796366Y-92065999D01*
X174496366Y-91632666D02*
X174496366Y-91565999D01*
X174496366Y-91565999D02*
X174463033Y-91499332D01*
X174463033Y-91499332D02*
X174429700Y-91465999D01*
X174429700Y-91465999D02*
X174363033Y-91432666D01*
X174363033Y-91432666D02*
X174229700Y-91399332D01*
X174229700Y-91399332D02*
X174063033Y-91399332D01*
X174063033Y-91399332D02*
X173929700Y-91432666D01*
X173929700Y-91432666D02*
X173863033Y-91465999D01*
X173863033Y-91465999D02*
X173829700Y-91499332D01*
X173829700Y-91499332D02*
X173796366Y-91565999D01*
X173796366Y-91565999D02*
X173796366Y-91632666D01*
X173796366Y-91632666D02*
X173829700Y-91699332D01*
X173829700Y-91699332D02*
X173863033Y-91732666D01*
X173863033Y-91732666D02*
X173929700Y-91765999D01*
X173929700Y-91765999D02*
X174063033Y-91799332D01*
X174063033Y-91799332D02*
X174229700Y-91799332D01*
X174229700Y-91799332D02*
X174363033Y-91765999D01*
X174363033Y-91765999D02*
X174429700Y-91732666D01*
X174429700Y-91732666D02*
X174463033Y-91699332D01*
X174463033Y-91699332D02*
X174496366Y-91632666D01*
X174429700Y-91132665D02*
X174463033Y-91099332D01*
X174463033Y-91099332D02*
X174496366Y-91032665D01*
X174496366Y-91032665D02*
X174496366Y-90865999D01*
X174496366Y-90865999D02*
X174463033Y-90799332D01*
X174463033Y-90799332D02*
X174429700Y-90765999D01*
X174429700Y-90765999D02*
X174363033Y-90732665D01*
X174363033Y-90732665D02*
X174296366Y-90732665D01*
X174296366Y-90732665D02*
X174196366Y-90765999D01*
X174196366Y-90765999D02*
X173796366Y-91165999D01*
X173796366Y-91165999D02*
X173796366Y-90732665D01*
X174496366Y-90499332D02*
X174496366Y-90065998D01*
X174496366Y-90065998D02*
X174229700Y-90299332D01*
X174229700Y-90299332D02*
X174229700Y-90199332D01*
X174229700Y-90199332D02*
X174196366Y-90132665D01*
X174196366Y-90132665D02*
X174163033Y-90099332D01*
X174163033Y-90099332D02*
X174096366Y-90065998D01*
X174096366Y-90065998D02*
X173929700Y-90065998D01*
X173929700Y-90065998D02*
X173863033Y-90099332D01*
X173863033Y-90099332D02*
X173829700Y-90132665D01*
X173829700Y-90132665D02*
X173796366Y-90199332D01*
X173796366Y-90199332D02*
X173796366Y-90399332D01*
X173796366Y-90399332D02*
X173829700Y-90465998D01*
X173829700Y-90465998D02*
X173863033Y-90499332D01*
X173996366Y-89265998D02*
X173996366Y-88932665D01*
X173796366Y-89332665D02*
X174496366Y-89099332D01*
X174496366Y-89099332D02*
X173796366Y-88865998D01*
X174263033Y-88632665D02*
X173796366Y-88632665D01*
X174196366Y-88632665D02*
X174229700Y-88599332D01*
X174229700Y-88599332D02*
X174263033Y-88532665D01*
X174263033Y-88532665D02*
X174263033Y-88432665D01*
X174263033Y-88432665D02*
X174229700Y-88365998D01*
X174229700Y-88365998D02*
X174163033Y-88332665D01*
X174163033Y-88332665D02*
X173796366Y-88332665D01*
X173796366Y-87699332D02*
X174496366Y-87699332D01*
X173829700Y-87699332D02*
X173796366Y-87765999D01*
X173796366Y-87765999D02*
X173796366Y-87899332D01*
X173796366Y-87899332D02*
X173829700Y-87965999D01*
X173829700Y-87965999D02*
X173863033Y-87999332D01*
X173863033Y-87999332D02*
X173929700Y-88032665D01*
X173929700Y-88032665D02*
X174129700Y-88032665D01*
X174129700Y-88032665D02*
X174196366Y-87999332D01*
X174196366Y-87999332D02*
X174229700Y-87965999D01*
X174229700Y-87965999D02*
X174263033Y-87899332D01*
X174263033Y-87899332D02*
X174263033Y-87765999D01*
X174263033Y-87765999D02*
X174229700Y-87699332D01*
X174263033Y-87432666D02*
X173796366Y-87265999D01*
X174263033Y-87099332D02*
X173796366Y-87265999D01*
X173796366Y-87265999D02*
X173629700Y-87332666D01*
X173629700Y-87332666D02*
X173596366Y-87365999D01*
X173596366Y-87365999D02*
X173563033Y-87432666D01*
X174163033Y-86066000D02*
X174129700Y-85966000D01*
X174129700Y-85966000D02*
X174096366Y-85932666D01*
X174096366Y-85932666D02*
X174029700Y-85899333D01*
X174029700Y-85899333D02*
X173929700Y-85899333D01*
X173929700Y-85899333D02*
X173863033Y-85932666D01*
X173863033Y-85932666D02*
X173829700Y-85966000D01*
X173829700Y-85966000D02*
X173796366Y-86032666D01*
X173796366Y-86032666D02*
X173796366Y-86299333D01*
X173796366Y-86299333D02*
X174496366Y-86299333D01*
X174496366Y-86299333D02*
X174496366Y-86066000D01*
X174496366Y-86066000D02*
X174463033Y-85999333D01*
X174463033Y-85999333D02*
X174429700Y-85966000D01*
X174429700Y-85966000D02*
X174363033Y-85932666D01*
X174363033Y-85932666D02*
X174296366Y-85932666D01*
X174296366Y-85932666D02*
X174229700Y-85966000D01*
X174229700Y-85966000D02*
X174196366Y-85999333D01*
X174196366Y-85999333D02*
X174163033Y-86066000D01*
X174163033Y-86066000D02*
X174163033Y-86299333D01*
X174263033Y-85299333D02*
X173796366Y-85299333D01*
X174263033Y-85599333D02*
X173896366Y-85599333D01*
X173896366Y-85599333D02*
X173829700Y-85566000D01*
X173829700Y-85566000D02*
X173796366Y-85499333D01*
X173796366Y-85499333D02*
X173796366Y-85399333D01*
X173796366Y-85399333D02*
X173829700Y-85332666D01*
X173829700Y-85332666D02*
X173863033Y-85299333D01*
X173796366Y-84966000D02*
X174263033Y-84966000D01*
X174129700Y-84966000D02*
X174196366Y-84932667D01*
X174196366Y-84932667D02*
X174229700Y-84899333D01*
X174229700Y-84899333D02*
X174263033Y-84832667D01*
X174263033Y-84832667D02*
X174263033Y-84766000D01*
X174263033Y-84232667D02*
X173696366Y-84232667D01*
X173696366Y-84232667D02*
X173629700Y-84266000D01*
X173629700Y-84266000D02*
X173596366Y-84299334D01*
X173596366Y-84299334D02*
X173563033Y-84366000D01*
X173563033Y-84366000D02*
X173563033Y-84466000D01*
X173563033Y-84466000D02*
X173596366Y-84532667D01*
X173829700Y-84232667D02*
X173796366Y-84299334D01*
X173796366Y-84299334D02*
X173796366Y-84432667D01*
X173796366Y-84432667D02*
X173829700Y-84499334D01*
X173829700Y-84499334D02*
X173863033Y-84532667D01*
X173863033Y-84532667D02*
X173929700Y-84566000D01*
X173929700Y-84566000D02*
X174129700Y-84566000D01*
X174129700Y-84566000D02*
X174196366Y-84532667D01*
X174196366Y-84532667D02*
X174229700Y-84499334D01*
X174229700Y-84499334D02*
X174263033Y-84432667D01*
X174263033Y-84432667D02*
X174263033Y-84299334D01*
X174263033Y-84299334D02*
X174229700Y-84232667D01*
X173829700Y-83632667D02*
X173796366Y-83699334D01*
X173796366Y-83699334D02*
X173796366Y-83832667D01*
X173796366Y-83832667D02*
X173829700Y-83899334D01*
X173829700Y-83899334D02*
X173896366Y-83932667D01*
X173896366Y-83932667D02*
X174163033Y-83932667D01*
X174163033Y-83932667D02*
X174229700Y-83899334D01*
X174229700Y-83899334D02*
X174263033Y-83832667D01*
X174263033Y-83832667D02*
X174263033Y-83699334D01*
X174263033Y-83699334D02*
X174229700Y-83632667D01*
X174229700Y-83632667D02*
X174163033Y-83599334D01*
X174163033Y-83599334D02*
X174096366Y-83599334D01*
X174096366Y-83599334D02*
X174029700Y-83932667D01*
X173829700Y-83332667D02*
X173796366Y-83266001D01*
X173796366Y-83266001D02*
X173796366Y-83132667D01*
X173796366Y-83132667D02*
X173829700Y-83066001D01*
X173829700Y-83066001D02*
X173896366Y-83032667D01*
X173896366Y-83032667D02*
X173929700Y-83032667D01*
X173929700Y-83032667D02*
X173996366Y-83066001D01*
X173996366Y-83066001D02*
X174029700Y-83132667D01*
X174029700Y-83132667D02*
X174029700Y-83232667D01*
X174029700Y-83232667D02*
X174063033Y-83299334D01*
X174063033Y-83299334D02*
X174129700Y-83332667D01*
X174129700Y-83332667D02*
X174163033Y-83332667D01*
X174163033Y-83332667D02*
X174229700Y-83299334D01*
X174229700Y-83299334D02*
X174263033Y-83232667D01*
X174263033Y-83232667D02*
X174263033Y-83132667D01*
X174263033Y-83132667D02*
X174229700Y-83066001D01*
X173829700Y-82766000D02*
X173796366Y-82699334D01*
X173796366Y-82699334D02*
X173796366Y-82566000D01*
X173796366Y-82566000D02*
X173829700Y-82499334D01*
X173829700Y-82499334D02*
X173896366Y-82466000D01*
X173896366Y-82466000D02*
X173929700Y-82466000D01*
X173929700Y-82466000D02*
X173996366Y-82499334D01*
X173996366Y-82499334D02*
X174029700Y-82566000D01*
X174029700Y-82566000D02*
X174029700Y-82666000D01*
X174029700Y-82666000D02*
X174063033Y-82732667D01*
X174063033Y-82732667D02*
X174129700Y-82766000D01*
X174129700Y-82766000D02*
X174163033Y-82766000D01*
X174163033Y-82766000D02*
X174229700Y-82732667D01*
X174229700Y-82732667D02*
X174263033Y-82666000D01*
X174263033Y-82666000D02*
X174263033Y-82566000D01*
X174263033Y-82566000D02*
X174229700Y-82499334D01*
D11*
X133677708Y-74575247D02*
X134439613Y-74289533D01*
X134439613Y-74289533D02*
X133677708Y-74003819D01*
D12*
X147449777Y-115863720D02*
X147497396Y-115911340D01*
X147497396Y-115911340D02*
X147640253Y-115958959D01*
X147640253Y-115958959D02*
X147735491Y-115958959D01*
X147735491Y-115958959D02*
X147878348Y-115911340D01*
X147878348Y-115911340D02*
X147973586Y-115816101D01*
X147973586Y-115816101D02*
X148021205Y-115720863D01*
X148021205Y-115720863D02*
X148068824Y-115530387D01*
X148068824Y-115530387D02*
X148068824Y-115387530D01*
X148068824Y-115387530D02*
X148021205Y-115197054D01*
X148021205Y-115197054D02*
X147973586Y-115101816D01*
X147973586Y-115101816D02*
X147878348Y-115006578D01*
X147878348Y-115006578D02*
X147735491Y-114958959D01*
X147735491Y-114958959D02*
X147640253Y-114958959D01*
X147640253Y-114958959D02*
X147497396Y-115006578D01*
X147497396Y-115006578D02*
X147449777Y-115054197D01*
X146497396Y-115958959D02*
X147068824Y-115958959D01*
X146783110Y-115958959D02*
X146783110Y-114958959D01*
X146783110Y-114958959D02*
X146878348Y-115101816D01*
X146878348Y-115101816D02*
X146973586Y-115197054D01*
X146973586Y-115197054D02*
X147068824Y-115244673D01*
X146164062Y-114958959D02*
X145497396Y-114958959D01*
X145497396Y-114958959D02*
X145925967Y-115958959D01*
X162547537Y-101789580D02*
X162595156Y-101837200D01*
X162595156Y-101837200D02*
X162738013Y-101884819D01*
X162738013Y-101884819D02*
X162833251Y-101884819D01*
X162833251Y-101884819D02*
X162976108Y-101837200D01*
X162976108Y-101837200D02*
X163071346Y-101741961D01*
X163071346Y-101741961D02*
X163118965Y-101646723D01*
X163118965Y-101646723D02*
X163166584Y-101456247D01*
X163166584Y-101456247D02*
X163166584Y-101313390D01*
X163166584Y-101313390D02*
X163118965Y-101122914D01*
X163118965Y-101122914D02*
X163071346Y-101027676D01*
X163071346Y-101027676D02*
X162976108Y-100932438D01*
X162976108Y-100932438D02*
X162833251Y-100884819D01*
X162833251Y-100884819D02*
X162738013Y-100884819D01*
X162738013Y-100884819D02*
X162595156Y-100932438D01*
X162595156Y-100932438D02*
X162547537Y-100980057D01*
X162214203Y-100884819D02*
X161595156Y-100884819D01*
X161595156Y-100884819D02*
X161928489Y-101265771D01*
X161928489Y-101265771D02*
X161785632Y-101265771D01*
X161785632Y-101265771D02*
X161690394Y-101313390D01*
X161690394Y-101313390D02*
X161642775Y-101361009D01*
X161642775Y-101361009D02*
X161595156Y-101456247D01*
X161595156Y-101456247D02*
X161595156Y-101694342D01*
X161595156Y-101694342D02*
X161642775Y-101789580D01*
X161642775Y-101789580D02*
X161690394Y-101837200D01*
X161690394Y-101837200D02*
X161785632Y-101884819D01*
X161785632Y-101884819D02*
X162071346Y-101884819D01*
X162071346Y-101884819D02*
X162166584Y-101837200D01*
X162166584Y-101837200D02*
X162214203Y-101789580D01*
X160976108Y-100884819D02*
X160880870Y-100884819D01*
X160880870Y-100884819D02*
X160785632Y-100932438D01*
X160785632Y-100932438D02*
X160738013Y-100980057D01*
X160738013Y-100980057D02*
X160690394Y-101075295D01*
X160690394Y-101075295D02*
X160642775Y-101265771D01*
X160642775Y-101265771D02*
X160642775Y-101503866D01*
X160642775Y-101503866D02*
X160690394Y-101694342D01*
X160690394Y-101694342D02*
X160738013Y-101789580D01*
X160738013Y-101789580D02*
X160785632Y-101837200D01*
X160785632Y-101837200D02*
X160880870Y-101884819D01*
X160880870Y-101884819D02*
X160976108Y-101884819D01*
X160976108Y-101884819D02*
X161071346Y-101837200D01*
X161071346Y-101837200D02*
X161118965Y-101789580D01*
X161118965Y-101789580D02*
X161166584Y-101694342D01*
X161166584Y-101694342D02*
X161214203Y-101503866D01*
X161214203Y-101503866D02*
X161214203Y-101265771D01*
X161214203Y-101265771D02*
X161166584Y-101075295D01*
X161166584Y-101075295D02*
X161118965Y-100980057D01*
X161118965Y-100980057D02*
X161071346Y-100932438D01*
X161071346Y-100932438D02*
X160976108Y-100884819D01*
X154137506Y-104470540D02*
X154185125Y-104518160D01*
X154185125Y-104518160D02*
X154327982Y-104565779D01*
X154327982Y-104565779D02*
X154423220Y-104565779D01*
X154423220Y-104565779D02*
X154566077Y-104518160D01*
X154566077Y-104518160D02*
X154661315Y-104422921D01*
X154661315Y-104422921D02*
X154708934Y-104327683D01*
X154708934Y-104327683D02*
X154756553Y-104137207D01*
X154756553Y-104137207D02*
X154756553Y-103994350D01*
X154756553Y-103994350D02*
X154708934Y-103803874D01*
X154708934Y-103803874D02*
X154661315Y-103708636D01*
X154661315Y-103708636D02*
X154566077Y-103613398D01*
X154566077Y-103613398D02*
X154423220Y-103565779D01*
X154423220Y-103565779D02*
X154327982Y-103565779D01*
X154327982Y-103565779D02*
X154185125Y-103613398D01*
X154185125Y-103613398D02*
X154137506Y-103661017D01*
X153756553Y-103661017D02*
X153708934Y-103613398D01*
X153708934Y-103613398D02*
X153613696Y-103565779D01*
X153613696Y-103565779D02*
X153375601Y-103565779D01*
X153375601Y-103565779D02*
X153280363Y-103613398D01*
X153280363Y-103613398D02*
X153232744Y-103661017D01*
X153232744Y-103661017D02*
X153185125Y-103756255D01*
X153185125Y-103756255D02*
X153185125Y-103851493D01*
X153185125Y-103851493D02*
X153232744Y-103994350D01*
X153232744Y-103994350D02*
X153804172Y-104565779D01*
X153804172Y-104565779D02*
X153185125Y-104565779D01*
X146870657Y-103013860D02*
X146918276Y-103061480D01*
X146918276Y-103061480D02*
X147061133Y-103109099D01*
X147061133Y-103109099D02*
X147156371Y-103109099D01*
X147156371Y-103109099D02*
X147299228Y-103061480D01*
X147299228Y-103061480D02*
X147394466Y-102966241D01*
X147394466Y-102966241D02*
X147442085Y-102871003D01*
X147442085Y-102871003D02*
X147489704Y-102680527D01*
X147489704Y-102680527D02*
X147489704Y-102537670D01*
X147489704Y-102537670D02*
X147442085Y-102347194D01*
X147442085Y-102347194D02*
X147394466Y-102251956D01*
X147394466Y-102251956D02*
X147299228Y-102156718D01*
X147299228Y-102156718D02*
X147156371Y-102109099D01*
X147156371Y-102109099D02*
X147061133Y-102109099D01*
X147061133Y-102109099D02*
X146918276Y-102156718D01*
X146918276Y-102156718D02*
X146870657Y-102204337D01*
X145918276Y-103109099D02*
X146489704Y-103109099D01*
X146203990Y-103109099D02*
X146203990Y-102109099D01*
X146203990Y-102109099D02*
X146299228Y-102251956D01*
X146299228Y-102251956D02*
X146394466Y-102347194D01*
X146394466Y-102347194D02*
X146489704Y-102394813D01*
X145061133Y-102442432D02*
X145061133Y-103109099D01*
X145299228Y-102061480D02*
X145537323Y-102775765D01*
X145537323Y-102775765D02*
X144918276Y-102775765D01*
X160660057Y-110948380D02*
X160707676Y-110996000D01*
X160707676Y-110996000D02*
X160850533Y-111043619D01*
X160850533Y-111043619D02*
X160945771Y-111043619D01*
X160945771Y-111043619D02*
X161088628Y-110996000D01*
X161088628Y-110996000D02*
X161183866Y-110900761D01*
X161183866Y-110900761D02*
X161231485Y-110805523D01*
X161231485Y-110805523D02*
X161279104Y-110615047D01*
X161279104Y-110615047D02*
X161279104Y-110472190D01*
X161279104Y-110472190D02*
X161231485Y-110281714D01*
X161231485Y-110281714D02*
X161183866Y-110186476D01*
X161183866Y-110186476D02*
X161088628Y-110091238D01*
X161088628Y-110091238D02*
X160945771Y-110043619D01*
X160945771Y-110043619D02*
X160850533Y-110043619D01*
X160850533Y-110043619D02*
X160707676Y-110091238D01*
X160707676Y-110091238D02*
X160660057Y-110138857D01*
X159707676Y-111043619D02*
X160279104Y-111043619D01*
X159993390Y-111043619D02*
X159993390Y-110043619D01*
X159993390Y-110043619D02*
X160088628Y-110186476D01*
X160088628Y-110186476D02*
X160183866Y-110281714D01*
X160183866Y-110281714D02*
X160279104Y-110329333D01*
X158802914Y-110043619D02*
X159279104Y-110043619D01*
X159279104Y-110043619D02*
X159326723Y-110519809D01*
X159326723Y-110519809D02*
X159279104Y-110472190D01*
X159279104Y-110472190D02*
X159183866Y-110424571D01*
X159183866Y-110424571D02*
X158945771Y-110424571D01*
X158945771Y-110424571D02*
X158850533Y-110472190D01*
X158850533Y-110472190D02*
X158802914Y-110519809D01*
X158802914Y-110519809D02*
X158755295Y-110615047D01*
X158755295Y-110615047D02*
X158755295Y-110853142D01*
X158755295Y-110853142D02*
X158802914Y-110948380D01*
X158802914Y-110948380D02*
X158850533Y-110996000D01*
X158850533Y-110996000D02*
X158945771Y-111043619D01*
X158945771Y-111043619D02*
X159183866Y-111043619D01*
X159183866Y-111043619D02*
X159279104Y-110996000D01*
X159279104Y-110996000D02*
X159326723Y-110948380D01*
X170599866Y-98605380D02*
X170647485Y-98653000D01*
X170647485Y-98653000D02*
X170790342Y-98700619D01*
X170790342Y-98700619D02*
X170885580Y-98700619D01*
X170885580Y-98700619D02*
X171028437Y-98653000D01*
X171028437Y-98653000D02*
X171123675Y-98557761D01*
X171123675Y-98557761D02*
X171171294Y-98462523D01*
X171171294Y-98462523D02*
X171218913Y-98272047D01*
X171218913Y-98272047D02*
X171218913Y-98129190D01*
X171218913Y-98129190D02*
X171171294Y-97938714D01*
X171171294Y-97938714D02*
X171123675Y-97843476D01*
X171123675Y-97843476D02*
X171028437Y-97748238D01*
X171028437Y-97748238D02*
X170885580Y-97700619D01*
X170885580Y-97700619D02*
X170790342Y-97700619D01*
X170790342Y-97700619D02*
X170647485Y-97748238D01*
X170647485Y-97748238D02*
X170599866Y-97795857D01*
X169647485Y-98700619D02*
X170218913Y-98700619D01*
X169933199Y-98700619D02*
X169933199Y-97700619D01*
X169933199Y-97700619D02*
X170028437Y-97843476D01*
X170028437Y-97843476D02*
X170123675Y-97938714D01*
X170123675Y-97938714D02*
X170218913Y-97986333D01*
X153513866Y-102158380D02*
X153561485Y-102206000D01*
X153561485Y-102206000D02*
X153704342Y-102253619D01*
X153704342Y-102253619D02*
X153799580Y-102253619D01*
X153799580Y-102253619D02*
X153942437Y-102206000D01*
X153942437Y-102206000D02*
X154037675Y-102110761D01*
X154037675Y-102110761D02*
X154085294Y-102015523D01*
X154085294Y-102015523D02*
X154132913Y-101825047D01*
X154132913Y-101825047D02*
X154132913Y-101682190D01*
X154132913Y-101682190D02*
X154085294Y-101491714D01*
X154085294Y-101491714D02*
X154037675Y-101396476D01*
X154037675Y-101396476D02*
X153942437Y-101301238D01*
X153942437Y-101301238D02*
X153799580Y-101253619D01*
X153799580Y-101253619D02*
X153704342Y-101253619D01*
X153704342Y-101253619D02*
X153561485Y-101301238D01*
X153561485Y-101301238D02*
X153513866Y-101348857D01*
X152609104Y-101253619D02*
X153085294Y-101253619D01*
X153085294Y-101253619D02*
X153132913Y-101729809D01*
X153132913Y-101729809D02*
X153085294Y-101682190D01*
X153085294Y-101682190D02*
X152990056Y-101634571D01*
X152990056Y-101634571D02*
X152751961Y-101634571D01*
X152751961Y-101634571D02*
X152656723Y-101682190D01*
X152656723Y-101682190D02*
X152609104Y-101729809D01*
X152609104Y-101729809D02*
X152561485Y-101825047D01*
X152561485Y-101825047D02*
X152561485Y-102063142D01*
X152561485Y-102063142D02*
X152609104Y-102158380D01*
X152609104Y-102158380D02*
X152656723Y-102206000D01*
X152656723Y-102206000D02*
X152751961Y-102253619D01*
X152751961Y-102253619D02*
X152990056Y-102253619D01*
X152990056Y-102253619D02*
X153085294Y-102206000D01*
X153085294Y-102206000D02*
X153132913Y-102158380D01*
X145488866Y-91274940D02*
X145536485Y-91322560D01*
X145536485Y-91322560D02*
X145679342Y-91370179D01*
X145679342Y-91370179D02*
X145774580Y-91370179D01*
X145774580Y-91370179D02*
X145917437Y-91322560D01*
X145917437Y-91322560D02*
X146012675Y-91227321D01*
X146012675Y-91227321D02*
X146060294Y-91132083D01*
X146060294Y-91132083D02*
X146107913Y-90941607D01*
X146107913Y-90941607D02*
X146107913Y-90798750D01*
X146107913Y-90798750D02*
X146060294Y-90608274D01*
X146060294Y-90608274D02*
X146012675Y-90513036D01*
X146012675Y-90513036D02*
X145917437Y-90417798D01*
X145917437Y-90417798D02*
X145774580Y-90370179D01*
X145774580Y-90370179D02*
X145679342Y-90370179D01*
X145679342Y-90370179D02*
X145536485Y-90417798D01*
X145536485Y-90417798D02*
X145488866Y-90465417D01*
X145155532Y-90370179D02*
X144488866Y-90370179D01*
X144488866Y-90370179D02*
X144917437Y-91370179D01*
X156083866Y-115798380D02*
X156131485Y-115846000D01*
X156131485Y-115846000D02*
X156274342Y-115893619D01*
X156274342Y-115893619D02*
X156369580Y-115893619D01*
X156369580Y-115893619D02*
X156512437Y-115846000D01*
X156512437Y-115846000D02*
X156607675Y-115750761D01*
X156607675Y-115750761D02*
X156655294Y-115655523D01*
X156655294Y-115655523D02*
X156702913Y-115465047D01*
X156702913Y-115465047D02*
X156702913Y-115322190D01*
X156702913Y-115322190D02*
X156655294Y-115131714D01*
X156655294Y-115131714D02*
X156607675Y-115036476D01*
X156607675Y-115036476D02*
X156512437Y-114941238D01*
X156512437Y-114941238D02*
X156369580Y-114893619D01*
X156369580Y-114893619D02*
X156274342Y-114893619D01*
X156274342Y-114893619D02*
X156131485Y-114941238D01*
X156131485Y-114941238D02*
X156083866Y-114988857D01*
X155750532Y-114893619D02*
X155131485Y-114893619D01*
X155131485Y-114893619D02*
X155464818Y-115274571D01*
X155464818Y-115274571D02*
X155321961Y-115274571D01*
X155321961Y-115274571D02*
X155226723Y-115322190D01*
X155226723Y-115322190D02*
X155179104Y-115369809D01*
X155179104Y-115369809D02*
X155131485Y-115465047D01*
X155131485Y-115465047D02*
X155131485Y-115703142D01*
X155131485Y-115703142D02*
X155179104Y-115798380D01*
X155179104Y-115798380D02*
X155226723Y-115846000D01*
X155226723Y-115846000D02*
X155321961Y-115893619D01*
X155321961Y-115893619D02*
X155607675Y-115893619D01*
X155607675Y-115893619D02*
X155702913Y-115846000D01*
X155702913Y-115846000D02*
X155750532Y-115798380D01*
X151913866Y-110668380D02*
X151961485Y-110716000D01*
X151961485Y-110716000D02*
X152104342Y-110763619D01*
X152104342Y-110763619D02*
X152199580Y-110763619D01*
X152199580Y-110763619D02*
X152342437Y-110716000D01*
X152342437Y-110716000D02*
X152437675Y-110620761D01*
X152437675Y-110620761D02*
X152485294Y-110525523D01*
X152485294Y-110525523D02*
X152532913Y-110335047D01*
X152532913Y-110335047D02*
X152532913Y-110192190D01*
X152532913Y-110192190D02*
X152485294Y-110001714D01*
X152485294Y-110001714D02*
X152437675Y-109906476D01*
X152437675Y-109906476D02*
X152342437Y-109811238D01*
X152342437Y-109811238D02*
X152199580Y-109763619D01*
X152199580Y-109763619D02*
X152104342Y-109763619D01*
X152104342Y-109763619D02*
X151961485Y-109811238D01*
X151961485Y-109811238D02*
X151913866Y-109858857D01*
X151437675Y-110763619D02*
X151247199Y-110763619D01*
X151247199Y-110763619D02*
X151151961Y-110716000D01*
X151151961Y-110716000D02*
X151104342Y-110668380D01*
X151104342Y-110668380D02*
X151009104Y-110525523D01*
X151009104Y-110525523D02*
X150961485Y-110335047D01*
X150961485Y-110335047D02*
X150961485Y-109954095D01*
X150961485Y-109954095D02*
X151009104Y-109858857D01*
X151009104Y-109858857D02*
X151056723Y-109811238D01*
X151056723Y-109811238D02*
X151151961Y-109763619D01*
X151151961Y-109763619D02*
X151342437Y-109763619D01*
X151342437Y-109763619D02*
X151437675Y-109811238D01*
X151437675Y-109811238D02*
X151485294Y-109858857D01*
X151485294Y-109858857D02*
X151532913Y-109954095D01*
X151532913Y-109954095D02*
X151532913Y-110192190D01*
X151532913Y-110192190D02*
X151485294Y-110287428D01*
X151485294Y-110287428D02*
X151437675Y-110335047D01*
X151437675Y-110335047D02*
X151342437Y-110382666D01*
X151342437Y-110382666D02*
X151151961Y-110382666D01*
X151151961Y-110382666D02*
X151056723Y-110335047D01*
X151056723Y-110335047D02*
X151009104Y-110287428D01*
X151009104Y-110287428D02*
X150961485Y-110192190D01*
X162157706Y-63575280D02*
X162205325Y-63622900D01*
X162205325Y-63622900D02*
X162348182Y-63670519D01*
X162348182Y-63670519D02*
X162443420Y-63670519D01*
X162443420Y-63670519D02*
X162586277Y-63622900D01*
X162586277Y-63622900D02*
X162681515Y-63527661D01*
X162681515Y-63527661D02*
X162729134Y-63432423D01*
X162729134Y-63432423D02*
X162776753Y-63241947D01*
X162776753Y-63241947D02*
X162776753Y-63099090D01*
X162776753Y-63099090D02*
X162729134Y-62908614D01*
X162729134Y-62908614D02*
X162681515Y-62813376D01*
X162681515Y-62813376D02*
X162586277Y-62718138D01*
X162586277Y-62718138D02*
X162443420Y-62670519D01*
X162443420Y-62670519D02*
X162348182Y-62670519D01*
X162348182Y-62670519D02*
X162205325Y-62718138D01*
X162205325Y-62718138D02*
X162157706Y-62765757D01*
X161300563Y-63003852D02*
X161300563Y-63670519D01*
X161538658Y-62622900D02*
X161776753Y-63337185D01*
X161776753Y-63337185D02*
X161157706Y-63337185D01*
X161677646Y-73933420D02*
X161725265Y-73981040D01*
X161725265Y-73981040D02*
X161868122Y-74028659D01*
X161868122Y-74028659D02*
X161963360Y-74028659D01*
X161963360Y-74028659D02*
X162106217Y-73981040D01*
X162106217Y-73981040D02*
X162201455Y-73885801D01*
X162201455Y-73885801D02*
X162249074Y-73790563D01*
X162249074Y-73790563D02*
X162296693Y-73600087D01*
X162296693Y-73600087D02*
X162296693Y-73457230D01*
X162296693Y-73457230D02*
X162249074Y-73266754D01*
X162249074Y-73266754D02*
X162201455Y-73171516D01*
X162201455Y-73171516D02*
X162106217Y-73076278D01*
X162106217Y-73076278D02*
X161963360Y-73028659D01*
X161963360Y-73028659D02*
X161868122Y-73028659D01*
X161868122Y-73028659D02*
X161725265Y-73076278D01*
X161725265Y-73076278D02*
X161677646Y-73123897D01*
X160820503Y-73028659D02*
X161010979Y-73028659D01*
X161010979Y-73028659D02*
X161106217Y-73076278D01*
X161106217Y-73076278D02*
X161153836Y-73123897D01*
X161153836Y-73123897D02*
X161249074Y-73266754D01*
X161249074Y-73266754D02*
X161296693Y-73457230D01*
X161296693Y-73457230D02*
X161296693Y-73838182D01*
X161296693Y-73838182D02*
X161249074Y-73933420D01*
X161249074Y-73933420D02*
X161201455Y-73981040D01*
X161201455Y-73981040D02*
X161106217Y-74028659D01*
X161106217Y-74028659D02*
X160915741Y-74028659D01*
X160915741Y-74028659D02*
X160820503Y-73981040D01*
X160820503Y-73981040D02*
X160772884Y-73933420D01*
X160772884Y-73933420D02*
X160725265Y-73838182D01*
X160725265Y-73838182D02*
X160725265Y-73600087D01*
X160725265Y-73600087D02*
X160772884Y-73504849D01*
X160772884Y-73504849D02*
X160820503Y-73457230D01*
X160820503Y-73457230D02*
X160915741Y-73409611D01*
X160915741Y-73409611D02*
X161106217Y-73409611D01*
X161106217Y-73409611D02*
X161201455Y-73457230D01*
X161201455Y-73457230D02*
X161249074Y-73504849D01*
X161249074Y-73504849D02*
X161296693Y-73600087D01*
X153808780Y-59650333D02*
X153856400Y-59602714D01*
X153856400Y-59602714D02*
X153904019Y-59459857D01*
X153904019Y-59459857D02*
X153904019Y-59364619D01*
X153904019Y-59364619D02*
X153856400Y-59221762D01*
X153856400Y-59221762D02*
X153761161Y-59126524D01*
X153761161Y-59126524D02*
X153665923Y-59078905D01*
X153665923Y-59078905D02*
X153475447Y-59031286D01*
X153475447Y-59031286D02*
X153332590Y-59031286D01*
X153332590Y-59031286D02*
X153142114Y-59078905D01*
X153142114Y-59078905D02*
X153046876Y-59126524D01*
X153046876Y-59126524D02*
X152951638Y-59221762D01*
X152951638Y-59221762D02*
X152904019Y-59364619D01*
X152904019Y-59364619D02*
X152904019Y-59459857D01*
X152904019Y-59459857D02*
X152951638Y-59602714D01*
X152951638Y-59602714D02*
X152999257Y-59650333D01*
X153332590Y-60221762D02*
X153284971Y-60126524D01*
X153284971Y-60126524D02*
X153237352Y-60078905D01*
X153237352Y-60078905D02*
X153142114Y-60031286D01*
X153142114Y-60031286D02*
X153094495Y-60031286D01*
X153094495Y-60031286D02*
X152999257Y-60078905D01*
X152999257Y-60078905D02*
X152951638Y-60126524D01*
X152951638Y-60126524D02*
X152904019Y-60221762D01*
X152904019Y-60221762D02*
X152904019Y-60412238D01*
X152904019Y-60412238D02*
X152951638Y-60507476D01*
X152951638Y-60507476D02*
X152999257Y-60555095D01*
X152999257Y-60555095D02*
X153094495Y-60602714D01*
X153094495Y-60602714D02*
X153142114Y-60602714D01*
X153142114Y-60602714D02*
X153237352Y-60555095D01*
X153237352Y-60555095D02*
X153284971Y-60507476D01*
X153284971Y-60507476D02*
X153332590Y-60412238D01*
X153332590Y-60412238D02*
X153332590Y-60221762D01*
X153332590Y-60221762D02*
X153380209Y-60126524D01*
X153380209Y-60126524D02*
X153427828Y-60078905D01*
X153427828Y-60078905D02*
X153523066Y-60031286D01*
X153523066Y-60031286D02*
X153713542Y-60031286D01*
X153713542Y-60031286D02*
X153808780Y-60078905D01*
X153808780Y-60078905D02*
X153856400Y-60126524D01*
X153856400Y-60126524D02*
X153904019Y-60221762D01*
X153904019Y-60221762D02*
X153904019Y-60412238D01*
X153904019Y-60412238D02*
X153856400Y-60507476D01*
X153856400Y-60507476D02*
X153808780Y-60555095D01*
X153808780Y-60555095D02*
X153713542Y-60602714D01*
X153713542Y-60602714D02*
X153523066Y-60602714D01*
X153523066Y-60602714D02*
X153427828Y-60555095D01*
X153427828Y-60555095D02*
X153380209Y-60507476D01*
X153380209Y-60507476D02*
X153332590Y-60412238D01*
X162981057Y-78502380D02*
X163028676Y-78550000D01*
X163028676Y-78550000D02*
X163171533Y-78597619D01*
X163171533Y-78597619D02*
X163266771Y-78597619D01*
X163266771Y-78597619D02*
X163409628Y-78550000D01*
X163409628Y-78550000D02*
X163504866Y-78454761D01*
X163504866Y-78454761D02*
X163552485Y-78359523D01*
X163552485Y-78359523D02*
X163600104Y-78169047D01*
X163600104Y-78169047D02*
X163600104Y-78026190D01*
X163600104Y-78026190D02*
X163552485Y-77835714D01*
X163552485Y-77835714D02*
X163504866Y-77740476D01*
X163504866Y-77740476D02*
X163409628Y-77645238D01*
X163409628Y-77645238D02*
X163266771Y-77597619D01*
X163266771Y-77597619D02*
X163171533Y-77597619D01*
X163171533Y-77597619D02*
X163028676Y-77645238D01*
X163028676Y-77645238D02*
X162981057Y-77692857D01*
X162028676Y-78597619D02*
X162600104Y-78597619D01*
X162314390Y-78597619D02*
X162314390Y-77597619D01*
X162314390Y-77597619D02*
X162409628Y-77740476D01*
X162409628Y-77740476D02*
X162504866Y-77835714D01*
X162504866Y-77835714D02*
X162600104Y-77883333D01*
X161695342Y-77597619D02*
X161076295Y-77597619D01*
X161076295Y-77597619D02*
X161409628Y-77978571D01*
X161409628Y-77978571D02*
X161266771Y-77978571D01*
X161266771Y-77978571D02*
X161171533Y-78026190D01*
X161171533Y-78026190D02*
X161123914Y-78073809D01*
X161123914Y-78073809D02*
X161076295Y-78169047D01*
X161076295Y-78169047D02*
X161076295Y-78407142D01*
X161076295Y-78407142D02*
X161123914Y-78502380D01*
X161123914Y-78502380D02*
X161171533Y-78550000D01*
X161171533Y-78550000D02*
X161266771Y-78597619D01*
X161266771Y-78597619D02*
X161552485Y-78597619D01*
X161552485Y-78597619D02*
X161647723Y-78550000D01*
X161647723Y-78550000D02*
X161695342Y-78502380D01*
X148064457Y-60616180D02*
X148112076Y-60663800D01*
X148112076Y-60663800D02*
X148254933Y-60711419D01*
X148254933Y-60711419D02*
X148350171Y-60711419D01*
X148350171Y-60711419D02*
X148493028Y-60663800D01*
X148493028Y-60663800D02*
X148588266Y-60568561D01*
X148588266Y-60568561D02*
X148635885Y-60473323D01*
X148635885Y-60473323D02*
X148683504Y-60282847D01*
X148683504Y-60282847D02*
X148683504Y-60139990D01*
X148683504Y-60139990D02*
X148635885Y-59949514D01*
X148635885Y-59949514D02*
X148588266Y-59854276D01*
X148588266Y-59854276D02*
X148493028Y-59759038D01*
X148493028Y-59759038D02*
X148350171Y-59711419D01*
X148350171Y-59711419D02*
X148254933Y-59711419D01*
X148254933Y-59711419D02*
X148112076Y-59759038D01*
X148112076Y-59759038D02*
X148064457Y-59806657D01*
X147112076Y-60711419D02*
X147683504Y-60711419D01*
X147397790Y-60711419D02*
X147397790Y-59711419D01*
X147397790Y-59711419D02*
X147493028Y-59854276D01*
X147493028Y-59854276D02*
X147588266Y-59949514D01*
X147588266Y-59949514D02*
X147683504Y-59997133D01*
X146635885Y-60711419D02*
X146445409Y-60711419D01*
X146445409Y-60711419D02*
X146350171Y-60663800D01*
X146350171Y-60663800D02*
X146302552Y-60616180D01*
X146302552Y-60616180D02*
X146207314Y-60473323D01*
X146207314Y-60473323D02*
X146159695Y-60282847D01*
X146159695Y-60282847D02*
X146159695Y-59901895D01*
X146159695Y-59901895D02*
X146207314Y-59806657D01*
X146207314Y-59806657D02*
X146254933Y-59759038D01*
X146254933Y-59759038D02*
X146350171Y-59711419D01*
X146350171Y-59711419D02*
X146540647Y-59711419D01*
X146540647Y-59711419D02*
X146635885Y-59759038D01*
X146635885Y-59759038D02*
X146683504Y-59806657D01*
X146683504Y-59806657D02*
X146731123Y-59901895D01*
X146731123Y-59901895D02*
X146731123Y-60139990D01*
X146731123Y-60139990D02*
X146683504Y-60235228D01*
X146683504Y-60235228D02*
X146635885Y-60282847D01*
X146635885Y-60282847D02*
X146540647Y-60330466D01*
X146540647Y-60330466D02*
X146350171Y-60330466D01*
X146350171Y-60330466D02*
X146254933Y-60282847D01*
X146254933Y-60282847D02*
X146207314Y-60235228D01*
X146207314Y-60235228D02*
X146159695Y-60139990D01*
X167363377Y-79473140D02*
X167410996Y-79520760D01*
X167410996Y-79520760D02*
X167553853Y-79568379D01*
X167553853Y-79568379D02*
X167649091Y-79568379D01*
X167649091Y-79568379D02*
X167791948Y-79520760D01*
X167791948Y-79520760D02*
X167887186Y-79425521D01*
X167887186Y-79425521D02*
X167934805Y-79330283D01*
X167934805Y-79330283D02*
X167982424Y-79139807D01*
X167982424Y-79139807D02*
X167982424Y-78996950D01*
X167982424Y-78996950D02*
X167934805Y-78806474D01*
X167934805Y-78806474D02*
X167887186Y-78711236D01*
X167887186Y-78711236D02*
X167791948Y-78615998D01*
X167791948Y-78615998D02*
X167649091Y-78568379D01*
X167649091Y-78568379D02*
X167553853Y-78568379D01*
X167553853Y-78568379D02*
X167410996Y-78615998D01*
X167410996Y-78615998D02*
X167363377Y-78663617D01*
X166982424Y-78663617D02*
X166934805Y-78615998D01*
X166934805Y-78615998D02*
X166839567Y-78568379D01*
X166839567Y-78568379D02*
X166601472Y-78568379D01*
X166601472Y-78568379D02*
X166506234Y-78615998D01*
X166506234Y-78615998D02*
X166458615Y-78663617D01*
X166458615Y-78663617D02*
X166410996Y-78758855D01*
X166410996Y-78758855D02*
X166410996Y-78854093D01*
X166410996Y-78854093D02*
X166458615Y-78996950D01*
X166458615Y-78996950D02*
X167030043Y-79568379D01*
X167030043Y-79568379D02*
X166410996Y-79568379D01*
X166030043Y-78663617D02*
X165982424Y-78615998D01*
X165982424Y-78615998D02*
X165887186Y-78568379D01*
X165887186Y-78568379D02*
X165649091Y-78568379D01*
X165649091Y-78568379D02*
X165553853Y-78615998D01*
X165553853Y-78615998D02*
X165506234Y-78663617D01*
X165506234Y-78663617D02*
X165458615Y-78758855D01*
X165458615Y-78758855D02*
X165458615Y-78854093D01*
X165458615Y-78854093D02*
X165506234Y-78996950D01*
X165506234Y-78996950D02*
X166077662Y-79568379D01*
X166077662Y-79568379D02*
X165458615Y-79568379D01*
X166389057Y-59024380D02*
X166436676Y-59072000D01*
X166436676Y-59072000D02*
X166579533Y-59119619D01*
X166579533Y-59119619D02*
X166674771Y-59119619D01*
X166674771Y-59119619D02*
X166817628Y-59072000D01*
X166817628Y-59072000D02*
X166912866Y-58976761D01*
X166912866Y-58976761D02*
X166960485Y-58881523D01*
X166960485Y-58881523D02*
X167008104Y-58691047D01*
X167008104Y-58691047D02*
X167008104Y-58548190D01*
X167008104Y-58548190D02*
X166960485Y-58357714D01*
X166960485Y-58357714D02*
X166912866Y-58262476D01*
X166912866Y-58262476D02*
X166817628Y-58167238D01*
X166817628Y-58167238D02*
X166674771Y-58119619D01*
X166674771Y-58119619D02*
X166579533Y-58119619D01*
X166579533Y-58119619D02*
X166436676Y-58167238D01*
X166436676Y-58167238D02*
X166389057Y-58214857D01*
X165436676Y-59119619D02*
X166008104Y-59119619D01*
X165722390Y-59119619D02*
X165722390Y-58119619D01*
X165722390Y-58119619D02*
X165817628Y-58262476D01*
X165817628Y-58262476D02*
X165912866Y-58357714D01*
X165912866Y-58357714D02*
X166008104Y-58405333D01*
X164865247Y-58548190D02*
X164960485Y-58500571D01*
X164960485Y-58500571D02*
X165008104Y-58452952D01*
X165008104Y-58452952D02*
X165055723Y-58357714D01*
X165055723Y-58357714D02*
X165055723Y-58310095D01*
X165055723Y-58310095D02*
X165008104Y-58214857D01*
X165008104Y-58214857D02*
X164960485Y-58167238D01*
X164960485Y-58167238D02*
X164865247Y-58119619D01*
X164865247Y-58119619D02*
X164674771Y-58119619D01*
X164674771Y-58119619D02*
X164579533Y-58167238D01*
X164579533Y-58167238D02*
X164531914Y-58214857D01*
X164531914Y-58214857D02*
X164484295Y-58310095D01*
X164484295Y-58310095D02*
X164484295Y-58357714D01*
X164484295Y-58357714D02*
X164531914Y-58452952D01*
X164531914Y-58452952D02*
X164579533Y-58500571D01*
X164579533Y-58500571D02*
X164674771Y-58548190D01*
X164674771Y-58548190D02*
X164865247Y-58548190D01*
X164865247Y-58548190D02*
X164960485Y-58595809D01*
X164960485Y-58595809D02*
X165008104Y-58643428D01*
X165008104Y-58643428D02*
X165055723Y-58738666D01*
X165055723Y-58738666D02*
X165055723Y-58929142D01*
X165055723Y-58929142D02*
X165008104Y-59024380D01*
X165008104Y-59024380D02*
X164960485Y-59072000D01*
X164960485Y-59072000D02*
X164865247Y-59119619D01*
X164865247Y-59119619D02*
X164674771Y-59119619D01*
X164674771Y-59119619D02*
X164579533Y-59072000D01*
X164579533Y-59072000D02*
X164531914Y-59024380D01*
X164531914Y-59024380D02*
X164484295Y-58929142D01*
X164484295Y-58929142D02*
X164484295Y-58738666D01*
X164484295Y-58738666D02*
X164531914Y-58643428D01*
X164531914Y-58643428D02*
X164579533Y-58595809D01*
X164579533Y-58595809D02*
X164674771Y-58548190D01*
X141384257Y-74847800D02*
X141431876Y-74895420D01*
X141431876Y-74895420D02*
X141574733Y-74943039D01*
X141574733Y-74943039D02*
X141669971Y-74943039D01*
X141669971Y-74943039D02*
X141812828Y-74895420D01*
X141812828Y-74895420D02*
X141908066Y-74800181D01*
X141908066Y-74800181D02*
X141955685Y-74704943D01*
X141955685Y-74704943D02*
X142003304Y-74514467D01*
X142003304Y-74514467D02*
X142003304Y-74371610D01*
X142003304Y-74371610D02*
X141955685Y-74181134D01*
X141955685Y-74181134D02*
X141908066Y-74085896D01*
X141908066Y-74085896D02*
X141812828Y-73990658D01*
X141812828Y-73990658D02*
X141669971Y-73943039D01*
X141669971Y-73943039D02*
X141574733Y-73943039D01*
X141574733Y-73943039D02*
X141431876Y-73990658D01*
X141431876Y-73990658D02*
X141384257Y-74038277D01*
X141003304Y-74038277D02*
X140955685Y-73990658D01*
X140955685Y-73990658D02*
X140860447Y-73943039D01*
X140860447Y-73943039D02*
X140622352Y-73943039D01*
X140622352Y-73943039D02*
X140527114Y-73990658D01*
X140527114Y-73990658D02*
X140479495Y-74038277D01*
X140479495Y-74038277D02*
X140431876Y-74133515D01*
X140431876Y-74133515D02*
X140431876Y-74228753D01*
X140431876Y-74228753D02*
X140479495Y-74371610D01*
X140479495Y-74371610D02*
X141050923Y-74943039D01*
X141050923Y-74943039D02*
X140431876Y-74943039D01*
X140098542Y-73943039D02*
X139479495Y-73943039D01*
X139479495Y-73943039D02*
X139812828Y-74323991D01*
X139812828Y-74323991D02*
X139669971Y-74323991D01*
X139669971Y-74323991D02*
X139574733Y-74371610D01*
X139574733Y-74371610D02*
X139527114Y-74419229D01*
X139527114Y-74419229D02*
X139479495Y-74514467D01*
X139479495Y-74514467D02*
X139479495Y-74752562D01*
X139479495Y-74752562D02*
X139527114Y-74847800D01*
X139527114Y-74847800D02*
X139574733Y-74895420D01*
X139574733Y-74895420D02*
X139669971Y-74943039D01*
X139669971Y-74943039D02*
X139955685Y-74943039D01*
X139955685Y-74943039D02*
X140050923Y-74895420D01*
X140050923Y-74895420D02*
X140098542Y-74847800D01*
X143670057Y-80768380D02*
X143717676Y-80816000D01*
X143717676Y-80816000D02*
X143860533Y-80863619D01*
X143860533Y-80863619D02*
X143955771Y-80863619D01*
X143955771Y-80863619D02*
X144098628Y-80816000D01*
X144098628Y-80816000D02*
X144193866Y-80720761D01*
X144193866Y-80720761D02*
X144241485Y-80625523D01*
X144241485Y-80625523D02*
X144289104Y-80435047D01*
X144289104Y-80435047D02*
X144289104Y-80292190D01*
X144289104Y-80292190D02*
X144241485Y-80101714D01*
X144241485Y-80101714D02*
X144193866Y-80006476D01*
X144193866Y-80006476D02*
X144098628Y-79911238D01*
X144098628Y-79911238D02*
X143955771Y-79863619D01*
X143955771Y-79863619D02*
X143860533Y-79863619D01*
X143860533Y-79863619D02*
X143717676Y-79911238D01*
X143717676Y-79911238D02*
X143670057Y-79958857D01*
X143289104Y-79958857D02*
X143241485Y-79911238D01*
X143241485Y-79911238D02*
X143146247Y-79863619D01*
X143146247Y-79863619D02*
X142908152Y-79863619D01*
X142908152Y-79863619D02*
X142812914Y-79911238D01*
X142812914Y-79911238D02*
X142765295Y-79958857D01*
X142765295Y-79958857D02*
X142717676Y-80054095D01*
X142717676Y-80054095D02*
X142717676Y-80149333D01*
X142717676Y-80149333D02*
X142765295Y-80292190D01*
X142765295Y-80292190D02*
X143336723Y-80863619D01*
X143336723Y-80863619D02*
X142717676Y-80863619D01*
X141860533Y-80196952D02*
X141860533Y-80863619D01*
X142098628Y-79816000D02*
X142336723Y-80530285D01*
X142336723Y-80530285D02*
X141717676Y-80530285D01*
X153929317Y-81106340D02*
X153976936Y-81153960D01*
X153976936Y-81153960D02*
X154119793Y-81201579D01*
X154119793Y-81201579D02*
X154215031Y-81201579D01*
X154215031Y-81201579D02*
X154357888Y-81153960D01*
X154357888Y-81153960D02*
X154453126Y-81058721D01*
X154453126Y-81058721D02*
X154500745Y-80963483D01*
X154500745Y-80963483D02*
X154548364Y-80773007D01*
X154548364Y-80773007D02*
X154548364Y-80630150D01*
X154548364Y-80630150D02*
X154500745Y-80439674D01*
X154500745Y-80439674D02*
X154453126Y-80344436D01*
X154453126Y-80344436D02*
X154357888Y-80249198D01*
X154357888Y-80249198D02*
X154215031Y-80201579D01*
X154215031Y-80201579D02*
X154119793Y-80201579D01*
X154119793Y-80201579D02*
X153976936Y-80249198D01*
X153976936Y-80249198D02*
X153929317Y-80296817D01*
X153548364Y-80296817D02*
X153500745Y-80249198D01*
X153500745Y-80249198D02*
X153405507Y-80201579D01*
X153405507Y-80201579D02*
X153167412Y-80201579D01*
X153167412Y-80201579D02*
X153072174Y-80249198D01*
X153072174Y-80249198D02*
X153024555Y-80296817D01*
X153024555Y-80296817D02*
X152976936Y-80392055D01*
X152976936Y-80392055D02*
X152976936Y-80487293D01*
X152976936Y-80487293D02*
X153024555Y-80630150D01*
X153024555Y-80630150D02*
X153595983Y-81201579D01*
X153595983Y-81201579D02*
X152976936Y-81201579D01*
X152119793Y-80201579D02*
X152310269Y-80201579D01*
X152310269Y-80201579D02*
X152405507Y-80249198D01*
X152405507Y-80249198D02*
X152453126Y-80296817D01*
X152453126Y-80296817D02*
X152548364Y-80439674D01*
X152548364Y-80439674D02*
X152595983Y-80630150D01*
X152595983Y-80630150D02*
X152595983Y-81011102D01*
X152595983Y-81011102D02*
X152548364Y-81106340D01*
X152548364Y-81106340D02*
X152500745Y-81153960D01*
X152500745Y-81153960D02*
X152405507Y-81201579D01*
X152405507Y-81201579D02*
X152215031Y-81201579D01*
X152215031Y-81201579D02*
X152119793Y-81153960D01*
X152119793Y-81153960D02*
X152072174Y-81106340D01*
X152072174Y-81106340D02*
X152024555Y-81011102D01*
X152024555Y-81011102D02*
X152024555Y-80773007D01*
X152024555Y-80773007D02*
X152072174Y-80677769D01*
X152072174Y-80677769D02*
X152119793Y-80630150D01*
X152119793Y-80630150D02*
X152215031Y-80582531D01*
X152215031Y-80582531D02*
X152405507Y-80582531D01*
X152405507Y-80582531D02*
X152500745Y-80630150D01*
X152500745Y-80630150D02*
X152548364Y-80677769D01*
X152548364Y-80677769D02*
X152595983Y-80773007D01*
X143385777Y-66229580D02*
X143433396Y-66277200D01*
X143433396Y-66277200D02*
X143576253Y-66324819D01*
X143576253Y-66324819D02*
X143671491Y-66324819D01*
X143671491Y-66324819D02*
X143814348Y-66277200D01*
X143814348Y-66277200D02*
X143909586Y-66181961D01*
X143909586Y-66181961D02*
X143957205Y-66086723D01*
X143957205Y-66086723D02*
X144004824Y-65896247D01*
X144004824Y-65896247D02*
X144004824Y-65753390D01*
X144004824Y-65753390D02*
X143957205Y-65562914D01*
X143957205Y-65562914D02*
X143909586Y-65467676D01*
X143909586Y-65467676D02*
X143814348Y-65372438D01*
X143814348Y-65372438D02*
X143671491Y-65324819D01*
X143671491Y-65324819D02*
X143576253Y-65324819D01*
X143576253Y-65324819D02*
X143433396Y-65372438D01*
X143433396Y-65372438D02*
X143385777Y-65420057D01*
X143004824Y-65420057D02*
X142957205Y-65372438D01*
X142957205Y-65372438D02*
X142861967Y-65324819D01*
X142861967Y-65324819D02*
X142623872Y-65324819D01*
X142623872Y-65324819D02*
X142528634Y-65372438D01*
X142528634Y-65372438D02*
X142481015Y-65420057D01*
X142481015Y-65420057D02*
X142433396Y-65515295D01*
X142433396Y-65515295D02*
X142433396Y-65610533D01*
X142433396Y-65610533D02*
X142481015Y-65753390D01*
X142481015Y-65753390D02*
X143052443Y-66324819D01*
X143052443Y-66324819D02*
X142433396Y-66324819D01*
X141861967Y-65753390D02*
X141957205Y-65705771D01*
X141957205Y-65705771D02*
X142004824Y-65658152D01*
X142004824Y-65658152D02*
X142052443Y-65562914D01*
X142052443Y-65562914D02*
X142052443Y-65515295D01*
X142052443Y-65515295D02*
X142004824Y-65420057D01*
X142004824Y-65420057D02*
X141957205Y-65372438D01*
X141957205Y-65372438D02*
X141861967Y-65324819D01*
X141861967Y-65324819D02*
X141671491Y-65324819D01*
X141671491Y-65324819D02*
X141576253Y-65372438D01*
X141576253Y-65372438D02*
X141528634Y-65420057D01*
X141528634Y-65420057D02*
X141481015Y-65515295D01*
X141481015Y-65515295D02*
X141481015Y-65562914D01*
X141481015Y-65562914D02*
X141528634Y-65658152D01*
X141528634Y-65658152D02*
X141576253Y-65705771D01*
X141576253Y-65705771D02*
X141671491Y-65753390D01*
X141671491Y-65753390D02*
X141861967Y-65753390D01*
X141861967Y-65753390D02*
X141957205Y-65801009D01*
X141957205Y-65801009D02*
X142004824Y-65848628D01*
X142004824Y-65848628D02*
X142052443Y-65943866D01*
X142052443Y-65943866D02*
X142052443Y-66134342D01*
X142052443Y-66134342D02*
X142004824Y-66229580D01*
X142004824Y-66229580D02*
X141957205Y-66277200D01*
X141957205Y-66277200D02*
X141861967Y-66324819D01*
X141861967Y-66324819D02*
X141671491Y-66324819D01*
X141671491Y-66324819D02*
X141576253Y-66277200D01*
X141576253Y-66277200D02*
X141528634Y-66229580D01*
X141528634Y-66229580D02*
X141481015Y-66134342D01*
X141481015Y-66134342D02*
X141481015Y-65943866D01*
X141481015Y-65943866D02*
X141528634Y-65848628D01*
X141528634Y-65848628D02*
X141576253Y-65801009D01*
X141576253Y-65801009D02*
X141671491Y-65753390D01*
X140737886Y-69390599D02*
X141071219Y-68914408D01*
X141309314Y-69390599D02*
X141309314Y-68390599D01*
X141309314Y-68390599D02*
X140928362Y-68390599D01*
X140928362Y-68390599D02*
X140833124Y-68438218D01*
X140833124Y-68438218D02*
X140785505Y-68485837D01*
X140785505Y-68485837D02*
X140737886Y-68581075D01*
X140737886Y-68581075D02*
X140737886Y-68723932D01*
X140737886Y-68723932D02*
X140785505Y-68819170D01*
X140785505Y-68819170D02*
X140833124Y-68866789D01*
X140833124Y-68866789D02*
X140928362Y-68914408D01*
X140928362Y-68914408D02*
X141309314Y-68914408D01*
X140404552Y-68390599D02*
X139737886Y-68390599D01*
X139737886Y-68390599D02*
X140166457Y-69390599D01*
X152195819Y-58976142D02*
X151719628Y-58642809D01*
X152195819Y-58404714D02*
X151195819Y-58404714D01*
X151195819Y-58404714D02*
X151195819Y-58785666D01*
X151195819Y-58785666D02*
X151243438Y-58880904D01*
X151243438Y-58880904D02*
X151291057Y-58928523D01*
X151291057Y-58928523D02*
X151386295Y-58976142D01*
X151386295Y-58976142D02*
X151529152Y-58976142D01*
X151529152Y-58976142D02*
X151624390Y-58928523D01*
X151624390Y-58928523D02*
X151672009Y-58880904D01*
X151672009Y-58880904D02*
X151719628Y-58785666D01*
X151719628Y-58785666D02*
X151719628Y-58404714D01*
X151291057Y-59357095D02*
X151243438Y-59404714D01*
X151243438Y-59404714D02*
X151195819Y-59499952D01*
X151195819Y-59499952D02*
X151195819Y-59738047D01*
X151195819Y-59738047D02*
X151243438Y-59833285D01*
X151243438Y-59833285D02*
X151291057Y-59880904D01*
X151291057Y-59880904D02*
X151386295Y-59928523D01*
X151386295Y-59928523D02*
X151481533Y-59928523D01*
X151481533Y-59928523D02*
X151624390Y-59880904D01*
X151624390Y-59880904D02*
X152195819Y-59309476D01*
X152195819Y-59309476D02*
X152195819Y-59928523D01*
X151624390Y-60499952D02*
X151576771Y-60404714D01*
X151576771Y-60404714D02*
X151529152Y-60357095D01*
X151529152Y-60357095D02*
X151433914Y-60309476D01*
X151433914Y-60309476D02*
X151386295Y-60309476D01*
X151386295Y-60309476D02*
X151291057Y-60357095D01*
X151291057Y-60357095D02*
X151243438Y-60404714D01*
X151243438Y-60404714D02*
X151195819Y-60499952D01*
X151195819Y-60499952D02*
X151195819Y-60690428D01*
X151195819Y-60690428D02*
X151243438Y-60785666D01*
X151243438Y-60785666D02*
X151291057Y-60833285D01*
X151291057Y-60833285D02*
X151386295Y-60880904D01*
X151386295Y-60880904D02*
X151433914Y-60880904D01*
X151433914Y-60880904D02*
X151529152Y-60833285D01*
X151529152Y-60833285D02*
X151576771Y-60785666D01*
X151576771Y-60785666D02*
X151624390Y-60690428D01*
X151624390Y-60690428D02*
X151624390Y-60499952D01*
X151624390Y-60499952D02*
X151672009Y-60404714D01*
X151672009Y-60404714D02*
X151719628Y-60357095D01*
X151719628Y-60357095D02*
X151814866Y-60309476D01*
X151814866Y-60309476D02*
X152005342Y-60309476D01*
X152005342Y-60309476D02*
X152100580Y-60357095D01*
X152100580Y-60357095D02*
X152148200Y-60404714D01*
X152148200Y-60404714D02*
X152195819Y-60499952D01*
X152195819Y-60499952D02*
X152195819Y-60690428D01*
X152195819Y-60690428D02*
X152148200Y-60785666D01*
X152148200Y-60785666D02*
X152100580Y-60833285D01*
X152100580Y-60833285D02*
X152005342Y-60880904D01*
X152005342Y-60880904D02*
X151814866Y-60880904D01*
X151814866Y-60880904D02*
X151719628Y-60833285D01*
X151719628Y-60833285D02*
X151672009Y-60785666D01*
X151672009Y-60785666D02*
X151624390Y-60690428D01*
X150259819Y-58988142D02*
X149783628Y-58654809D01*
X150259819Y-58416714D02*
X149259819Y-58416714D01*
X149259819Y-58416714D02*
X149259819Y-58797666D01*
X149259819Y-58797666D02*
X149307438Y-58892904D01*
X149307438Y-58892904D02*
X149355057Y-58940523D01*
X149355057Y-58940523D02*
X149450295Y-58988142D01*
X149450295Y-58988142D02*
X149593152Y-58988142D01*
X149593152Y-58988142D02*
X149688390Y-58940523D01*
X149688390Y-58940523D02*
X149736009Y-58892904D01*
X149736009Y-58892904D02*
X149783628Y-58797666D01*
X149783628Y-58797666D02*
X149783628Y-58416714D01*
X149355057Y-59369095D02*
X149307438Y-59416714D01*
X149307438Y-59416714D02*
X149259819Y-59511952D01*
X149259819Y-59511952D02*
X149259819Y-59750047D01*
X149259819Y-59750047D02*
X149307438Y-59845285D01*
X149307438Y-59845285D02*
X149355057Y-59892904D01*
X149355057Y-59892904D02*
X149450295Y-59940523D01*
X149450295Y-59940523D02*
X149545533Y-59940523D01*
X149545533Y-59940523D02*
X149688390Y-59892904D01*
X149688390Y-59892904D02*
X150259819Y-59321476D01*
X150259819Y-59321476D02*
X150259819Y-59940523D01*
X150259819Y-60416714D02*
X150259819Y-60607190D01*
X150259819Y-60607190D02*
X150212200Y-60702428D01*
X150212200Y-60702428D02*
X150164580Y-60750047D01*
X150164580Y-60750047D02*
X150021723Y-60845285D01*
X150021723Y-60845285D02*
X149831247Y-60892904D01*
X149831247Y-60892904D02*
X149450295Y-60892904D01*
X149450295Y-60892904D02*
X149355057Y-60845285D01*
X149355057Y-60845285D02*
X149307438Y-60797666D01*
X149307438Y-60797666D02*
X149259819Y-60702428D01*
X149259819Y-60702428D02*
X149259819Y-60511952D01*
X149259819Y-60511952D02*
X149307438Y-60416714D01*
X149307438Y-60416714D02*
X149355057Y-60369095D01*
X149355057Y-60369095D02*
X149450295Y-60321476D01*
X149450295Y-60321476D02*
X149688390Y-60321476D01*
X149688390Y-60321476D02*
X149783628Y-60369095D01*
X149783628Y-60369095D02*
X149831247Y-60416714D01*
X149831247Y-60416714D02*
X149878866Y-60511952D01*
X149878866Y-60511952D02*
X149878866Y-60702428D01*
X149878866Y-60702428D02*
X149831247Y-60797666D01*
X149831247Y-60797666D02*
X149783628Y-60845285D01*
X149783628Y-60845285D02*
X149688390Y-60892904D01*
X144991057Y-58628619D02*
X145324390Y-58152428D01*
X145562485Y-58628619D02*
X145562485Y-57628619D01*
X145562485Y-57628619D02*
X145181533Y-57628619D01*
X145181533Y-57628619D02*
X145086295Y-57676238D01*
X145086295Y-57676238D02*
X145038676Y-57723857D01*
X145038676Y-57723857D02*
X144991057Y-57819095D01*
X144991057Y-57819095D02*
X144991057Y-57961952D01*
X144991057Y-57961952D02*
X145038676Y-58057190D01*
X145038676Y-58057190D02*
X145086295Y-58104809D01*
X145086295Y-58104809D02*
X145181533Y-58152428D01*
X145181533Y-58152428D02*
X145562485Y-58152428D01*
X144657723Y-57628619D02*
X144038676Y-57628619D01*
X144038676Y-57628619D02*
X144372009Y-58009571D01*
X144372009Y-58009571D02*
X144229152Y-58009571D01*
X144229152Y-58009571D02*
X144133914Y-58057190D01*
X144133914Y-58057190D02*
X144086295Y-58104809D01*
X144086295Y-58104809D02*
X144038676Y-58200047D01*
X144038676Y-58200047D02*
X144038676Y-58438142D01*
X144038676Y-58438142D02*
X144086295Y-58533380D01*
X144086295Y-58533380D02*
X144133914Y-58581000D01*
X144133914Y-58581000D02*
X144229152Y-58628619D01*
X144229152Y-58628619D02*
X144514866Y-58628619D01*
X144514866Y-58628619D02*
X144610104Y-58581000D01*
X144610104Y-58581000D02*
X144657723Y-58533380D01*
X143419628Y-57628619D02*
X143324390Y-57628619D01*
X143324390Y-57628619D02*
X143229152Y-57676238D01*
X143229152Y-57676238D02*
X143181533Y-57723857D01*
X143181533Y-57723857D02*
X143133914Y-57819095D01*
X143133914Y-57819095D02*
X143086295Y-58009571D01*
X143086295Y-58009571D02*
X143086295Y-58247666D01*
X143086295Y-58247666D02*
X143133914Y-58438142D01*
X143133914Y-58438142D02*
X143181533Y-58533380D01*
X143181533Y-58533380D02*
X143229152Y-58581000D01*
X143229152Y-58581000D02*
X143324390Y-58628619D01*
X143324390Y-58628619D02*
X143419628Y-58628619D01*
X143419628Y-58628619D02*
X143514866Y-58581000D01*
X143514866Y-58581000D02*
X143562485Y-58533380D01*
X143562485Y-58533380D02*
X143610104Y-58438142D01*
X143610104Y-58438142D02*
X143657723Y-58247666D01*
X143657723Y-58247666D02*
X143657723Y-58009571D01*
X143657723Y-58009571D02*
X143610104Y-57819095D01*
X143610104Y-57819095D02*
X143562485Y-57723857D01*
X143562485Y-57723857D02*
X143514866Y-57676238D01*
X143514866Y-57676238D02*
X143419628Y-57628619D01*
X164655737Y-70476460D02*
X164703356Y-70524080D01*
X164703356Y-70524080D02*
X164846213Y-70571699D01*
X164846213Y-70571699D02*
X164941451Y-70571699D01*
X164941451Y-70571699D02*
X165084308Y-70524080D01*
X165084308Y-70524080D02*
X165179546Y-70428841D01*
X165179546Y-70428841D02*
X165227165Y-70333603D01*
X165227165Y-70333603D02*
X165274784Y-70143127D01*
X165274784Y-70143127D02*
X165274784Y-70000270D01*
X165274784Y-70000270D02*
X165227165Y-69809794D01*
X165227165Y-69809794D02*
X165179546Y-69714556D01*
X165179546Y-69714556D02*
X165084308Y-69619318D01*
X165084308Y-69619318D02*
X164941451Y-69571699D01*
X164941451Y-69571699D02*
X164846213Y-69571699D01*
X164846213Y-69571699D02*
X164703356Y-69619318D01*
X164703356Y-69619318D02*
X164655737Y-69666937D01*
X164274784Y-69666937D02*
X164227165Y-69619318D01*
X164227165Y-69619318D02*
X164131927Y-69571699D01*
X164131927Y-69571699D02*
X163893832Y-69571699D01*
X163893832Y-69571699D02*
X163798594Y-69619318D01*
X163798594Y-69619318D02*
X163750975Y-69666937D01*
X163750975Y-69666937D02*
X163703356Y-69762175D01*
X163703356Y-69762175D02*
X163703356Y-69857413D01*
X163703356Y-69857413D02*
X163750975Y-70000270D01*
X163750975Y-70000270D02*
X164322403Y-70571699D01*
X164322403Y-70571699D02*
X163703356Y-70571699D01*
X162750975Y-70571699D02*
X163322403Y-70571699D01*
X163036689Y-70571699D02*
X163036689Y-69571699D01*
X163036689Y-69571699D02*
X163131927Y-69714556D01*
X163131927Y-69714556D02*
X163227165Y-69809794D01*
X163227165Y-69809794D02*
X163322403Y-69857413D01*
X155698819Y-59047142D02*
X155222628Y-58713809D01*
X155698819Y-58475714D02*
X154698819Y-58475714D01*
X154698819Y-58475714D02*
X154698819Y-58856666D01*
X154698819Y-58856666D02*
X154746438Y-58951904D01*
X154746438Y-58951904D02*
X154794057Y-58999523D01*
X154794057Y-58999523D02*
X154889295Y-59047142D01*
X154889295Y-59047142D02*
X155032152Y-59047142D01*
X155032152Y-59047142D02*
X155127390Y-58999523D01*
X155127390Y-58999523D02*
X155175009Y-58951904D01*
X155175009Y-58951904D02*
X155222628Y-58856666D01*
X155222628Y-58856666D02*
X155222628Y-58475714D01*
X154794057Y-59428095D02*
X154746438Y-59475714D01*
X154746438Y-59475714D02*
X154698819Y-59570952D01*
X154698819Y-59570952D02*
X154698819Y-59809047D01*
X154698819Y-59809047D02*
X154746438Y-59904285D01*
X154746438Y-59904285D02*
X154794057Y-59951904D01*
X154794057Y-59951904D02*
X154889295Y-59999523D01*
X154889295Y-59999523D02*
X154984533Y-59999523D01*
X154984533Y-59999523D02*
X155127390Y-59951904D01*
X155127390Y-59951904D02*
X155698819Y-59380476D01*
X155698819Y-59380476D02*
X155698819Y-59999523D01*
X154698819Y-60332857D02*
X154698819Y-60999523D01*
X154698819Y-60999523D02*
X155698819Y-60570952D01*
X144848817Y-73250140D02*
X144896436Y-73297760D01*
X144896436Y-73297760D02*
X145039293Y-73345379D01*
X145039293Y-73345379D02*
X145134531Y-73345379D01*
X145134531Y-73345379D02*
X145277388Y-73297760D01*
X145277388Y-73297760D02*
X145372626Y-73202521D01*
X145372626Y-73202521D02*
X145420245Y-73107283D01*
X145420245Y-73107283D02*
X145467864Y-72916807D01*
X145467864Y-72916807D02*
X145467864Y-72773950D01*
X145467864Y-72773950D02*
X145420245Y-72583474D01*
X145420245Y-72583474D02*
X145372626Y-72488236D01*
X145372626Y-72488236D02*
X145277388Y-72392998D01*
X145277388Y-72392998D02*
X145134531Y-72345379D01*
X145134531Y-72345379D02*
X145039293Y-72345379D01*
X145039293Y-72345379D02*
X144896436Y-72392998D01*
X144896436Y-72392998D02*
X144848817Y-72440617D01*
X144467864Y-72440617D02*
X144420245Y-72392998D01*
X144420245Y-72392998D02*
X144325007Y-72345379D01*
X144325007Y-72345379D02*
X144086912Y-72345379D01*
X144086912Y-72345379D02*
X143991674Y-72392998D01*
X143991674Y-72392998D02*
X143944055Y-72440617D01*
X143944055Y-72440617D02*
X143896436Y-72535855D01*
X143896436Y-72535855D02*
X143896436Y-72631093D01*
X143896436Y-72631093D02*
X143944055Y-72773950D01*
X143944055Y-72773950D02*
X144515483Y-73345379D01*
X144515483Y-73345379D02*
X143896436Y-73345379D01*
X142991674Y-72345379D02*
X143467864Y-72345379D01*
X143467864Y-72345379D02*
X143515483Y-72821569D01*
X143515483Y-72821569D02*
X143467864Y-72773950D01*
X143467864Y-72773950D02*
X143372626Y-72726331D01*
X143372626Y-72726331D02*
X143134531Y-72726331D01*
X143134531Y-72726331D02*
X143039293Y-72773950D01*
X143039293Y-72773950D02*
X142991674Y-72821569D01*
X142991674Y-72821569D02*
X142944055Y-72916807D01*
X142944055Y-72916807D02*
X142944055Y-73154902D01*
X142944055Y-73154902D02*
X142991674Y-73250140D01*
X142991674Y-73250140D02*
X143039293Y-73297760D01*
X143039293Y-73297760D02*
X143134531Y-73345379D01*
X143134531Y-73345379D02*
X143372626Y-73345379D01*
X143372626Y-73345379D02*
X143467864Y-73297760D01*
X143467864Y-73297760D02*
X143515483Y-73250140D01*
X171338057Y-110304380D02*
X171385676Y-110352000D01*
X171385676Y-110352000D02*
X171528533Y-110399619D01*
X171528533Y-110399619D02*
X171623771Y-110399619D01*
X171623771Y-110399619D02*
X171766628Y-110352000D01*
X171766628Y-110352000D02*
X171861866Y-110256761D01*
X171861866Y-110256761D02*
X171909485Y-110161523D01*
X171909485Y-110161523D02*
X171957104Y-109971047D01*
X171957104Y-109971047D02*
X171957104Y-109828190D01*
X171957104Y-109828190D02*
X171909485Y-109637714D01*
X171909485Y-109637714D02*
X171861866Y-109542476D01*
X171861866Y-109542476D02*
X171766628Y-109447238D01*
X171766628Y-109447238D02*
X171623771Y-109399619D01*
X171623771Y-109399619D02*
X171528533Y-109399619D01*
X171528533Y-109399619D02*
X171385676Y-109447238D01*
X171385676Y-109447238D02*
X171338057Y-109494857D01*
X170385676Y-110399619D02*
X170957104Y-110399619D01*
X170671390Y-110399619D02*
X170671390Y-109399619D01*
X170671390Y-109399619D02*
X170766628Y-109542476D01*
X170766628Y-109542476D02*
X170861866Y-109637714D01*
X170861866Y-109637714D02*
X170957104Y-109685333D01*
X169433295Y-110399619D02*
X170004723Y-110399619D01*
X169719009Y-110399619D02*
X169719009Y-109399619D01*
X169719009Y-109399619D02*
X169814247Y-109542476D01*
X169814247Y-109542476D02*
X169909485Y-109637714D01*
X169909485Y-109637714D02*
X170004723Y-109685333D01*
X174322977Y-62597380D02*
X174370596Y-62645000D01*
X174370596Y-62645000D02*
X174513453Y-62692619D01*
X174513453Y-62692619D02*
X174608691Y-62692619D01*
X174608691Y-62692619D02*
X174751548Y-62645000D01*
X174751548Y-62645000D02*
X174846786Y-62549761D01*
X174846786Y-62549761D02*
X174894405Y-62454523D01*
X174894405Y-62454523D02*
X174942024Y-62264047D01*
X174942024Y-62264047D02*
X174942024Y-62121190D01*
X174942024Y-62121190D02*
X174894405Y-61930714D01*
X174894405Y-61930714D02*
X174846786Y-61835476D01*
X174846786Y-61835476D02*
X174751548Y-61740238D01*
X174751548Y-61740238D02*
X174608691Y-61692619D01*
X174608691Y-61692619D02*
X174513453Y-61692619D01*
X174513453Y-61692619D02*
X174370596Y-61740238D01*
X174370596Y-61740238D02*
X174322977Y-61787857D01*
X173942024Y-61787857D02*
X173894405Y-61740238D01*
X173894405Y-61740238D02*
X173799167Y-61692619D01*
X173799167Y-61692619D02*
X173561072Y-61692619D01*
X173561072Y-61692619D02*
X173465834Y-61740238D01*
X173465834Y-61740238D02*
X173418215Y-61787857D01*
X173418215Y-61787857D02*
X173370596Y-61883095D01*
X173370596Y-61883095D02*
X173370596Y-61978333D01*
X173370596Y-61978333D02*
X173418215Y-62121190D01*
X173418215Y-62121190D02*
X173989643Y-62692619D01*
X173989643Y-62692619D02*
X173370596Y-62692619D01*
X172894405Y-62692619D02*
X172703929Y-62692619D01*
X172703929Y-62692619D02*
X172608691Y-62645000D01*
X172608691Y-62645000D02*
X172561072Y-62597380D01*
X172561072Y-62597380D02*
X172465834Y-62454523D01*
X172465834Y-62454523D02*
X172418215Y-62264047D01*
X172418215Y-62264047D02*
X172418215Y-61883095D01*
X172418215Y-61883095D02*
X172465834Y-61787857D01*
X172465834Y-61787857D02*
X172513453Y-61740238D01*
X172513453Y-61740238D02*
X172608691Y-61692619D01*
X172608691Y-61692619D02*
X172799167Y-61692619D01*
X172799167Y-61692619D02*
X172894405Y-61740238D01*
X172894405Y-61740238D02*
X172942024Y-61787857D01*
X172942024Y-61787857D02*
X172989643Y-61883095D01*
X172989643Y-61883095D02*
X172989643Y-62121190D01*
X172989643Y-62121190D02*
X172942024Y-62216428D01*
X172942024Y-62216428D02*
X172894405Y-62264047D01*
X172894405Y-62264047D02*
X172799167Y-62311666D01*
X172799167Y-62311666D02*
X172608691Y-62311666D01*
X172608691Y-62311666D02*
X172513453Y-62264047D01*
X172513453Y-62264047D02*
X172465834Y-62216428D01*
X172465834Y-62216428D02*
X172418215Y-62121190D01*
X175510723Y-73556959D02*
X174844057Y-74556959D01*
X174844057Y-73556959D02*
X175510723Y-74556959D01*
X173939295Y-74556959D02*
X174510723Y-74556959D01*
X174225009Y-74556959D02*
X174225009Y-73556959D01*
X174225009Y-73556959D02*
X174320247Y-73699816D01*
X174320247Y-73699816D02*
X174415485Y-73795054D01*
X174415485Y-73795054D02*
X174510723Y-73842673D01*
X159800057Y-61807380D02*
X159847676Y-61855000D01*
X159847676Y-61855000D02*
X159990533Y-61902619D01*
X159990533Y-61902619D02*
X160085771Y-61902619D01*
X160085771Y-61902619D02*
X160228628Y-61855000D01*
X160228628Y-61855000D02*
X160323866Y-61759761D01*
X160323866Y-61759761D02*
X160371485Y-61664523D01*
X160371485Y-61664523D02*
X160419104Y-61474047D01*
X160419104Y-61474047D02*
X160419104Y-61331190D01*
X160419104Y-61331190D02*
X160371485Y-61140714D01*
X160371485Y-61140714D02*
X160323866Y-61045476D01*
X160323866Y-61045476D02*
X160228628Y-60950238D01*
X160228628Y-60950238D02*
X160085771Y-60902619D01*
X160085771Y-60902619D02*
X159990533Y-60902619D01*
X159990533Y-60902619D02*
X159847676Y-60950238D01*
X159847676Y-60950238D02*
X159800057Y-60997857D01*
X158847676Y-61902619D02*
X159419104Y-61902619D01*
X159133390Y-61902619D02*
X159133390Y-60902619D01*
X159133390Y-60902619D02*
X159228628Y-61045476D01*
X159228628Y-61045476D02*
X159323866Y-61140714D01*
X159323866Y-61140714D02*
X159419104Y-61188333D01*
X158228628Y-60902619D02*
X158133390Y-60902619D01*
X158133390Y-60902619D02*
X158038152Y-60950238D01*
X158038152Y-60950238D02*
X157990533Y-60997857D01*
X157990533Y-60997857D02*
X157942914Y-61093095D01*
X157942914Y-61093095D02*
X157895295Y-61283571D01*
X157895295Y-61283571D02*
X157895295Y-61521666D01*
X157895295Y-61521666D02*
X157942914Y-61712142D01*
X157942914Y-61712142D02*
X157990533Y-61807380D01*
X157990533Y-61807380D02*
X158038152Y-61855000D01*
X158038152Y-61855000D02*
X158133390Y-61902619D01*
X158133390Y-61902619D02*
X158228628Y-61902619D01*
X158228628Y-61902619D02*
X158323866Y-61855000D01*
X158323866Y-61855000D02*
X158371485Y-61807380D01*
X158371485Y-61807380D02*
X158419104Y-61712142D01*
X158419104Y-61712142D02*
X158466723Y-61521666D01*
X158466723Y-61521666D02*
X158466723Y-61283571D01*
X158466723Y-61283571D02*
X158419104Y-61093095D01*
X158419104Y-61093095D02*
X158371485Y-60997857D01*
X158371485Y-60997857D02*
X158323866Y-60950238D01*
X158323866Y-60950238D02*
X158228628Y-60902619D01*
X151469104Y-65343619D02*
X151469104Y-66153142D01*
X151469104Y-66153142D02*
X151421485Y-66248380D01*
X151421485Y-66248380D02*
X151373866Y-66296000D01*
X151373866Y-66296000D02*
X151278628Y-66343619D01*
X151278628Y-66343619D02*
X151088152Y-66343619D01*
X151088152Y-66343619D02*
X150992914Y-66296000D01*
X150992914Y-66296000D02*
X150945295Y-66248380D01*
X150945295Y-66248380D02*
X150897676Y-66153142D01*
X150897676Y-66153142D02*
X150897676Y-65343619D01*
X150373866Y-66343619D02*
X150183390Y-66343619D01*
X150183390Y-66343619D02*
X150088152Y-66296000D01*
X150088152Y-66296000D02*
X150040533Y-66248380D01*
X150040533Y-66248380D02*
X149945295Y-66105523D01*
X149945295Y-66105523D02*
X149897676Y-65915047D01*
X149897676Y-65915047D02*
X149897676Y-65534095D01*
X149897676Y-65534095D02*
X149945295Y-65438857D01*
X149945295Y-65438857D02*
X149992914Y-65391238D01*
X149992914Y-65391238D02*
X150088152Y-65343619D01*
X150088152Y-65343619D02*
X150278628Y-65343619D01*
X150278628Y-65343619D02*
X150373866Y-65391238D01*
X150373866Y-65391238D02*
X150421485Y-65438857D01*
X150421485Y-65438857D02*
X150469104Y-65534095D01*
X150469104Y-65534095D02*
X150469104Y-65772190D01*
X150469104Y-65772190D02*
X150421485Y-65867428D01*
X150421485Y-65867428D02*
X150373866Y-65915047D01*
X150373866Y-65915047D02*
X150278628Y-65962666D01*
X150278628Y-65962666D02*
X150088152Y-65962666D01*
X150088152Y-65962666D02*
X149992914Y-65915047D01*
X149992914Y-65915047D02*
X149945295Y-65867428D01*
X149945295Y-65867428D02*
X149897676Y-65772190D01*
X142654257Y-62521180D02*
X142701876Y-62568800D01*
X142701876Y-62568800D02*
X142844733Y-62616419D01*
X142844733Y-62616419D02*
X142939971Y-62616419D01*
X142939971Y-62616419D02*
X143082828Y-62568800D01*
X143082828Y-62568800D02*
X143178066Y-62473561D01*
X143178066Y-62473561D02*
X143225685Y-62378323D01*
X143225685Y-62378323D02*
X143273304Y-62187847D01*
X143273304Y-62187847D02*
X143273304Y-62044990D01*
X143273304Y-62044990D02*
X143225685Y-61854514D01*
X143225685Y-61854514D02*
X143178066Y-61759276D01*
X143178066Y-61759276D02*
X143082828Y-61664038D01*
X143082828Y-61664038D02*
X142939971Y-61616419D01*
X142939971Y-61616419D02*
X142844733Y-61616419D01*
X142844733Y-61616419D02*
X142701876Y-61664038D01*
X142701876Y-61664038D02*
X142654257Y-61711657D01*
X141701876Y-62616419D02*
X142273304Y-62616419D01*
X141987590Y-62616419D02*
X141987590Y-61616419D01*
X141987590Y-61616419D02*
X142082828Y-61759276D01*
X142082828Y-61759276D02*
X142178066Y-61854514D01*
X142178066Y-61854514D02*
X142273304Y-61902133D01*
X141320923Y-61711657D02*
X141273304Y-61664038D01*
X141273304Y-61664038D02*
X141178066Y-61616419D01*
X141178066Y-61616419D02*
X140939971Y-61616419D01*
X140939971Y-61616419D02*
X140844733Y-61664038D01*
X140844733Y-61664038D02*
X140797114Y-61711657D01*
X140797114Y-61711657D02*
X140749495Y-61806895D01*
X140749495Y-61806895D02*
X140749495Y-61902133D01*
X140749495Y-61902133D02*
X140797114Y-62044990D01*
X140797114Y-62044990D02*
X141368542Y-62616419D01*
X141368542Y-62616419D02*
X140749495Y-62616419D01*
X138703866Y-112953619D02*
X139037199Y-112477428D01*
X139275294Y-112953619D02*
X139275294Y-111953619D01*
X139275294Y-111953619D02*
X138894342Y-111953619D01*
X138894342Y-111953619D02*
X138799104Y-112001238D01*
X138799104Y-112001238D02*
X138751485Y-112048857D01*
X138751485Y-112048857D02*
X138703866Y-112144095D01*
X138703866Y-112144095D02*
X138703866Y-112286952D01*
X138703866Y-112286952D02*
X138751485Y-112382190D01*
X138751485Y-112382190D02*
X138799104Y-112429809D01*
X138799104Y-112429809D02*
X138894342Y-112477428D01*
X138894342Y-112477428D02*
X139275294Y-112477428D01*
X137846723Y-112286952D02*
X137846723Y-112953619D01*
X138084818Y-111906000D02*
X138322913Y-112620285D01*
X138322913Y-112620285D02*
X137703866Y-112620285D01*
X174869057Y-100896619D02*
X175202390Y-100420428D01*
X175440485Y-100896619D02*
X175440485Y-99896619D01*
X175440485Y-99896619D02*
X175059533Y-99896619D01*
X175059533Y-99896619D02*
X174964295Y-99944238D01*
X174964295Y-99944238D02*
X174916676Y-99991857D01*
X174916676Y-99991857D02*
X174869057Y-100087095D01*
X174869057Y-100087095D02*
X174869057Y-100229952D01*
X174869057Y-100229952D02*
X174916676Y-100325190D01*
X174916676Y-100325190D02*
X174964295Y-100372809D01*
X174964295Y-100372809D02*
X175059533Y-100420428D01*
X175059533Y-100420428D02*
X175440485Y-100420428D01*
X173916676Y-100896619D02*
X174488104Y-100896619D01*
X174202390Y-100896619D02*
X174202390Y-99896619D01*
X174202390Y-99896619D02*
X174297628Y-100039476D01*
X174297628Y-100039476D02*
X174392866Y-100134714D01*
X174392866Y-100134714D02*
X174488104Y-100182333D01*
X173583342Y-99896619D02*
X172916676Y-99896619D01*
X172916676Y-99896619D02*
X173345247Y-100896619D01*
X156827457Y-76357819D02*
X157160790Y-75881628D01*
X157398885Y-76357819D02*
X157398885Y-75357819D01*
X157398885Y-75357819D02*
X157017933Y-75357819D01*
X157017933Y-75357819D02*
X156922695Y-75405438D01*
X156922695Y-75405438D02*
X156875076Y-75453057D01*
X156875076Y-75453057D02*
X156827457Y-75548295D01*
X156827457Y-75548295D02*
X156827457Y-75691152D01*
X156827457Y-75691152D02*
X156875076Y-75786390D01*
X156875076Y-75786390D02*
X156922695Y-75834009D01*
X156922695Y-75834009D02*
X157017933Y-75881628D01*
X157017933Y-75881628D02*
X157398885Y-75881628D01*
X156446504Y-75453057D02*
X156398885Y-75405438D01*
X156398885Y-75405438D02*
X156303647Y-75357819D01*
X156303647Y-75357819D02*
X156065552Y-75357819D01*
X156065552Y-75357819D02*
X155970314Y-75405438D01*
X155970314Y-75405438D02*
X155922695Y-75453057D01*
X155922695Y-75453057D02*
X155875076Y-75548295D01*
X155875076Y-75548295D02*
X155875076Y-75643533D01*
X155875076Y-75643533D02*
X155922695Y-75786390D01*
X155922695Y-75786390D02*
X156494123Y-76357819D01*
X156494123Y-76357819D02*
X155875076Y-76357819D01*
X155017933Y-75691152D02*
X155017933Y-76357819D01*
X155256028Y-75310200D02*
X155494123Y-76024485D01*
X155494123Y-76024485D02*
X154875076Y-76024485D01*
X167383697Y-83871119D02*
X167717030Y-83394928D01*
X167955125Y-83871119D02*
X167955125Y-82871119D01*
X167955125Y-82871119D02*
X167574173Y-82871119D01*
X167574173Y-82871119D02*
X167478935Y-82918738D01*
X167478935Y-82918738D02*
X167431316Y-82966357D01*
X167431316Y-82966357D02*
X167383697Y-83061595D01*
X167383697Y-83061595D02*
X167383697Y-83204452D01*
X167383697Y-83204452D02*
X167431316Y-83299690D01*
X167431316Y-83299690D02*
X167478935Y-83347309D01*
X167478935Y-83347309D02*
X167574173Y-83394928D01*
X167574173Y-83394928D02*
X167955125Y-83394928D01*
X167002744Y-82966357D02*
X166955125Y-82918738D01*
X166955125Y-82918738D02*
X166859887Y-82871119D01*
X166859887Y-82871119D02*
X166621792Y-82871119D01*
X166621792Y-82871119D02*
X166526554Y-82918738D01*
X166526554Y-82918738D02*
X166478935Y-82966357D01*
X166478935Y-82966357D02*
X166431316Y-83061595D01*
X166431316Y-83061595D02*
X166431316Y-83156833D01*
X166431316Y-83156833D02*
X166478935Y-83299690D01*
X166478935Y-83299690D02*
X167050363Y-83871119D01*
X167050363Y-83871119D02*
X166431316Y-83871119D01*
X165574173Y-82871119D02*
X165764649Y-82871119D01*
X165764649Y-82871119D02*
X165859887Y-82918738D01*
X165859887Y-82918738D02*
X165907506Y-82966357D01*
X165907506Y-82966357D02*
X166002744Y-83109214D01*
X166002744Y-83109214D02*
X166050363Y-83299690D01*
X166050363Y-83299690D02*
X166050363Y-83680642D01*
X166050363Y-83680642D02*
X166002744Y-83775880D01*
X166002744Y-83775880D02*
X165955125Y-83823500D01*
X165955125Y-83823500D02*
X165859887Y-83871119D01*
X165859887Y-83871119D02*
X165669411Y-83871119D01*
X165669411Y-83871119D02*
X165574173Y-83823500D01*
X165574173Y-83823500D02*
X165526554Y-83775880D01*
X165526554Y-83775880D02*
X165478935Y-83680642D01*
X165478935Y-83680642D02*
X165478935Y-83442547D01*
X165478935Y-83442547D02*
X165526554Y-83347309D01*
X165526554Y-83347309D02*
X165574173Y-83299690D01*
X165574173Y-83299690D02*
X165669411Y-83252071D01*
X165669411Y-83252071D02*
X165859887Y-83252071D01*
X165859887Y-83252071D02*
X165955125Y-83299690D01*
X165955125Y-83299690D02*
X166002744Y-83347309D01*
X166002744Y-83347309D02*
X166050363Y-83442547D01*
X166560737Y-62037299D02*
X166894070Y-61561108D01*
X167132165Y-62037299D02*
X167132165Y-61037299D01*
X167132165Y-61037299D02*
X166751213Y-61037299D01*
X166751213Y-61037299D02*
X166655975Y-61084918D01*
X166655975Y-61084918D02*
X166608356Y-61132537D01*
X166608356Y-61132537D02*
X166560737Y-61227775D01*
X166560737Y-61227775D02*
X166560737Y-61370632D01*
X166560737Y-61370632D02*
X166608356Y-61465870D01*
X166608356Y-61465870D02*
X166655975Y-61513489D01*
X166655975Y-61513489D02*
X166751213Y-61561108D01*
X166751213Y-61561108D02*
X167132165Y-61561108D01*
X165608356Y-62037299D02*
X166179784Y-62037299D01*
X165894070Y-62037299D02*
X165894070Y-61037299D01*
X165894070Y-61037299D02*
X165989308Y-61180156D01*
X165989308Y-61180156D02*
X166084546Y-61275394D01*
X166084546Y-61275394D02*
X166179784Y-61323013D01*
X164989308Y-61037299D02*
X164894070Y-61037299D01*
X164894070Y-61037299D02*
X164798832Y-61084918D01*
X164798832Y-61084918D02*
X164751213Y-61132537D01*
X164751213Y-61132537D02*
X164703594Y-61227775D01*
X164703594Y-61227775D02*
X164655975Y-61418251D01*
X164655975Y-61418251D02*
X164655975Y-61656346D01*
X164655975Y-61656346D02*
X164703594Y-61846822D01*
X164703594Y-61846822D02*
X164751213Y-61942060D01*
X164751213Y-61942060D02*
X164798832Y-61989680D01*
X164798832Y-61989680D02*
X164894070Y-62037299D01*
X164894070Y-62037299D02*
X164989308Y-62037299D01*
X164989308Y-62037299D02*
X165084546Y-61989680D01*
X165084546Y-61989680D02*
X165132165Y-61942060D01*
X165132165Y-61942060D02*
X165179784Y-61846822D01*
X165179784Y-61846822D02*
X165227403Y-61656346D01*
X165227403Y-61656346D02*
X165227403Y-61418251D01*
X165227403Y-61418251D02*
X165179784Y-61227775D01*
X165179784Y-61227775D02*
X165132165Y-61132537D01*
X165132165Y-61132537D02*
X165084546Y-61084918D01*
X165084546Y-61084918D02*
X164989308Y-61037299D01*
X166575977Y-63647659D02*
X166909310Y-63171468D01*
X167147405Y-63647659D02*
X167147405Y-62647659D01*
X167147405Y-62647659D02*
X166766453Y-62647659D01*
X166766453Y-62647659D02*
X166671215Y-62695278D01*
X166671215Y-62695278D02*
X166623596Y-62742897D01*
X166623596Y-62742897D02*
X166575977Y-62838135D01*
X166575977Y-62838135D02*
X166575977Y-62980992D01*
X166575977Y-62980992D02*
X166623596Y-63076230D01*
X166623596Y-63076230D02*
X166671215Y-63123849D01*
X166671215Y-63123849D02*
X166766453Y-63171468D01*
X166766453Y-63171468D02*
X167147405Y-63171468D01*
X165623596Y-63647659D02*
X166195024Y-63647659D01*
X165909310Y-63647659D02*
X165909310Y-62647659D01*
X165909310Y-62647659D02*
X166004548Y-62790516D01*
X166004548Y-62790516D02*
X166099786Y-62885754D01*
X166099786Y-62885754D02*
X166195024Y-62933373D01*
X164671215Y-63647659D02*
X165242643Y-63647659D01*
X164956929Y-63647659D02*
X164956929Y-62647659D01*
X164956929Y-62647659D02*
X165052167Y-62790516D01*
X165052167Y-62790516D02*
X165147405Y-62885754D01*
X165147405Y-62885754D02*
X165242643Y-62933373D01*
X166555657Y-65171659D02*
X166888990Y-64695468D01*
X167127085Y-65171659D02*
X167127085Y-64171659D01*
X167127085Y-64171659D02*
X166746133Y-64171659D01*
X166746133Y-64171659D02*
X166650895Y-64219278D01*
X166650895Y-64219278D02*
X166603276Y-64266897D01*
X166603276Y-64266897D02*
X166555657Y-64362135D01*
X166555657Y-64362135D02*
X166555657Y-64504992D01*
X166555657Y-64504992D02*
X166603276Y-64600230D01*
X166603276Y-64600230D02*
X166650895Y-64647849D01*
X166650895Y-64647849D02*
X166746133Y-64695468D01*
X166746133Y-64695468D02*
X167127085Y-64695468D01*
X165603276Y-65171659D02*
X166174704Y-65171659D01*
X165888990Y-65171659D02*
X165888990Y-64171659D01*
X165888990Y-64171659D02*
X165984228Y-64314516D01*
X165984228Y-64314516D02*
X166079466Y-64409754D01*
X166079466Y-64409754D02*
X166174704Y-64457373D01*
X165222323Y-64266897D02*
X165174704Y-64219278D01*
X165174704Y-64219278D02*
X165079466Y-64171659D01*
X165079466Y-64171659D02*
X164841371Y-64171659D01*
X164841371Y-64171659D02*
X164746133Y-64219278D01*
X164746133Y-64219278D02*
X164698514Y-64266897D01*
X164698514Y-64266897D02*
X164650895Y-64362135D01*
X164650895Y-64362135D02*
X164650895Y-64457373D01*
X164650895Y-64457373D02*
X164698514Y-64600230D01*
X164698514Y-64600230D02*
X165269942Y-65171659D01*
X165269942Y-65171659D02*
X164650895Y-65171659D01*
X166586137Y-66934419D02*
X166919470Y-66458228D01*
X167157565Y-66934419D02*
X167157565Y-65934419D01*
X167157565Y-65934419D02*
X166776613Y-65934419D01*
X166776613Y-65934419D02*
X166681375Y-65982038D01*
X166681375Y-65982038D02*
X166633756Y-66029657D01*
X166633756Y-66029657D02*
X166586137Y-66124895D01*
X166586137Y-66124895D02*
X166586137Y-66267752D01*
X166586137Y-66267752D02*
X166633756Y-66362990D01*
X166633756Y-66362990D02*
X166681375Y-66410609D01*
X166681375Y-66410609D02*
X166776613Y-66458228D01*
X166776613Y-66458228D02*
X167157565Y-66458228D01*
X165633756Y-66934419D02*
X166205184Y-66934419D01*
X165919470Y-66934419D02*
X165919470Y-65934419D01*
X165919470Y-65934419D02*
X166014708Y-66077276D01*
X166014708Y-66077276D02*
X166109946Y-66172514D01*
X166109946Y-66172514D02*
X166205184Y-66220133D01*
X165300422Y-65934419D02*
X164681375Y-65934419D01*
X164681375Y-65934419D02*
X165014708Y-66315371D01*
X165014708Y-66315371D02*
X164871851Y-66315371D01*
X164871851Y-66315371D02*
X164776613Y-66362990D01*
X164776613Y-66362990D02*
X164728994Y-66410609D01*
X164728994Y-66410609D02*
X164681375Y-66505847D01*
X164681375Y-66505847D02*
X164681375Y-66743942D01*
X164681375Y-66743942D02*
X164728994Y-66839180D01*
X164728994Y-66839180D02*
X164776613Y-66886800D01*
X164776613Y-66886800D02*
X164871851Y-66934419D01*
X164871851Y-66934419D02*
X165157565Y-66934419D01*
X165157565Y-66934419D02*
X165252803Y-66886800D01*
X165252803Y-66886800D02*
X165300422Y-66839180D01*
X145980057Y-85468380D02*
X146027676Y-85516000D01*
X146027676Y-85516000D02*
X146170533Y-85563619D01*
X146170533Y-85563619D02*
X146265771Y-85563619D01*
X146265771Y-85563619D02*
X146408628Y-85516000D01*
X146408628Y-85516000D02*
X146503866Y-85420761D01*
X146503866Y-85420761D02*
X146551485Y-85325523D01*
X146551485Y-85325523D02*
X146599104Y-85135047D01*
X146599104Y-85135047D02*
X146599104Y-84992190D01*
X146599104Y-84992190D02*
X146551485Y-84801714D01*
X146551485Y-84801714D02*
X146503866Y-84706476D01*
X146503866Y-84706476D02*
X146408628Y-84611238D01*
X146408628Y-84611238D02*
X146265771Y-84563619D01*
X146265771Y-84563619D02*
X146170533Y-84563619D01*
X146170533Y-84563619D02*
X146027676Y-84611238D01*
X146027676Y-84611238D02*
X145980057Y-84658857D01*
X145027676Y-85563619D02*
X145599104Y-85563619D01*
X145313390Y-85563619D02*
X145313390Y-84563619D01*
X145313390Y-84563619D02*
X145408628Y-84706476D01*
X145408628Y-84706476D02*
X145503866Y-84801714D01*
X145503866Y-84801714D02*
X145599104Y-84849333D01*
X144170533Y-84563619D02*
X144361009Y-84563619D01*
X144361009Y-84563619D02*
X144456247Y-84611238D01*
X144456247Y-84611238D02*
X144503866Y-84658857D01*
X144503866Y-84658857D02*
X144599104Y-84801714D01*
X144599104Y-84801714D02*
X144646723Y-84992190D01*
X144646723Y-84992190D02*
X144646723Y-85373142D01*
X144646723Y-85373142D02*
X144599104Y-85468380D01*
X144599104Y-85468380D02*
X144551485Y-85516000D01*
X144551485Y-85516000D02*
X144456247Y-85563619D01*
X144456247Y-85563619D02*
X144265771Y-85563619D01*
X144265771Y-85563619D02*
X144170533Y-85516000D01*
X144170533Y-85516000D02*
X144122914Y-85468380D01*
X144122914Y-85468380D02*
X144075295Y-85373142D01*
X144075295Y-85373142D02*
X144075295Y-85135047D01*
X144075295Y-85135047D02*
X144122914Y-85039809D01*
X144122914Y-85039809D02*
X144170533Y-84992190D01*
X144170533Y-84992190D02*
X144265771Y-84944571D01*
X144265771Y-84944571D02*
X144456247Y-84944571D01*
X144456247Y-84944571D02*
X144551485Y-84992190D01*
X144551485Y-84992190D02*
X144599104Y-85039809D01*
X144599104Y-85039809D02*
X144646723Y-85135047D01*
X143303866Y-68058619D02*
X143637199Y-67582428D01*
X143875294Y-68058619D02*
X143875294Y-67058619D01*
X143875294Y-67058619D02*
X143494342Y-67058619D01*
X143494342Y-67058619D02*
X143399104Y-67106238D01*
X143399104Y-67106238D02*
X143351485Y-67153857D01*
X143351485Y-67153857D02*
X143303866Y-67249095D01*
X143303866Y-67249095D02*
X143303866Y-67391952D01*
X143303866Y-67391952D02*
X143351485Y-67487190D01*
X143351485Y-67487190D02*
X143399104Y-67534809D01*
X143399104Y-67534809D02*
X143494342Y-67582428D01*
X143494342Y-67582428D02*
X143875294Y-67582428D01*
X142732437Y-67487190D02*
X142827675Y-67439571D01*
X142827675Y-67439571D02*
X142875294Y-67391952D01*
X142875294Y-67391952D02*
X142922913Y-67296714D01*
X142922913Y-67296714D02*
X142922913Y-67249095D01*
X142922913Y-67249095D02*
X142875294Y-67153857D01*
X142875294Y-67153857D02*
X142827675Y-67106238D01*
X142827675Y-67106238D02*
X142732437Y-67058619D01*
X142732437Y-67058619D02*
X142541961Y-67058619D01*
X142541961Y-67058619D02*
X142446723Y-67106238D01*
X142446723Y-67106238D02*
X142399104Y-67153857D01*
X142399104Y-67153857D02*
X142351485Y-67249095D01*
X142351485Y-67249095D02*
X142351485Y-67296714D01*
X142351485Y-67296714D02*
X142399104Y-67391952D01*
X142399104Y-67391952D02*
X142446723Y-67439571D01*
X142446723Y-67439571D02*
X142541961Y-67487190D01*
X142541961Y-67487190D02*
X142732437Y-67487190D01*
X142732437Y-67487190D02*
X142827675Y-67534809D01*
X142827675Y-67534809D02*
X142875294Y-67582428D01*
X142875294Y-67582428D02*
X142922913Y-67677666D01*
X142922913Y-67677666D02*
X142922913Y-67868142D01*
X142922913Y-67868142D02*
X142875294Y-67963380D01*
X142875294Y-67963380D02*
X142827675Y-68011000D01*
X142827675Y-68011000D02*
X142732437Y-68058619D01*
X142732437Y-68058619D02*
X142541961Y-68058619D01*
X142541961Y-68058619D02*
X142446723Y-68011000D01*
X142446723Y-68011000D02*
X142399104Y-67963380D01*
X142399104Y-67963380D02*
X142351485Y-67868142D01*
X142351485Y-67868142D02*
X142351485Y-67677666D01*
X142351485Y-67677666D02*
X142399104Y-67582428D01*
X142399104Y-67582428D02*
X142446723Y-67534809D01*
X142446723Y-67534809D02*
X142541961Y-67487190D01*
X134484406Y-79014659D02*
X134817739Y-78538468D01*
X135055834Y-79014659D02*
X135055834Y-78014659D01*
X135055834Y-78014659D02*
X134674882Y-78014659D01*
X134674882Y-78014659D02*
X134579644Y-78062278D01*
X134579644Y-78062278D02*
X134532025Y-78109897D01*
X134532025Y-78109897D02*
X134484406Y-78205135D01*
X134484406Y-78205135D02*
X134484406Y-78347992D01*
X134484406Y-78347992D02*
X134532025Y-78443230D01*
X134532025Y-78443230D02*
X134579644Y-78490849D01*
X134579644Y-78490849D02*
X134674882Y-78538468D01*
X134674882Y-78538468D02*
X135055834Y-78538468D01*
X134103453Y-78109897D02*
X134055834Y-78062278D01*
X134055834Y-78062278D02*
X133960596Y-78014659D01*
X133960596Y-78014659D02*
X133722501Y-78014659D01*
X133722501Y-78014659D02*
X133627263Y-78062278D01*
X133627263Y-78062278D02*
X133579644Y-78109897D01*
X133579644Y-78109897D02*
X133532025Y-78205135D01*
X133532025Y-78205135D02*
X133532025Y-78300373D01*
X133532025Y-78300373D02*
X133579644Y-78443230D01*
X133579644Y-78443230D02*
X134151072Y-79014659D01*
X134151072Y-79014659D02*
X133532025Y-79014659D01*
X134456466Y-77676079D02*
X134789799Y-77199888D01*
X135027894Y-77676079D02*
X135027894Y-76676079D01*
X135027894Y-76676079D02*
X134646942Y-76676079D01*
X134646942Y-76676079D02*
X134551704Y-76723698D01*
X134551704Y-76723698D02*
X134504085Y-76771317D01*
X134504085Y-76771317D02*
X134456466Y-76866555D01*
X134456466Y-76866555D02*
X134456466Y-77009412D01*
X134456466Y-77009412D02*
X134504085Y-77104650D01*
X134504085Y-77104650D02*
X134551704Y-77152269D01*
X134551704Y-77152269D02*
X134646942Y-77199888D01*
X134646942Y-77199888D02*
X135027894Y-77199888D01*
X133504085Y-77676079D02*
X134075513Y-77676079D01*
X133789799Y-77676079D02*
X133789799Y-76676079D01*
X133789799Y-76676079D02*
X133885037Y-76818936D01*
X133885037Y-76818936D02*
X133980275Y-76914174D01*
X133980275Y-76914174D02*
X134075513Y-76961793D01*
X138703866Y-102953619D02*
X139037199Y-102477428D01*
X139275294Y-102953619D02*
X139275294Y-101953619D01*
X139275294Y-101953619D02*
X138894342Y-101953619D01*
X138894342Y-101953619D02*
X138799104Y-102001238D01*
X138799104Y-102001238D02*
X138751485Y-102048857D01*
X138751485Y-102048857D02*
X138703866Y-102144095D01*
X138703866Y-102144095D02*
X138703866Y-102286952D01*
X138703866Y-102286952D02*
X138751485Y-102382190D01*
X138751485Y-102382190D02*
X138799104Y-102429809D01*
X138799104Y-102429809D02*
X138894342Y-102477428D01*
X138894342Y-102477428D02*
X139275294Y-102477428D01*
X137846723Y-101953619D02*
X138037199Y-101953619D01*
X138037199Y-101953619D02*
X138132437Y-102001238D01*
X138132437Y-102001238D02*
X138180056Y-102048857D01*
X138180056Y-102048857D02*
X138275294Y-102191714D01*
X138275294Y-102191714D02*
X138322913Y-102382190D01*
X138322913Y-102382190D02*
X138322913Y-102763142D01*
X138322913Y-102763142D02*
X138275294Y-102858380D01*
X138275294Y-102858380D02*
X138227675Y-102906000D01*
X138227675Y-102906000D02*
X138132437Y-102953619D01*
X138132437Y-102953619D02*
X137941961Y-102953619D01*
X137941961Y-102953619D02*
X137846723Y-102906000D01*
X137846723Y-102906000D02*
X137799104Y-102858380D01*
X137799104Y-102858380D02*
X137751485Y-102763142D01*
X137751485Y-102763142D02*
X137751485Y-102525047D01*
X137751485Y-102525047D02*
X137799104Y-102429809D01*
X137799104Y-102429809D02*
X137846723Y-102382190D01*
X137846723Y-102382190D02*
X137941961Y-102334571D01*
X137941961Y-102334571D02*
X138132437Y-102334571D01*
X138132437Y-102334571D02*
X138227675Y-102382190D01*
X138227675Y-102382190D02*
X138275294Y-102429809D01*
X138275294Y-102429809D02*
X138322913Y-102525047D01*
X134443766Y-76482279D02*
X134777099Y-76006088D01*
X135015194Y-76482279D02*
X135015194Y-75482279D01*
X135015194Y-75482279D02*
X134634242Y-75482279D01*
X134634242Y-75482279D02*
X134539004Y-75529898D01*
X134539004Y-75529898D02*
X134491385Y-75577517D01*
X134491385Y-75577517D02*
X134443766Y-75672755D01*
X134443766Y-75672755D02*
X134443766Y-75815612D01*
X134443766Y-75815612D02*
X134491385Y-75910850D01*
X134491385Y-75910850D02*
X134539004Y-75958469D01*
X134539004Y-75958469D02*
X134634242Y-76006088D01*
X134634242Y-76006088D02*
X135015194Y-76006088D01*
X134110432Y-75482279D02*
X133491385Y-75482279D01*
X133491385Y-75482279D02*
X133824718Y-75863231D01*
X133824718Y-75863231D02*
X133681861Y-75863231D01*
X133681861Y-75863231D02*
X133586623Y-75910850D01*
X133586623Y-75910850D02*
X133539004Y-75958469D01*
X133539004Y-75958469D02*
X133491385Y-76053707D01*
X133491385Y-76053707D02*
X133491385Y-76291802D01*
X133491385Y-76291802D02*
X133539004Y-76387040D01*
X133539004Y-76387040D02*
X133586623Y-76434660D01*
X133586623Y-76434660D02*
X133681861Y-76482279D01*
X133681861Y-76482279D02*
X133967575Y-76482279D01*
X133967575Y-76482279D02*
X134062813Y-76434660D01*
X134062813Y-76434660D02*
X134110432Y-76387040D01*
X134806914Y-73067639D02*
X134806914Y-72067639D01*
X134806914Y-72067639D02*
X134568819Y-72067639D01*
X134568819Y-72067639D02*
X134425962Y-72115258D01*
X134425962Y-72115258D02*
X134330724Y-72210496D01*
X134330724Y-72210496D02*
X134283105Y-72305734D01*
X134283105Y-72305734D02*
X134235486Y-72496210D01*
X134235486Y-72496210D02*
X134235486Y-72639067D01*
X134235486Y-72639067D02*
X134283105Y-72829543D01*
X134283105Y-72829543D02*
X134330724Y-72924781D01*
X134330724Y-72924781D02*
X134425962Y-73020020D01*
X134425962Y-73020020D02*
X134568819Y-73067639D01*
X134568819Y-73067639D02*
X134806914Y-73067639D01*
X133854533Y-72162877D02*
X133806914Y-72115258D01*
X133806914Y-72115258D02*
X133711676Y-72067639D01*
X133711676Y-72067639D02*
X133473581Y-72067639D01*
X133473581Y-72067639D02*
X133378343Y-72115258D01*
X133378343Y-72115258D02*
X133330724Y-72162877D01*
X133330724Y-72162877D02*
X133283105Y-72258115D01*
X133283105Y-72258115D02*
X133283105Y-72353353D01*
X133283105Y-72353353D02*
X133330724Y-72496210D01*
X133330724Y-72496210D02*
X133902152Y-73067639D01*
X133902152Y-73067639D02*
X133283105Y-73067639D01*
X166431299Y-121038382D02*
X165955108Y-120705049D01*
X166431299Y-120466954D02*
X165431299Y-120466954D01*
X165431299Y-120466954D02*
X165431299Y-120847906D01*
X165431299Y-120847906D02*
X165478918Y-120943144D01*
X165478918Y-120943144D02*
X165526537Y-120990763D01*
X165526537Y-120990763D02*
X165621775Y-121038382D01*
X165621775Y-121038382D02*
X165764632Y-121038382D01*
X165764632Y-121038382D02*
X165859870Y-120990763D01*
X165859870Y-120990763D02*
X165907489Y-120943144D01*
X165907489Y-120943144D02*
X165955108Y-120847906D01*
X165955108Y-120847906D02*
X165955108Y-120466954D01*
X165526537Y-121419335D02*
X165478918Y-121466954D01*
X165478918Y-121466954D02*
X165431299Y-121562192D01*
X165431299Y-121562192D02*
X165431299Y-121800287D01*
X165431299Y-121800287D02*
X165478918Y-121895525D01*
X165478918Y-121895525D02*
X165526537Y-121943144D01*
X165526537Y-121943144D02*
X165621775Y-121990763D01*
X165621775Y-121990763D02*
X165717013Y-121990763D01*
X165717013Y-121990763D02*
X165859870Y-121943144D01*
X165859870Y-121943144D02*
X166431299Y-121371716D01*
X166431299Y-121371716D02*
X166431299Y-121990763D01*
X165431299Y-122609811D02*
X165431299Y-122705049D01*
X165431299Y-122705049D02*
X165478918Y-122800287D01*
X165478918Y-122800287D02*
X165526537Y-122847906D01*
X165526537Y-122847906D02*
X165621775Y-122895525D01*
X165621775Y-122895525D02*
X165812251Y-122943144D01*
X165812251Y-122943144D02*
X166050346Y-122943144D01*
X166050346Y-122943144D02*
X166240822Y-122895525D01*
X166240822Y-122895525D02*
X166336060Y-122847906D01*
X166336060Y-122847906D02*
X166383680Y-122800287D01*
X166383680Y-122800287D02*
X166431299Y-122705049D01*
X166431299Y-122705049D02*
X166431299Y-122609811D01*
X166431299Y-122609811D02*
X166383680Y-122514573D01*
X166383680Y-122514573D02*
X166336060Y-122466954D01*
X166336060Y-122466954D02*
X166240822Y-122419335D01*
X166240822Y-122419335D02*
X166050346Y-122371716D01*
X166050346Y-122371716D02*
X165812251Y-122371716D01*
X165812251Y-122371716D02*
X165621775Y-122419335D01*
X165621775Y-122419335D02*
X165526537Y-122466954D01*
X165526537Y-122466954D02*
X165478918Y-122514573D01*
X165478918Y-122514573D02*
X165431299Y-122609811D01*
X169926339Y-118066582D02*
X169450148Y-117733249D01*
X169926339Y-117495154D02*
X168926339Y-117495154D01*
X168926339Y-117495154D02*
X168926339Y-117876106D01*
X168926339Y-117876106D02*
X168973958Y-117971344D01*
X168973958Y-117971344D02*
X169021577Y-118018963D01*
X169021577Y-118018963D02*
X169116815Y-118066582D01*
X169116815Y-118066582D02*
X169259672Y-118066582D01*
X169259672Y-118066582D02*
X169354910Y-118018963D01*
X169354910Y-118018963D02*
X169402529Y-117971344D01*
X169402529Y-117971344D02*
X169450148Y-117876106D01*
X169450148Y-117876106D02*
X169450148Y-117495154D01*
X169021577Y-118447535D02*
X168973958Y-118495154D01*
X168973958Y-118495154D02*
X168926339Y-118590392D01*
X168926339Y-118590392D02*
X168926339Y-118828487D01*
X168926339Y-118828487D02*
X168973958Y-118923725D01*
X168973958Y-118923725D02*
X169021577Y-118971344D01*
X169021577Y-118971344D02*
X169116815Y-119018963D01*
X169116815Y-119018963D02*
X169212053Y-119018963D01*
X169212053Y-119018963D02*
X169354910Y-118971344D01*
X169354910Y-118971344D02*
X169926339Y-118399916D01*
X169926339Y-118399916D02*
X169926339Y-119018963D01*
X169926339Y-119971344D02*
X169926339Y-119399916D01*
X169926339Y-119685630D02*
X168926339Y-119685630D01*
X168926339Y-119685630D02*
X169069196Y-119590392D01*
X169069196Y-119590392D02*
X169164434Y-119495154D01*
X169164434Y-119495154D02*
X169212053Y-119399916D01*
X171932939Y-118066582D02*
X171456748Y-117733249D01*
X171932939Y-117495154D02*
X170932939Y-117495154D01*
X170932939Y-117495154D02*
X170932939Y-117876106D01*
X170932939Y-117876106D02*
X170980558Y-117971344D01*
X170980558Y-117971344D02*
X171028177Y-118018963D01*
X171028177Y-118018963D02*
X171123415Y-118066582D01*
X171123415Y-118066582D02*
X171266272Y-118066582D01*
X171266272Y-118066582D02*
X171361510Y-118018963D01*
X171361510Y-118018963D02*
X171409129Y-117971344D01*
X171409129Y-117971344D02*
X171456748Y-117876106D01*
X171456748Y-117876106D02*
X171456748Y-117495154D01*
X171028177Y-118447535D02*
X170980558Y-118495154D01*
X170980558Y-118495154D02*
X170932939Y-118590392D01*
X170932939Y-118590392D02*
X170932939Y-118828487D01*
X170932939Y-118828487D02*
X170980558Y-118923725D01*
X170980558Y-118923725D02*
X171028177Y-118971344D01*
X171028177Y-118971344D02*
X171123415Y-119018963D01*
X171123415Y-119018963D02*
X171218653Y-119018963D01*
X171218653Y-119018963D02*
X171361510Y-118971344D01*
X171361510Y-118971344D02*
X171932939Y-118399916D01*
X171932939Y-118399916D02*
X171932939Y-119018963D01*
X171028177Y-119399916D02*
X170980558Y-119447535D01*
X170980558Y-119447535D02*
X170932939Y-119542773D01*
X170932939Y-119542773D02*
X170932939Y-119780868D01*
X170932939Y-119780868D02*
X170980558Y-119876106D01*
X170980558Y-119876106D02*
X171028177Y-119923725D01*
X171028177Y-119923725D02*
X171123415Y-119971344D01*
X171123415Y-119971344D02*
X171218653Y-119971344D01*
X171218653Y-119971344D02*
X171361510Y-119923725D01*
X171361510Y-119923725D02*
X171932939Y-119352297D01*
X171932939Y-119352297D02*
X171932939Y-119971344D01*
X173924299Y-118081822D02*
X173448108Y-117748489D01*
X173924299Y-117510394D02*
X172924299Y-117510394D01*
X172924299Y-117510394D02*
X172924299Y-117891346D01*
X172924299Y-117891346D02*
X172971918Y-117986584D01*
X172971918Y-117986584D02*
X173019537Y-118034203D01*
X173019537Y-118034203D02*
X173114775Y-118081822D01*
X173114775Y-118081822D02*
X173257632Y-118081822D01*
X173257632Y-118081822D02*
X173352870Y-118034203D01*
X173352870Y-118034203D02*
X173400489Y-117986584D01*
X173400489Y-117986584D02*
X173448108Y-117891346D01*
X173448108Y-117891346D02*
X173448108Y-117510394D01*
X173019537Y-118462775D02*
X172971918Y-118510394D01*
X172971918Y-118510394D02*
X172924299Y-118605632D01*
X172924299Y-118605632D02*
X172924299Y-118843727D01*
X172924299Y-118843727D02*
X172971918Y-118938965D01*
X172971918Y-118938965D02*
X173019537Y-118986584D01*
X173019537Y-118986584D02*
X173114775Y-119034203D01*
X173114775Y-119034203D02*
X173210013Y-119034203D01*
X173210013Y-119034203D02*
X173352870Y-118986584D01*
X173352870Y-118986584D02*
X173924299Y-118415156D01*
X173924299Y-118415156D02*
X173924299Y-119034203D01*
X172924299Y-119367537D02*
X172924299Y-119986584D01*
X172924299Y-119986584D02*
X173305251Y-119653251D01*
X173305251Y-119653251D02*
X173305251Y-119796108D01*
X173305251Y-119796108D02*
X173352870Y-119891346D01*
X173352870Y-119891346D02*
X173400489Y-119938965D01*
X173400489Y-119938965D02*
X173495727Y-119986584D01*
X173495727Y-119986584D02*
X173733822Y-119986584D01*
X173733822Y-119986584D02*
X173829060Y-119938965D01*
X173829060Y-119938965D02*
X173876680Y-119891346D01*
X173876680Y-119891346D02*
X173924299Y-119796108D01*
X173924299Y-119796108D02*
X173924299Y-119510394D01*
X173924299Y-119510394D02*
X173876680Y-119415156D01*
X173876680Y-119415156D02*
X173829060Y-119367537D01*
X133248993Y-97026559D02*
X133248993Y-97740844D01*
X133248993Y-97740844D02*
X133296612Y-97883701D01*
X133296612Y-97883701D02*
X133391850Y-97978940D01*
X133391850Y-97978940D02*
X133534707Y-98026559D01*
X133534707Y-98026559D02*
X133629945Y-98026559D01*
X132820421Y-97121797D02*
X132772802Y-97074178D01*
X132772802Y-97074178D02*
X132677564Y-97026559D01*
X132677564Y-97026559D02*
X132439469Y-97026559D01*
X132439469Y-97026559D02*
X132344231Y-97074178D01*
X132344231Y-97074178D02*
X132296612Y-97121797D01*
X132296612Y-97121797D02*
X132248993Y-97217035D01*
X132248993Y-97217035D02*
X132248993Y-97312273D01*
X132248993Y-97312273D02*
X132296612Y-97455130D01*
X132296612Y-97455130D02*
X132868040Y-98026559D01*
X132868040Y-98026559D02*
X132248993Y-98026559D01*
X148904057Y-77544380D02*
X148951676Y-77592000D01*
X148951676Y-77592000D02*
X149094533Y-77639619D01*
X149094533Y-77639619D02*
X149189771Y-77639619D01*
X149189771Y-77639619D02*
X149332628Y-77592000D01*
X149332628Y-77592000D02*
X149427866Y-77496761D01*
X149427866Y-77496761D02*
X149475485Y-77401523D01*
X149475485Y-77401523D02*
X149523104Y-77211047D01*
X149523104Y-77211047D02*
X149523104Y-77068190D01*
X149523104Y-77068190D02*
X149475485Y-76877714D01*
X149475485Y-76877714D02*
X149427866Y-76782476D01*
X149427866Y-76782476D02*
X149332628Y-76687238D01*
X149332628Y-76687238D02*
X149189771Y-76639619D01*
X149189771Y-76639619D02*
X149094533Y-76639619D01*
X149094533Y-76639619D02*
X148951676Y-76687238D01*
X148951676Y-76687238D02*
X148904057Y-76734857D01*
X148523104Y-76734857D02*
X148475485Y-76687238D01*
X148475485Y-76687238D02*
X148380247Y-76639619D01*
X148380247Y-76639619D02*
X148142152Y-76639619D01*
X148142152Y-76639619D02*
X148046914Y-76687238D01*
X148046914Y-76687238D02*
X147999295Y-76734857D01*
X147999295Y-76734857D02*
X147951676Y-76830095D01*
X147951676Y-76830095D02*
X147951676Y-76925333D01*
X147951676Y-76925333D02*
X147999295Y-77068190D01*
X147999295Y-77068190D02*
X148570723Y-77639619D01*
X148570723Y-77639619D02*
X147951676Y-77639619D01*
X147618342Y-76639619D02*
X146951676Y-76639619D01*
X146951676Y-76639619D02*
X147380247Y-77639619D01*
X171515057Y-104132380D02*
X171562676Y-104180000D01*
X171562676Y-104180000D02*
X171705533Y-104227619D01*
X171705533Y-104227619D02*
X171800771Y-104227619D01*
X171800771Y-104227619D02*
X171943628Y-104180000D01*
X171943628Y-104180000D02*
X172038866Y-104084761D01*
X172038866Y-104084761D02*
X172086485Y-103989523D01*
X172086485Y-103989523D02*
X172134104Y-103799047D01*
X172134104Y-103799047D02*
X172134104Y-103656190D01*
X172134104Y-103656190D02*
X172086485Y-103465714D01*
X172086485Y-103465714D02*
X172038866Y-103370476D01*
X172038866Y-103370476D02*
X171943628Y-103275238D01*
X171943628Y-103275238D02*
X171800771Y-103227619D01*
X171800771Y-103227619D02*
X171705533Y-103227619D01*
X171705533Y-103227619D02*
X171562676Y-103275238D01*
X171562676Y-103275238D02*
X171515057Y-103322857D01*
X171181723Y-103227619D02*
X170562676Y-103227619D01*
X170562676Y-103227619D02*
X170896009Y-103608571D01*
X170896009Y-103608571D02*
X170753152Y-103608571D01*
X170753152Y-103608571D02*
X170657914Y-103656190D01*
X170657914Y-103656190D02*
X170610295Y-103703809D01*
X170610295Y-103703809D02*
X170562676Y-103799047D01*
X170562676Y-103799047D02*
X170562676Y-104037142D01*
X170562676Y-104037142D02*
X170610295Y-104132380D01*
X170610295Y-104132380D02*
X170657914Y-104180000D01*
X170657914Y-104180000D02*
X170753152Y-104227619D01*
X170753152Y-104227619D02*
X171038866Y-104227619D01*
X171038866Y-104227619D02*
X171134104Y-104180000D01*
X171134104Y-104180000D02*
X171181723Y-104132380D01*
X169610295Y-104227619D02*
X170181723Y-104227619D01*
X169896009Y-104227619D02*
X169896009Y-103227619D01*
X169896009Y-103227619D02*
X169991247Y-103370476D01*
X169991247Y-103370476D02*
X170086485Y-103465714D01*
X170086485Y-103465714D02*
X170181723Y-103513333D01*
D13*
X148367200Y-115792267D02*
X148367200Y-115449733D01*
X149387200Y-115792267D02*
X149387200Y-115449733D01*
X161670933Y-99591000D02*
X162013467Y-99591000D01*
X161670933Y-100611000D02*
X162013467Y-100611000D01*
X153547200Y-106437267D02*
X153547200Y-106094733D01*
X154567200Y-106437267D02*
X154567200Y-106094733D01*
X145001520Y-105383147D02*
X145001520Y-105040613D01*
X146021520Y-105383147D02*
X146021520Y-105040613D01*
X162217200Y-110264733D02*
X162217200Y-110607267D01*
X161197200Y-110264733D02*
X161197200Y-110607267D01*
X169470200Y-98093733D02*
X169470200Y-98436267D01*
X168450200Y-98093733D02*
X168450200Y-98436267D01*
X153378467Y-100671000D02*
X153035933Y-100671000D01*
X153378467Y-99651000D02*
X153035933Y-99651000D01*
X145095933Y-91647560D02*
X145438467Y-91647560D01*
X145095933Y-92667560D02*
X145438467Y-92667560D01*
X153387200Y-115737267D02*
X153387200Y-115394733D01*
X154407200Y-115737267D02*
X154407200Y-115394733D01*
X154347200Y-110084733D02*
X154347200Y-110427267D01*
X153327200Y-110084733D02*
X153327200Y-110427267D01*
X162091187Y-65008220D02*
X161748653Y-65008220D01*
X162091187Y-63988220D02*
X161748653Y-63988220D01*
X161682247Y-75506040D02*
X161339713Y-75506040D01*
X161682247Y-74486040D02*
X161339713Y-74486040D01*
X153903140Y-62546413D02*
X153903140Y-62888947D01*
X152883140Y-62546413D02*
X152883140Y-62888947D01*
X159675100Y-78662347D02*
X159675100Y-78319813D01*
X160695100Y-78662347D02*
X160695100Y-78319813D01*
X148393880Y-62480373D02*
X148393880Y-62822907D01*
X147373880Y-62480373D02*
X147373880Y-62822907D01*
X166536553Y-80005460D02*
X166879087Y-80005460D01*
X166536553Y-81025460D02*
X166879087Y-81025460D01*
X165505313Y-59776900D02*
X165847847Y-59776900D01*
X165505313Y-60796900D02*
X165847847Y-60796900D01*
X140747567Y-73364820D02*
X140405033Y-73364820D01*
X140747567Y-72344820D02*
X140405033Y-72344820D01*
X143198467Y-82341000D02*
X142855933Y-82341000D01*
X143198467Y-81321000D02*
X142855933Y-81321000D01*
X153115193Y-78798960D02*
X153457727Y-78798960D01*
X153115193Y-79818960D02*
X153457727Y-79818960D01*
X145967633Y-65354740D02*
X146310167Y-65354740D01*
X145967633Y-66374740D02*
X146310167Y-66374740D01*
X140387253Y-69860700D02*
X140729787Y-69860700D01*
X140387253Y-70880700D02*
X140729787Y-70880700D01*
X151173720Y-62782267D02*
X151173720Y-62439733D01*
X152193720Y-62782267D02*
X152193720Y-62439733D01*
X149268720Y-62690827D02*
X149268720Y-62348293D01*
X150288720Y-62690827D02*
X150288720Y-62348293D01*
X147331613Y-57729660D02*
X147674147Y-57729660D01*
X147331613Y-58749660D02*
X147674147Y-58749660D01*
X162501040Y-69831133D02*
X162501040Y-70173667D01*
X161481040Y-69831133D02*
X161481040Y-70173667D01*
X154678920Y-62848307D02*
X154678920Y-62505773D01*
X155698920Y-62848307D02*
X155698920Y-62505773D01*
X145527960Y-73184652D02*
X145527960Y-72662148D01*
X146947960Y-73184652D02*
X146947960Y-72662148D01*
X169282840Y-110074893D02*
X169282840Y-110417427D01*
X168262840Y-110074893D02*
X168262840Y-110417427D01*
X173444268Y-63275140D02*
X173966772Y-63275140D01*
X173444268Y-64695140D02*
X173966772Y-64695140D01*
D12*
X177575520Y-65731840D02*
X177275520Y-65731840D01*
X174921520Y-65731840D02*
X174521520Y-65731840D01*
X171994520Y-65731840D02*
X172294520Y-65731840D01*
X177575520Y-65795340D02*
X177575520Y-72995340D01*
X171994520Y-65795340D02*
X171994520Y-72995340D01*
X177575520Y-73058840D02*
X177275520Y-73058840D01*
X174921520Y-73058840D02*
X174521520Y-73058840D01*
X171994520Y-73058840D02*
X172294520Y-73058840D01*
D13*
X159261993Y-62154340D02*
X159604527Y-62154340D01*
X159261993Y-63174340D02*
X159604527Y-63174340D01*
X154143760Y-74930440D02*
X154143760Y-68920440D01*
X147323760Y-72680440D02*
X147323760Y-68920440D01*
X147323760Y-68920440D02*
X148583760Y-68920440D01*
X154143760Y-68920440D02*
X152883760Y-68920440D01*
X143660400Y-61456387D02*
X143660400Y-61113853D01*
X144680400Y-61456387D02*
X144680400Y-61113853D01*
X138085100Y-110290427D02*
X138085100Y-109947893D01*
X139105100Y-110290427D02*
X139105100Y-109947893D01*
X174089933Y-98559000D02*
X174432467Y-98559000D01*
X174089933Y-99579000D02*
X174432467Y-99579000D01*
X155567920Y-78565827D02*
X155567920Y-78223293D01*
X156587920Y-78565827D02*
X156587920Y-78223293D01*
X166569573Y-81468500D02*
X166912107Y-81468500D01*
X166569573Y-82488500D02*
X166912107Y-82488500D01*
X169579107Y-62033880D02*
X169236573Y-62033880D01*
X169579107Y-61013880D02*
X169236573Y-61013880D01*
X169609587Y-63613760D02*
X169267053Y-63613760D01*
X169609587Y-62593760D02*
X169267053Y-62593760D01*
X169629907Y-65188560D02*
X169287373Y-65188560D01*
X169629907Y-64168560D02*
X169287373Y-64168560D01*
X169640067Y-66875120D02*
X169297533Y-66875120D01*
X169640067Y-65855120D02*
X169297533Y-65855120D01*
X145095933Y-85917560D02*
X145438467Y-85917560D01*
X145095933Y-86937560D02*
X145438467Y-86937560D01*
X146363507Y-68074000D02*
X146020973Y-68074000D01*
X146363507Y-67054000D02*
X146020973Y-67054000D01*
X138032307Y-78960440D02*
X137689773Y-78960440D01*
X138032307Y-77940440D02*
X137689773Y-77940440D01*
X138057707Y-77492320D02*
X137715173Y-77492320D01*
X138057707Y-76472320D02*
X137715173Y-76472320D01*
X138062240Y-105116447D02*
X138062240Y-104773913D01*
X139082240Y-105116447D02*
X139082240Y-104773913D01*
X138062787Y-76085160D02*
X137720253Y-76085160D01*
X138062787Y-75065160D02*
X137720253Y-75065160D01*
X135968820Y-75305020D02*
X132818820Y-75305020D01*
X135968820Y-73605020D02*
X135968820Y-75305020D01*
X135968820Y-73605020D02*
X132818820Y-73605020D01*
X166825200Y-121910927D02*
X166825200Y-121568393D01*
X167845200Y-121910927D02*
X167845200Y-121568393D01*
X168874980Y-121895687D02*
X168874980Y-121553153D01*
X169894980Y-121895687D02*
X169894980Y-121553153D01*
X170927300Y-121885527D02*
X170927300Y-121542993D01*
X171947300Y-121885527D02*
X171947300Y-121542993D01*
X172918660Y-121918547D02*
X172918660Y-121576013D01*
X173938660Y-121918547D02*
X173938660Y-121576013D01*
X137419940Y-96439900D02*
X131819940Y-96439900D01*
X140669940Y-96439900D02*
X141829940Y-96439900D01*
X141829940Y-96439900D02*
X141829940Y-85179900D01*
X141829940Y-83679900D02*
X141829940Y-83569900D01*
X138119940Y-83569900D02*
X131819940Y-83569900D01*
X141829940Y-83569900D02*
X140019940Y-83569900D01*
X151458600Y-76903948D02*
X151458600Y-77426452D01*
X149988600Y-76903948D02*
X149988600Y-77426452D01*
X168443200Y-103878267D02*
X168443200Y-103585733D01*
X169463200Y-103878267D02*
X169463200Y-103585733D01*
%LPC*%
D14*
X141338300Y-98336100D03*
D15*
X143878300Y-98336100D03*
X141338300Y-100876100D03*
X143878300Y-100876100D03*
X141338300Y-103416100D03*
X143878300Y-103416100D03*
X141338300Y-105956100D03*
X143878300Y-105956100D03*
X141338300Y-108496100D03*
X143878300Y-108496100D03*
X141338300Y-111036100D03*
X143878300Y-111036100D03*
X141338300Y-113576100D03*
X143878300Y-113576100D03*
X141338300Y-116116100D03*
X143878300Y-116116100D03*
X141338300Y-118656100D03*
X143878300Y-121196100D03*
X143878300Y-118656100D03*
X146418300Y-121196100D03*
X146418300Y-118656100D03*
X148958300Y-121196100D03*
X148958300Y-118656100D03*
X151498300Y-121196100D03*
X151498300Y-118656100D03*
X154038300Y-121196100D03*
X154038300Y-118656100D03*
X156578300Y-121196100D03*
X156578300Y-118656100D03*
X159118300Y-121196100D03*
X159118300Y-118656100D03*
X161658300Y-121196100D03*
X161658300Y-118656100D03*
X164198300Y-121196100D03*
X166738300Y-118656100D03*
X164198300Y-118656100D03*
X166738300Y-116116100D03*
X164198300Y-116116100D03*
X166738300Y-113576100D03*
X164198300Y-113576100D03*
X166738300Y-111036100D03*
X164198300Y-111036100D03*
X166738300Y-108496100D03*
X164198300Y-108496100D03*
X166738300Y-105956100D03*
X164198300Y-105956100D03*
X166738300Y-103416100D03*
X164198300Y-103416100D03*
X166738300Y-100876100D03*
X164198300Y-100876100D03*
X166738300Y-98336100D03*
X164198300Y-95796100D03*
X164198300Y-98336100D03*
X161658300Y-95796100D03*
X161658300Y-98336100D03*
X159118300Y-95796100D03*
X159118300Y-98336100D03*
X156578300Y-95796100D03*
X156578300Y-98336100D03*
X154038300Y-95796100D03*
X154038300Y-98336100D03*
X151498300Y-95796100D03*
X151498300Y-98336100D03*
X148958300Y-95796100D03*
X148958300Y-98336100D03*
X146418300Y-95796100D03*
X146418300Y-98336100D03*
X143878300Y-95796100D03*
D16*
X141325600Y-57711340D03*
D17*
X141325600Y-60251340D03*
X138785600Y-57711340D03*
X138785600Y-60251340D03*
X136245600Y-57711340D03*
X136245600Y-60251340D03*
X133705600Y-57711340D03*
X133705600Y-60251340D03*
X131165600Y-57711340D03*
X131165600Y-60251340D03*
D16*
X131620260Y-69113400D03*
D17*
X131620260Y-71653400D03*
D18*
X155157200Y-70331000D03*
D19*
X148877200Y-116496000D03*
X148877200Y-114746000D03*
D20*
X160967200Y-100101000D03*
X162717200Y-100101000D03*
D19*
X154057200Y-107141000D03*
X154057200Y-105391000D03*
X145511520Y-106086880D03*
X145511520Y-104336880D03*
D21*
X161707200Y-109561000D03*
X161707200Y-111311000D03*
X168960200Y-97390000D03*
X168960200Y-99140000D03*
D22*
X154082200Y-100161000D03*
X152332200Y-100161000D03*
D20*
X144392200Y-92157560D03*
X146142200Y-92157560D03*
D19*
X153897200Y-116441000D03*
X153897200Y-114691000D03*
D21*
X153837200Y-109381000D03*
X153837200Y-111131000D03*
D22*
X162794920Y-64498220D03*
X161044920Y-64498220D03*
X162385980Y-74996040D03*
X160635980Y-74996040D03*
D21*
X153393140Y-61842680D03*
X153393140Y-63592680D03*
D19*
X160185100Y-79366080D03*
X160185100Y-77616080D03*
D21*
X147883880Y-61776640D03*
X147883880Y-63526640D03*
D20*
X165832820Y-80515460D03*
X167582820Y-80515460D03*
X164801580Y-60286900D03*
X166551580Y-60286900D03*
D22*
X141451300Y-72854820D03*
X139701300Y-72854820D03*
X143902200Y-81831000D03*
X142152200Y-81831000D03*
D20*
X152411460Y-79308960D03*
X154161460Y-79308960D03*
X145263900Y-65864740D03*
X147013900Y-65864740D03*
X139683520Y-70370700D03*
X141433520Y-70370700D03*
D19*
X151683720Y-63486000D03*
X151683720Y-61736000D03*
X149778720Y-63394560D03*
X149778720Y-61644560D03*
D20*
X146627880Y-58239660D03*
X148377880Y-58239660D03*
D21*
X161991040Y-69127400D03*
X161991040Y-70877400D03*
D19*
X155188920Y-63552040D03*
X155188920Y-61802040D03*
D23*
X146237960Y-73948400D03*
X146237960Y-71898400D03*
D21*
X168772840Y-109371160D03*
X168772840Y-111121160D03*
D24*
X172680520Y-63985140D03*
X174730520Y-63985140D03*
D25*
X176880520Y-66855340D03*
X176880520Y-71935340D03*
X172689520Y-71935340D03*
X172689520Y-66855340D03*
D20*
X158558260Y-62664340D03*
X160308260Y-62664340D03*
D26*
X153033760Y-73980440D03*
X150733760Y-73980440D03*
X148433760Y-73980440D03*
D27*
X150733760Y-67680440D03*
D19*
X144170400Y-62160120D03*
X144170400Y-60410120D03*
X138595100Y-110994160D03*
X138595100Y-109244160D03*
D20*
X173386200Y-99069000D03*
X175136200Y-99069000D03*
D19*
X156077920Y-79269560D03*
X156077920Y-77519560D03*
D20*
X165865840Y-81978500D03*
X167615840Y-81978500D03*
D22*
X170282840Y-61523880D03*
X168532840Y-61523880D03*
X170313320Y-63103760D03*
X168563320Y-63103760D03*
X170333640Y-64678560D03*
X168583640Y-64678560D03*
X170343800Y-66365120D03*
X168593800Y-66365120D03*
D20*
X144392200Y-86427560D03*
X146142200Y-86427560D03*
D22*
X147067240Y-67564000D03*
X145317240Y-67564000D03*
X138736040Y-78450440D03*
X136986040Y-78450440D03*
X138761440Y-76982320D03*
X137011440Y-76982320D03*
D19*
X138572240Y-105820180D03*
X138572240Y-104070180D03*
D22*
X138766520Y-75575160D03*
X137016520Y-75575160D03*
D28*
X135318820Y-74455020D03*
X132818820Y-74455020D03*
D19*
X167335200Y-122614660D03*
X167335200Y-120864660D03*
X169384980Y-122599420D03*
X169384980Y-120849420D03*
X171437300Y-122589260D03*
X171437300Y-120839260D03*
X173428660Y-122622280D03*
X173428660Y-120872280D03*
D29*
X130694940Y-86829900D03*
X130694940Y-87929900D03*
X130694940Y-89029900D03*
X130694940Y-90129900D03*
X130694940Y-91229900D03*
X130694940Y-92329900D03*
X130694940Y-93429900D03*
X130694940Y-94529900D03*
D30*
X139919940Y-95654900D03*
D31*
X141494940Y-84429900D03*
D32*
X138419940Y-95979900D03*
D33*
X130819940Y-95729900D03*
D34*
X130819940Y-84379900D03*
D35*
X139069940Y-84029900D03*
D36*
X150723600Y-76127700D03*
X150723600Y-78202700D03*
D37*
X168953200Y-104594500D03*
X168953200Y-102869500D03*
M02*
