G04 #@! TF.GenerationSoftware,KiCad,Pcbnew,(5.1.5)-3*
G04 #@! TF.CreationDate,2020-05-19T14:22:00+01:00*
G04 #@! TF.ProjectId,ElectronULA,456c6563-7472-46f6-9e55-4c412e6b6963,rev?*
G04 #@! TF.SameCoordinates,Original*
G04 #@! TF.FileFunction,Legend,Top*
G04 #@! TF.FilePolarity,Positive*
%FSLAX46Y46*%
G04 Gerber Fmt 4.6, Leading zero omitted, Abs format (unit mm)*
G04 Created by KiCad (PCBNEW (5.1.5)-3) date 2020-05-19 14:22:00*
%MOMM*%
%LPD*%
G04 APERTURE LIST*
%ADD10C,0.150000*%
%ADD11C,0.125000*%
%ADD12C,0.200000*%
%ADD13C,0.050000*%
%ADD14C,0.120000*%
%ADD15C,0.127000*%
%ADD16C,0.115000*%
G04 APERTURE END LIST*
D10*
X143903011Y-61298211D02*
X143045868Y-61298211D01*
X143474440Y-61298211D02*
X143474440Y-59798211D01*
X143331582Y-60012497D01*
X143188725Y-60155354D01*
X143045868Y-60226782D01*
X148397080Y-58587900D02*
X147825652Y-58587900D01*
X148111366Y-58587900D02*
X148111366Y-57587900D01*
X148016128Y-57730758D01*
X147920890Y-57825996D01*
X147825652Y-57873615D01*
X149016128Y-57587900D02*
X149111366Y-57587900D01*
X149206604Y-57635520D01*
X149254223Y-57683139D01*
X149301842Y-57778377D01*
X149349461Y-57968853D01*
X149349461Y-58206948D01*
X149301842Y-58397424D01*
X149254223Y-58492662D01*
X149206604Y-58540281D01*
X149111366Y-58587900D01*
X149016128Y-58587900D01*
X148920890Y-58540281D01*
X148873271Y-58492662D01*
X148825652Y-58397424D01*
X148778033Y-58206948D01*
X148778033Y-57968853D01*
X148825652Y-57778377D01*
X148873271Y-57683139D01*
X148920890Y-57635520D01*
X149016128Y-57587900D01*
X149778033Y-58587900D02*
X149778033Y-57587900D01*
X150111366Y-58302186D01*
X150444700Y-57587900D01*
X150444700Y-58587900D01*
X151111366Y-57587900D02*
X151206604Y-57587900D01*
X151301842Y-57635520D01*
X151349461Y-57683139D01*
X151397080Y-57778377D01*
X151444700Y-57968853D01*
X151444700Y-58206948D01*
X151397080Y-58397424D01*
X151349461Y-58492662D01*
X151301842Y-58540281D01*
X151206604Y-58587900D01*
X151111366Y-58587900D01*
X151016128Y-58540281D01*
X150968509Y-58492662D01*
X150920890Y-58397424D01*
X150873271Y-58206948D01*
X150873271Y-57968853D01*
X150920890Y-57778377D01*
X150968509Y-57683139D01*
X151016128Y-57635520D01*
X151111366Y-57587900D01*
X152016128Y-58016472D02*
X151920890Y-57968853D01*
X151873271Y-57921234D01*
X151825652Y-57825996D01*
X151825652Y-57778377D01*
X151873271Y-57683139D01*
X151920890Y-57635520D01*
X152016128Y-57587900D01*
X152206604Y-57587900D01*
X152301842Y-57635520D01*
X152349461Y-57683139D01*
X152397080Y-57778377D01*
X152397080Y-57825996D01*
X152349461Y-57921234D01*
X152301842Y-57968853D01*
X152206604Y-58016472D01*
X152016128Y-58016472D01*
X151920890Y-58064091D01*
X151873271Y-58111710D01*
X151825652Y-58206948D01*
X151825652Y-58397424D01*
X151873271Y-58492662D01*
X151920890Y-58540281D01*
X152016128Y-58587900D01*
X152206604Y-58587900D01*
X152301842Y-58540281D01*
X152349461Y-58492662D01*
X152397080Y-58397424D01*
X152397080Y-58206948D01*
X152349461Y-58111710D01*
X152301842Y-58064091D01*
X152206604Y-58016472D01*
X152778033Y-58540281D02*
X152920890Y-58587900D01*
X153158985Y-58587900D01*
X153254223Y-58540281D01*
X153301842Y-58492662D01*
X153349461Y-58397424D01*
X153349461Y-58302186D01*
X153301842Y-58206948D01*
X153254223Y-58159329D01*
X153158985Y-58111710D01*
X152968509Y-58064091D01*
X152873271Y-58016472D01*
X152825652Y-57968853D01*
X152778033Y-57873615D01*
X152778033Y-57778377D01*
X152825652Y-57683139D01*
X152873271Y-57635520D01*
X152968509Y-57587900D01*
X153206604Y-57587900D01*
X153349461Y-57635520D01*
X154349461Y-58492662D02*
X154301842Y-58540281D01*
X154158985Y-58587900D01*
X154063747Y-58587900D01*
X153920890Y-58540281D01*
X153825652Y-58445043D01*
X153778033Y-58349805D01*
X153730414Y-58159329D01*
X153730414Y-58016472D01*
X153778033Y-57825996D01*
X153825652Y-57730758D01*
X153920890Y-57635520D01*
X154063747Y-57587900D01*
X154158985Y-57587900D01*
X154301842Y-57635520D01*
X154349461Y-57683139D01*
X154778033Y-58064091D02*
X155111366Y-58064091D01*
X155254223Y-58587900D02*
X154778033Y-58587900D01*
X154778033Y-57587900D01*
X155254223Y-57587900D01*
X156206604Y-58587900D02*
X155635176Y-58587900D01*
X155920890Y-58587900D02*
X155920890Y-57587900D01*
X155825652Y-57730758D01*
X155730414Y-57825996D01*
X155635176Y-57873615D01*
X157063747Y-57921234D02*
X157063747Y-58587900D01*
X156825652Y-57540281D02*
X156587557Y-58254567D01*
X157206604Y-58254567D01*
X158016128Y-57921234D02*
X158016128Y-58587900D01*
X157778033Y-57540281D02*
X157539938Y-58254567D01*
X158158985Y-58254567D01*
X159111366Y-58492662D02*
X159063747Y-58540281D01*
X158920890Y-58587900D01*
X158825652Y-58587900D01*
X158682795Y-58540281D01*
X158587557Y-58445043D01*
X158539938Y-58349805D01*
X158492319Y-58159329D01*
X158492319Y-58016472D01*
X158539938Y-57825996D01*
X158587557Y-57730758D01*
X158682795Y-57635520D01*
X158825652Y-57587900D01*
X158920890Y-57587900D01*
X159063747Y-57635520D01*
X159111366Y-57683139D01*
X159682795Y-58016472D02*
X159587557Y-57968853D01*
X159539938Y-57921234D01*
X159492319Y-57825996D01*
X159492319Y-57778377D01*
X159539938Y-57683139D01*
X159587557Y-57635520D01*
X159682795Y-57587900D01*
X159873271Y-57587900D01*
X159968509Y-57635520D01*
X160016128Y-57683139D01*
X160063747Y-57778377D01*
X160063747Y-57825996D01*
X160016128Y-57921234D01*
X159968509Y-57968853D01*
X159873271Y-58016472D01*
X159682795Y-58016472D01*
X159587557Y-58064091D01*
X159539938Y-58111710D01*
X159492319Y-58206948D01*
X159492319Y-58397424D01*
X159539938Y-58492662D01*
X159587557Y-58540281D01*
X159682795Y-58587900D01*
X159873271Y-58587900D01*
X159968509Y-58540281D01*
X160016128Y-58492662D01*
X160063747Y-58397424D01*
X160063747Y-58206948D01*
X160016128Y-58111710D01*
X159968509Y-58064091D01*
X159873271Y-58016472D01*
X161016128Y-57635520D02*
X160920890Y-57587900D01*
X160778033Y-57587900D01*
X160635176Y-57635520D01*
X160539938Y-57730758D01*
X160492319Y-57825996D01*
X160444700Y-58016472D01*
X160444700Y-58159329D01*
X160492319Y-58349805D01*
X160539938Y-58445043D01*
X160635176Y-58540281D01*
X160778033Y-58587900D01*
X160873271Y-58587900D01*
X161016128Y-58540281D01*
X161063747Y-58492662D01*
X161063747Y-58159329D01*
X160873271Y-58159329D01*
X133802215Y-68641340D02*
X133706977Y-68593720D01*
X133564120Y-68593720D01*
X133421262Y-68641340D01*
X133326024Y-68736578D01*
X133278405Y-68831816D01*
X133230786Y-69022292D01*
X133230786Y-69165149D01*
X133278405Y-69355625D01*
X133326024Y-69450863D01*
X133421262Y-69546101D01*
X133564120Y-69593720D01*
X133659358Y-69593720D01*
X133802215Y-69546101D01*
X133849834Y-69498482D01*
X133849834Y-69165149D01*
X133659358Y-69165149D01*
X134278405Y-69593720D02*
X134278405Y-68593720D01*
X134849834Y-69593720D01*
X134849834Y-68593720D01*
X135326024Y-69593720D02*
X135326024Y-68593720D01*
X135564120Y-68593720D01*
X135706977Y-68641340D01*
X135802215Y-68736578D01*
X135849834Y-68831816D01*
X135897453Y-69022292D01*
X135897453Y-69165149D01*
X135849834Y-69355625D01*
X135802215Y-69450863D01*
X135706977Y-69546101D01*
X135564120Y-69593720D01*
X135326024Y-69593720D01*
X133784363Y-71154040D02*
X133308173Y-71154040D01*
X133260554Y-71630231D01*
X133308173Y-71582612D01*
X133403411Y-71534993D01*
X133641506Y-71534993D01*
X133736744Y-71582612D01*
X133784363Y-71630231D01*
X133831982Y-71725469D01*
X133831982Y-71963564D01*
X133784363Y-72058802D01*
X133736744Y-72106421D01*
X133641506Y-72154040D01*
X133403411Y-72154040D01*
X133308173Y-72106421D01*
X133260554Y-72058802D01*
X134117697Y-71154040D02*
X134451030Y-72154040D01*
X134784363Y-71154040D01*
X143411035Y-57300240D02*
X143315797Y-57252620D01*
X143172940Y-57252620D01*
X143030082Y-57300240D01*
X142934844Y-57395478D01*
X142887225Y-57490716D01*
X142839606Y-57681192D01*
X142839606Y-57824049D01*
X142887225Y-58014525D01*
X142934844Y-58109763D01*
X143030082Y-58205001D01*
X143172940Y-58252620D01*
X143268178Y-58252620D01*
X143411035Y-58205001D01*
X143458654Y-58157382D01*
X143458654Y-57824049D01*
X143268178Y-57824049D01*
X143887225Y-58252620D02*
X143887225Y-57252620D01*
X144458654Y-58252620D01*
X144458654Y-57252620D01*
X144934844Y-58252620D02*
X144934844Y-57252620D01*
X145172940Y-57252620D01*
X145315797Y-57300240D01*
X145411035Y-57395478D01*
X145458654Y-57490716D01*
X145506273Y-57681192D01*
X145506273Y-57824049D01*
X145458654Y-58014525D01*
X145411035Y-58109763D01*
X145315797Y-58205001D01*
X145172940Y-58252620D01*
X144934844Y-58252620D01*
X140836400Y-63693229D02*
X140836400Y-63121800D01*
X141836400Y-63407515D02*
X140836400Y-63407515D01*
X141836400Y-62788467D02*
X140836400Y-62788467D01*
X140836400Y-62550372D01*
X140884020Y-62407515D01*
X140979258Y-62312277D01*
X141074496Y-62264658D01*
X141264972Y-62217039D01*
X141407829Y-62217039D01*
X141598305Y-62264658D01*
X141693543Y-62312277D01*
X141788781Y-62407515D01*
X141836400Y-62550372D01*
X141836400Y-62788467D01*
X141836400Y-61788467D02*
X140836400Y-61788467D01*
X135845300Y-64305013D02*
X135845300Y-63733584D01*
X136845300Y-64019299D02*
X135845300Y-64019299D01*
X136845300Y-63400251D02*
X135845300Y-63400251D01*
X136559586Y-63066918D01*
X135845300Y-62733584D01*
X136845300Y-62733584D01*
X136797681Y-62305013D02*
X136845300Y-62162156D01*
X136845300Y-61924060D01*
X136797681Y-61828822D01*
X136750062Y-61781203D01*
X136654824Y-61733584D01*
X136559586Y-61733584D01*
X136464348Y-61781203D01*
X136416729Y-61828822D01*
X136369110Y-61924060D01*
X136321491Y-62114537D01*
X136273872Y-62209775D01*
X136226253Y-62257394D01*
X136131015Y-62305013D01*
X136035777Y-62305013D01*
X135940539Y-62257394D01*
X135892920Y-62209775D01*
X135845300Y-62114537D01*
X135845300Y-61876441D01*
X135892920Y-61733584D01*
X133259580Y-64243103D02*
X133259580Y-63671675D01*
X134259580Y-63957389D02*
X133259580Y-63957389D01*
X134259580Y-63338341D02*
X133259580Y-63338341D01*
X133259580Y-63100246D01*
X133307200Y-62957389D01*
X133402438Y-62862151D01*
X133497676Y-62814532D01*
X133688152Y-62766913D01*
X133831009Y-62766913D01*
X134021485Y-62814532D01*
X134116723Y-62862151D01*
X134211961Y-62957389D01*
X134259580Y-63100246D01*
X134259580Y-63338341D01*
X133259580Y-62147865D02*
X133259580Y-61957389D01*
X133307200Y-61862151D01*
X133402438Y-61766913D01*
X133592914Y-61719294D01*
X133926247Y-61719294D01*
X134116723Y-61766913D01*
X134211961Y-61862151D01*
X134259580Y-61957389D01*
X134259580Y-62147865D01*
X134211961Y-62243103D01*
X134116723Y-62338341D01*
X133926247Y-62385960D01*
X133592914Y-62385960D01*
X133402438Y-62338341D01*
X133307200Y-62243103D01*
X133259580Y-62147865D01*
X130653540Y-64239614D02*
X130653540Y-63668185D01*
X131653540Y-63953900D02*
X130653540Y-63953900D01*
X131558302Y-62763423D02*
X131605921Y-62811042D01*
X131653540Y-62953900D01*
X131653540Y-63049138D01*
X131605921Y-63191995D01*
X131510683Y-63287233D01*
X131415445Y-63334852D01*
X131224969Y-63382471D01*
X131082112Y-63382471D01*
X130891636Y-63334852D01*
X130796398Y-63287233D01*
X130701160Y-63191995D01*
X130653540Y-63049138D01*
X130653540Y-62953900D01*
X130701160Y-62811042D01*
X130748779Y-62763423D01*
X131653540Y-62334852D02*
X130653540Y-62334852D01*
X131653540Y-61763423D02*
X131082112Y-62191995D01*
X130653540Y-61763423D02*
X131224969Y-62334852D01*
D11*
X176645100Y-101924315D02*
X176645100Y-101657648D01*
X177011766Y-101543362D02*
X177011766Y-101924315D01*
X176311766Y-101924315D01*
X176311766Y-101543362D01*
X177011766Y-101086220D02*
X176978433Y-101162410D01*
X176911766Y-101200505D01*
X176311766Y-101200505D01*
X176978433Y-100476696D02*
X177011766Y-100552886D01*
X177011766Y-100705267D01*
X176978433Y-100781458D01*
X176911766Y-100819553D01*
X176645100Y-100819553D01*
X176578433Y-100781458D01*
X176545100Y-100705267D01*
X176545100Y-100552886D01*
X176578433Y-100476696D01*
X176645100Y-100438600D01*
X176711766Y-100438600D01*
X176778433Y-100819553D01*
X176978433Y-99752886D02*
X177011766Y-99829077D01*
X177011766Y-99981458D01*
X176978433Y-100057648D01*
X176945100Y-100095743D01*
X176878433Y-100133839D01*
X176678433Y-100133839D01*
X176611766Y-100095743D01*
X176578433Y-100057648D01*
X176545100Y-99981458D01*
X176545100Y-99829077D01*
X176578433Y-99752886D01*
X176545100Y-99524315D02*
X176545100Y-99219553D01*
X176311766Y-99410029D02*
X176911766Y-99410029D01*
X176978433Y-99371934D01*
X177011766Y-99295743D01*
X177011766Y-99219553D01*
X177011766Y-98952886D02*
X176545100Y-98952886D01*
X176678433Y-98952886D02*
X176611766Y-98914791D01*
X176578433Y-98876696D01*
X176545100Y-98800505D01*
X176545100Y-98724315D01*
X177011766Y-98343362D02*
X176978433Y-98419553D01*
X176945100Y-98457648D01*
X176878433Y-98495743D01*
X176678433Y-98495743D01*
X176611766Y-98457648D01*
X176578433Y-98419553D01*
X176545100Y-98343362D01*
X176545100Y-98229077D01*
X176578433Y-98152886D01*
X176611766Y-98114791D01*
X176678433Y-98076696D01*
X176878433Y-98076696D01*
X176945100Y-98114791D01*
X176978433Y-98152886D01*
X177011766Y-98229077D01*
X177011766Y-98343362D01*
X176545100Y-97733839D02*
X177011766Y-97733839D01*
X176611766Y-97733839D02*
X176578433Y-97695743D01*
X176545100Y-97619553D01*
X176545100Y-97505267D01*
X176578433Y-97429077D01*
X176645100Y-97390981D01*
X177011766Y-97390981D01*
X176311766Y-96400505D02*
X176878433Y-96400505D01*
X176945100Y-96362410D01*
X176978433Y-96324315D01*
X177011766Y-96248124D01*
X177011766Y-96095743D01*
X176978433Y-96019553D01*
X176945100Y-95981458D01*
X176878433Y-95943362D01*
X176311766Y-95943362D01*
X177011766Y-95181458D02*
X177011766Y-95562410D01*
X176311766Y-95562410D01*
X176811766Y-94952886D02*
X176811766Y-94571934D01*
X177011766Y-95029077D02*
X176311766Y-94762410D01*
X177011766Y-94495743D01*
X176745100Y-93619553D02*
X176745100Y-93010029D01*
X176311766Y-92133839D02*
X177011766Y-91867172D01*
X176311766Y-91600505D01*
X177011766Y-90914791D02*
X177011766Y-91371934D01*
X177011766Y-91143362D02*
X176311766Y-91143362D01*
X176411766Y-91219553D01*
X176478433Y-91295743D01*
X176511766Y-91371934D01*
X176945100Y-90571934D02*
X176978433Y-90533839D01*
X177011766Y-90571934D01*
X176978433Y-90610029D01*
X176945100Y-90571934D01*
X177011766Y-90571934D01*
X176311766Y-90038600D02*
X176311766Y-89962410D01*
X176345100Y-89886220D01*
X176378433Y-89848124D01*
X176445100Y-89810029D01*
X176578433Y-89771934D01*
X176745100Y-89771934D01*
X176878433Y-89810029D01*
X176945100Y-89848124D01*
X176978433Y-89886220D01*
X177011766Y-89962410D01*
X177011766Y-90038600D01*
X176978433Y-90114791D01*
X176945100Y-90152886D01*
X176878433Y-90190981D01*
X176745100Y-90229077D01*
X176578433Y-90229077D01*
X176445100Y-90190981D01*
X176378433Y-90152886D01*
X176345100Y-90114791D01*
X176311766Y-90038600D01*
X177011766Y-89010029D02*
X177011766Y-89467172D01*
X177011766Y-89238600D02*
X176311766Y-89238600D01*
X176411766Y-89314791D01*
X176478433Y-89390981D01*
X176511766Y-89467172D01*
D12*
X141890405Y-94284847D02*
X141604691Y-95046752D01*
X141318977Y-94284847D01*
D13*
X129700020Y-124670820D02*
X129703200Y-56271000D01*
X178683920Y-124670820D02*
X129700020Y-124670820D01*
X178661700Y-56283700D02*
X178683920Y-124670820D01*
X129703200Y-56271000D02*
X178661700Y-56283700D01*
D14*
X134326700Y-115842148D02*
X134326700Y-116364652D01*
X132906700Y-115842148D02*
X132906700Y-116364652D01*
X135918840Y-118196440D02*
X137618840Y-118196440D01*
X137618840Y-118196440D02*
X137618840Y-115046440D01*
X135918840Y-118196440D02*
X135918840Y-115046440D01*
X130290260Y-67783400D02*
X131620260Y-67783400D01*
X130290260Y-69113400D02*
X130290260Y-67783400D01*
X130290260Y-70383400D02*
X132950260Y-70383400D01*
X132950260Y-70383400D02*
X132950260Y-72983400D01*
X130290260Y-70383400D02*
X130290260Y-72983400D01*
X130290260Y-72983400D02*
X132950260Y-72983400D01*
X170041387Y-89908920D02*
X169698853Y-89908920D01*
X170041387Y-90928920D02*
X169698853Y-90928920D01*
X142655600Y-56381340D02*
X142655600Y-57711340D01*
X141325600Y-56381340D02*
X142655600Y-56381340D01*
X142655600Y-58981340D02*
X142655600Y-61581340D01*
X140055600Y-58981340D02*
X142655600Y-58981340D01*
X140055600Y-56381340D02*
X140055600Y-58981340D01*
X142655600Y-61581340D02*
X129835600Y-61581340D01*
X140055600Y-56381340D02*
X129835600Y-56381340D01*
X129835600Y-56381340D02*
X129835600Y-61581340D01*
X159175948Y-85111000D02*
X159698452Y-85111000D01*
X159175948Y-83691000D02*
X159698452Y-83691000D01*
D12*
X142487200Y-61871000D02*
G75*
G03X142487200Y-61871000I-100000J0D01*
G01*
D15*
X144137200Y-80621000D02*
X144887200Y-80621000D01*
X144137200Y-79871000D02*
X144137200Y-80621000D01*
X164137200Y-80621000D02*
X164137200Y-79871000D01*
X163387200Y-80621000D02*
X164137200Y-80621000D01*
X164137200Y-60621000D02*
X164137200Y-61371000D01*
X163387200Y-60621000D02*
X164137200Y-60621000D01*
X144137200Y-60621000D02*
X144887200Y-60621000D01*
X144137200Y-61371000D02*
X144137200Y-60621000D01*
D10*
X170917720Y-116928220D02*
X175567720Y-116928220D01*
X169842720Y-108828220D02*
X175567720Y-108828220D01*
X170917720Y-116928220D02*
X170917720Y-116903220D01*
X175567720Y-116928220D02*
X175567720Y-116903220D01*
X175567720Y-108878220D02*
X175567720Y-108903220D01*
D14*
X138522640Y-94384228D02*
X138522640Y-94906732D01*
X139942640Y-94384228D02*
X139942640Y-94906732D01*
X140726920Y-96541720D02*
X140726920Y-93391720D01*
X142426920Y-96541720D02*
X142426920Y-93391720D01*
X140726920Y-96541720D02*
X142426920Y-96541720D01*
X169663300Y-92871100D02*
X155038300Y-92871100D01*
X169663300Y-124121100D02*
X169663300Y-92871100D01*
X138413300Y-124121100D02*
X169663300Y-124121100D01*
X138413300Y-93871100D02*
X138413300Y-124121100D01*
X139413300Y-92871100D02*
X138413300Y-93871100D01*
X153038300Y-92871100D02*
X139413300Y-92871100D01*
X157817200Y-86291000D02*
X157817200Y-88741000D01*
X161037200Y-88091000D02*
X161037200Y-86291000D01*
D10*
X151748860Y-91199600D02*
X151748860Y-86549600D01*
X143648860Y-92274600D02*
X143648860Y-86549600D01*
X151748860Y-91199600D02*
X151723860Y-91199600D01*
X151748860Y-86549600D02*
X151723860Y-86549600D01*
X143698860Y-86549600D02*
X143723860Y-86549600D01*
X156552000Y-107707800D02*
X161202000Y-107707800D01*
X155477000Y-99607800D02*
X161202000Y-99607800D01*
X156552000Y-107707800D02*
X156552000Y-107682800D01*
X161202000Y-107707800D02*
X161202000Y-107682800D01*
X161202000Y-99657800D02*
X161202000Y-99682800D01*
X156552000Y-116928000D02*
X161202000Y-116928000D01*
X155477000Y-108828000D02*
X161202000Y-108828000D01*
X156552000Y-116928000D02*
X156552000Y-116903000D01*
X161202000Y-116928000D02*
X161202000Y-116903000D01*
X161202000Y-108878000D02*
X161202000Y-108903000D01*
X151816700Y-99556200D02*
X147166700Y-99556200D01*
X152891700Y-107656200D02*
X147166700Y-107656200D01*
X151816700Y-99556200D02*
X151816700Y-99581200D01*
X147166700Y-99556200D02*
X147166700Y-99581200D01*
X147166700Y-107606200D02*
X147166700Y-107581200D01*
X151842100Y-108903400D02*
X147192100Y-108903400D01*
X152917100Y-117003400D02*
X147192100Y-117003400D01*
X151842100Y-108903400D02*
X151842100Y-108928400D01*
X147192100Y-108903400D02*
X147192100Y-108928400D01*
X147192100Y-116953400D02*
X147192100Y-116928400D01*
D14*
X157007200Y-87557252D02*
X157007200Y-87034748D01*
X155587200Y-87557252D02*
X155587200Y-87034748D01*
X162247200Y-86894748D02*
X162247200Y-87417252D01*
X163667200Y-86894748D02*
X163667200Y-87417252D01*
X166267200Y-87412252D02*
X166267200Y-86889748D01*
X164847200Y-87412252D02*
X164847200Y-86889748D01*
X164243452Y-89691000D02*
X163720948Y-89691000D01*
X164243452Y-91111000D02*
X163720948Y-91111000D01*
X140866920Y-90115468D02*
X140866920Y-90637972D01*
X142286920Y-90115468D02*
X142286920Y-90637972D01*
X139911400Y-90665452D02*
X139911400Y-90142948D01*
X138491400Y-90665452D02*
X138491400Y-90142948D01*
D10*
X132986542Y-120127020D02*
X132653209Y-119650830D01*
X132415114Y-120127020D02*
X132415114Y-119127020D01*
X132796066Y-119127020D01*
X132891304Y-119174640D01*
X132938923Y-119222259D01*
X132986542Y-119317497D01*
X132986542Y-119460354D01*
X132938923Y-119555592D01*
X132891304Y-119603211D01*
X132796066Y-119650830D01*
X132415114Y-119650830D01*
X133938923Y-120127020D02*
X133367495Y-120127020D01*
X133653209Y-120127020D02*
X133653209Y-119127020D01*
X133557971Y-119269878D01*
X133462733Y-119365116D01*
X133367495Y-119412735D01*
X134272257Y-119127020D02*
X134938923Y-119127020D01*
X134510352Y-120127020D01*
X136007884Y-120127020D02*
X136007884Y-119127020D01*
X136245980Y-119127020D01*
X136388837Y-119174640D01*
X136484075Y-119269878D01*
X136531694Y-119365116D01*
X136579313Y-119555592D01*
X136579313Y-119698449D01*
X136531694Y-119888925D01*
X136484075Y-119984163D01*
X136388837Y-120079401D01*
X136245980Y-120127020D01*
X136007884Y-120127020D01*
X136960265Y-119222259D02*
X137007884Y-119174640D01*
X137103122Y-119127020D01*
X137341218Y-119127020D01*
X137436456Y-119174640D01*
X137484075Y-119222259D01*
X137531694Y-119317497D01*
X137531694Y-119412735D01*
X137484075Y-119555592D01*
X136912646Y-120127020D01*
X137531694Y-120127020D01*
X131286926Y-66235780D02*
X131286926Y-66950066D01*
X131239307Y-67092923D01*
X131144069Y-67188161D01*
X131001212Y-67235780D01*
X130905974Y-67235780D01*
X132286926Y-67235780D02*
X131715498Y-67235780D01*
X132001212Y-67235780D02*
X132001212Y-66235780D01*
X131905974Y-66378638D01*
X131810736Y-66473876D01*
X131715498Y-66521495D01*
X169245042Y-89286340D02*
X168911709Y-88810150D01*
X168673614Y-89286340D02*
X168673614Y-88286340D01*
X169054566Y-88286340D01*
X169149804Y-88333960D01*
X169197423Y-88381579D01*
X169245042Y-88476817D01*
X169245042Y-88619674D01*
X169197423Y-88714912D01*
X169149804Y-88762531D01*
X169054566Y-88810150D01*
X168673614Y-88810150D01*
X170197423Y-89286340D02*
X169625995Y-89286340D01*
X169911709Y-89286340D02*
X169911709Y-88286340D01*
X169816471Y-88429198D01*
X169721233Y-88524436D01*
X169625995Y-88572055D01*
X170530757Y-88286340D02*
X171149804Y-88286340D01*
X170816471Y-88667293D01*
X170959328Y-88667293D01*
X171054566Y-88714912D01*
X171102185Y-88762531D01*
X171149804Y-88857769D01*
X171149804Y-89095864D01*
X171102185Y-89191102D01*
X171054566Y-89238721D01*
X170959328Y-89286340D01*
X170673614Y-89286340D01*
X170578376Y-89238721D01*
X170530757Y-89191102D01*
X134871982Y-65172340D02*
X134871982Y-65886626D01*
X134824363Y-66029483D01*
X134729125Y-66124721D01*
X134586268Y-66172340D01*
X134491030Y-66172340D01*
X135205316Y-65172340D02*
X135776744Y-65172340D01*
X135491030Y-66172340D02*
X135491030Y-65172340D01*
X136062459Y-65886626D02*
X136538649Y-65886626D01*
X135967220Y-66172340D02*
X136300554Y-65172340D01*
X136633887Y-66172340D01*
X137491030Y-65219960D02*
X137395792Y-65172340D01*
X137252935Y-65172340D01*
X137110078Y-65219960D01*
X137014840Y-65315198D01*
X136967220Y-65410436D01*
X136919601Y-65600912D01*
X136919601Y-65743769D01*
X136967220Y-65934245D01*
X137014840Y-66029483D01*
X137110078Y-66124721D01*
X137252935Y-66172340D01*
X137348173Y-66172340D01*
X137491030Y-66124721D01*
X137538649Y-66077102D01*
X137538649Y-65743769D01*
X137348173Y-65743769D01*
X138491030Y-66172340D02*
X137919601Y-66172340D01*
X138205316Y-66172340D02*
X138205316Y-65172340D01*
X138110078Y-65315198D01*
X138014840Y-65410436D01*
X137919601Y-65458055D01*
X159260533Y-83363380D02*
X158927200Y-82887190D01*
X158689104Y-83363380D02*
X158689104Y-82363380D01*
X159070057Y-82363380D01*
X159165295Y-82411000D01*
X159212914Y-82458619D01*
X159260533Y-82553857D01*
X159260533Y-82696714D01*
X159212914Y-82791952D01*
X159165295Y-82839571D01*
X159070057Y-82887190D01*
X158689104Y-82887190D01*
X159641485Y-82458619D02*
X159689104Y-82411000D01*
X159784342Y-82363380D01*
X160022438Y-82363380D01*
X160117676Y-82411000D01*
X160165295Y-82458619D01*
X160212914Y-82553857D01*
X160212914Y-82649095D01*
X160165295Y-82791952D01*
X159593866Y-83363380D01*
X160212914Y-83363380D01*
D16*
X164040573Y-59655215D02*
X164040573Y-60465102D01*
X164088213Y-60560383D01*
X164135854Y-60608023D01*
X164231134Y-60655664D01*
X164421696Y-60655664D01*
X164516977Y-60608023D01*
X164564617Y-60560383D01*
X164612258Y-60465102D01*
X164612258Y-59655215D01*
X165612707Y-60655664D02*
X165041022Y-60655664D01*
X165326864Y-60655664D02*
X165326864Y-59655215D01*
X165231583Y-59798136D01*
X165136303Y-59893417D01*
X165041022Y-59941057D01*
D10*
X172394975Y-107336340D02*
X172394975Y-108145864D01*
X172442594Y-108241102D01*
X172490213Y-108288721D01*
X172585451Y-108336340D01*
X172775927Y-108336340D01*
X172871165Y-108288721D01*
X172918784Y-108241102D01*
X172966403Y-108145864D01*
X172966403Y-107336340D01*
X173918784Y-107336340D02*
X173442594Y-107336340D01*
X173394975Y-107812531D01*
X173442594Y-107764912D01*
X173537832Y-107717293D01*
X173775927Y-107717293D01*
X173871165Y-107764912D01*
X173918784Y-107812531D01*
X173966403Y-107907769D01*
X173966403Y-108145864D01*
X173918784Y-108241102D01*
X173871165Y-108288721D01*
X173775927Y-108336340D01*
X173537832Y-108336340D01*
X173442594Y-108288721D01*
X173394975Y-108241102D01*
X137282893Y-94478100D02*
X136949560Y-94001910D01*
X136711464Y-94478100D02*
X136711464Y-93478100D01*
X137092417Y-93478100D01*
X137187655Y-93525720D01*
X137235274Y-93573339D01*
X137282893Y-93668577D01*
X137282893Y-93811434D01*
X137235274Y-93906672D01*
X137187655Y-93954291D01*
X137092417Y-94001910D01*
X136711464Y-94001910D01*
X138235274Y-94478100D02*
X137663845Y-94478100D01*
X137949560Y-94478100D02*
X137949560Y-93478100D01*
X137854321Y-93620958D01*
X137759083Y-93716196D01*
X137663845Y-93763815D01*
X142832864Y-94478100D02*
X142832864Y-93478100D01*
X143070960Y-93478100D01*
X143213817Y-93525720D01*
X143309055Y-93620958D01*
X143356674Y-93716196D01*
X143404293Y-93906672D01*
X143404293Y-94049529D01*
X143356674Y-94240005D01*
X143309055Y-94335243D01*
X143213817Y-94430481D01*
X143070960Y-94478100D01*
X142832864Y-94478100D01*
X144356674Y-94478100D02*
X143785245Y-94478100D01*
X144070960Y-94478100D02*
X144070960Y-93478100D01*
X143975721Y-93620958D01*
X143880483Y-93716196D01*
X143785245Y-93763815D01*
X153276395Y-91423480D02*
X153276395Y-92233004D01*
X153324014Y-92328242D01*
X153371633Y-92375861D01*
X153466871Y-92423480D01*
X153657347Y-92423480D01*
X153752585Y-92375861D01*
X153800204Y-92328242D01*
X153847823Y-92233004D01*
X153847823Y-91423480D01*
X154371633Y-92423480D02*
X154562109Y-92423480D01*
X154657347Y-92375861D01*
X154704966Y-92328242D01*
X154800204Y-92185385D01*
X154847823Y-91994909D01*
X154847823Y-91613957D01*
X154800204Y-91518719D01*
X154752585Y-91471100D01*
X154657347Y-91423480D01*
X154466871Y-91423480D01*
X154371633Y-91471100D01*
X154324014Y-91518719D01*
X154276395Y-91613957D01*
X154276395Y-91852052D01*
X154324014Y-91947290D01*
X154371633Y-91994909D01*
X154466871Y-92042528D01*
X154657347Y-92042528D01*
X154752585Y-91994909D01*
X154800204Y-91947290D01*
X154847823Y-91852052D01*
X158359104Y-90188142D02*
X158311485Y-90235761D01*
X158168628Y-90283380D01*
X158073390Y-90283380D01*
X157930533Y-90235761D01*
X157835295Y-90140523D01*
X157787676Y-90045285D01*
X157740057Y-89854809D01*
X157740057Y-89711952D01*
X157787676Y-89521476D01*
X157835295Y-89426238D01*
X157930533Y-89331000D01*
X158073390Y-89283380D01*
X158168628Y-89283380D01*
X158311485Y-89331000D01*
X158359104Y-89378619D01*
X158787676Y-90283380D02*
X158787676Y-89283380D01*
X159121009Y-89997666D01*
X159454342Y-89283380D01*
X159454342Y-90283380D01*
X159930533Y-90283380D02*
X159930533Y-89283380D01*
X160311485Y-89283380D01*
X160406723Y-89331000D01*
X160454342Y-89378619D01*
X160501961Y-89473857D01*
X160501961Y-89616714D01*
X160454342Y-89711952D01*
X160406723Y-89759571D01*
X160311485Y-89807190D01*
X159930533Y-89807190D01*
X161454342Y-90283380D02*
X160882914Y-90283380D01*
X161168628Y-90283380D02*
X161168628Y-89283380D01*
X161073390Y-89426238D01*
X160978152Y-89521476D01*
X160882914Y-89569095D01*
X147005295Y-83733380D02*
X147005295Y-84542904D01*
X147052914Y-84638142D01*
X147100533Y-84685761D01*
X147195771Y-84733380D01*
X147386247Y-84733380D01*
X147481485Y-84685761D01*
X147529104Y-84638142D01*
X147576723Y-84542904D01*
X147576723Y-83733380D01*
X147957676Y-83733380D02*
X148624342Y-83733380D01*
X148195771Y-84733380D01*
X153390695Y-99457260D02*
X153390695Y-100266784D01*
X153438314Y-100362022D01*
X153485933Y-100409641D01*
X153581171Y-100457260D01*
X153771647Y-100457260D01*
X153866885Y-100409641D01*
X153914504Y-100362022D01*
X153962123Y-100266784D01*
X153962123Y-99457260D01*
X154343076Y-99457260D02*
X154962123Y-99457260D01*
X154628790Y-99838213D01*
X154771647Y-99838213D01*
X154866885Y-99885832D01*
X154914504Y-99933451D01*
X154962123Y-100028689D01*
X154962123Y-100266784D01*
X154914504Y-100362022D01*
X154866885Y-100409641D01*
X154771647Y-100457260D01*
X154485933Y-100457260D01*
X154390695Y-100409641D01*
X154343076Y-100362022D01*
X153573575Y-109109260D02*
X153573575Y-109918784D01*
X153621194Y-110014022D01*
X153668813Y-110061641D01*
X153764051Y-110109260D01*
X153954527Y-110109260D01*
X154049765Y-110061641D01*
X154097384Y-110014022D01*
X154145003Y-109918784D01*
X154145003Y-109109260D01*
X155049765Y-109109260D02*
X154859289Y-109109260D01*
X154764051Y-109156880D01*
X154716432Y-109204499D01*
X154621194Y-109347356D01*
X154573575Y-109537832D01*
X154573575Y-109918784D01*
X154621194Y-110014022D01*
X154668813Y-110061641D01*
X154764051Y-110109260D01*
X154954527Y-110109260D01*
X155049765Y-110061641D01*
X155097384Y-110014022D01*
X155145003Y-109918784D01*
X155145003Y-109680689D01*
X155097384Y-109585451D01*
X155049765Y-109537832D01*
X154954527Y-109490213D01*
X154764051Y-109490213D01*
X154668813Y-109537832D01*
X154621194Y-109585451D01*
X154573575Y-109680689D01*
X144297495Y-99208340D02*
X144297495Y-100017864D01*
X144345114Y-100113102D01*
X144392733Y-100160721D01*
X144487971Y-100208340D01*
X144678447Y-100208340D01*
X144773685Y-100160721D01*
X144821304Y-100113102D01*
X144868923Y-100017864D01*
X144868923Y-99208340D01*
X145773685Y-99541674D02*
X145773685Y-100208340D01*
X145535590Y-99160721D02*
X145297495Y-99875007D01*
X145916542Y-99875007D01*
X144297495Y-109266740D02*
X144297495Y-110076264D01*
X144345114Y-110171502D01*
X144392733Y-110219121D01*
X144487971Y-110266740D01*
X144678447Y-110266740D01*
X144773685Y-110219121D01*
X144821304Y-110171502D01*
X144868923Y-110076264D01*
X144868923Y-109266740D01*
X145297495Y-109361979D02*
X145345114Y-109314360D01*
X145440352Y-109266740D01*
X145678447Y-109266740D01*
X145773685Y-109314360D01*
X145821304Y-109361979D01*
X145868923Y-109457217D01*
X145868923Y-109552455D01*
X145821304Y-109695312D01*
X145249876Y-110266740D01*
X145868923Y-110266740D01*
X156215133Y-84305700D02*
X155881800Y-83829510D01*
X155643704Y-84305700D02*
X155643704Y-83305700D01*
X156024657Y-83305700D01*
X156119895Y-83353320D01*
X156167514Y-83400939D01*
X156215133Y-83496177D01*
X156215133Y-83639034D01*
X156167514Y-83734272D01*
X156119895Y-83781891D01*
X156024657Y-83829510D01*
X155643704Y-83829510D01*
X157119895Y-83305700D02*
X156643704Y-83305700D01*
X156596085Y-83781891D01*
X156643704Y-83734272D01*
X156738942Y-83686653D01*
X156977038Y-83686653D01*
X157072276Y-83734272D01*
X157119895Y-83781891D01*
X157167514Y-83877129D01*
X157167514Y-84115224D01*
X157119895Y-84210462D01*
X157072276Y-84258081D01*
X156977038Y-84305700D01*
X156738942Y-84305700D01*
X156643704Y-84258081D01*
X156596085Y-84210462D01*
X162830213Y-85029300D02*
X162496880Y-84553110D01*
X162258784Y-85029300D02*
X162258784Y-84029300D01*
X162639737Y-84029300D01*
X162734975Y-84076920D01*
X162782594Y-84124539D01*
X162830213Y-84219777D01*
X162830213Y-84362634D01*
X162782594Y-84457872D01*
X162734975Y-84505491D01*
X162639737Y-84553110D01*
X162258784Y-84553110D01*
X163687356Y-84362634D02*
X163687356Y-85029300D01*
X163449260Y-83981681D02*
X163211165Y-84695967D01*
X163830213Y-84695967D01*
X165349893Y-85044540D02*
X165016560Y-84568350D01*
X164778464Y-85044540D02*
X164778464Y-84044540D01*
X165159417Y-84044540D01*
X165254655Y-84092160D01*
X165302274Y-84139779D01*
X165349893Y-84235017D01*
X165349893Y-84377874D01*
X165302274Y-84473112D01*
X165254655Y-84520731D01*
X165159417Y-84568350D01*
X164778464Y-84568350D01*
X165683226Y-84044540D02*
X166302274Y-84044540D01*
X165968940Y-84425493D01*
X166111798Y-84425493D01*
X166207036Y-84473112D01*
X166254655Y-84520731D01*
X166302274Y-84615969D01*
X166302274Y-84854064D01*
X166254655Y-84949302D01*
X166207036Y-84996921D01*
X166111798Y-85044540D01*
X165826083Y-85044540D01*
X165730845Y-84996921D01*
X165683226Y-84949302D01*
X163324302Y-92460082D02*
X163276683Y-92507701D01*
X163133826Y-92555320D01*
X163038588Y-92555320D01*
X162895731Y-92507701D01*
X162800493Y-92412463D01*
X162752874Y-92317225D01*
X162705255Y-92126749D01*
X162705255Y-91983892D01*
X162752874Y-91793416D01*
X162800493Y-91698178D01*
X162895731Y-91602940D01*
X163038588Y-91555320D01*
X163133826Y-91555320D01*
X163276683Y-91602940D01*
X163324302Y-91650559D01*
X163705255Y-91650559D02*
X163752874Y-91602940D01*
X163848112Y-91555320D01*
X164086207Y-91555320D01*
X164181445Y-91602940D01*
X164229064Y-91650559D01*
X164276683Y-91745797D01*
X164276683Y-91841035D01*
X164229064Y-91983892D01*
X163657636Y-92555320D01*
X164276683Y-92555320D01*
X164895731Y-91555320D02*
X164990969Y-91555320D01*
X165086207Y-91602940D01*
X165133826Y-91650559D01*
X165181445Y-91745797D01*
X165229064Y-91936273D01*
X165229064Y-92174368D01*
X165181445Y-92364844D01*
X165133826Y-92460082D01*
X165086207Y-92507701D01*
X164990969Y-92555320D01*
X164895731Y-92555320D01*
X164800493Y-92507701D01*
X164752874Y-92460082D01*
X164705255Y-92364844D01*
X164657636Y-92174368D01*
X164657636Y-91936273D01*
X164705255Y-91745797D01*
X164752874Y-91650559D01*
X164800493Y-91602940D01*
X164895731Y-91555320D01*
X141480253Y-87684100D02*
X141146920Y-87207910D01*
X140908824Y-87684100D02*
X140908824Y-86684100D01*
X141289777Y-86684100D01*
X141385015Y-86731720D01*
X141432634Y-86779339D01*
X141480253Y-86874577D01*
X141480253Y-87017434D01*
X141432634Y-87112672D01*
X141385015Y-87160291D01*
X141289777Y-87207910D01*
X140908824Y-87207910D01*
X142337396Y-86684100D02*
X142146920Y-86684100D01*
X142051681Y-86731720D01*
X142004062Y-86779339D01*
X141908824Y-86922196D01*
X141861205Y-87112672D01*
X141861205Y-87493624D01*
X141908824Y-87588862D01*
X141956443Y-87636481D01*
X142051681Y-87684100D01*
X142242158Y-87684100D01*
X142337396Y-87636481D01*
X142385015Y-87588862D01*
X142432634Y-87493624D01*
X142432634Y-87255529D01*
X142385015Y-87160291D01*
X142337396Y-87112672D01*
X142242158Y-87065053D01*
X142051681Y-87065053D01*
X141956443Y-87112672D01*
X141908824Y-87160291D01*
X141861205Y-87255529D01*
X138356102Y-87570582D02*
X138308483Y-87618201D01*
X138165626Y-87665820D01*
X138070388Y-87665820D01*
X137927531Y-87618201D01*
X137832293Y-87522963D01*
X137784674Y-87427725D01*
X137737055Y-87237249D01*
X137737055Y-87094392D01*
X137784674Y-86903916D01*
X137832293Y-86808678D01*
X137927531Y-86713440D01*
X138070388Y-86665820D01*
X138165626Y-86665820D01*
X138308483Y-86713440D01*
X138356102Y-86761059D01*
X138737055Y-86761059D02*
X138784674Y-86713440D01*
X138879912Y-86665820D01*
X139118007Y-86665820D01*
X139213245Y-86713440D01*
X139260864Y-86761059D01*
X139308483Y-86856297D01*
X139308483Y-86951535D01*
X139260864Y-87094392D01*
X138689436Y-87665820D01*
X139308483Y-87665820D01*
X140165626Y-86999154D02*
X140165626Y-87665820D01*
X139927531Y-86618201D02*
X139689436Y-87332487D01*
X140308483Y-87332487D01*
M02*
