G04 #@! TF.GenerationSoftware,KiCad,Pcbnew,(5.1.5)-3*
G04 #@! TF.CreationDate,2020-05-19T14:22:00+01:00*
G04 #@! TF.ProjectId,ElectronULA,456c6563-7472-46f6-9e55-4c412e6b6963,rev?*
G04 #@! TF.SameCoordinates,Original*
G04 #@! TF.FileFunction,Soldermask,Top*
G04 #@! TF.FilePolarity,Negative*
%FSLAX46Y46*%
G04 Gerber Fmt 4.6, Leading zero omitted, Abs format (unit mm)*
G04 Created by KiCad (PCBNEW (5.1.5)-3) date 2020-05-19 14:22:00*
%MOMM*%
%LPD*%
G04 APERTURE LIST*
%ADD10C,0.050000*%
%ADD11C,0.150000*%
G04 APERTURE END LIST*
D10*
X129700020Y-124670820D02*
X129703200Y-56271000D01*
X178683920Y-124670820D02*
X129700020Y-124670820D01*
X178661700Y-56283700D02*
X178683920Y-124670820D01*
X129703200Y-56271000D02*
X178661700Y-56283700D01*
D11*
G36*
X164420625Y-120463190D02*
G01*
X164559338Y-120520647D01*
X164684172Y-120604058D01*
X164790342Y-120710228D01*
X164873753Y-120835062D01*
X164931210Y-120973775D01*
X164960500Y-121121029D01*
X164960500Y-121271171D01*
X164931210Y-121418425D01*
X164873753Y-121557138D01*
X164790342Y-121681972D01*
X164684172Y-121788142D01*
X164559338Y-121871553D01*
X164420625Y-121929010D01*
X164273371Y-121958300D01*
X164123229Y-121958300D01*
X163975975Y-121929010D01*
X163837262Y-121871553D01*
X163712428Y-121788142D01*
X163606258Y-121681972D01*
X163522847Y-121557138D01*
X163465390Y-121418425D01*
X163436100Y-121271171D01*
X163436100Y-121121029D01*
X163465390Y-120973775D01*
X163522847Y-120835062D01*
X163606258Y-120710228D01*
X163712428Y-120604058D01*
X163837262Y-120520647D01*
X163975975Y-120463190D01*
X164123229Y-120433900D01*
X164273371Y-120433900D01*
X164420625Y-120463190D01*
G37*
G36*
X144100625Y-120463190D02*
G01*
X144239338Y-120520647D01*
X144364172Y-120604058D01*
X144470342Y-120710228D01*
X144553753Y-120835062D01*
X144611210Y-120973775D01*
X144640500Y-121121029D01*
X144640500Y-121271171D01*
X144611210Y-121418425D01*
X144553753Y-121557138D01*
X144470342Y-121681972D01*
X144364172Y-121788142D01*
X144239338Y-121871553D01*
X144100625Y-121929010D01*
X143953371Y-121958300D01*
X143803229Y-121958300D01*
X143655975Y-121929010D01*
X143517262Y-121871553D01*
X143392428Y-121788142D01*
X143286258Y-121681972D01*
X143202847Y-121557138D01*
X143145390Y-121418425D01*
X143116100Y-121271171D01*
X143116100Y-121121029D01*
X143145390Y-120973775D01*
X143202847Y-120835062D01*
X143286258Y-120710228D01*
X143392428Y-120604058D01*
X143517262Y-120520647D01*
X143655975Y-120463190D01*
X143803229Y-120433900D01*
X143953371Y-120433900D01*
X144100625Y-120463190D01*
G37*
G36*
X146640625Y-120463190D02*
G01*
X146779338Y-120520647D01*
X146904172Y-120604058D01*
X147010342Y-120710228D01*
X147093753Y-120835062D01*
X147151210Y-120973775D01*
X147180500Y-121121029D01*
X147180500Y-121271171D01*
X147151210Y-121418425D01*
X147093753Y-121557138D01*
X147010342Y-121681972D01*
X146904172Y-121788142D01*
X146779338Y-121871553D01*
X146640625Y-121929010D01*
X146493371Y-121958300D01*
X146343229Y-121958300D01*
X146195975Y-121929010D01*
X146057262Y-121871553D01*
X145932428Y-121788142D01*
X145826258Y-121681972D01*
X145742847Y-121557138D01*
X145685390Y-121418425D01*
X145656100Y-121271171D01*
X145656100Y-121121029D01*
X145685390Y-120973775D01*
X145742847Y-120835062D01*
X145826258Y-120710228D01*
X145932428Y-120604058D01*
X146057262Y-120520647D01*
X146195975Y-120463190D01*
X146343229Y-120433900D01*
X146493371Y-120433900D01*
X146640625Y-120463190D01*
G37*
G36*
X149180625Y-120463190D02*
G01*
X149319338Y-120520647D01*
X149444172Y-120604058D01*
X149550342Y-120710228D01*
X149633753Y-120835062D01*
X149691210Y-120973775D01*
X149720500Y-121121029D01*
X149720500Y-121271171D01*
X149691210Y-121418425D01*
X149633753Y-121557138D01*
X149550342Y-121681972D01*
X149444172Y-121788142D01*
X149319338Y-121871553D01*
X149180625Y-121929010D01*
X149033371Y-121958300D01*
X148883229Y-121958300D01*
X148735975Y-121929010D01*
X148597262Y-121871553D01*
X148472428Y-121788142D01*
X148366258Y-121681972D01*
X148282847Y-121557138D01*
X148225390Y-121418425D01*
X148196100Y-121271171D01*
X148196100Y-121121029D01*
X148225390Y-120973775D01*
X148282847Y-120835062D01*
X148366258Y-120710228D01*
X148472428Y-120604058D01*
X148597262Y-120520647D01*
X148735975Y-120463190D01*
X148883229Y-120433900D01*
X149033371Y-120433900D01*
X149180625Y-120463190D01*
G37*
G36*
X151720625Y-120463190D02*
G01*
X151859338Y-120520647D01*
X151984172Y-120604058D01*
X152090342Y-120710228D01*
X152173753Y-120835062D01*
X152231210Y-120973775D01*
X152260500Y-121121029D01*
X152260500Y-121271171D01*
X152231210Y-121418425D01*
X152173753Y-121557138D01*
X152090342Y-121681972D01*
X151984172Y-121788142D01*
X151859338Y-121871553D01*
X151720625Y-121929010D01*
X151573371Y-121958300D01*
X151423229Y-121958300D01*
X151275975Y-121929010D01*
X151137262Y-121871553D01*
X151012428Y-121788142D01*
X150906258Y-121681972D01*
X150822847Y-121557138D01*
X150765390Y-121418425D01*
X150736100Y-121271171D01*
X150736100Y-121121029D01*
X150765390Y-120973775D01*
X150822847Y-120835062D01*
X150906258Y-120710228D01*
X151012428Y-120604058D01*
X151137262Y-120520647D01*
X151275975Y-120463190D01*
X151423229Y-120433900D01*
X151573371Y-120433900D01*
X151720625Y-120463190D01*
G37*
G36*
X154260625Y-120463190D02*
G01*
X154399338Y-120520647D01*
X154524172Y-120604058D01*
X154630342Y-120710228D01*
X154713753Y-120835062D01*
X154771210Y-120973775D01*
X154800500Y-121121029D01*
X154800500Y-121271171D01*
X154771210Y-121418425D01*
X154713753Y-121557138D01*
X154630342Y-121681972D01*
X154524172Y-121788142D01*
X154399338Y-121871553D01*
X154260625Y-121929010D01*
X154113371Y-121958300D01*
X153963229Y-121958300D01*
X153815975Y-121929010D01*
X153677262Y-121871553D01*
X153552428Y-121788142D01*
X153446258Y-121681972D01*
X153362847Y-121557138D01*
X153305390Y-121418425D01*
X153276100Y-121271171D01*
X153276100Y-121121029D01*
X153305390Y-120973775D01*
X153362847Y-120835062D01*
X153446258Y-120710228D01*
X153552428Y-120604058D01*
X153677262Y-120520647D01*
X153815975Y-120463190D01*
X153963229Y-120433900D01*
X154113371Y-120433900D01*
X154260625Y-120463190D01*
G37*
G36*
X156800625Y-120463190D02*
G01*
X156939338Y-120520647D01*
X157064172Y-120604058D01*
X157170342Y-120710228D01*
X157253753Y-120835062D01*
X157311210Y-120973775D01*
X157340500Y-121121029D01*
X157340500Y-121271171D01*
X157311210Y-121418425D01*
X157253753Y-121557138D01*
X157170342Y-121681972D01*
X157064172Y-121788142D01*
X156939338Y-121871553D01*
X156800625Y-121929010D01*
X156653371Y-121958300D01*
X156503229Y-121958300D01*
X156355975Y-121929010D01*
X156217262Y-121871553D01*
X156092428Y-121788142D01*
X155986258Y-121681972D01*
X155902847Y-121557138D01*
X155845390Y-121418425D01*
X155816100Y-121271171D01*
X155816100Y-121121029D01*
X155845390Y-120973775D01*
X155902847Y-120835062D01*
X155986258Y-120710228D01*
X156092428Y-120604058D01*
X156217262Y-120520647D01*
X156355975Y-120463190D01*
X156503229Y-120433900D01*
X156653371Y-120433900D01*
X156800625Y-120463190D01*
G37*
G36*
X159340625Y-120463190D02*
G01*
X159479338Y-120520647D01*
X159604172Y-120604058D01*
X159710342Y-120710228D01*
X159793753Y-120835062D01*
X159851210Y-120973775D01*
X159880500Y-121121029D01*
X159880500Y-121271171D01*
X159851210Y-121418425D01*
X159793753Y-121557138D01*
X159710342Y-121681972D01*
X159604172Y-121788142D01*
X159479338Y-121871553D01*
X159340625Y-121929010D01*
X159193371Y-121958300D01*
X159043229Y-121958300D01*
X158895975Y-121929010D01*
X158757262Y-121871553D01*
X158632428Y-121788142D01*
X158526258Y-121681972D01*
X158442847Y-121557138D01*
X158385390Y-121418425D01*
X158356100Y-121271171D01*
X158356100Y-121121029D01*
X158385390Y-120973775D01*
X158442847Y-120835062D01*
X158526258Y-120710228D01*
X158632428Y-120604058D01*
X158757262Y-120520647D01*
X158895975Y-120463190D01*
X159043229Y-120433900D01*
X159193371Y-120433900D01*
X159340625Y-120463190D01*
G37*
G36*
X161880625Y-120463190D02*
G01*
X162019338Y-120520647D01*
X162144172Y-120604058D01*
X162250342Y-120710228D01*
X162333753Y-120835062D01*
X162391210Y-120973775D01*
X162420500Y-121121029D01*
X162420500Y-121271171D01*
X162391210Y-121418425D01*
X162333753Y-121557138D01*
X162250342Y-121681972D01*
X162144172Y-121788142D01*
X162019338Y-121871553D01*
X161880625Y-121929010D01*
X161733371Y-121958300D01*
X161583229Y-121958300D01*
X161435975Y-121929010D01*
X161297262Y-121871553D01*
X161172428Y-121788142D01*
X161066258Y-121681972D01*
X160982847Y-121557138D01*
X160925390Y-121418425D01*
X160896100Y-121271171D01*
X160896100Y-121121029D01*
X160925390Y-120973775D01*
X160982847Y-120835062D01*
X161066258Y-120710228D01*
X161172428Y-120604058D01*
X161297262Y-120520647D01*
X161435975Y-120463190D01*
X161583229Y-120433900D01*
X161733371Y-120433900D01*
X161880625Y-120463190D01*
G37*
G36*
X144100625Y-117923190D02*
G01*
X144239338Y-117980647D01*
X144364172Y-118064058D01*
X144470342Y-118170228D01*
X144553753Y-118295062D01*
X144611210Y-118433775D01*
X144640500Y-118581029D01*
X144640500Y-118731171D01*
X144611210Y-118878425D01*
X144553753Y-119017138D01*
X144470342Y-119141972D01*
X144364172Y-119248142D01*
X144239338Y-119331553D01*
X144100625Y-119389010D01*
X143953371Y-119418300D01*
X143803229Y-119418300D01*
X143655975Y-119389010D01*
X143517262Y-119331553D01*
X143392428Y-119248142D01*
X143286258Y-119141972D01*
X143202847Y-119017138D01*
X143145390Y-118878425D01*
X143116100Y-118731171D01*
X143116100Y-118581029D01*
X143145390Y-118433775D01*
X143202847Y-118295062D01*
X143286258Y-118170228D01*
X143392428Y-118064058D01*
X143517262Y-117980647D01*
X143655975Y-117923190D01*
X143803229Y-117893900D01*
X143953371Y-117893900D01*
X144100625Y-117923190D01*
G37*
G36*
X141560625Y-117923190D02*
G01*
X141699338Y-117980647D01*
X141824172Y-118064058D01*
X141930342Y-118170228D01*
X142013753Y-118295062D01*
X142071210Y-118433775D01*
X142100500Y-118581029D01*
X142100500Y-118731171D01*
X142071210Y-118878425D01*
X142013753Y-119017138D01*
X141930342Y-119141972D01*
X141824172Y-119248142D01*
X141699338Y-119331553D01*
X141560625Y-119389010D01*
X141413371Y-119418300D01*
X141263229Y-119418300D01*
X141115975Y-119389010D01*
X140977262Y-119331553D01*
X140852428Y-119248142D01*
X140746258Y-119141972D01*
X140662847Y-119017138D01*
X140605390Y-118878425D01*
X140576100Y-118731171D01*
X140576100Y-118581029D01*
X140605390Y-118433775D01*
X140662847Y-118295062D01*
X140746258Y-118170228D01*
X140852428Y-118064058D01*
X140977262Y-117980647D01*
X141115975Y-117923190D01*
X141263229Y-117893900D01*
X141413371Y-117893900D01*
X141560625Y-117923190D01*
G37*
G36*
X146640625Y-117923190D02*
G01*
X146779338Y-117980647D01*
X146904172Y-118064058D01*
X147010342Y-118170228D01*
X147093753Y-118295062D01*
X147151210Y-118433775D01*
X147180500Y-118581029D01*
X147180500Y-118731171D01*
X147151210Y-118878425D01*
X147093753Y-119017138D01*
X147010342Y-119141972D01*
X146904172Y-119248142D01*
X146779338Y-119331553D01*
X146640625Y-119389010D01*
X146493371Y-119418300D01*
X146343229Y-119418300D01*
X146195975Y-119389010D01*
X146057262Y-119331553D01*
X145932428Y-119248142D01*
X145826258Y-119141972D01*
X145742847Y-119017138D01*
X145685390Y-118878425D01*
X145656100Y-118731171D01*
X145656100Y-118581029D01*
X145685390Y-118433775D01*
X145742847Y-118295062D01*
X145826258Y-118170228D01*
X145932428Y-118064058D01*
X146057262Y-117980647D01*
X146195975Y-117923190D01*
X146343229Y-117893900D01*
X146493371Y-117893900D01*
X146640625Y-117923190D01*
G37*
G36*
X149180625Y-117923190D02*
G01*
X149319338Y-117980647D01*
X149444172Y-118064058D01*
X149550342Y-118170228D01*
X149633753Y-118295062D01*
X149691210Y-118433775D01*
X149720500Y-118581029D01*
X149720500Y-118731171D01*
X149691210Y-118878425D01*
X149633753Y-119017138D01*
X149550342Y-119141972D01*
X149444172Y-119248142D01*
X149319338Y-119331553D01*
X149180625Y-119389010D01*
X149033371Y-119418300D01*
X148883229Y-119418300D01*
X148735975Y-119389010D01*
X148597262Y-119331553D01*
X148472428Y-119248142D01*
X148366258Y-119141972D01*
X148282847Y-119017138D01*
X148225390Y-118878425D01*
X148196100Y-118731171D01*
X148196100Y-118581029D01*
X148225390Y-118433775D01*
X148282847Y-118295062D01*
X148366258Y-118170228D01*
X148472428Y-118064058D01*
X148597262Y-117980647D01*
X148735975Y-117923190D01*
X148883229Y-117893900D01*
X149033371Y-117893900D01*
X149180625Y-117923190D01*
G37*
G36*
X151720625Y-117923190D02*
G01*
X151859338Y-117980647D01*
X151984172Y-118064058D01*
X152090342Y-118170228D01*
X152173753Y-118295062D01*
X152231210Y-118433775D01*
X152260500Y-118581029D01*
X152260500Y-118731171D01*
X152231210Y-118878425D01*
X152173753Y-119017138D01*
X152090342Y-119141972D01*
X151984172Y-119248142D01*
X151859338Y-119331553D01*
X151720625Y-119389010D01*
X151573371Y-119418300D01*
X151423229Y-119418300D01*
X151275975Y-119389010D01*
X151137262Y-119331553D01*
X151012428Y-119248142D01*
X150906258Y-119141972D01*
X150822847Y-119017138D01*
X150765390Y-118878425D01*
X150736100Y-118731171D01*
X150736100Y-118581029D01*
X150765390Y-118433775D01*
X150822847Y-118295062D01*
X150906258Y-118170228D01*
X151012428Y-118064058D01*
X151137262Y-117980647D01*
X151275975Y-117923190D01*
X151423229Y-117893900D01*
X151573371Y-117893900D01*
X151720625Y-117923190D01*
G37*
G36*
X156800625Y-117923190D02*
G01*
X156939338Y-117980647D01*
X157064172Y-118064058D01*
X157170342Y-118170228D01*
X157253753Y-118295062D01*
X157311210Y-118433775D01*
X157340500Y-118581029D01*
X157340500Y-118731171D01*
X157311210Y-118878425D01*
X157253753Y-119017138D01*
X157170342Y-119141972D01*
X157064172Y-119248142D01*
X156939338Y-119331553D01*
X156800625Y-119389010D01*
X156653371Y-119418300D01*
X156503229Y-119418300D01*
X156355975Y-119389010D01*
X156217262Y-119331553D01*
X156092428Y-119248142D01*
X155986258Y-119141972D01*
X155902847Y-119017138D01*
X155845390Y-118878425D01*
X155816100Y-118731171D01*
X155816100Y-118581029D01*
X155845390Y-118433775D01*
X155902847Y-118295062D01*
X155986258Y-118170228D01*
X156092428Y-118064058D01*
X156217262Y-117980647D01*
X156355975Y-117923190D01*
X156503229Y-117893900D01*
X156653371Y-117893900D01*
X156800625Y-117923190D01*
G37*
G36*
X161880625Y-117923190D02*
G01*
X162019338Y-117980647D01*
X162144172Y-118064058D01*
X162250342Y-118170228D01*
X162333753Y-118295062D01*
X162391210Y-118433775D01*
X162420500Y-118581029D01*
X162420500Y-118731171D01*
X162391210Y-118878425D01*
X162333753Y-119017138D01*
X162250342Y-119141972D01*
X162144172Y-119248142D01*
X162019338Y-119331553D01*
X161880625Y-119389010D01*
X161733371Y-119418300D01*
X161583229Y-119418300D01*
X161435975Y-119389010D01*
X161297262Y-119331553D01*
X161172428Y-119248142D01*
X161066258Y-119141972D01*
X160982847Y-119017138D01*
X160925390Y-118878425D01*
X160896100Y-118731171D01*
X160896100Y-118581029D01*
X160925390Y-118433775D01*
X160982847Y-118295062D01*
X161066258Y-118170228D01*
X161172428Y-118064058D01*
X161297262Y-117980647D01*
X161435975Y-117923190D01*
X161583229Y-117893900D01*
X161733371Y-117893900D01*
X161880625Y-117923190D01*
G37*
G36*
X159340625Y-117923190D02*
G01*
X159479338Y-117980647D01*
X159604172Y-118064058D01*
X159710342Y-118170228D01*
X159793753Y-118295062D01*
X159851210Y-118433775D01*
X159880500Y-118581029D01*
X159880500Y-118731171D01*
X159851210Y-118878425D01*
X159793753Y-119017138D01*
X159710342Y-119141972D01*
X159604172Y-119248142D01*
X159479338Y-119331553D01*
X159340625Y-119389010D01*
X159193371Y-119418300D01*
X159043229Y-119418300D01*
X158895975Y-119389010D01*
X158757262Y-119331553D01*
X158632428Y-119248142D01*
X158526258Y-119141972D01*
X158442847Y-119017138D01*
X158385390Y-118878425D01*
X158356100Y-118731171D01*
X158356100Y-118581029D01*
X158385390Y-118433775D01*
X158442847Y-118295062D01*
X158526258Y-118170228D01*
X158632428Y-118064058D01*
X158757262Y-117980647D01*
X158895975Y-117923190D01*
X159043229Y-117893900D01*
X159193371Y-117893900D01*
X159340625Y-117923190D01*
G37*
G36*
X166960625Y-117923190D02*
G01*
X167099338Y-117980647D01*
X167224172Y-118064058D01*
X167330342Y-118170228D01*
X167413753Y-118295062D01*
X167471210Y-118433775D01*
X167500500Y-118581029D01*
X167500500Y-118731171D01*
X167471210Y-118878425D01*
X167413753Y-119017138D01*
X167330342Y-119141972D01*
X167224172Y-119248142D01*
X167099338Y-119331553D01*
X166960625Y-119389010D01*
X166813371Y-119418300D01*
X166663229Y-119418300D01*
X166515975Y-119389010D01*
X166377262Y-119331553D01*
X166252428Y-119248142D01*
X166146258Y-119141972D01*
X166062847Y-119017138D01*
X166005390Y-118878425D01*
X165976100Y-118731171D01*
X165976100Y-118581029D01*
X166005390Y-118433775D01*
X166062847Y-118295062D01*
X166146258Y-118170228D01*
X166252428Y-118064058D01*
X166377262Y-117980647D01*
X166515975Y-117923190D01*
X166663229Y-117893900D01*
X166813371Y-117893900D01*
X166960625Y-117923190D01*
G37*
G36*
X164420625Y-117923190D02*
G01*
X164559338Y-117980647D01*
X164684172Y-118064058D01*
X164790342Y-118170228D01*
X164873753Y-118295062D01*
X164931210Y-118433775D01*
X164960500Y-118581029D01*
X164960500Y-118731171D01*
X164931210Y-118878425D01*
X164873753Y-119017138D01*
X164790342Y-119141972D01*
X164684172Y-119248142D01*
X164559338Y-119331553D01*
X164420625Y-119389010D01*
X164273371Y-119418300D01*
X164123229Y-119418300D01*
X163975975Y-119389010D01*
X163837262Y-119331553D01*
X163712428Y-119248142D01*
X163606258Y-119141972D01*
X163522847Y-119017138D01*
X163465390Y-118878425D01*
X163436100Y-118731171D01*
X163436100Y-118581029D01*
X163465390Y-118433775D01*
X163522847Y-118295062D01*
X163606258Y-118170228D01*
X163712428Y-118064058D01*
X163837262Y-117980647D01*
X163975975Y-117923190D01*
X164123229Y-117893900D01*
X164273371Y-117893900D01*
X164420625Y-117923190D01*
G37*
G36*
X154260625Y-117923190D02*
G01*
X154399338Y-117980647D01*
X154524172Y-118064058D01*
X154630342Y-118170228D01*
X154713753Y-118295062D01*
X154771210Y-118433775D01*
X154800500Y-118581029D01*
X154800500Y-118731171D01*
X154771210Y-118878425D01*
X154713753Y-119017138D01*
X154630342Y-119141972D01*
X154524172Y-119248142D01*
X154399338Y-119331553D01*
X154260625Y-119389010D01*
X154113371Y-119418300D01*
X153963229Y-119418300D01*
X153815975Y-119389010D01*
X153677262Y-119331553D01*
X153552428Y-119248142D01*
X153446258Y-119141972D01*
X153362847Y-119017138D01*
X153305390Y-118878425D01*
X153276100Y-118731171D01*
X153276100Y-118581029D01*
X153305390Y-118433775D01*
X153362847Y-118295062D01*
X153446258Y-118170228D01*
X153552428Y-118064058D01*
X153677262Y-117980647D01*
X153815975Y-117923190D01*
X153963229Y-117893900D01*
X154113371Y-117893900D01*
X154260625Y-117923190D01*
G37*
G36*
X137319840Y-118097440D02*
G01*
X136217840Y-118097440D01*
X136217840Y-116995440D01*
X137319840Y-116995440D01*
X137319840Y-118097440D01*
G37*
G36*
X134205374Y-116506865D02*
G01*
X134243067Y-116518299D01*
X134277803Y-116536866D01*
X134308248Y-116561852D01*
X134333234Y-116592297D01*
X134351801Y-116627033D01*
X134363235Y-116664726D01*
X134367700Y-116710061D01*
X134367700Y-117546739D01*
X134363235Y-117592074D01*
X134351801Y-117629767D01*
X134333234Y-117664503D01*
X134308248Y-117694948D01*
X134277803Y-117719934D01*
X134243067Y-117738501D01*
X134205374Y-117749935D01*
X134160039Y-117754400D01*
X133073361Y-117754400D01*
X133028026Y-117749935D01*
X132990333Y-117738501D01*
X132955597Y-117719934D01*
X132925152Y-117694948D01*
X132900166Y-117664503D01*
X132881599Y-117629767D01*
X132870165Y-117592074D01*
X132865700Y-117546739D01*
X132865700Y-116710061D01*
X132870165Y-116664726D01*
X132881599Y-116627033D01*
X132900166Y-116592297D01*
X132925152Y-116561852D01*
X132955597Y-116536866D01*
X132990333Y-116518299D01*
X133028026Y-116506865D01*
X133073361Y-116502400D01*
X134160039Y-116502400D01*
X134205374Y-116506865D01*
G37*
G36*
X166960625Y-115383190D02*
G01*
X167099338Y-115440647D01*
X167224172Y-115524058D01*
X167330342Y-115630228D01*
X167413753Y-115755062D01*
X167471210Y-115893775D01*
X167500500Y-116041029D01*
X167500500Y-116191171D01*
X167471210Y-116338425D01*
X167413753Y-116477138D01*
X167330342Y-116601972D01*
X167224172Y-116708142D01*
X167099338Y-116791553D01*
X166960625Y-116849010D01*
X166813371Y-116878300D01*
X166663229Y-116878300D01*
X166515975Y-116849010D01*
X166377262Y-116791553D01*
X166252428Y-116708142D01*
X166146258Y-116601972D01*
X166062847Y-116477138D01*
X166005390Y-116338425D01*
X165976100Y-116191171D01*
X165976100Y-116041029D01*
X166005390Y-115893775D01*
X166062847Y-115755062D01*
X166146258Y-115630228D01*
X166252428Y-115524058D01*
X166377262Y-115440647D01*
X166515975Y-115383190D01*
X166663229Y-115353900D01*
X166813371Y-115353900D01*
X166960625Y-115383190D01*
G37*
G36*
X164420625Y-115383190D02*
G01*
X164559338Y-115440647D01*
X164684172Y-115524058D01*
X164790342Y-115630228D01*
X164873753Y-115755062D01*
X164931210Y-115893775D01*
X164960500Y-116041029D01*
X164960500Y-116191171D01*
X164931210Y-116338425D01*
X164873753Y-116477138D01*
X164790342Y-116601972D01*
X164684172Y-116708142D01*
X164559338Y-116791553D01*
X164420625Y-116849010D01*
X164273371Y-116878300D01*
X164123229Y-116878300D01*
X163975975Y-116849010D01*
X163837262Y-116791553D01*
X163712428Y-116708142D01*
X163606258Y-116601972D01*
X163522847Y-116477138D01*
X163465390Y-116338425D01*
X163436100Y-116191171D01*
X163436100Y-116041029D01*
X163465390Y-115893775D01*
X163522847Y-115755062D01*
X163606258Y-115630228D01*
X163712428Y-115524058D01*
X163837262Y-115440647D01*
X163975975Y-115383190D01*
X164123229Y-115353900D01*
X164273371Y-115353900D01*
X164420625Y-115383190D01*
G37*
G36*
X144100625Y-115383190D02*
G01*
X144239338Y-115440647D01*
X144364172Y-115524058D01*
X144470342Y-115630228D01*
X144553753Y-115755062D01*
X144611210Y-115893775D01*
X144640500Y-116041029D01*
X144640500Y-116191171D01*
X144611210Y-116338425D01*
X144553753Y-116477138D01*
X144470342Y-116601972D01*
X144364172Y-116708142D01*
X144239338Y-116791553D01*
X144100625Y-116849010D01*
X143953371Y-116878300D01*
X143803229Y-116878300D01*
X143655975Y-116849010D01*
X143517262Y-116791553D01*
X143392428Y-116708142D01*
X143286258Y-116601972D01*
X143202847Y-116477138D01*
X143145390Y-116338425D01*
X143116100Y-116191171D01*
X143116100Y-116041029D01*
X143145390Y-115893775D01*
X143202847Y-115755062D01*
X143286258Y-115630228D01*
X143392428Y-115524058D01*
X143517262Y-115440647D01*
X143655975Y-115383190D01*
X143803229Y-115353900D01*
X143953371Y-115353900D01*
X144100625Y-115383190D01*
G37*
G36*
X141560625Y-115383190D02*
G01*
X141699338Y-115440647D01*
X141824172Y-115524058D01*
X141930342Y-115630228D01*
X142013753Y-115755062D01*
X142071210Y-115893775D01*
X142100500Y-116041029D01*
X142100500Y-116191171D01*
X142071210Y-116338425D01*
X142013753Y-116477138D01*
X141930342Y-116601972D01*
X141824172Y-116708142D01*
X141699338Y-116791553D01*
X141560625Y-116849010D01*
X141413371Y-116878300D01*
X141263229Y-116878300D01*
X141115975Y-116849010D01*
X140977262Y-116791553D01*
X140852428Y-116708142D01*
X140746258Y-116601972D01*
X140662847Y-116477138D01*
X140605390Y-116338425D01*
X140576100Y-116191171D01*
X140576100Y-116041029D01*
X140605390Y-115893775D01*
X140662847Y-115755062D01*
X140746258Y-115630228D01*
X140852428Y-115524058D01*
X140977262Y-115440647D01*
X141115975Y-115383190D01*
X141263229Y-115353900D01*
X141413371Y-115353900D01*
X141560625Y-115383190D01*
G37*
G36*
X152968100Y-116754400D02*
G01*
X151766100Y-116754400D01*
X151766100Y-109102400D01*
X152968100Y-109102400D01*
X152968100Y-116754400D01*
G37*
G36*
X147268100Y-116754400D02*
G01*
X146066100Y-116754400D01*
X146066100Y-109102400D01*
X147268100Y-109102400D01*
X147268100Y-116754400D01*
G37*
G36*
X170993720Y-116729220D02*
G01*
X169791720Y-116729220D01*
X169791720Y-109077220D01*
X170993720Y-109077220D01*
X170993720Y-116729220D01*
G37*
G36*
X176693720Y-116729220D02*
G01*
X175491720Y-116729220D01*
X175491720Y-109077220D01*
X176693720Y-109077220D01*
X176693720Y-116729220D01*
G37*
G36*
X162328000Y-116729000D02*
G01*
X161126000Y-116729000D01*
X161126000Y-109077000D01*
X162328000Y-109077000D01*
X162328000Y-116729000D01*
G37*
G36*
X156628000Y-116729000D02*
G01*
X155426000Y-116729000D01*
X155426000Y-109077000D01*
X156628000Y-109077000D01*
X156628000Y-116729000D01*
G37*
G36*
X134205374Y-114456865D02*
G01*
X134243067Y-114468299D01*
X134277803Y-114486866D01*
X134308248Y-114511852D01*
X134333234Y-114542297D01*
X134351801Y-114577033D01*
X134363235Y-114614726D01*
X134367700Y-114660061D01*
X134367700Y-115496739D01*
X134363235Y-115542074D01*
X134351801Y-115579767D01*
X134333234Y-115614503D01*
X134308248Y-115644948D01*
X134277803Y-115669934D01*
X134243067Y-115688501D01*
X134205374Y-115699935D01*
X134160039Y-115704400D01*
X133073361Y-115704400D01*
X133028026Y-115699935D01*
X132990333Y-115688501D01*
X132955597Y-115669934D01*
X132925152Y-115644948D01*
X132900166Y-115614503D01*
X132881599Y-115579767D01*
X132870165Y-115542074D01*
X132865700Y-115496739D01*
X132865700Y-114660061D01*
X132870165Y-114614726D01*
X132881599Y-114577033D01*
X132900166Y-114542297D01*
X132925152Y-114511852D01*
X132955597Y-114486866D01*
X132990333Y-114468299D01*
X133028026Y-114456865D01*
X133073361Y-114452400D01*
X134160039Y-114452400D01*
X134205374Y-114456865D01*
G37*
G36*
X137319840Y-115597440D02*
G01*
X136217840Y-115597440D01*
X136217840Y-114495440D01*
X137319840Y-114495440D01*
X137319840Y-115597440D01*
G37*
G36*
X164420625Y-112843190D02*
G01*
X164559338Y-112900647D01*
X164684172Y-112984058D01*
X164790342Y-113090228D01*
X164873753Y-113215062D01*
X164931210Y-113353775D01*
X164960500Y-113501029D01*
X164960500Y-113651171D01*
X164931210Y-113798425D01*
X164873753Y-113937138D01*
X164790342Y-114061972D01*
X164684172Y-114168142D01*
X164559338Y-114251553D01*
X164420625Y-114309010D01*
X164273371Y-114338300D01*
X164123229Y-114338300D01*
X163975975Y-114309010D01*
X163837262Y-114251553D01*
X163712428Y-114168142D01*
X163606258Y-114061972D01*
X163522847Y-113937138D01*
X163465390Y-113798425D01*
X163436100Y-113651171D01*
X163436100Y-113501029D01*
X163465390Y-113353775D01*
X163522847Y-113215062D01*
X163606258Y-113090228D01*
X163712428Y-112984058D01*
X163837262Y-112900647D01*
X163975975Y-112843190D01*
X164123229Y-112813900D01*
X164273371Y-112813900D01*
X164420625Y-112843190D01*
G37*
G36*
X166960625Y-112843190D02*
G01*
X167099338Y-112900647D01*
X167224172Y-112984058D01*
X167330342Y-113090228D01*
X167413753Y-113215062D01*
X167471210Y-113353775D01*
X167500500Y-113501029D01*
X167500500Y-113651171D01*
X167471210Y-113798425D01*
X167413753Y-113937138D01*
X167330342Y-114061972D01*
X167224172Y-114168142D01*
X167099338Y-114251553D01*
X166960625Y-114309010D01*
X166813371Y-114338300D01*
X166663229Y-114338300D01*
X166515975Y-114309010D01*
X166377262Y-114251553D01*
X166252428Y-114168142D01*
X166146258Y-114061972D01*
X166062847Y-113937138D01*
X166005390Y-113798425D01*
X165976100Y-113651171D01*
X165976100Y-113501029D01*
X166005390Y-113353775D01*
X166062847Y-113215062D01*
X166146258Y-113090228D01*
X166252428Y-112984058D01*
X166377262Y-112900647D01*
X166515975Y-112843190D01*
X166663229Y-112813900D01*
X166813371Y-112813900D01*
X166960625Y-112843190D01*
G37*
G36*
X144100625Y-112843190D02*
G01*
X144239338Y-112900647D01*
X144364172Y-112984058D01*
X144470342Y-113090228D01*
X144553753Y-113215062D01*
X144611210Y-113353775D01*
X144640500Y-113501029D01*
X144640500Y-113651171D01*
X144611210Y-113798425D01*
X144553753Y-113937138D01*
X144470342Y-114061972D01*
X144364172Y-114168142D01*
X144239338Y-114251553D01*
X144100625Y-114309010D01*
X143953371Y-114338300D01*
X143803229Y-114338300D01*
X143655975Y-114309010D01*
X143517262Y-114251553D01*
X143392428Y-114168142D01*
X143286258Y-114061972D01*
X143202847Y-113937138D01*
X143145390Y-113798425D01*
X143116100Y-113651171D01*
X143116100Y-113501029D01*
X143145390Y-113353775D01*
X143202847Y-113215062D01*
X143286258Y-113090228D01*
X143392428Y-112984058D01*
X143517262Y-112900647D01*
X143655975Y-112843190D01*
X143803229Y-112813900D01*
X143953371Y-112813900D01*
X144100625Y-112843190D01*
G37*
G36*
X141560625Y-112843190D02*
G01*
X141699338Y-112900647D01*
X141824172Y-112984058D01*
X141930342Y-113090228D01*
X142013753Y-113215062D01*
X142071210Y-113353775D01*
X142100500Y-113501029D01*
X142100500Y-113651171D01*
X142071210Y-113798425D01*
X142013753Y-113937138D01*
X141930342Y-114061972D01*
X141824172Y-114168142D01*
X141699338Y-114251553D01*
X141560625Y-114309010D01*
X141413371Y-114338300D01*
X141263229Y-114338300D01*
X141115975Y-114309010D01*
X140977262Y-114251553D01*
X140852428Y-114168142D01*
X140746258Y-114061972D01*
X140662847Y-113937138D01*
X140605390Y-113798425D01*
X140576100Y-113651171D01*
X140576100Y-113501029D01*
X140605390Y-113353775D01*
X140662847Y-113215062D01*
X140746258Y-113090228D01*
X140852428Y-112984058D01*
X140977262Y-112900647D01*
X141115975Y-112843190D01*
X141263229Y-112813900D01*
X141413371Y-112813900D01*
X141560625Y-112843190D01*
G37*
G36*
X141560625Y-110303190D02*
G01*
X141699338Y-110360647D01*
X141824172Y-110444058D01*
X141930342Y-110550228D01*
X142013753Y-110675062D01*
X142071210Y-110813775D01*
X142100500Y-110961029D01*
X142100500Y-111111171D01*
X142071210Y-111258425D01*
X142013753Y-111397138D01*
X141930342Y-111521972D01*
X141824172Y-111628142D01*
X141699338Y-111711553D01*
X141560625Y-111769010D01*
X141413371Y-111798300D01*
X141263229Y-111798300D01*
X141115975Y-111769010D01*
X140977262Y-111711553D01*
X140852428Y-111628142D01*
X140746258Y-111521972D01*
X140662847Y-111397138D01*
X140605390Y-111258425D01*
X140576100Y-111111171D01*
X140576100Y-110961029D01*
X140605390Y-110813775D01*
X140662847Y-110675062D01*
X140746258Y-110550228D01*
X140852428Y-110444058D01*
X140977262Y-110360647D01*
X141115975Y-110303190D01*
X141263229Y-110273900D01*
X141413371Y-110273900D01*
X141560625Y-110303190D01*
G37*
G36*
X144100625Y-110303190D02*
G01*
X144239338Y-110360647D01*
X144364172Y-110444058D01*
X144470342Y-110550228D01*
X144553753Y-110675062D01*
X144611210Y-110813775D01*
X144640500Y-110961029D01*
X144640500Y-111111171D01*
X144611210Y-111258425D01*
X144553753Y-111397138D01*
X144470342Y-111521972D01*
X144364172Y-111628142D01*
X144239338Y-111711553D01*
X144100625Y-111769010D01*
X143953371Y-111798300D01*
X143803229Y-111798300D01*
X143655975Y-111769010D01*
X143517262Y-111711553D01*
X143392428Y-111628142D01*
X143286258Y-111521972D01*
X143202847Y-111397138D01*
X143145390Y-111258425D01*
X143116100Y-111111171D01*
X143116100Y-110961029D01*
X143145390Y-110813775D01*
X143202847Y-110675062D01*
X143286258Y-110550228D01*
X143392428Y-110444058D01*
X143517262Y-110360647D01*
X143655975Y-110303190D01*
X143803229Y-110273900D01*
X143953371Y-110273900D01*
X144100625Y-110303190D01*
G37*
G36*
X166960625Y-110303190D02*
G01*
X167099338Y-110360647D01*
X167224172Y-110444058D01*
X167330342Y-110550228D01*
X167413753Y-110675062D01*
X167471210Y-110813775D01*
X167500500Y-110961029D01*
X167500500Y-111111171D01*
X167471210Y-111258425D01*
X167413753Y-111397138D01*
X167330342Y-111521972D01*
X167224172Y-111628142D01*
X167099338Y-111711553D01*
X166960625Y-111769010D01*
X166813371Y-111798300D01*
X166663229Y-111798300D01*
X166515975Y-111769010D01*
X166377262Y-111711553D01*
X166252428Y-111628142D01*
X166146258Y-111521972D01*
X166062847Y-111397138D01*
X166005390Y-111258425D01*
X165976100Y-111111171D01*
X165976100Y-110961029D01*
X166005390Y-110813775D01*
X166062847Y-110675062D01*
X166146258Y-110550228D01*
X166252428Y-110444058D01*
X166377262Y-110360647D01*
X166515975Y-110303190D01*
X166663229Y-110273900D01*
X166813371Y-110273900D01*
X166960625Y-110303190D01*
G37*
G36*
X164420625Y-110303190D02*
G01*
X164559338Y-110360647D01*
X164684172Y-110444058D01*
X164790342Y-110550228D01*
X164873753Y-110675062D01*
X164931210Y-110813775D01*
X164960500Y-110961029D01*
X164960500Y-111111171D01*
X164931210Y-111258425D01*
X164873753Y-111397138D01*
X164790342Y-111521972D01*
X164684172Y-111628142D01*
X164559338Y-111711553D01*
X164420625Y-111769010D01*
X164273371Y-111798300D01*
X164123229Y-111798300D01*
X163975975Y-111769010D01*
X163837262Y-111711553D01*
X163712428Y-111628142D01*
X163606258Y-111521972D01*
X163522847Y-111397138D01*
X163465390Y-111258425D01*
X163436100Y-111111171D01*
X163436100Y-110961029D01*
X163465390Y-110813775D01*
X163522847Y-110675062D01*
X163606258Y-110550228D01*
X163712428Y-110444058D01*
X163837262Y-110360647D01*
X163975975Y-110303190D01*
X164123229Y-110273900D01*
X164273371Y-110273900D01*
X164420625Y-110303190D01*
G37*
G36*
X164420625Y-107763190D02*
G01*
X164559338Y-107820647D01*
X164684172Y-107904058D01*
X164790342Y-108010228D01*
X164873753Y-108135062D01*
X164931210Y-108273775D01*
X164960500Y-108421029D01*
X164960500Y-108571171D01*
X164931210Y-108718425D01*
X164873753Y-108857138D01*
X164790342Y-108981972D01*
X164684172Y-109088142D01*
X164559338Y-109171553D01*
X164420625Y-109229010D01*
X164273371Y-109258300D01*
X164123229Y-109258300D01*
X163975975Y-109229010D01*
X163837262Y-109171553D01*
X163712428Y-109088142D01*
X163606258Y-108981972D01*
X163522847Y-108857138D01*
X163465390Y-108718425D01*
X163436100Y-108571171D01*
X163436100Y-108421029D01*
X163465390Y-108273775D01*
X163522847Y-108135062D01*
X163606258Y-108010228D01*
X163712428Y-107904058D01*
X163837262Y-107820647D01*
X163975975Y-107763190D01*
X164123229Y-107733900D01*
X164273371Y-107733900D01*
X164420625Y-107763190D01*
G37*
G36*
X141560625Y-107763190D02*
G01*
X141699338Y-107820647D01*
X141824172Y-107904058D01*
X141930342Y-108010228D01*
X142013753Y-108135062D01*
X142071210Y-108273775D01*
X142100500Y-108421029D01*
X142100500Y-108571171D01*
X142071210Y-108718425D01*
X142013753Y-108857138D01*
X141930342Y-108981972D01*
X141824172Y-109088142D01*
X141699338Y-109171553D01*
X141560625Y-109229010D01*
X141413371Y-109258300D01*
X141263229Y-109258300D01*
X141115975Y-109229010D01*
X140977262Y-109171553D01*
X140852428Y-109088142D01*
X140746258Y-108981972D01*
X140662847Y-108857138D01*
X140605390Y-108718425D01*
X140576100Y-108571171D01*
X140576100Y-108421029D01*
X140605390Y-108273775D01*
X140662847Y-108135062D01*
X140746258Y-108010228D01*
X140852428Y-107904058D01*
X140977262Y-107820647D01*
X141115975Y-107763190D01*
X141263229Y-107733900D01*
X141413371Y-107733900D01*
X141560625Y-107763190D01*
G37*
G36*
X144100625Y-107763190D02*
G01*
X144239338Y-107820647D01*
X144364172Y-107904058D01*
X144470342Y-108010228D01*
X144553753Y-108135062D01*
X144611210Y-108273775D01*
X144640500Y-108421029D01*
X144640500Y-108571171D01*
X144611210Y-108718425D01*
X144553753Y-108857138D01*
X144470342Y-108981972D01*
X144364172Y-109088142D01*
X144239338Y-109171553D01*
X144100625Y-109229010D01*
X143953371Y-109258300D01*
X143803229Y-109258300D01*
X143655975Y-109229010D01*
X143517262Y-109171553D01*
X143392428Y-109088142D01*
X143286258Y-108981972D01*
X143202847Y-108857138D01*
X143145390Y-108718425D01*
X143116100Y-108571171D01*
X143116100Y-108421029D01*
X143145390Y-108273775D01*
X143202847Y-108135062D01*
X143286258Y-108010228D01*
X143392428Y-107904058D01*
X143517262Y-107820647D01*
X143655975Y-107763190D01*
X143803229Y-107733900D01*
X143953371Y-107733900D01*
X144100625Y-107763190D01*
G37*
G36*
X166960625Y-107763190D02*
G01*
X167099338Y-107820647D01*
X167224172Y-107904058D01*
X167330342Y-108010228D01*
X167413753Y-108135062D01*
X167471210Y-108273775D01*
X167500500Y-108421029D01*
X167500500Y-108571171D01*
X167471210Y-108718425D01*
X167413753Y-108857138D01*
X167330342Y-108981972D01*
X167224172Y-109088142D01*
X167099338Y-109171553D01*
X166960625Y-109229010D01*
X166813371Y-109258300D01*
X166663229Y-109258300D01*
X166515975Y-109229010D01*
X166377262Y-109171553D01*
X166252428Y-109088142D01*
X166146258Y-108981972D01*
X166062847Y-108857138D01*
X166005390Y-108718425D01*
X165976100Y-108571171D01*
X165976100Y-108421029D01*
X166005390Y-108273775D01*
X166062847Y-108135062D01*
X166146258Y-108010228D01*
X166252428Y-107904058D01*
X166377262Y-107820647D01*
X166515975Y-107763190D01*
X166663229Y-107733900D01*
X166813371Y-107733900D01*
X166960625Y-107763190D01*
G37*
G36*
X156628000Y-107508800D02*
G01*
X155426000Y-107508800D01*
X155426000Y-99856800D01*
X156628000Y-99856800D01*
X156628000Y-107508800D01*
G37*
G36*
X162328000Y-107508800D02*
G01*
X161126000Y-107508800D01*
X161126000Y-99856800D01*
X162328000Y-99856800D01*
X162328000Y-107508800D01*
G37*
G36*
X147242700Y-107407200D02*
G01*
X146040700Y-107407200D01*
X146040700Y-99755200D01*
X147242700Y-99755200D01*
X147242700Y-107407200D01*
G37*
G36*
X152942700Y-107407200D02*
G01*
X151740700Y-107407200D01*
X151740700Y-99755200D01*
X152942700Y-99755200D01*
X152942700Y-107407200D01*
G37*
G36*
X144100625Y-105223190D02*
G01*
X144239338Y-105280647D01*
X144364172Y-105364058D01*
X144470342Y-105470228D01*
X144553753Y-105595062D01*
X144611210Y-105733775D01*
X144640500Y-105881029D01*
X144640500Y-106031171D01*
X144611210Y-106178425D01*
X144553753Y-106317138D01*
X144470342Y-106441972D01*
X144364172Y-106548142D01*
X144239338Y-106631553D01*
X144100625Y-106689010D01*
X143953371Y-106718300D01*
X143803229Y-106718300D01*
X143655975Y-106689010D01*
X143517262Y-106631553D01*
X143392428Y-106548142D01*
X143286258Y-106441972D01*
X143202847Y-106317138D01*
X143145390Y-106178425D01*
X143116100Y-106031171D01*
X143116100Y-105881029D01*
X143145390Y-105733775D01*
X143202847Y-105595062D01*
X143286258Y-105470228D01*
X143392428Y-105364058D01*
X143517262Y-105280647D01*
X143655975Y-105223190D01*
X143803229Y-105193900D01*
X143953371Y-105193900D01*
X144100625Y-105223190D01*
G37*
G36*
X141560625Y-105223190D02*
G01*
X141699338Y-105280647D01*
X141824172Y-105364058D01*
X141930342Y-105470228D01*
X142013753Y-105595062D01*
X142071210Y-105733775D01*
X142100500Y-105881029D01*
X142100500Y-106031171D01*
X142071210Y-106178425D01*
X142013753Y-106317138D01*
X141930342Y-106441972D01*
X141824172Y-106548142D01*
X141699338Y-106631553D01*
X141560625Y-106689010D01*
X141413371Y-106718300D01*
X141263229Y-106718300D01*
X141115975Y-106689010D01*
X140977262Y-106631553D01*
X140852428Y-106548142D01*
X140746258Y-106441972D01*
X140662847Y-106317138D01*
X140605390Y-106178425D01*
X140576100Y-106031171D01*
X140576100Y-105881029D01*
X140605390Y-105733775D01*
X140662847Y-105595062D01*
X140746258Y-105470228D01*
X140852428Y-105364058D01*
X140977262Y-105280647D01*
X141115975Y-105223190D01*
X141263229Y-105193900D01*
X141413371Y-105193900D01*
X141560625Y-105223190D01*
G37*
G36*
X166960625Y-105223190D02*
G01*
X167099338Y-105280647D01*
X167224172Y-105364058D01*
X167330342Y-105470228D01*
X167413753Y-105595062D01*
X167471210Y-105733775D01*
X167500500Y-105881029D01*
X167500500Y-106031171D01*
X167471210Y-106178425D01*
X167413753Y-106317138D01*
X167330342Y-106441972D01*
X167224172Y-106548142D01*
X167099338Y-106631553D01*
X166960625Y-106689010D01*
X166813371Y-106718300D01*
X166663229Y-106718300D01*
X166515975Y-106689010D01*
X166377262Y-106631553D01*
X166252428Y-106548142D01*
X166146258Y-106441972D01*
X166062847Y-106317138D01*
X166005390Y-106178425D01*
X165976100Y-106031171D01*
X165976100Y-105881029D01*
X166005390Y-105733775D01*
X166062847Y-105595062D01*
X166146258Y-105470228D01*
X166252428Y-105364058D01*
X166377262Y-105280647D01*
X166515975Y-105223190D01*
X166663229Y-105193900D01*
X166813371Y-105193900D01*
X166960625Y-105223190D01*
G37*
G36*
X164420625Y-105223190D02*
G01*
X164559338Y-105280647D01*
X164684172Y-105364058D01*
X164790342Y-105470228D01*
X164873753Y-105595062D01*
X164931210Y-105733775D01*
X164960500Y-105881029D01*
X164960500Y-106031171D01*
X164931210Y-106178425D01*
X164873753Y-106317138D01*
X164790342Y-106441972D01*
X164684172Y-106548142D01*
X164559338Y-106631553D01*
X164420625Y-106689010D01*
X164273371Y-106718300D01*
X164123229Y-106718300D01*
X163975975Y-106689010D01*
X163837262Y-106631553D01*
X163712428Y-106548142D01*
X163606258Y-106441972D01*
X163522847Y-106317138D01*
X163465390Y-106178425D01*
X163436100Y-106031171D01*
X163436100Y-105881029D01*
X163465390Y-105733775D01*
X163522847Y-105595062D01*
X163606258Y-105470228D01*
X163712428Y-105364058D01*
X163837262Y-105280647D01*
X163975975Y-105223190D01*
X164123229Y-105193900D01*
X164273371Y-105193900D01*
X164420625Y-105223190D01*
G37*
G36*
X144100625Y-102683190D02*
G01*
X144239338Y-102740647D01*
X144364172Y-102824058D01*
X144470342Y-102930228D01*
X144553753Y-103055062D01*
X144611210Y-103193775D01*
X144640500Y-103341029D01*
X144640500Y-103491171D01*
X144611210Y-103638425D01*
X144553753Y-103777138D01*
X144470342Y-103901972D01*
X144364172Y-104008142D01*
X144239338Y-104091553D01*
X144100625Y-104149010D01*
X143953371Y-104178300D01*
X143803229Y-104178300D01*
X143655975Y-104149010D01*
X143517262Y-104091553D01*
X143392428Y-104008142D01*
X143286258Y-103901972D01*
X143202847Y-103777138D01*
X143145390Y-103638425D01*
X143116100Y-103491171D01*
X143116100Y-103341029D01*
X143145390Y-103193775D01*
X143202847Y-103055062D01*
X143286258Y-102930228D01*
X143392428Y-102824058D01*
X143517262Y-102740647D01*
X143655975Y-102683190D01*
X143803229Y-102653900D01*
X143953371Y-102653900D01*
X144100625Y-102683190D01*
G37*
G36*
X166960625Y-102683190D02*
G01*
X167099338Y-102740647D01*
X167224172Y-102824058D01*
X167330342Y-102930228D01*
X167413753Y-103055062D01*
X167471210Y-103193775D01*
X167500500Y-103341029D01*
X167500500Y-103491171D01*
X167471210Y-103638425D01*
X167413753Y-103777138D01*
X167330342Y-103901972D01*
X167224172Y-104008142D01*
X167099338Y-104091553D01*
X166960625Y-104149010D01*
X166813371Y-104178300D01*
X166663229Y-104178300D01*
X166515975Y-104149010D01*
X166377262Y-104091553D01*
X166252428Y-104008142D01*
X166146258Y-103901972D01*
X166062847Y-103777138D01*
X166005390Y-103638425D01*
X165976100Y-103491171D01*
X165976100Y-103341029D01*
X166005390Y-103193775D01*
X166062847Y-103055062D01*
X166146258Y-102930228D01*
X166252428Y-102824058D01*
X166377262Y-102740647D01*
X166515975Y-102683190D01*
X166663229Y-102653900D01*
X166813371Y-102653900D01*
X166960625Y-102683190D01*
G37*
G36*
X141560625Y-102683190D02*
G01*
X141699338Y-102740647D01*
X141824172Y-102824058D01*
X141930342Y-102930228D01*
X142013753Y-103055062D01*
X142071210Y-103193775D01*
X142100500Y-103341029D01*
X142100500Y-103491171D01*
X142071210Y-103638425D01*
X142013753Y-103777138D01*
X141930342Y-103901972D01*
X141824172Y-104008142D01*
X141699338Y-104091553D01*
X141560625Y-104149010D01*
X141413371Y-104178300D01*
X141263229Y-104178300D01*
X141115975Y-104149010D01*
X140977262Y-104091553D01*
X140852428Y-104008142D01*
X140746258Y-103901972D01*
X140662847Y-103777138D01*
X140605390Y-103638425D01*
X140576100Y-103491171D01*
X140576100Y-103341029D01*
X140605390Y-103193775D01*
X140662847Y-103055062D01*
X140746258Y-102930228D01*
X140852428Y-102824058D01*
X140977262Y-102740647D01*
X141115975Y-102683190D01*
X141263229Y-102653900D01*
X141413371Y-102653900D01*
X141560625Y-102683190D01*
G37*
G36*
X164420625Y-102683190D02*
G01*
X164559338Y-102740647D01*
X164684172Y-102824058D01*
X164790342Y-102930228D01*
X164873753Y-103055062D01*
X164931210Y-103193775D01*
X164960500Y-103341029D01*
X164960500Y-103491171D01*
X164931210Y-103638425D01*
X164873753Y-103777138D01*
X164790342Y-103901972D01*
X164684172Y-104008142D01*
X164559338Y-104091553D01*
X164420625Y-104149010D01*
X164273371Y-104178300D01*
X164123229Y-104178300D01*
X163975975Y-104149010D01*
X163837262Y-104091553D01*
X163712428Y-104008142D01*
X163606258Y-103901972D01*
X163522847Y-103777138D01*
X163465390Y-103638425D01*
X163436100Y-103491171D01*
X163436100Y-103341029D01*
X163465390Y-103193775D01*
X163522847Y-103055062D01*
X163606258Y-102930228D01*
X163712428Y-102824058D01*
X163837262Y-102740647D01*
X163975975Y-102683190D01*
X164123229Y-102653900D01*
X164273371Y-102653900D01*
X164420625Y-102683190D01*
G37*
G36*
X141560625Y-100143190D02*
G01*
X141699338Y-100200647D01*
X141824172Y-100284058D01*
X141930342Y-100390228D01*
X142013753Y-100515062D01*
X142071210Y-100653775D01*
X142100500Y-100801029D01*
X142100500Y-100951171D01*
X142071210Y-101098425D01*
X142013753Y-101237138D01*
X141930342Y-101361972D01*
X141824172Y-101468142D01*
X141699338Y-101551553D01*
X141560625Y-101609010D01*
X141413371Y-101638300D01*
X141263229Y-101638300D01*
X141115975Y-101609010D01*
X140977262Y-101551553D01*
X140852428Y-101468142D01*
X140746258Y-101361972D01*
X140662847Y-101237138D01*
X140605390Y-101098425D01*
X140576100Y-100951171D01*
X140576100Y-100801029D01*
X140605390Y-100653775D01*
X140662847Y-100515062D01*
X140746258Y-100390228D01*
X140852428Y-100284058D01*
X140977262Y-100200647D01*
X141115975Y-100143190D01*
X141263229Y-100113900D01*
X141413371Y-100113900D01*
X141560625Y-100143190D01*
G37*
G36*
X144100625Y-100143190D02*
G01*
X144239338Y-100200647D01*
X144364172Y-100284058D01*
X144470342Y-100390228D01*
X144553753Y-100515062D01*
X144611210Y-100653775D01*
X144640500Y-100801029D01*
X144640500Y-100951171D01*
X144611210Y-101098425D01*
X144553753Y-101237138D01*
X144470342Y-101361972D01*
X144364172Y-101468142D01*
X144239338Y-101551553D01*
X144100625Y-101609010D01*
X143953371Y-101638300D01*
X143803229Y-101638300D01*
X143655975Y-101609010D01*
X143517262Y-101551553D01*
X143392428Y-101468142D01*
X143286258Y-101361972D01*
X143202847Y-101237138D01*
X143145390Y-101098425D01*
X143116100Y-100951171D01*
X143116100Y-100801029D01*
X143145390Y-100653775D01*
X143202847Y-100515062D01*
X143286258Y-100390228D01*
X143392428Y-100284058D01*
X143517262Y-100200647D01*
X143655975Y-100143190D01*
X143803229Y-100113900D01*
X143953371Y-100113900D01*
X144100625Y-100143190D01*
G37*
G36*
X164420625Y-100143190D02*
G01*
X164559338Y-100200647D01*
X164684172Y-100284058D01*
X164790342Y-100390228D01*
X164873753Y-100515062D01*
X164931210Y-100653775D01*
X164960500Y-100801029D01*
X164960500Y-100951171D01*
X164931210Y-101098425D01*
X164873753Y-101237138D01*
X164790342Y-101361972D01*
X164684172Y-101468142D01*
X164559338Y-101551553D01*
X164420625Y-101609010D01*
X164273371Y-101638300D01*
X164123229Y-101638300D01*
X163975975Y-101609010D01*
X163837262Y-101551553D01*
X163712428Y-101468142D01*
X163606258Y-101361972D01*
X163522847Y-101237138D01*
X163465390Y-101098425D01*
X163436100Y-100951171D01*
X163436100Y-100801029D01*
X163465390Y-100653775D01*
X163522847Y-100515062D01*
X163606258Y-100390228D01*
X163712428Y-100284058D01*
X163837262Y-100200647D01*
X163975975Y-100143190D01*
X164123229Y-100113900D01*
X164273371Y-100113900D01*
X164420625Y-100143190D01*
G37*
G36*
X166960625Y-100143190D02*
G01*
X167099338Y-100200647D01*
X167224172Y-100284058D01*
X167330342Y-100390228D01*
X167413753Y-100515062D01*
X167471210Y-100653775D01*
X167500500Y-100801029D01*
X167500500Y-100951171D01*
X167471210Y-101098425D01*
X167413753Y-101237138D01*
X167330342Y-101361972D01*
X167224172Y-101468142D01*
X167099338Y-101551553D01*
X166960625Y-101609010D01*
X166813371Y-101638300D01*
X166663229Y-101638300D01*
X166515975Y-101609010D01*
X166377262Y-101551553D01*
X166252428Y-101468142D01*
X166146258Y-101361972D01*
X166062847Y-101237138D01*
X166005390Y-101098425D01*
X165976100Y-100951171D01*
X165976100Y-100801029D01*
X166005390Y-100653775D01*
X166062847Y-100515062D01*
X166146258Y-100390228D01*
X166252428Y-100284058D01*
X166377262Y-100200647D01*
X166515975Y-100143190D01*
X166663229Y-100113900D01*
X166813371Y-100113900D01*
X166960625Y-100143190D01*
G37*
G36*
X146640625Y-97603190D02*
G01*
X146779338Y-97660647D01*
X146904172Y-97744058D01*
X147010342Y-97850228D01*
X147093753Y-97975062D01*
X147151210Y-98113775D01*
X147180500Y-98261029D01*
X147180500Y-98411171D01*
X147151210Y-98558425D01*
X147093753Y-98697138D01*
X147010342Y-98821972D01*
X146904172Y-98928142D01*
X146779338Y-99011553D01*
X146640625Y-99069010D01*
X146493371Y-99098300D01*
X146343229Y-99098300D01*
X146195975Y-99069010D01*
X146057262Y-99011553D01*
X145932428Y-98928142D01*
X145826258Y-98821972D01*
X145742847Y-98697138D01*
X145685390Y-98558425D01*
X145656100Y-98411171D01*
X145656100Y-98261029D01*
X145685390Y-98113775D01*
X145742847Y-97975062D01*
X145826258Y-97850228D01*
X145932428Y-97744058D01*
X146057262Y-97660647D01*
X146195975Y-97603190D01*
X146343229Y-97573900D01*
X146493371Y-97573900D01*
X146640625Y-97603190D01*
G37*
G36*
X161880625Y-97603190D02*
G01*
X162019338Y-97660647D01*
X162144172Y-97744058D01*
X162250342Y-97850228D01*
X162333753Y-97975062D01*
X162391210Y-98113775D01*
X162420500Y-98261029D01*
X162420500Y-98411171D01*
X162391210Y-98558425D01*
X162333753Y-98697138D01*
X162250342Y-98821972D01*
X162144172Y-98928142D01*
X162019338Y-99011553D01*
X161880625Y-99069010D01*
X161733371Y-99098300D01*
X161583229Y-99098300D01*
X161435975Y-99069010D01*
X161297262Y-99011553D01*
X161172428Y-98928142D01*
X161066258Y-98821972D01*
X160982847Y-98697138D01*
X160925390Y-98558425D01*
X160896100Y-98411171D01*
X160896100Y-98261029D01*
X160925390Y-98113775D01*
X160982847Y-97975062D01*
X161066258Y-97850228D01*
X161172428Y-97744058D01*
X161297262Y-97660647D01*
X161435975Y-97603190D01*
X161583229Y-97573900D01*
X161733371Y-97573900D01*
X161880625Y-97603190D01*
G37*
G36*
X164420625Y-97603190D02*
G01*
X164559338Y-97660647D01*
X164684172Y-97744058D01*
X164790342Y-97850228D01*
X164873753Y-97975062D01*
X164931210Y-98113775D01*
X164960500Y-98261029D01*
X164960500Y-98411171D01*
X164931210Y-98558425D01*
X164873753Y-98697138D01*
X164790342Y-98821972D01*
X164684172Y-98928142D01*
X164559338Y-99011553D01*
X164420625Y-99069010D01*
X164273371Y-99098300D01*
X164123229Y-99098300D01*
X163975975Y-99069010D01*
X163837262Y-99011553D01*
X163712428Y-98928142D01*
X163606258Y-98821972D01*
X163522847Y-98697138D01*
X163465390Y-98558425D01*
X163436100Y-98411171D01*
X163436100Y-98261029D01*
X163465390Y-98113775D01*
X163522847Y-97975062D01*
X163606258Y-97850228D01*
X163712428Y-97744058D01*
X163837262Y-97660647D01*
X163975975Y-97603190D01*
X164123229Y-97573900D01*
X164273371Y-97573900D01*
X164420625Y-97603190D01*
G37*
G36*
X166960625Y-97603190D02*
G01*
X167099338Y-97660647D01*
X167224172Y-97744058D01*
X167330342Y-97850228D01*
X167413753Y-97975062D01*
X167471210Y-98113775D01*
X167500500Y-98261029D01*
X167500500Y-98411171D01*
X167471210Y-98558425D01*
X167413753Y-98697138D01*
X167330342Y-98821972D01*
X167224172Y-98928142D01*
X167099338Y-99011553D01*
X166960625Y-99069010D01*
X166813371Y-99098300D01*
X166663229Y-99098300D01*
X166515975Y-99069010D01*
X166377262Y-99011553D01*
X166252428Y-98928142D01*
X166146258Y-98821972D01*
X166062847Y-98697138D01*
X166005390Y-98558425D01*
X165976100Y-98411171D01*
X165976100Y-98261029D01*
X166005390Y-98113775D01*
X166062847Y-97975062D01*
X166146258Y-97850228D01*
X166252428Y-97744058D01*
X166377262Y-97660647D01*
X166515975Y-97603190D01*
X166663229Y-97573900D01*
X166813371Y-97573900D01*
X166960625Y-97603190D01*
G37*
G36*
X159340625Y-97603190D02*
G01*
X159479338Y-97660647D01*
X159604172Y-97744058D01*
X159710342Y-97850228D01*
X159793753Y-97975062D01*
X159851210Y-98113775D01*
X159880500Y-98261029D01*
X159880500Y-98411171D01*
X159851210Y-98558425D01*
X159793753Y-98697138D01*
X159710342Y-98821972D01*
X159604172Y-98928142D01*
X159479338Y-99011553D01*
X159340625Y-99069010D01*
X159193371Y-99098300D01*
X159043229Y-99098300D01*
X158895975Y-99069010D01*
X158757262Y-99011553D01*
X158632428Y-98928142D01*
X158526258Y-98821972D01*
X158442847Y-98697138D01*
X158385390Y-98558425D01*
X158356100Y-98411171D01*
X158356100Y-98261029D01*
X158385390Y-98113775D01*
X158442847Y-97975062D01*
X158526258Y-97850228D01*
X158632428Y-97744058D01*
X158757262Y-97660647D01*
X158895975Y-97603190D01*
X159043229Y-97573900D01*
X159193371Y-97573900D01*
X159340625Y-97603190D01*
G37*
G36*
X142100500Y-99098300D02*
G01*
X140576100Y-99098300D01*
X140576100Y-97573900D01*
X142100500Y-97573900D01*
X142100500Y-99098300D01*
G37*
G36*
X156800625Y-97603190D02*
G01*
X156939338Y-97660647D01*
X157064172Y-97744058D01*
X157170342Y-97850228D01*
X157253753Y-97975062D01*
X157311210Y-98113775D01*
X157340500Y-98261029D01*
X157340500Y-98411171D01*
X157311210Y-98558425D01*
X157253753Y-98697138D01*
X157170342Y-98821972D01*
X157064172Y-98928142D01*
X156939338Y-99011553D01*
X156800625Y-99069010D01*
X156653371Y-99098300D01*
X156503229Y-99098300D01*
X156355975Y-99069010D01*
X156217262Y-99011553D01*
X156092428Y-98928142D01*
X155986258Y-98821972D01*
X155902847Y-98697138D01*
X155845390Y-98558425D01*
X155816100Y-98411171D01*
X155816100Y-98261029D01*
X155845390Y-98113775D01*
X155902847Y-97975062D01*
X155986258Y-97850228D01*
X156092428Y-97744058D01*
X156217262Y-97660647D01*
X156355975Y-97603190D01*
X156503229Y-97573900D01*
X156653371Y-97573900D01*
X156800625Y-97603190D01*
G37*
G36*
X144100625Y-97603190D02*
G01*
X144239338Y-97660647D01*
X144364172Y-97744058D01*
X144470342Y-97850228D01*
X144553753Y-97975062D01*
X144611210Y-98113775D01*
X144640500Y-98261029D01*
X144640500Y-98411171D01*
X144611210Y-98558425D01*
X144553753Y-98697138D01*
X144470342Y-98821972D01*
X144364172Y-98928142D01*
X144239338Y-99011553D01*
X144100625Y-99069010D01*
X143953371Y-99098300D01*
X143803229Y-99098300D01*
X143655975Y-99069010D01*
X143517262Y-99011553D01*
X143392428Y-98928142D01*
X143286258Y-98821972D01*
X143202847Y-98697138D01*
X143145390Y-98558425D01*
X143116100Y-98411171D01*
X143116100Y-98261029D01*
X143145390Y-98113775D01*
X143202847Y-97975062D01*
X143286258Y-97850228D01*
X143392428Y-97744058D01*
X143517262Y-97660647D01*
X143655975Y-97603190D01*
X143803229Y-97573900D01*
X143953371Y-97573900D01*
X144100625Y-97603190D01*
G37*
G36*
X149180625Y-97603190D02*
G01*
X149319338Y-97660647D01*
X149444172Y-97744058D01*
X149550342Y-97850228D01*
X149633753Y-97975062D01*
X149691210Y-98113775D01*
X149720500Y-98261029D01*
X149720500Y-98411171D01*
X149691210Y-98558425D01*
X149633753Y-98697138D01*
X149550342Y-98821972D01*
X149444172Y-98928142D01*
X149319338Y-99011553D01*
X149180625Y-99069010D01*
X149033371Y-99098300D01*
X148883229Y-99098300D01*
X148735975Y-99069010D01*
X148597262Y-99011553D01*
X148472428Y-98928142D01*
X148366258Y-98821972D01*
X148282847Y-98697138D01*
X148225390Y-98558425D01*
X148196100Y-98411171D01*
X148196100Y-98261029D01*
X148225390Y-98113775D01*
X148282847Y-97975062D01*
X148366258Y-97850228D01*
X148472428Y-97744058D01*
X148597262Y-97660647D01*
X148735975Y-97603190D01*
X148883229Y-97573900D01*
X149033371Y-97573900D01*
X149180625Y-97603190D01*
G37*
G36*
X154260625Y-97603190D02*
G01*
X154399338Y-97660647D01*
X154524172Y-97744058D01*
X154630342Y-97850228D01*
X154713753Y-97975062D01*
X154771210Y-98113775D01*
X154800500Y-98261029D01*
X154800500Y-98411171D01*
X154771210Y-98558425D01*
X154713753Y-98697138D01*
X154630342Y-98821972D01*
X154524172Y-98928142D01*
X154399338Y-99011553D01*
X154260625Y-99069010D01*
X154113371Y-99098300D01*
X153963229Y-99098300D01*
X153815975Y-99069010D01*
X153677262Y-99011553D01*
X153552428Y-98928142D01*
X153446258Y-98821972D01*
X153362847Y-98697138D01*
X153305390Y-98558425D01*
X153276100Y-98411171D01*
X153276100Y-98261029D01*
X153305390Y-98113775D01*
X153362847Y-97975062D01*
X153446258Y-97850228D01*
X153552428Y-97744058D01*
X153677262Y-97660647D01*
X153815975Y-97603190D01*
X153963229Y-97573900D01*
X154113371Y-97573900D01*
X154260625Y-97603190D01*
G37*
G36*
X151720625Y-97603190D02*
G01*
X151859338Y-97660647D01*
X151984172Y-97744058D01*
X152090342Y-97850228D01*
X152173753Y-97975062D01*
X152231210Y-98113775D01*
X152260500Y-98261029D01*
X152260500Y-98411171D01*
X152231210Y-98558425D01*
X152173753Y-98697138D01*
X152090342Y-98821972D01*
X151984172Y-98928142D01*
X151859338Y-99011553D01*
X151720625Y-99069010D01*
X151573371Y-99098300D01*
X151423229Y-99098300D01*
X151275975Y-99069010D01*
X151137262Y-99011553D01*
X151012428Y-98928142D01*
X150906258Y-98821972D01*
X150822847Y-98697138D01*
X150765390Y-98558425D01*
X150736100Y-98411171D01*
X150736100Y-98261029D01*
X150765390Y-98113775D01*
X150822847Y-97975062D01*
X150906258Y-97850228D01*
X151012428Y-97744058D01*
X151137262Y-97660647D01*
X151275975Y-97603190D01*
X151423229Y-97573900D01*
X151573371Y-97573900D01*
X151720625Y-97603190D01*
G37*
G36*
X164420625Y-95063190D02*
G01*
X164559338Y-95120647D01*
X164684172Y-95204058D01*
X164790342Y-95310228D01*
X164873753Y-95435062D01*
X164931210Y-95573775D01*
X164960500Y-95721029D01*
X164960500Y-95871171D01*
X164931210Y-96018425D01*
X164873753Y-96157138D01*
X164790342Y-96281972D01*
X164684172Y-96388142D01*
X164559338Y-96471553D01*
X164420625Y-96529010D01*
X164273371Y-96558300D01*
X164123229Y-96558300D01*
X163975975Y-96529010D01*
X163837262Y-96471553D01*
X163712428Y-96388142D01*
X163606258Y-96281972D01*
X163522847Y-96157138D01*
X163465390Y-96018425D01*
X163436100Y-95871171D01*
X163436100Y-95721029D01*
X163465390Y-95573775D01*
X163522847Y-95435062D01*
X163606258Y-95310228D01*
X163712428Y-95204058D01*
X163837262Y-95120647D01*
X163975975Y-95063190D01*
X164123229Y-95033900D01*
X164273371Y-95033900D01*
X164420625Y-95063190D01*
G37*
G36*
X144100625Y-95063190D02*
G01*
X144239338Y-95120647D01*
X144364172Y-95204058D01*
X144470342Y-95310228D01*
X144553753Y-95435062D01*
X144611210Y-95573775D01*
X144640500Y-95721029D01*
X144640500Y-95871171D01*
X144611210Y-96018425D01*
X144553753Y-96157138D01*
X144470342Y-96281972D01*
X144364172Y-96388142D01*
X144239338Y-96471553D01*
X144100625Y-96529010D01*
X143953371Y-96558300D01*
X143803229Y-96558300D01*
X143655975Y-96529010D01*
X143517262Y-96471553D01*
X143392428Y-96388142D01*
X143286258Y-96281972D01*
X143202847Y-96157138D01*
X143145390Y-96018425D01*
X143116100Y-95871171D01*
X143116100Y-95721029D01*
X143145390Y-95573775D01*
X143202847Y-95435062D01*
X143286258Y-95310228D01*
X143392428Y-95204058D01*
X143517262Y-95120647D01*
X143655975Y-95063190D01*
X143803229Y-95033900D01*
X143953371Y-95033900D01*
X144100625Y-95063190D01*
G37*
G36*
X161880625Y-95063190D02*
G01*
X162019338Y-95120647D01*
X162144172Y-95204058D01*
X162250342Y-95310228D01*
X162333753Y-95435062D01*
X162391210Y-95573775D01*
X162420500Y-95721029D01*
X162420500Y-95871171D01*
X162391210Y-96018425D01*
X162333753Y-96157138D01*
X162250342Y-96281972D01*
X162144172Y-96388142D01*
X162019338Y-96471553D01*
X161880625Y-96529010D01*
X161733371Y-96558300D01*
X161583229Y-96558300D01*
X161435975Y-96529010D01*
X161297262Y-96471553D01*
X161172428Y-96388142D01*
X161066258Y-96281972D01*
X160982847Y-96157138D01*
X160925390Y-96018425D01*
X160896100Y-95871171D01*
X160896100Y-95721029D01*
X160925390Y-95573775D01*
X160982847Y-95435062D01*
X161066258Y-95310228D01*
X161172428Y-95204058D01*
X161297262Y-95120647D01*
X161435975Y-95063190D01*
X161583229Y-95033900D01*
X161733371Y-95033900D01*
X161880625Y-95063190D01*
G37*
G36*
X159340625Y-95063190D02*
G01*
X159479338Y-95120647D01*
X159604172Y-95204058D01*
X159710342Y-95310228D01*
X159793753Y-95435062D01*
X159851210Y-95573775D01*
X159880500Y-95721029D01*
X159880500Y-95871171D01*
X159851210Y-96018425D01*
X159793753Y-96157138D01*
X159710342Y-96281972D01*
X159604172Y-96388142D01*
X159479338Y-96471553D01*
X159340625Y-96529010D01*
X159193371Y-96558300D01*
X159043229Y-96558300D01*
X158895975Y-96529010D01*
X158757262Y-96471553D01*
X158632428Y-96388142D01*
X158526258Y-96281972D01*
X158442847Y-96157138D01*
X158385390Y-96018425D01*
X158356100Y-95871171D01*
X158356100Y-95721029D01*
X158385390Y-95573775D01*
X158442847Y-95435062D01*
X158526258Y-95310228D01*
X158632428Y-95204058D01*
X158757262Y-95120647D01*
X158895975Y-95063190D01*
X159043229Y-95033900D01*
X159193371Y-95033900D01*
X159340625Y-95063190D01*
G37*
G36*
X156800625Y-95063190D02*
G01*
X156939338Y-95120647D01*
X157064172Y-95204058D01*
X157170342Y-95310228D01*
X157253753Y-95435062D01*
X157311210Y-95573775D01*
X157340500Y-95721029D01*
X157340500Y-95871171D01*
X157311210Y-96018425D01*
X157253753Y-96157138D01*
X157170342Y-96281972D01*
X157064172Y-96388142D01*
X156939338Y-96471553D01*
X156800625Y-96529010D01*
X156653371Y-96558300D01*
X156503229Y-96558300D01*
X156355975Y-96529010D01*
X156217262Y-96471553D01*
X156092428Y-96388142D01*
X155986258Y-96281972D01*
X155902847Y-96157138D01*
X155845390Y-96018425D01*
X155816100Y-95871171D01*
X155816100Y-95721029D01*
X155845390Y-95573775D01*
X155902847Y-95435062D01*
X155986258Y-95310228D01*
X156092428Y-95204058D01*
X156217262Y-95120647D01*
X156355975Y-95063190D01*
X156503229Y-95033900D01*
X156653371Y-95033900D01*
X156800625Y-95063190D01*
G37*
G36*
X154260625Y-95063190D02*
G01*
X154399338Y-95120647D01*
X154524172Y-95204058D01*
X154630342Y-95310228D01*
X154713753Y-95435062D01*
X154771210Y-95573775D01*
X154800500Y-95721029D01*
X154800500Y-95871171D01*
X154771210Y-96018425D01*
X154713753Y-96157138D01*
X154630342Y-96281972D01*
X154524172Y-96388142D01*
X154399338Y-96471553D01*
X154260625Y-96529010D01*
X154113371Y-96558300D01*
X153963229Y-96558300D01*
X153815975Y-96529010D01*
X153677262Y-96471553D01*
X153552428Y-96388142D01*
X153446258Y-96281972D01*
X153362847Y-96157138D01*
X153305390Y-96018425D01*
X153276100Y-95871171D01*
X153276100Y-95721029D01*
X153305390Y-95573775D01*
X153362847Y-95435062D01*
X153446258Y-95310228D01*
X153552428Y-95204058D01*
X153677262Y-95120647D01*
X153815975Y-95063190D01*
X153963229Y-95033900D01*
X154113371Y-95033900D01*
X154260625Y-95063190D01*
G37*
G36*
X151720625Y-95063190D02*
G01*
X151859338Y-95120647D01*
X151984172Y-95204058D01*
X152090342Y-95310228D01*
X152173753Y-95435062D01*
X152231210Y-95573775D01*
X152260500Y-95721029D01*
X152260500Y-95871171D01*
X152231210Y-96018425D01*
X152173753Y-96157138D01*
X152090342Y-96281972D01*
X151984172Y-96388142D01*
X151859338Y-96471553D01*
X151720625Y-96529010D01*
X151573371Y-96558300D01*
X151423229Y-96558300D01*
X151275975Y-96529010D01*
X151137262Y-96471553D01*
X151012428Y-96388142D01*
X150906258Y-96281972D01*
X150822847Y-96157138D01*
X150765390Y-96018425D01*
X150736100Y-95871171D01*
X150736100Y-95721029D01*
X150765390Y-95573775D01*
X150822847Y-95435062D01*
X150906258Y-95310228D01*
X151012428Y-95204058D01*
X151137262Y-95120647D01*
X151275975Y-95063190D01*
X151423229Y-95033900D01*
X151573371Y-95033900D01*
X151720625Y-95063190D01*
G37*
G36*
X146640625Y-95063190D02*
G01*
X146779338Y-95120647D01*
X146904172Y-95204058D01*
X147010342Y-95310228D01*
X147093753Y-95435062D01*
X147151210Y-95573775D01*
X147180500Y-95721029D01*
X147180500Y-95871171D01*
X147151210Y-96018425D01*
X147093753Y-96157138D01*
X147010342Y-96281972D01*
X146904172Y-96388142D01*
X146779338Y-96471553D01*
X146640625Y-96529010D01*
X146493371Y-96558300D01*
X146343229Y-96558300D01*
X146195975Y-96529010D01*
X146057262Y-96471553D01*
X145932428Y-96388142D01*
X145826258Y-96281972D01*
X145742847Y-96157138D01*
X145685390Y-96018425D01*
X145656100Y-95871171D01*
X145656100Y-95721029D01*
X145685390Y-95573775D01*
X145742847Y-95435062D01*
X145826258Y-95310228D01*
X145932428Y-95204058D01*
X146057262Y-95120647D01*
X146195975Y-95063190D01*
X146343229Y-95033900D01*
X146493371Y-95033900D01*
X146640625Y-95063190D01*
G37*
G36*
X149180625Y-95063190D02*
G01*
X149319338Y-95120647D01*
X149444172Y-95204058D01*
X149550342Y-95310228D01*
X149633753Y-95435062D01*
X149691210Y-95573775D01*
X149720500Y-95721029D01*
X149720500Y-95871171D01*
X149691210Y-96018425D01*
X149633753Y-96157138D01*
X149550342Y-96281972D01*
X149444172Y-96388142D01*
X149319338Y-96471553D01*
X149180625Y-96529010D01*
X149033371Y-96558300D01*
X148883229Y-96558300D01*
X148735975Y-96529010D01*
X148597262Y-96471553D01*
X148472428Y-96388142D01*
X148366258Y-96281972D01*
X148282847Y-96157138D01*
X148225390Y-96018425D01*
X148196100Y-95871171D01*
X148196100Y-95721029D01*
X148225390Y-95573775D01*
X148282847Y-95435062D01*
X148366258Y-95310228D01*
X148472428Y-95204058D01*
X148597262Y-95120647D01*
X148735975Y-95063190D01*
X148883229Y-95033900D01*
X149033371Y-95033900D01*
X149180625Y-95063190D01*
G37*
G36*
X142127920Y-96442720D02*
G01*
X141025920Y-96442720D01*
X141025920Y-95340720D01*
X142127920Y-95340720D01*
X142127920Y-96442720D01*
G37*
G36*
X139821314Y-95048945D02*
G01*
X139859007Y-95060379D01*
X139893743Y-95078946D01*
X139924188Y-95103932D01*
X139949174Y-95134377D01*
X139967741Y-95169113D01*
X139979175Y-95206806D01*
X139983640Y-95252141D01*
X139983640Y-96088819D01*
X139979175Y-96134154D01*
X139967741Y-96171847D01*
X139949174Y-96206583D01*
X139924188Y-96237028D01*
X139893743Y-96262014D01*
X139859007Y-96280581D01*
X139821314Y-96292015D01*
X139775979Y-96296480D01*
X138689301Y-96296480D01*
X138643966Y-96292015D01*
X138606273Y-96280581D01*
X138571537Y-96262014D01*
X138541092Y-96237028D01*
X138516106Y-96206583D01*
X138497539Y-96171847D01*
X138486105Y-96134154D01*
X138481640Y-96088819D01*
X138481640Y-95252141D01*
X138486105Y-95206806D01*
X138497539Y-95169113D01*
X138516106Y-95134377D01*
X138541092Y-95103932D01*
X138571537Y-95078946D01*
X138606273Y-95060379D01*
X138643966Y-95048945D01*
X138689301Y-95044480D01*
X139775979Y-95044480D01*
X139821314Y-95048945D01*
G37*
G36*
X139821314Y-92998945D02*
G01*
X139859007Y-93010379D01*
X139893743Y-93028946D01*
X139924188Y-93053932D01*
X139949174Y-93084377D01*
X139967741Y-93119113D01*
X139979175Y-93156806D01*
X139983640Y-93202141D01*
X139983640Y-94038819D01*
X139979175Y-94084154D01*
X139967741Y-94121847D01*
X139949174Y-94156583D01*
X139924188Y-94187028D01*
X139893743Y-94212014D01*
X139859007Y-94230581D01*
X139821314Y-94242015D01*
X139775979Y-94246480D01*
X138689301Y-94246480D01*
X138643966Y-94242015D01*
X138606273Y-94230581D01*
X138571537Y-94212014D01*
X138541092Y-94187028D01*
X138516106Y-94156583D01*
X138497539Y-94121847D01*
X138486105Y-94084154D01*
X138481640Y-94038819D01*
X138481640Y-93202141D01*
X138486105Y-93156806D01*
X138497539Y-93119113D01*
X138516106Y-93084377D01*
X138541092Y-93053932D01*
X138571537Y-93028946D01*
X138606273Y-93010379D01*
X138643966Y-92998945D01*
X138689301Y-92994480D01*
X139775979Y-92994480D01*
X139821314Y-92998945D01*
G37*
G36*
X142127920Y-93942720D02*
G01*
X141025920Y-93942720D01*
X141025920Y-92840720D01*
X142127920Y-92840720D01*
X142127920Y-93942720D01*
G37*
G36*
X151549860Y-92325600D02*
G01*
X143897860Y-92325600D01*
X143897860Y-91123600D01*
X151549860Y-91123600D01*
X151549860Y-92325600D01*
G37*
G36*
X139790074Y-90807665D02*
G01*
X139827767Y-90819099D01*
X139862503Y-90837666D01*
X139892948Y-90862652D01*
X139917934Y-90893097D01*
X139936501Y-90927833D01*
X139947935Y-90965526D01*
X139952400Y-91010861D01*
X139952400Y-91847539D01*
X139947935Y-91892874D01*
X139936501Y-91930567D01*
X139917934Y-91965303D01*
X139892948Y-91995748D01*
X139862503Y-92020734D01*
X139827767Y-92039301D01*
X139790074Y-92050735D01*
X139744739Y-92055200D01*
X138658061Y-92055200D01*
X138612726Y-92050735D01*
X138575033Y-92039301D01*
X138540297Y-92020734D01*
X138509852Y-91995748D01*
X138484866Y-91965303D01*
X138466299Y-91930567D01*
X138454865Y-91892874D01*
X138450400Y-91847539D01*
X138450400Y-91010861D01*
X138454865Y-90965526D01*
X138466299Y-90927833D01*
X138484866Y-90893097D01*
X138509852Y-90862652D01*
X138540297Y-90837666D01*
X138575033Y-90819099D01*
X138612726Y-90807665D01*
X138658061Y-90803200D01*
X139744739Y-90803200D01*
X139790074Y-90807665D01*
G37*
G36*
X142165594Y-90780185D02*
G01*
X142203287Y-90791619D01*
X142238023Y-90810186D01*
X142268468Y-90835172D01*
X142293454Y-90865617D01*
X142312021Y-90900353D01*
X142323455Y-90938046D01*
X142327920Y-90983381D01*
X142327920Y-91820059D01*
X142323455Y-91865394D01*
X142312021Y-91903087D01*
X142293454Y-91937823D01*
X142268468Y-91968268D01*
X142238023Y-91993254D01*
X142203287Y-92011821D01*
X142165594Y-92023255D01*
X142120259Y-92027720D01*
X141033581Y-92027720D01*
X140988246Y-92023255D01*
X140950553Y-92011821D01*
X140915817Y-91993254D01*
X140885372Y-91968268D01*
X140860386Y-91937823D01*
X140841819Y-91903087D01*
X140830385Y-91865394D01*
X140825920Y-91820059D01*
X140825920Y-90983381D01*
X140830385Y-90938046D01*
X140841819Y-90900353D01*
X140860386Y-90865617D01*
X140885372Y-90835172D01*
X140915817Y-90810186D01*
X140950553Y-90791619D01*
X140988246Y-90780185D01*
X141033581Y-90775720D01*
X142120259Y-90775720D01*
X142165594Y-90780185D01*
G37*
G36*
X165470874Y-89654465D02*
G01*
X165508567Y-89665899D01*
X165543303Y-89684466D01*
X165573748Y-89709452D01*
X165598734Y-89739897D01*
X165617301Y-89774633D01*
X165628735Y-89812326D01*
X165633200Y-89857661D01*
X165633200Y-90944339D01*
X165628735Y-90989674D01*
X165617301Y-91027367D01*
X165598734Y-91062103D01*
X165573748Y-91092548D01*
X165543303Y-91117534D01*
X165508567Y-91136101D01*
X165470874Y-91147535D01*
X165425539Y-91152000D01*
X164588861Y-91152000D01*
X164543526Y-91147535D01*
X164505833Y-91136101D01*
X164471097Y-91117534D01*
X164440652Y-91092548D01*
X164415666Y-91062103D01*
X164397099Y-91027367D01*
X164385665Y-90989674D01*
X164381200Y-90944339D01*
X164381200Y-89857661D01*
X164385665Y-89812326D01*
X164397099Y-89774633D01*
X164415666Y-89739897D01*
X164440652Y-89709452D01*
X164471097Y-89684466D01*
X164505833Y-89665899D01*
X164543526Y-89654465D01*
X164588861Y-89650000D01*
X165425539Y-89650000D01*
X165470874Y-89654465D01*
G37*
G36*
X163420874Y-89654465D02*
G01*
X163458567Y-89665899D01*
X163493303Y-89684466D01*
X163523748Y-89709452D01*
X163548734Y-89739897D01*
X163567301Y-89774633D01*
X163578735Y-89812326D01*
X163583200Y-89857661D01*
X163583200Y-90944339D01*
X163578735Y-90989674D01*
X163567301Y-91027367D01*
X163548734Y-91062103D01*
X163523748Y-91092548D01*
X163493303Y-91117534D01*
X163458567Y-91136101D01*
X163420874Y-91147535D01*
X163375539Y-91152000D01*
X162538861Y-91152000D01*
X162493526Y-91147535D01*
X162455833Y-91136101D01*
X162421097Y-91117534D01*
X162390652Y-91092548D01*
X162365666Y-91062103D01*
X162347099Y-91027367D01*
X162335665Y-90989674D01*
X162331200Y-90944339D01*
X162331200Y-89857661D01*
X162335665Y-89812326D01*
X162347099Y-89774633D01*
X162365666Y-89739897D01*
X162390652Y-89709452D01*
X162421097Y-89684466D01*
X162455833Y-89665899D01*
X162493526Y-89654465D01*
X162538861Y-89650000D01*
X163375539Y-89650000D01*
X163420874Y-89654465D01*
G37*
G36*
X171159619Y-89897365D02*
G01*
X171197115Y-89908740D01*
X171231674Y-89927212D01*
X171261967Y-89952073D01*
X171286828Y-89982366D01*
X171305300Y-90016925D01*
X171316675Y-90054421D01*
X171321120Y-90099558D01*
X171321120Y-90738282D01*
X171316675Y-90783419D01*
X171305300Y-90820915D01*
X171286828Y-90855474D01*
X171261967Y-90885767D01*
X171231674Y-90910628D01*
X171197115Y-90929100D01*
X171159619Y-90940475D01*
X171114482Y-90944920D01*
X170375758Y-90944920D01*
X170330621Y-90940475D01*
X170293125Y-90929100D01*
X170258566Y-90910628D01*
X170228273Y-90885767D01*
X170203412Y-90855474D01*
X170184940Y-90820915D01*
X170173565Y-90783419D01*
X170169120Y-90738282D01*
X170169120Y-90099558D01*
X170173565Y-90054421D01*
X170184940Y-90016925D01*
X170203412Y-89982366D01*
X170228273Y-89952073D01*
X170258566Y-89927212D01*
X170293125Y-89908740D01*
X170330621Y-89897365D01*
X170375758Y-89892920D01*
X171114482Y-89892920D01*
X171159619Y-89897365D01*
G37*
G36*
X169409619Y-89897365D02*
G01*
X169447115Y-89908740D01*
X169481674Y-89927212D01*
X169511967Y-89952073D01*
X169536828Y-89982366D01*
X169555300Y-90016925D01*
X169566675Y-90054421D01*
X169571120Y-90099558D01*
X169571120Y-90738282D01*
X169566675Y-90783419D01*
X169555300Y-90820915D01*
X169536828Y-90855474D01*
X169511967Y-90885767D01*
X169481674Y-90910628D01*
X169447115Y-90929100D01*
X169409619Y-90940475D01*
X169364482Y-90944920D01*
X168625758Y-90944920D01*
X168580621Y-90940475D01*
X168543125Y-90929100D01*
X168508566Y-90910628D01*
X168478273Y-90885767D01*
X168453412Y-90855474D01*
X168434940Y-90820915D01*
X168423565Y-90783419D01*
X168419120Y-90738282D01*
X168419120Y-90099558D01*
X168423565Y-90054421D01*
X168434940Y-90016925D01*
X168453412Y-89982366D01*
X168478273Y-89952073D01*
X168508566Y-89927212D01*
X168543125Y-89908740D01*
X168580621Y-89897365D01*
X168625758Y-89892920D01*
X169364482Y-89892920D01*
X169409619Y-89897365D01*
G37*
G36*
X139790074Y-88757665D02*
G01*
X139827767Y-88769099D01*
X139862503Y-88787666D01*
X139892948Y-88812652D01*
X139917934Y-88843097D01*
X139936501Y-88877833D01*
X139947935Y-88915526D01*
X139952400Y-88960861D01*
X139952400Y-89797539D01*
X139947935Y-89842874D01*
X139936501Y-89880567D01*
X139917934Y-89915303D01*
X139892948Y-89945748D01*
X139862503Y-89970734D01*
X139827767Y-89989301D01*
X139790074Y-90000735D01*
X139744739Y-90005200D01*
X138658061Y-90005200D01*
X138612726Y-90000735D01*
X138575033Y-89989301D01*
X138540297Y-89970734D01*
X138509852Y-89945748D01*
X138484866Y-89915303D01*
X138466299Y-89880567D01*
X138454865Y-89842874D01*
X138450400Y-89797539D01*
X138450400Y-88960861D01*
X138454865Y-88915526D01*
X138466299Y-88877833D01*
X138484866Y-88843097D01*
X138509852Y-88812652D01*
X138540297Y-88787666D01*
X138575033Y-88769099D01*
X138612726Y-88757665D01*
X138658061Y-88753200D01*
X139744739Y-88753200D01*
X139790074Y-88757665D01*
G37*
G36*
X142165594Y-88730185D02*
G01*
X142203287Y-88741619D01*
X142238023Y-88760186D01*
X142268468Y-88785172D01*
X142293454Y-88815617D01*
X142312021Y-88850353D01*
X142323455Y-88888046D01*
X142327920Y-88933381D01*
X142327920Y-89770059D01*
X142323455Y-89815394D01*
X142312021Y-89853087D01*
X142293454Y-89887823D01*
X142268468Y-89918268D01*
X142238023Y-89943254D01*
X142203287Y-89961821D01*
X142165594Y-89973255D01*
X142120259Y-89977720D01*
X141033581Y-89977720D01*
X140988246Y-89973255D01*
X140950553Y-89961821D01*
X140915817Y-89943254D01*
X140885372Y-89918268D01*
X140860386Y-89887823D01*
X140841819Y-89853087D01*
X140830385Y-89815394D01*
X140825920Y-89770059D01*
X140825920Y-88933381D01*
X140830385Y-88888046D01*
X140841819Y-88850353D01*
X140860386Y-88815617D01*
X140885372Y-88785172D01*
X140915817Y-88760186D01*
X140950553Y-88741619D01*
X140988246Y-88730185D01*
X141033581Y-88725720D01*
X142120259Y-88725720D01*
X142165594Y-88730185D01*
G37*
G36*
X156885874Y-87699465D02*
G01*
X156923567Y-87710899D01*
X156958303Y-87729466D01*
X156988748Y-87754452D01*
X157013734Y-87784897D01*
X157032301Y-87819633D01*
X157043735Y-87857326D01*
X157048200Y-87902661D01*
X157048200Y-88739339D01*
X157043735Y-88784674D01*
X157032301Y-88822367D01*
X157013734Y-88857103D01*
X156988748Y-88887548D01*
X156958303Y-88912534D01*
X156923567Y-88931101D01*
X156885874Y-88942535D01*
X156840539Y-88947000D01*
X155753861Y-88947000D01*
X155708526Y-88942535D01*
X155670833Y-88931101D01*
X155636097Y-88912534D01*
X155605652Y-88887548D01*
X155580666Y-88857103D01*
X155562099Y-88822367D01*
X155550665Y-88784674D01*
X155546200Y-88739339D01*
X155546200Y-87902661D01*
X155550665Y-87857326D01*
X155562099Y-87819633D01*
X155580666Y-87784897D01*
X155605652Y-87754452D01*
X155636097Y-87729466D01*
X155670833Y-87710899D01*
X155708526Y-87699465D01*
X155753861Y-87695000D01*
X156840539Y-87695000D01*
X156885874Y-87699465D01*
G37*
G36*
X160753200Y-88872000D02*
G01*
X158101200Y-88872000D01*
X158101200Y-87710000D01*
X160753200Y-87710000D01*
X160753200Y-88872000D01*
G37*
G36*
X163545874Y-87559465D02*
G01*
X163583567Y-87570899D01*
X163618303Y-87589466D01*
X163648748Y-87614452D01*
X163673734Y-87644897D01*
X163692301Y-87679633D01*
X163703735Y-87717326D01*
X163708200Y-87762661D01*
X163708200Y-88599339D01*
X163703735Y-88644674D01*
X163692301Y-88682367D01*
X163673734Y-88717103D01*
X163648748Y-88747548D01*
X163618303Y-88772534D01*
X163583567Y-88791101D01*
X163545874Y-88802535D01*
X163500539Y-88807000D01*
X162413861Y-88807000D01*
X162368526Y-88802535D01*
X162330833Y-88791101D01*
X162296097Y-88772534D01*
X162265652Y-88747548D01*
X162240666Y-88717103D01*
X162222099Y-88682367D01*
X162210665Y-88644674D01*
X162206200Y-88599339D01*
X162206200Y-87762661D01*
X162210665Y-87717326D01*
X162222099Y-87679633D01*
X162240666Y-87644897D01*
X162265652Y-87614452D01*
X162296097Y-87589466D01*
X162330833Y-87570899D01*
X162368526Y-87559465D01*
X162413861Y-87555000D01*
X163500539Y-87555000D01*
X163545874Y-87559465D01*
G37*
G36*
X166145874Y-87554465D02*
G01*
X166183567Y-87565899D01*
X166218303Y-87584466D01*
X166248748Y-87609452D01*
X166273734Y-87639897D01*
X166292301Y-87674633D01*
X166303735Y-87712326D01*
X166308200Y-87757661D01*
X166308200Y-88594339D01*
X166303735Y-88639674D01*
X166292301Y-88677367D01*
X166273734Y-88712103D01*
X166248748Y-88742548D01*
X166218303Y-88767534D01*
X166183567Y-88786101D01*
X166145874Y-88797535D01*
X166100539Y-88802000D01*
X165013861Y-88802000D01*
X164968526Y-88797535D01*
X164930833Y-88786101D01*
X164896097Y-88767534D01*
X164865652Y-88742548D01*
X164840666Y-88712103D01*
X164822099Y-88677367D01*
X164810665Y-88639674D01*
X164806200Y-88594339D01*
X164806200Y-87757661D01*
X164810665Y-87712326D01*
X164822099Y-87674633D01*
X164840666Y-87639897D01*
X164865652Y-87609452D01*
X164896097Y-87584466D01*
X164930833Y-87565899D01*
X164968526Y-87554465D01*
X165013861Y-87550000D01*
X166100539Y-87550000D01*
X166145874Y-87554465D01*
G37*
G36*
X156885874Y-85649465D02*
G01*
X156923567Y-85660899D01*
X156958303Y-85679466D01*
X156988748Y-85704452D01*
X157013734Y-85734897D01*
X157032301Y-85769633D01*
X157043735Y-85807326D01*
X157048200Y-85852661D01*
X157048200Y-86689339D01*
X157043735Y-86734674D01*
X157032301Y-86772367D01*
X157013734Y-86807103D01*
X156988748Y-86837548D01*
X156958303Y-86862534D01*
X156923567Y-86881101D01*
X156885874Y-86892535D01*
X156840539Y-86897000D01*
X155753861Y-86897000D01*
X155708526Y-86892535D01*
X155670833Y-86881101D01*
X155636097Y-86862534D01*
X155605652Y-86837548D01*
X155580666Y-86807103D01*
X155562099Y-86772367D01*
X155550665Y-86734674D01*
X155546200Y-86689339D01*
X155546200Y-85852661D01*
X155550665Y-85807326D01*
X155562099Y-85769633D01*
X155580666Y-85734897D01*
X155605652Y-85704452D01*
X155636097Y-85679466D01*
X155670833Y-85660899D01*
X155708526Y-85649465D01*
X155753861Y-85645000D01*
X156840539Y-85645000D01*
X156885874Y-85649465D01*
G37*
G36*
X163545874Y-85509465D02*
G01*
X163583567Y-85520899D01*
X163618303Y-85539466D01*
X163648748Y-85564452D01*
X163673734Y-85594897D01*
X163692301Y-85629633D01*
X163703735Y-85667326D01*
X163708200Y-85712661D01*
X163708200Y-86549339D01*
X163703735Y-86594674D01*
X163692301Y-86632367D01*
X163673734Y-86667103D01*
X163648748Y-86697548D01*
X163618303Y-86722534D01*
X163583567Y-86741101D01*
X163545874Y-86752535D01*
X163500539Y-86757000D01*
X162413861Y-86757000D01*
X162368526Y-86752535D01*
X162330833Y-86741101D01*
X162296097Y-86722534D01*
X162265652Y-86697548D01*
X162240666Y-86667103D01*
X162222099Y-86632367D01*
X162210665Y-86594674D01*
X162206200Y-86549339D01*
X162206200Y-85712661D01*
X162210665Y-85667326D01*
X162222099Y-85629633D01*
X162240666Y-85594897D01*
X162265652Y-85564452D01*
X162296097Y-85539466D01*
X162330833Y-85520899D01*
X162368526Y-85509465D01*
X162413861Y-85505000D01*
X163500539Y-85505000D01*
X163545874Y-85509465D01*
G37*
G36*
X166145874Y-85504465D02*
G01*
X166183567Y-85515899D01*
X166218303Y-85534466D01*
X166248748Y-85559452D01*
X166273734Y-85589897D01*
X166292301Y-85624633D01*
X166303735Y-85662326D01*
X166308200Y-85707661D01*
X166308200Y-86544339D01*
X166303735Y-86589674D01*
X166292301Y-86627367D01*
X166273734Y-86662103D01*
X166248748Y-86692548D01*
X166218303Y-86717534D01*
X166183567Y-86736101D01*
X166145874Y-86747535D01*
X166100539Y-86752000D01*
X165013861Y-86752000D01*
X164968526Y-86747535D01*
X164930833Y-86736101D01*
X164896097Y-86717534D01*
X164865652Y-86692548D01*
X164840666Y-86662103D01*
X164822099Y-86627367D01*
X164810665Y-86589674D01*
X164806200Y-86544339D01*
X164806200Y-85707661D01*
X164810665Y-85662326D01*
X164822099Y-85624633D01*
X164840666Y-85589897D01*
X164865652Y-85559452D01*
X164896097Y-85534466D01*
X164930833Y-85515899D01*
X164968526Y-85504465D01*
X165013861Y-85500000D01*
X166100539Y-85500000D01*
X166145874Y-85504465D01*
G37*
G36*
X158853200Y-86672000D02*
G01*
X158101200Y-86672000D01*
X158101200Y-85510000D01*
X158853200Y-85510000D01*
X158853200Y-86672000D01*
G37*
G36*
X160753200Y-86672000D02*
G01*
X160001200Y-86672000D01*
X160001200Y-85510000D01*
X160753200Y-85510000D01*
X160753200Y-86672000D01*
G37*
G36*
X151549860Y-86625600D02*
G01*
X143897860Y-86625600D01*
X143897860Y-85423600D01*
X151549860Y-85423600D01*
X151549860Y-86625600D01*
G37*
G36*
X160925874Y-83654465D02*
G01*
X160963567Y-83665899D01*
X160998303Y-83684466D01*
X161028748Y-83709452D01*
X161053734Y-83739897D01*
X161072301Y-83774633D01*
X161083735Y-83812326D01*
X161088200Y-83857661D01*
X161088200Y-84944339D01*
X161083735Y-84989674D01*
X161072301Y-85027367D01*
X161053734Y-85062103D01*
X161028748Y-85092548D01*
X160998303Y-85117534D01*
X160963567Y-85136101D01*
X160925874Y-85147535D01*
X160880539Y-85152000D01*
X160043861Y-85152000D01*
X159998526Y-85147535D01*
X159960833Y-85136101D01*
X159926097Y-85117534D01*
X159895652Y-85092548D01*
X159870666Y-85062103D01*
X159852099Y-85027367D01*
X159840665Y-84989674D01*
X159836200Y-84944339D01*
X159836200Y-83857661D01*
X159840665Y-83812326D01*
X159852099Y-83774633D01*
X159870666Y-83739897D01*
X159895652Y-83709452D01*
X159926097Y-83684466D01*
X159960833Y-83665899D01*
X159998526Y-83654465D01*
X160043861Y-83650000D01*
X160880539Y-83650000D01*
X160925874Y-83654465D01*
G37*
G36*
X158875874Y-83654465D02*
G01*
X158913567Y-83665899D01*
X158948303Y-83684466D01*
X158978748Y-83709452D01*
X159003734Y-83739897D01*
X159022301Y-83774633D01*
X159033735Y-83812326D01*
X159038200Y-83857661D01*
X159038200Y-84944339D01*
X159033735Y-84989674D01*
X159022301Y-85027367D01*
X159003734Y-85062103D01*
X158978748Y-85092548D01*
X158948303Y-85117534D01*
X158913567Y-85136101D01*
X158875874Y-85147535D01*
X158830539Y-85152000D01*
X157993861Y-85152000D01*
X157948526Y-85147535D01*
X157910833Y-85136101D01*
X157876097Y-85117534D01*
X157845652Y-85092548D01*
X157820666Y-85062103D01*
X157802099Y-85027367D01*
X157790665Y-84989674D01*
X157786200Y-84944339D01*
X157786200Y-83857661D01*
X157790665Y-83812326D01*
X157802099Y-83774633D01*
X157820666Y-83739897D01*
X157845652Y-83709452D01*
X157876097Y-83684466D01*
X157910833Y-83665899D01*
X157948526Y-83654465D01*
X157993861Y-83650000D01*
X158830539Y-83650000D01*
X158875874Y-83654465D01*
G37*
G36*
X163078200Y-82077000D02*
G01*
X145196200Y-82077000D01*
X145196200Y-80505000D01*
X163078200Y-80505000D01*
X163078200Y-82077000D01*
G37*
G36*
X165593200Y-79562000D02*
G01*
X164021200Y-79562000D01*
X164021200Y-61680000D01*
X165593200Y-61680000D01*
X165593200Y-79562000D01*
G37*
G36*
X144253200Y-79562000D02*
G01*
X142681200Y-79562000D01*
X142681200Y-61680000D01*
X144253200Y-61680000D01*
X144253200Y-79562000D01*
G37*
G36*
X158653200Y-75022000D02*
G01*
X149621200Y-75022000D01*
X149621200Y-66220000D01*
X158653200Y-66220000D01*
X158653200Y-75022000D01*
G37*
G36*
X131733772Y-70757327D02*
G01*
X131883072Y-70787024D01*
X132047044Y-70854944D01*
X132194614Y-70953547D01*
X132320113Y-71079046D01*
X132418716Y-71226616D01*
X132486636Y-71390588D01*
X132521260Y-71564659D01*
X132521260Y-71742141D01*
X132486636Y-71916212D01*
X132418716Y-72080184D01*
X132320113Y-72227754D01*
X132194614Y-72353253D01*
X132047044Y-72451856D01*
X131883072Y-72519776D01*
X131733772Y-72549473D01*
X131709002Y-72554400D01*
X131531518Y-72554400D01*
X131506748Y-72549473D01*
X131357448Y-72519776D01*
X131193476Y-72451856D01*
X131045906Y-72353253D01*
X130920407Y-72227754D01*
X130821804Y-72080184D01*
X130753884Y-71916212D01*
X130719260Y-71742141D01*
X130719260Y-71564659D01*
X130753884Y-71390588D01*
X130821804Y-71226616D01*
X130920407Y-71079046D01*
X131045906Y-70953547D01*
X131193476Y-70854944D01*
X131357448Y-70787024D01*
X131506748Y-70757327D01*
X131531518Y-70752400D01*
X131709002Y-70752400D01*
X131733772Y-70757327D01*
G37*
G36*
X132521260Y-70014400D02*
G01*
X130719260Y-70014400D01*
X130719260Y-68212400D01*
X132521260Y-68212400D01*
X132521260Y-70014400D01*
G37*
G36*
X136359112Y-59355267D02*
G01*
X136508412Y-59384964D01*
X136672384Y-59452884D01*
X136819954Y-59551487D01*
X136945453Y-59676986D01*
X137044056Y-59824556D01*
X137111976Y-59988528D01*
X137146600Y-60162599D01*
X137146600Y-60340081D01*
X137111976Y-60514152D01*
X137044056Y-60678124D01*
X136945453Y-60825694D01*
X136819954Y-60951193D01*
X136672384Y-61049796D01*
X136508412Y-61117716D01*
X136359112Y-61147413D01*
X136334342Y-61152340D01*
X136156858Y-61152340D01*
X136132088Y-61147413D01*
X135982788Y-61117716D01*
X135818816Y-61049796D01*
X135671246Y-60951193D01*
X135545747Y-60825694D01*
X135447144Y-60678124D01*
X135379224Y-60514152D01*
X135344600Y-60340081D01*
X135344600Y-60162599D01*
X135379224Y-59988528D01*
X135447144Y-59824556D01*
X135545747Y-59676986D01*
X135671246Y-59551487D01*
X135818816Y-59452884D01*
X135982788Y-59384964D01*
X136132088Y-59355267D01*
X136156858Y-59350340D01*
X136334342Y-59350340D01*
X136359112Y-59355267D01*
G37*
G36*
X141439112Y-59355267D02*
G01*
X141588412Y-59384964D01*
X141752384Y-59452884D01*
X141899954Y-59551487D01*
X142025453Y-59676986D01*
X142124056Y-59824556D01*
X142191976Y-59988528D01*
X142226600Y-60162599D01*
X142226600Y-60340081D01*
X142191976Y-60514152D01*
X142124056Y-60678124D01*
X142025453Y-60825694D01*
X141899954Y-60951193D01*
X141752384Y-61049796D01*
X141588412Y-61117716D01*
X141439112Y-61147413D01*
X141414342Y-61152340D01*
X141236858Y-61152340D01*
X141212088Y-61147413D01*
X141062788Y-61117716D01*
X140898816Y-61049796D01*
X140751246Y-60951193D01*
X140625747Y-60825694D01*
X140527144Y-60678124D01*
X140459224Y-60514152D01*
X140424600Y-60340081D01*
X140424600Y-60162599D01*
X140459224Y-59988528D01*
X140527144Y-59824556D01*
X140625747Y-59676986D01*
X140751246Y-59551487D01*
X140898816Y-59452884D01*
X141062788Y-59384964D01*
X141212088Y-59355267D01*
X141236858Y-59350340D01*
X141414342Y-59350340D01*
X141439112Y-59355267D01*
G37*
G36*
X138899112Y-59355267D02*
G01*
X139048412Y-59384964D01*
X139212384Y-59452884D01*
X139359954Y-59551487D01*
X139485453Y-59676986D01*
X139584056Y-59824556D01*
X139651976Y-59988528D01*
X139686600Y-60162599D01*
X139686600Y-60340081D01*
X139651976Y-60514152D01*
X139584056Y-60678124D01*
X139485453Y-60825694D01*
X139359954Y-60951193D01*
X139212384Y-61049796D01*
X139048412Y-61117716D01*
X138899112Y-61147413D01*
X138874342Y-61152340D01*
X138696858Y-61152340D01*
X138672088Y-61147413D01*
X138522788Y-61117716D01*
X138358816Y-61049796D01*
X138211246Y-60951193D01*
X138085747Y-60825694D01*
X137987144Y-60678124D01*
X137919224Y-60514152D01*
X137884600Y-60340081D01*
X137884600Y-60162599D01*
X137919224Y-59988528D01*
X137987144Y-59824556D01*
X138085747Y-59676986D01*
X138211246Y-59551487D01*
X138358816Y-59452884D01*
X138522788Y-59384964D01*
X138672088Y-59355267D01*
X138696858Y-59350340D01*
X138874342Y-59350340D01*
X138899112Y-59355267D01*
G37*
G36*
X133819112Y-59355267D02*
G01*
X133968412Y-59384964D01*
X134132384Y-59452884D01*
X134279954Y-59551487D01*
X134405453Y-59676986D01*
X134504056Y-59824556D01*
X134571976Y-59988528D01*
X134606600Y-60162599D01*
X134606600Y-60340081D01*
X134571976Y-60514152D01*
X134504056Y-60678124D01*
X134405453Y-60825694D01*
X134279954Y-60951193D01*
X134132384Y-61049796D01*
X133968412Y-61117716D01*
X133819112Y-61147413D01*
X133794342Y-61152340D01*
X133616858Y-61152340D01*
X133592088Y-61147413D01*
X133442788Y-61117716D01*
X133278816Y-61049796D01*
X133131246Y-60951193D01*
X133005747Y-60825694D01*
X132907144Y-60678124D01*
X132839224Y-60514152D01*
X132804600Y-60340081D01*
X132804600Y-60162599D01*
X132839224Y-59988528D01*
X132907144Y-59824556D01*
X133005747Y-59676986D01*
X133131246Y-59551487D01*
X133278816Y-59452884D01*
X133442788Y-59384964D01*
X133592088Y-59355267D01*
X133616858Y-59350340D01*
X133794342Y-59350340D01*
X133819112Y-59355267D01*
G37*
G36*
X131279112Y-59355267D02*
G01*
X131428412Y-59384964D01*
X131592384Y-59452884D01*
X131739954Y-59551487D01*
X131865453Y-59676986D01*
X131964056Y-59824556D01*
X132031976Y-59988528D01*
X132066600Y-60162599D01*
X132066600Y-60340081D01*
X132031976Y-60514152D01*
X131964056Y-60678124D01*
X131865453Y-60825694D01*
X131739954Y-60951193D01*
X131592384Y-61049796D01*
X131428412Y-61117716D01*
X131279112Y-61147413D01*
X131254342Y-61152340D01*
X131076858Y-61152340D01*
X131052088Y-61147413D01*
X130902788Y-61117716D01*
X130738816Y-61049796D01*
X130591246Y-60951193D01*
X130465747Y-60825694D01*
X130367144Y-60678124D01*
X130299224Y-60514152D01*
X130264600Y-60340081D01*
X130264600Y-60162599D01*
X130299224Y-59988528D01*
X130367144Y-59824556D01*
X130465747Y-59676986D01*
X130591246Y-59551487D01*
X130738816Y-59452884D01*
X130902788Y-59384964D01*
X131052088Y-59355267D01*
X131076858Y-59350340D01*
X131254342Y-59350340D01*
X131279112Y-59355267D01*
G37*
G36*
X163078200Y-60737000D02*
G01*
X145196200Y-60737000D01*
X145196200Y-59165000D01*
X163078200Y-59165000D01*
X163078200Y-60737000D01*
G37*
G36*
X142226600Y-58612340D02*
G01*
X140424600Y-58612340D01*
X140424600Y-56810340D01*
X142226600Y-56810340D01*
X142226600Y-58612340D01*
G37*
G36*
X138899112Y-56815267D02*
G01*
X139048412Y-56844964D01*
X139212384Y-56912884D01*
X139359954Y-57011487D01*
X139485453Y-57136986D01*
X139584056Y-57284556D01*
X139651976Y-57448528D01*
X139686600Y-57622599D01*
X139686600Y-57800081D01*
X139651976Y-57974152D01*
X139584056Y-58138124D01*
X139485453Y-58285694D01*
X139359954Y-58411193D01*
X139212384Y-58509796D01*
X139048412Y-58577716D01*
X138899112Y-58607413D01*
X138874342Y-58612340D01*
X138696858Y-58612340D01*
X138672088Y-58607413D01*
X138522788Y-58577716D01*
X138358816Y-58509796D01*
X138211246Y-58411193D01*
X138085747Y-58285694D01*
X137987144Y-58138124D01*
X137919224Y-57974152D01*
X137884600Y-57800081D01*
X137884600Y-57622599D01*
X137919224Y-57448528D01*
X137987144Y-57284556D01*
X138085747Y-57136986D01*
X138211246Y-57011487D01*
X138358816Y-56912884D01*
X138522788Y-56844964D01*
X138672088Y-56815267D01*
X138696858Y-56810340D01*
X138874342Y-56810340D01*
X138899112Y-56815267D01*
G37*
G36*
X133819112Y-56815267D02*
G01*
X133968412Y-56844964D01*
X134132384Y-56912884D01*
X134279954Y-57011487D01*
X134405453Y-57136986D01*
X134504056Y-57284556D01*
X134571976Y-57448528D01*
X134606600Y-57622599D01*
X134606600Y-57800081D01*
X134571976Y-57974152D01*
X134504056Y-58138124D01*
X134405453Y-58285694D01*
X134279954Y-58411193D01*
X134132384Y-58509796D01*
X133968412Y-58577716D01*
X133819112Y-58607413D01*
X133794342Y-58612340D01*
X133616858Y-58612340D01*
X133592088Y-58607413D01*
X133442788Y-58577716D01*
X133278816Y-58509796D01*
X133131246Y-58411193D01*
X133005747Y-58285694D01*
X132907144Y-58138124D01*
X132839224Y-57974152D01*
X132804600Y-57800081D01*
X132804600Y-57622599D01*
X132839224Y-57448528D01*
X132907144Y-57284556D01*
X133005747Y-57136986D01*
X133131246Y-57011487D01*
X133278816Y-56912884D01*
X133442788Y-56844964D01*
X133592088Y-56815267D01*
X133616858Y-56810340D01*
X133794342Y-56810340D01*
X133819112Y-56815267D01*
G37*
G36*
X131279112Y-56815267D02*
G01*
X131428412Y-56844964D01*
X131592384Y-56912884D01*
X131739954Y-57011487D01*
X131865453Y-57136986D01*
X131964056Y-57284556D01*
X132031976Y-57448528D01*
X132066600Y-57622599D01*
X132066600Y-57800081D01*
X132031976Y-57974152D01*
X131964056Y-58138124D01*
X131865453Y-58285694D01*
X131739954Y-58411193D01*
X131592384Y-58509796D01*
X131428412Y-58577716D01*
X131279112Y-58607413D01*
X131254342Y-58612340D01*
X131076858Y-58612340D01*
X131052088Y-58607413D01*
X130902788Y-58577716D01*
X130738816Y-58509796D01*
X130591246Y-58411193D01*
X130465747Y-58285694D01*
X130367144Y-58138124D01*
X130299224Y-57974152D01*
X130264600Y-57800081D01*
X130264600Y-57622599D01*
X130299224Y-57448528D01*
X130367144Y-57284556D01*
X130465747Y-57136986D01*
X130591246Y-57011487D01*
X130738816Y-56912884D01*
X130902788Y-56844964D01*
X131052088Y-56815267D01*
X131076858Y-56810340D01*
X131254342Y-56810340D01*
X131279112Y-56815267D01*
G37*
G36*
X136359112Y-56815267D02*
G01*
X136508412Y-56844964D01*
X136672384Y-56912884D01*
X136819954Y-57011487D01*
X136945453Y-57136986D01*
X137044056Y-57284556D01*
X137111976Y-57448528D01*
X137146600Y-57622599D01*
X137146600Y-57800081D01*
X137111976Y-57974152D01*
X137044056Y-58138124D01*
X136945453Y-58285694D01*
X136819954Y-58411193D01*
X136672384Y-58509796D01*
X136508412Y-58577716D01*
X136359112Y-58607413D01*
X136334342Y-58612340D01*
X136156858Y-58612340D01*
X136132088Y-58607413D01*
X135982788Y-58577716D01*
X135818816Y-58509796D01*
X135671246Y-58411193D01*
X135545747Y-58285694D01*
X135447144Y-58138124D01*
X135379224Y-57974152D01*
X135344600Y-57800081D01*
X135344600Y-57622599D01*
X135379224Y-57448528D01*
X135447144Y-57284556D01*
X135545747Y-57136986D01*
X135671246Y-57011487D01*
X135818816Y-56912884D01*
X135982788Y-56844964D01*
X136132088Y-56815267D01*
X136156858Y-56810340D01*
X136334342Y-56810340D01*
X136359112Y-56815267D01*
G37*
M02*
