M48
; DRILL file {KiCad (5.1.5)-3} date 19/05/2020 14:23:32
; FORMAT={-:-/ absolute / inch / decimal}
; #@! TF.CreationDate,2020-05-19T14:23:32+01:00
; #@! TF.GenerationSoftware,Kicad,Pcbnew,(5.1.5)-3
FMAT,2
INCH
T1C0.0157
T2C0.0315
T3C0.0394
%
G90
G05
T1
X5.1888Y-4.1444
X5.1946Y-3.0464
X5.1988Y-3.4679
X5.199Y-4.5831
X5.2226Y-2.5095
X5.2251Y-4.805
X5.2601Y-4.6547
X5.3293Y-4.4151
X5.3629Y-2.6497
X5.376Y-4.7521
X5.4196Y-2.8077
X5.437Y-3.7658
X5.4801Y-3.476
X5.4825Y-4.2898
X5.4835Y-4.8555
X5.4892Y-3.8818
X5.4993Y-2.7879
X5.5156Y-2.8882
X5.5179Y-4.2101
X5.5908Y-2.867
X5.593Y-2.7705
X5.5932Y-2.7267
X5.5947Y-2.4866
X5.6483Y-3.6115
X5.6487Y-3.387
X5.7011Y-2.5244
X5.702Y-2.7906
X5.7032Y-3.0257
X5.7032Y-3.1233
X5.7034Y-2.5929
X5.7036Y-3.0827
X5.705Y-2.4481
X5.7118Y-4.1086
X5.717Y-4.5595
X5.7219Y-3.1452
X5.7271Y-4.2182
X5.7286Y-3.9284
X5.7337Y-2.4048
X5.7386Y-2.2927
X5.744Y-3.5697
X5.7572Y-3.4299
X5.7605Y-3.6933
X5.7768Y-3.0467
X5.7818Y-2.5013
X5.7828Y-3.1452
X5.7893Y-3.567
X5.8029Y-2.8302
X5.8044Y-4.2944
X5.8145Y-3.7512
X5.8152Y-3.8197
X5.8187Y-2.594
X5.8188Y-3.9741
X5.82Y-4.5867
X5.8208Y-4.1091
X5.8224Y-2.4131
X5.8418Y-2.3123
X5.8441Y-3.4384
X5.8444Y-2.9868
X5.8514Y-2.7579
X5.853Y-4.3823
X5.854Y-4.4822
X5.8867Y-3.0793
X5.8943Y-2.998
X5.8963Y-3.5255
X5.8968Y-2.427
X5.9031Y-4.0872
X5.9129Y-3.6898
X5.9303Y-4.1101
X5.9312Y-4.0654
X5.9328Y-4.1878
X5.9394Y-4.23
X5.9407Y-2.2979
X5.9439Y-4.1455
X5.9589Y-3.9482
X5.96Y-3.1458
X5.9661Y-4.2953
X5.9714Y-2.537
X5.9732Y-2.4145
X5.9755Y-2.9974
X5.9835Y-3.3987
X5.9864Y-3.6113
X5.9987Y-3.1464
X6.0076Y-2.8546
X6.0094Y-3.8078
X6.0141Y-3.7544
X6.025Y-2.969
X6.0401Y-2.421
X6.0416Y-2.8546
X6.0452Y-4.2205
X6.057Y-4.4579
X6.0572Y-4.4083
X6.0601Y-4.5634
X6.0646Y-3.4385
X6.0698Y-3.0861
X6.0706Y-2.5039
X6.087Y-4.0642
X6.0881Y-4.1494
X6.089Y-4.6318
X6.0912Y-4.3024
X6.0982Y-2.2978
X6.1038Y-3.9366
X6.1098Y-2.4332
X6.1173Y-3.1545
X6.1424Y-4.6095
X6.1431Y-4.2424
X6.1452Y-3.0134
X6.1542Y-3.3457
X6.1695Y-3.6002
X6.1802Y-4.3299
X6.1866Y-4.5359
X6.1921Y-4.1849
X6.1924Y-4.4087
X6.1943Y-4.0837
X6.1943Y-4.1193
X6.1944Y-4.0426
X6.1972Y-4.4988
X6.2063Y-4.0087
X6.2065Y-3.9376
X6.2068Y-3.9732
X6.2105Y-4.2378
X6.2138Y-4.1527
X6.2149Y-3.7607
X6.2227Y-4.3237
X6.2303Y-2.5622
X6.2341Y-3.2741
X6.2377Y-3.1358
X6.2391Y-4.5765
X6.2448Y-4.4252
X6.2479Y-2.4178
X6.2569Y-3.9227
X6.2624Y-4.1258
X6.2695Y-3.3892
X6.2704Y-4.3575
X6.2719Y-4.4713
X6.2755Y-2.3034
X6.2782Y-4.3071
X6.3022Y-2.7224
X6.3023Y-2.4178
X6.3058Y-4.6146
X6.3064Y-2.9545
X6.3064Y-3.0143
X6.3071Y-3.1469
X6.3141Y-3.5221
X6.316Y-3.8197
X6.3231Y-3.9422
X6.3244Y-4.3099
X6.3288Y-4.1971
X6.3324Y-4.7069
X6.3357Y-2.5018
X6.3535Y-4.8485
X6.3552Y-3.1364
X6.3675Y-4.6095
X6.3676Y-4.2431
X6.3744Y-3.254
X6.4032Y-3.0155
X6.4114Y-4.579
X6.4133Y-2.4146
X6.416Y-4.509
X6.4221Y-2.6763
X6.4221Y-3.1163
X6.424Y-4.5446
X6.4243Y-4.6138
X6.4267Y-2.7247
X6.4268Y-2.954
X6.427Y-2.9066
X6.4288Y-2.5374
X6.4424Y-2.4359
X6.4478Y-3.1599
X6.4704Y-3.9217
X6.4948Y-4.2252
X6.4958Y-3.6026
X6.5Y-4.3098
X6.511Y-4.4963
X6.5144Y-4.4046
X6.515Y-4.441
X6.5212Y-4.3436
X6.5298Y-3.4724
X6.5444Y-3.0864
X6.5542Y-2.9386
X6.5552Y-2.9742
X6.5614Y-2.8302
X6.5642Y-3.6897
X6.5648Y-2.5245
X6.5764Y-4.8154
X6.5846Y-3.0483
X6.5868Y-2.9936
X6.6126Y-3.0184
X6.6227Y-3.5914
X6.6253Y-2.7145
X6.6298Y-3.1092
X6.6328Y-3.061
X6.6543Y-4.1148
X6.661Y-2.3155
X6.6683Y-4.3035
X6.6762Y-4.181
X6.6868Y-4.2678
X6.6909Y-2.4319
X6.7076Y-4.6098
X6.7968Y-2.4773
X6.7984Y-2.5883
X6.8353Y-4.7443
X6.9261Y-2.5203
X6.9266Y-2.9738
X6.9328Y-4.6096
X6.9356Y-2.3155
X6.9358Y-4.8152
X6.9589Y-3.4501
X6.9625Y-4.0804
X6.9634Y-2.759
X6.9636Y-2.5883
X6.9642Y-2.9024
X6.9744Y-4.3555
X6.9752Y-4.3052
T2
X5.5645Y-3.8715
X5.5645Y-3.9715
X5.5645Y-4.0715
X5.5645Y-4.1715
X5.5645Y-4.2715
X5.5645Y-4.3715
X5.5645Y-4.4715
X5.5645Y-4.5715
X5.5645Y-4.6715
X5.6645Y-3.7715
X5.6645Y-3.8715
X5.6645Y-3.9715
X5.6645Y-4.0715
X5.6645Y-4.1715
X5.6645Y-4.2715
X5.6645Y-4.3715
X5.6645Y-4.4715
X5.6645Y-4.5715
X5.6645Y-4.6715
X5.6645Y-4.7715
X5.7645Y-3.7715
X5.7645Y-3.8715
X5.7645Y-4.6715
X5.7645Y-4.7715
X5.8645Y-3.7715
X5.8645Y-3.8715
X5.8645Y-4.6715
X5.8645Y-4.7715
X5.9645Y-3.7715
X5.9645Y-3.8715
X5.9645Y-4.6715
X5.9645Y-4.7715
X6.0645Y-3.7715
X6.0645Y-3.8715
X6.0645Y-4.6715
X6.0645Y-4.7715
X6.1645Y-3.7715
X6.1645Y-3.8715
X6.1645Y-4.6715
X6.1645Y-4.7715
X6.2645Y-3.7715
X6.2645Y-3.8715
X6.2645Y-4.6715
X6.2645Y-4.7715
X6.3645Y-3.7715
X6.3645Y-3.8715
X6.3645Y-4.6715
X6.3645Y-4.7715
X6.4645Y-3.7715
X6.4645Y-3.8715
X6.4645Y-3.9715
X6.4645Y-4.0715
X6.4645Y-4.1715
X6.4645Y-4.2715
X6.4645Y-4.3715
X6.4645Y-4.4715
X6.4645Y-4.5715
X6.4645Y-4.6715
X6.4645Y-4.7715
X6.5645Y-3.8715
X6.5645Y-3.9715
X6.5645Y-4.0715
X6.5645Y-4.1715
X6.5645Y-4.2715
X6.5645Y-4.3715
X6.5645Y-4.4715
X6.5645Y-4.5715
X6.5645Y-4.6715
T3
X5.164Y-2.2721
X5.164Y-2.3721
X5.264Y-2.2721
X5.264Y-2.3721
X5.364Y-2.2721
X5.364Y-2.3721
X5.464Y-2.2721
X5.464Y-2.3721
X5.564Y-2.2721
X5.564Y-2.3721
X5.1819Y-2.721
X5.1819Y-2.821
T0
M30
