%FSLAX45Y45*%
G04 Gerber Fmt 4.5, Leading zero omitted, Abs format (unit mm)*
G04 Created by KiCad (PCBNEW (6.0.0)) date 2022-01-09 18:23:21*
%MOMM*%
%LPD*%
G01*
G04 APERTURE LIST*
%TA.AperFunction,Profile*%
%ADD10C,0.050000*%
%TD*%
%ADD11C,0.200000*%
%ADD12C,0.040000*%
%ADD13C,0.080000*%
%ADD14C,0.100000*%
G04 APERTURE END LIST*
D10*
X17866170Y-5628370D02*
X17868392Y-12467082D01*
X12970002Y-12467082D02*
X12970320Y-5627100D01*
X17868392Y-12467082D02*
X12970002Y-12467082D01*
X12970320Y-5627100D02*
X17866170Y-5628370D01*
D11*
D12*
X13184444Y-11117646D02*
X13224444Y-11157646D01*
X13224444Y-11117646D02*
X13184444Y-11157646D01*
X13211622Y-11839260D02*
X13251622Y-11879260D01*
X13251622Y-11839260D02*
X13211622Y-11879260D01*
X13237022Y-8990650D02*
X13277022Y-9030650D01*
X13277022Y-8990650D02*
X13237022Y-9030650D01*
X13245404Y-6354130D02*
X13285404Y-6394130D01*
X13285404Y-6354130D02*
X13245404Y-6394130D01*
X13259374Y-11486454D02*
X13299374Y-11526454D01*
X13299374Y-11486454D02*
X13259374Y-11526454D01*
X13263946Y-10429814D02*
X13303946Y-10469814D01*
X13303946Y-10429814D02*
X13263946Y-10469814D01*
X13269534Y-9219758D02*
X13309534Y-9259758D01*
X13309534Y-9219758D02*
X13269534Y-9259758D01*
X13273598Y-9945436D02*
X13313598Y-9985436D01*
X13313598Y-9945436D02*
X13273598Y-9985436D01*
X13391200Y-8237540D02*
X13431200Y-8277540D01*
X13431200Y-8237540D02*
X13391200Y-8277540D01*
X13395264Y-12147870D02*
X13435264Y-12187870D01*
X13435264Y-12147870D02*
X13395264Y-12187870D01*
X13507024Y-11280714D02*
X13547024Y-11320714D01*
X13547024Y-11280714D02*
X13507024Y-11320714D01*
X13507024Y-10697784D02*
X13547024Y-10737784D01*
X13547024Y-10697784D02*
X13507024Y-10737784D01*
X13516426Y-7848200D02*
X13556426Y-7888200D01*
X13556426Y-7848200D02*
X13516426Y-7888200D01*
X13574080Y-10823260D02*
X13614080Y-10863260D01*
X13614080Y-10823260D02*
X13574080Y-10863260D01*
X13576112Y-7928039D02*
X13616112Y-7968039D01*
X13616112Y-7928039D02*
X13576112Y-7968039D01*
X13578377Y-8074748D02*
X13618377Y-8114748D01*
X13618377Y-8074748D02*
X13578377Y-8114748D01*
X13584748Y-7697028D02*
X13624748Y-7737028D01*
X13624748Y-7697028D02*
X13584748Y-7737028D01*
X13601766Y-6710238D02*
X13641766Y-6750238D01*
X13641766Y-6710238D02*
X13601766Y-6750238D01*
X13648756Y-11422700D02*
X13688756Y-11462700D01*
X13688756Y-11422700D02*
X13648756Y-11462700D01*
X13679744Y-7909880D02*
X13719744Y-7949880D01*
X13719744Y-7909880D02*
X13679744Y-7949880D01*
X13686856Y-9221028D02*
X13726856Y-9261028D01*
X13726856Y-9221028D02*
X13686856Y-9261028D01*
X13717720Y-8083100D02*
X13757720Y-8123100D01*
X13757720Y-8083100D02*
X13717720Y-8123100D01*
X13726226Y-8181152D02*
X13766226Y-8221152D01*
X13766226Y-8181152D02*
X13726226Y-8221152D01*
X13745773Y-7111599D02*
X13785773Y-7151599D01*
X13785773Y-7111599D02*
X13745773Y-7151599D01*
X13761786Y-8561390D02*
X13801786Y-8601390D01*
X13801786Y-8561390D02*
X13761786Y-8601390D01*
X13766612Y-8771702D02*
X13806612Y-8811702D01*
X13806612Y-8771702D02*
X13766612Y-8811702D01*
X13793720Y-7956100D02*
X13833720Y-7996100D01*
X13833720Y-7956100D02*
X13793720Y-7996100D01*
X13806998Y-9484934D02*
X13846998Y-9524934D01*
X13846998Y-9484934D02*
X13806998Y-9524934D01*
X13838240Y-10299766D02*
X13878240Y-10339766D01*
X13878240Y-10299766D02*
X13838240Y-10339766D01*
X13839510Y-10795066D02*
X13879510Y-10835066D01*
X13879510Y-10795066D02*
X13839510Y-10835066D01*
X13845352Y-7019610D02*
X13885352Y-7059610D01*
X13885352Y-7019610D02*
X13845352Y-7059610D01*
X13848654Y-7265990D02*
X13888654Y-7305990D01*
X13888654Y-7265990D02*
X13848654Y-7305990D01*
X13852464Y-9724964D02*
X13892464Y-9764964D01*
X13892464Y-9724964D02*
X13852464Y-9764964D01*
X13853480Y-8151180D02*
X13893480Y-8191180D01*
X13893480Y-8151180D02*
X13853480Y-8191180D01*
X13989720Y-7693100D02*
X14029720Y-7733100D01*
X14029720Y-7693100D02*
X13989720Y-7733100D01*
X13995466Y-10673654D02*
X14035466Y-10713654D01*
X14035466Y-10673654D02*
X13995466Y-10713654D01*
X14025692Y-9245666D02*
X14065692Y-9285666D01*
X14065692Y-9245666D02*
X14025692Y-9285666D01*
X14026962Y-12265218D02*
X14066962Y-12305218D01*
X14066962Y-12265218D02*
X14026962Y-12305218D01*
X14036614Y-9407210D02*
X14076614Y-9447210D01*
X14076614Y-9407210D02*
X14036614Y-9447210D01*
X14101720Y-7881100D02*
X14141720Y-7921100D01*
X14141720Y-7881100D02*
X14101720Y-7921100D01*
X14103720Y-7753100D02*
X14143720Y-7793100D01*
X14143720Y-7753100D02*
X14103720Y-7793100D01*
X14180722Y-7262291D02*
X14220722Y-7302291D01*
X14220722Y-7262291D02*
X14180722Y-7302291D01*
X14186220Y-7017070D02*
X14226220Y-7057070D01*
X14226220Y-7017070D02*
X14186220Y-7057070D01*
X14186728Y-6905818D02*
X14226728Y-6945818D01*
X14226728Y-6905818D02*
X14186728Y-6945818D01*
X14190538Y-6295964D02*
X14230538Y-6335964D01*
X14230538Y-6295964D02*
X14190538Y-6335964D01*
X14283720Y-8030100D02*
X14323720Y-8070100D01*
X14323720Y-8030100D02*
X14283720Y-8070100D01*
X14326720Y-9194756D02*
X14366720Y-9234756D01*
X14366720Y-9194756D02*
X14326720Y-9234756D01*
X14327720Y-8624756D02*
X14367720Y-8664756D01*
X14367720Y-8624756D02*
X14327720Y-8664756D01*
X14452920Y-6867464D02*
X14492920Y-6907464D01*
X14492920Y-6867464D02*
X14452920Y-6907464D01*
X14460720Y-6392100D02*
X14500720Y-6432100D01*
X14500720Y-6392100D02*
X14460720Y-6432100D01*
X14463080Y-7068124D02*
X14503080Y-7108124D01*
X14503080Y-7068124D02*
X14463080Y-7108124D01*
X14466128Y-7665278D02*
X14506128Y-7705278D01*
X14506128Y-7665278D02*
X14466128Y-7705278D01*
X14466128Y-7913182D02*
X14506128Y-7953182D01*
X14506128Y-7913182D02*
X14466128Y-7953182D01*
X14466636Y-6565966D02*
X14506636Y-6605966D01*
X14506636Y-6565966D02*
X14466636Y-6605966D01*
X14467144Y-7810058D02*
X14507144Y-7850058D01*
X14507144Y-7810058D02*
X14467144Y-7850058D01*
X14470720Y-6198100D02*
X14510720Y-6238100D01*
X14510720Y-6198100D02*
X14470720Y-6238100D01*
X14487972Y-10415844D02*
X14527972Y-10455844D01*
X14527972Y-10415844D02*
X14487972Y-10455844D01*
X14501180Y-11561130D02*
X14541180Y-11601130D01*
X14541180Y-11561130D02*
X14501180Y-11601130D01*
X14513626Y-7968808D02*
X14553626Y-8008808D01*
X14553626Y-7968808D02*
X14513626Y-8008808D01*
X14526720Y-10694151D02*
X14566720Y-10734151D01*
X14566720Y-10694151D02*
X14526720Y-10734151D01*
X14530574Y-9958176D02*
X14570574Y-9998176D01*
X14570574Y-9958176D02*
X14530574Y-9998176D01*
X14543720Y-6088100D02*
X14583720Y-6128100D01*
X14583720Y-6088100D02*
X14543720Y-6128100D01*
X14554012Y-9374952D02*
X14594012Y-9414952D01*
X14594012Y-9374952D02*
X14554012Y-9414952D01*
X14556044Y-5803458D02*
X14596044Y-5843458D01*
X14596044Y-5803458D02*
X14556044Y-5843458D01*
X14569694Y-9088716D02*
X14609694Y-9128716D01*
X14609694Y-9088716D02*
X14569694Y-9128716D01*
X14603288Y-8733602D02*
X14643288Y-8773602D01*
X14643288Y-8733602D02*
X14603288Y-8773602D01*
X14653072Y-7718618D02*
X14693072Y-7758618D01*
X14693072Y-7718618D02*
X14653072Y-7758618D01*
X14665772Y-6333302D02*
X14705772Y-6373302D01*
X14705772Y-6333302D02*
X14665772Y-6373302D01*
X14668312Y-7968808D02*
X14708312Y-8008808D01*
X14708312Y-7968808D02*
X14668312Y-8008808D01*
X14684720Y-9081756D02*
X14724720Y-9121756D01*
X14724720Y-9081756D02*
X14684720Y-9121756D01*
X14686854Y-6833174D02*
X14726854Y-6873174D01*
X14726854Y-6833174D02*
X14686854Y-6873174D01*
X14719366Y-7168708D02*
X14759366Y-7208708D01*
X14759366Y-7168708D02*
X14719366Y-7208708D01*
X14723176Y-10887776D02*
X14763176Y-10927776D01*
X14763176Y-10887776D02*
X14723176Y-10927776D01*
X14748720Y-9508100D02*
X14788720Y-9548100D01*
X14788720Y-9508100D02*
X14748720Y-9548100D01*
X14750720Y-9682100D02*
X14790720Y-9722100D01*
X14790720Y-9682100D02*
X14750720Y-9722100D01*
X14759498Y-6568760D02*
X14799498Y-6608760D01*
X14799498Y-6568760D02*
X14759498Y-6608760D01*
X14759720Y-10074100D02*
X14799720Y-10114100D01*
X14799720Y-10074100D02*
X14759720Y-10114100D01*
X14762720Y-11630100D02*
X14802720Y-11670100D01*
X14802720Y-11630100D02*
X14762720Y-11670100D01*
X14764720Y-10417100D02*
X14804720Y-10457100D01*
X14804720Y-10417100D02*
X14764720Y-10457100D01*
X14768896Y-6109274D02*
X14808896Y-6149274D01*
X14808896Y-6109274D02*
X14768896Y-6149274D01*
X14818082Y-5853128D02*
X14858082Y-5893128D01*
X14858082Y-5853128D02*
X14818082Y-5893128D01*
X14824014Y-8755192D02*
X14864014Y-8795192D01*
X14864014Y-8755192D02*
X14824014Y-8795192D01*
X14842556Y-6985066D02*
X14882556Y-7025066D01*
X14882556Y-6985066D02*
X14842556Y-7025066D01*
X14846720Y-11111100D02*
X14886720Y-11151100D01*
X14886720Y-11111100D02*
X14846720Y-11151100D01*
X14849160Y-11364788D02*
X14889160Y-11404788D01*
X14889160Y-11364788D02*
X14849160Y-11404788D01*
X14932218Y-7801422D02*
X14972218Y-7841422D01*
X14972218Y-7801422D02*
X14932218Y-7841422D01*
X14951522Y-7594920D02*
X14991522Y-7634920D01*
X14991522Y-7594920D02*
X14951522Y-7634920D01*
X14957872Y-6144456D02*
X14997872Y-6184456D01*
X14997872Y-6144456D02*
X14957872Y-6184456D01*
X14973818Y-10361516D02*
X15013818Y-10401516D01*
X15013818Y-10361516D02*
X14973818Y-10401516D01*
X14996734Y-9373936D02*
X15036734Y-9413936D01*
X15036734Y-9373936D02*
X14996734Y-9413936D01*
X15043087Y-10419604D02*
X15083087Y-10459604D01*
X15083087Y-10419604D02*
X15043087Y-10459604D01*
X15045176Y-10306015D02*
X15085176Y-10346015D01*
X15085176Y-10306015D02*
X15045176Y-10346015D01*
X15049312Y-10617012D02*
X15089312Y-10657012D01*
X15089312Y-10617012D02*
X15049312Y-10657012D01*
X15066076Y-10724099D02*
X15106076Y-10764099D01*
X15106076Y-10724099D02*
X15066076Y-10764099D01*
X15069378Y-5816666D02*
X15109378Y-5856666D01*
X15109378Y-5816666D02*
X15069378Y-5856666D01*
X15077545Y-10509567D02*
X15117545Y-10549567D01*
X15117545Y-10509567D02*
X15077545Y-10549567D01*
X15115606Y-10008428D02*
X15155606Y-10048428D01*
X15155606Y-10008428D02*
X15115606Y-10048428D01*
X15118400Y-7970332D02*
X15158400Y-8010332D01*
X15158400Y-7970332D02*
X15118400Y-8010332D01*
X15133894Y-10890062D02*
X15173894Y-10930062D01*
X15173894Y-10890062D02*
X15133894Y-10930062D01*
X15147356Y-6423980D02*
X15187356Y-6463980D01*
X15187356Y-6423980D02*
X15147356Y-6463980D01*
X15151928Y-6112830D02*
X15191928Y-6152830D01*
X15191928Y-6112830D02*
X15151928Y-6152830D01*
X15157770Y-7593396D02*
X15197770Y-7633396D01*
X15197770Y-7593396D02*
X15157770Y-7633396D01*
X15158024Y-12324146D02*
X15198024Y-12364146D01*
X15198024Y-12324146D02*
X15158024Y-12364146D01*
X15178090Y-8654354D02*
X15218090Y-8694354D01*
X15218090Y-8654354D02*
X15178090Y-8694354D01*
X15185456Y-9194358D02*
X15225456Y-9234358D01*
X15225456Y-9194358D02*
X15185456Y-9234358D01*
X15216698Y-7971856D02*
X15256698Y-8011856D01*
X15256698Y-7971856D02*
X15216698Y-8011856D01*
X15239304Y-7230684D02*
X15279304Y-7270684D01*
X15279304Y-7230684D02*
X15239304Y-7270684D01*
X15243876Y-9651812D02*
X15283876Y-9691812D01*
X15283876Y-9651812D02*
X15243876Y-9691812D01*
X15255720Y-9516100D02*
X15295720Y-9556100D01*
X15295720Y-9516100D02*
X15255720Y-9556100D01*
X15283500Y-7521260D02*
X15323500Y-7561260D01*
X15323500Y-7521260D02*
X15283500Y-7561260D01*
X15321854Y-6129340D02*
X15361854Y-6169340D01*
X15361854Y-6129340D02*
X15321854Y-6169340D01*
X15325664Y-7230684D02*
X15365664Y-7270684D01*
X15365664Y-7230684D02*
X15325664Y-7270684D01*
X15334720Y-10700100D02*
X15374720Y-10740100D01*
X15374720Y-10700100D02*
X15334720Y-10740100D01*
X15364720Y-11303100D02*
X15404720Y-11343100D01*
X15404720Y-11303100D02*
X15364720Y-11343100D01*
X15365288Y-11177082D02*
X15405288Y-11217082D01*
X15405288Y-11177082D02*
X15365288Y-11217082D01*
X15372720Y-11571100D02*
X15412720Y-11611100D01*
X15412720Y-11571100D02*
X15372720Y-11611100D01*
X15383322Y-9244142D02*
X15423322Y-9284142D01*
X15423322Y-9244142D02*
X15383322Y-9284142D01*
X15397292Y-7818694D02*
X15437292Y-7858694D01*
X15437292Y-7818694D02*
X15397292Y-7858694D01*
X15399324Y-6339906D02*
X15439324Y-6379906D01*
X15439324Y-6339906D02*
X15399324Y-6379906D01*
X15440980Y-10303068D02*
X15480980Y-10343068D01*
X15480980Y-10303068D02*
X15440980Y-10343068D01*
X15443774Y-10519476D02*
X15483774Y-10559476D01*
X15483774Y-10519476D02*
X15443774Y-10559476D01*
X15451720Y-10908100D02*
X15491720Y-10948100D01*
X15491720Y-10908100D02*
X15451720Y-10948100D01*
X15469428Y-5816412D02*
X15509428Y-5856412D01*
X15509428Y-5816412D02*
X15469428Y-5856412D01*
X15478318Y-12244390D02*
X15518318Y-12284390D01*
X15518318Y-12244390D02*
X15478318Y-12284390D01*
X15481840Y-11990932D02*
X15521840Y-12030932D01*
X15521840Y-11990932D02*
X15481840Y-12030932D01*
X15483652Y-9978964D02*
X15523652Y-10018964D01*
X15523652Y-9978964D02*
X15483652Y-10018964D01*
X15498892Y-6160204D02*
X15538892Y-6200204D01*
X15538892Y-6160204D02*
X15498892Y-6200204D01*
X15517942Y-7992430D02*
X15557942Y-8032430D01*
X15557942Y-7992430D02*
X15517942Y-8032430D01*
X15540294Y-5745546D02*
X15580294Y-5785546D01*
X15580294Y-5745546D02*
X15540294Y-5785546D01*
X15581696Y-11688130D02*
X15621696Y-11728130D01*
X15621696Y-11688130D02*
X15581696Y-11728130D01*
X15583474Y-10755696D02*
X15623474Y-10795696D01*
X15623474Y-10755696D02*
X15583474Y-10795696D01*
X15588808Y-7634036D02*
X15628808Y-7674036D01*
X15628808Y-7634036D02*
X15588808Y-7674036D01*
X15611720Y-8478100D02*
X15651720Y-8518100D01*
X15651720Y-8478100D02*
X15611720Y-8518100D01*
X15639100Y-5745546D02*
X15679100Y-5785546D01*
X15679100Y-5745546D02*
X15639100Y-5785546D01*
X15650530Y-9124508D02*
X15690530Y-9164508D01*
X15690530Y-9124508D02*
X15650530Y-9164508D01*
X15677619Y-10978006D02*
X15717619Y-11018006D01*
X15717619Y-10978006D02*
X15677619Y-11018006D01*
X15693945Y-11501153D02*
X15733945Y-11541153D01*
X15733945Y-11501153D02*
X15693945Y-11541153D01*
X15708054Y-10609650D02*
X15748054Y-10649650D01*
X15748054Y-10609650D02*
X15708054Y-10649650D01*
X15708950Y-11128060D02*
X15748950Y-11168060D01*
X15748950Y-11128060D02*
X15708950Y-11168060D01*
X15713647Y-10352644D02*
X15753647Y-10392644D01*
X15753647Y-10352644D02*
X15713647Y-10392644D01*
X15713647Y-10443044D02*
X15753647Y-10483044D01*
X15753647Y-10443044D02*
X15713647Y-10483044D01*
X15713756Y-10248282D02*
X15753756Y-10288282D01*
X15753756Y-10248282D02*
X15713756Y-10288282D01*
X15720888Y-11406952D02*
X15760888Y-11446952D01*
X15760888Y-11406952D02*
X15720888Y-11446952D01*
X15731810Y-10747568D02*
X15771810Y-10787568D01*
X15771810Y-10747568D02*
X15731810Y-10787568D01*
X15735112Y-5741482D02*
X15775112Y-5781482D01*
X15775112Y-5741482D02*
X15735112Y-5781482D01*
X15743979Y-10162206D02*
X15783979Y-10202206D01*
X15783979Y-10162206D02*
X15743979Y-10202206D01*
X15744625Y-9981418D02*
X15784625Y-10021418D01*
X15784625Y-9981418D02*
X15744625Y-10021418D01*
X15745372Y-10071816D02*
X15785372Y-10111816D01*
X15785372Y-10071816D02*
X15745372Y-10111816D01*
X15763052Y-10527858D02*
X15803052Y-10567858D01*
X15803052Y-10527858D02*
X15763052Y-10567858D01*
X15765720Y-9532100D02*
X15805720Y-9572100D01*
X15805720Y-9532100D02*
X15765720Y-9572100D01*
X15804962Y-6487988D02*
X15844962Y-6527988D01*
X15844962Y-6487988D02*
X15804962Y-6527988D01*
X15814720Y-8296100D02*
X15854720Y-8336100D01*
X15854720Y-8296100D02*
X15814720Y-8336100D01*
X15827314Y-11604310D02*
X15867314Y-11644310D01*
X15867314Y-11604310D02*
X15827314Y-11644310D01*
X15835188Y-5742498D02*
X15875188Y-5782498D01*
X15875188Y-5742498D02*
X15835188Y-5782498D01*
X15849720Y-6121100D02*
X15889720Y-6161100D01*
X15889720Y-6121100D02*
X15849720Y-6161100D01*
X15859318Y-10948736D02*
X15899318Y-10988736D01*
X15899318Y-10948736D02*
X15859318Y-10988736D01*
X15860334Y-11048812D02*
X15900334Y-11088812D01*
X15900334Y-11048812D02*
X15860334Y-11088812D01*
X15886619Y-10459624D02*
X15926619Y-10499624D01*
X15926619Y-10459624D02*
X15886619Y-10499624D01*
X15904530Y-8588568D02*
X15944530Y-8628568D01*
X15944530Y-8588568D02*
X15904530Y-8628568D01*
X15919770Y-5830636D02*
X15959770Y-5870636D01*
X15959770Y-5830636D02*
X15919770Y-5870636D01*
X15951774Y-7482398D02*
X15991774Y-7522398D01*
X15991774Y-7482398D02*
X15951774Y-7522398D01*
X15958378Y-11671112D02*
X15998378Y-11711112D01*
X15998378Y-11671112D02*
X15958378Y-11711112D01*
X15987720Y-6121100D02*
X16027720Y-6161100D01*
X16027720Y-6121100D02*
X15987720Y-6161100D01*
X15993684Y-11380536D02*
X16033684Y-11420536D01*
X16033684Y-11380536D02*
X15993684Y-11420536D01*
X15998256Y-7636322D02*
X16038256Y-7676322D01*
X16038256Y-7636322D02*
X15998256Y-7676322D01*
X16000034Y-7973126D02*
X16040034Y-8013126D01*
X16040034Y-7973126D02*
X16000034Y-8013126D01*
X16017720Y-8926100D02*
X16057720Y-8966100D01*
X16057720Y-8926100D02*
X16017720Y-8966100D01*
X16021878Y-11966768D02*
X16061878Y-12006768D01*
X16061878Y-11966768D02*
X16021878Y-12006768D01*
X16022720Y-9682100D02*
X16062720Y-9722100D01*
X16062720Y-9682100D02*
X16022720Y-9722100D01*
X16038388Y-11172256D02*
X16078388Y-11212256D01*
X16078388Y-11172256D02*
X16038388Y-11212256D01*
X16040720Y-9993100D02*
X16080720Y-10033100D01*
X16080720Y-9993100D02*
X16040720Y-10033100D01*
X16044040Y-10927204D02*
X16084040Y-10967204D01*
X16084040Y-10927204D02*
X16044040Y-10967204D01*
X16055152Y-10640634D02*
X16095152Y-10680634D01*
X16095152Y-10640634D02*
X16055152Y-10680634D01*
X16072678Y-6334572D02*
X16112678Y-6374572D01*
X16112678Y-6334572D02*
X16072678Y-6374572D01*
X16119414Y-7888290D02*
X16159414Y-7928290D01*
X16159414Y-7888290D02*
X16119414Y-7928290D01*
X16153450Y-11688130D02*
X16193450Y-11728130D01*
X16193450Y-11688130D02*
X16153450Y-11728130D01*
X16153704Y-10757474D02*
X16193704Y-10797474D01*
X16193704Y-10757474D02*
X16153704Y-10797474D01*
X16168182Y-7982524D02*
X16208182Y-8022524D01*
X16208182Y-7982524D02*
X16168182Y-8022524D01*
X16182660Y-7168708D02*
X16222660Y-7208708D01*
X16222660Y-7168708D02*
X16182660Y-7208708D01*
X16244128Y-7639370D02*
X16284128Y-7679370D01*
X16284128Y-7639370D02*
X16244128Y-7679370D01*
X16262924Y-8266242D02*
X16302924Y-8306242D01*
X16302924Y-8266242D02*
X16262924Y-8306242D01*
X16264956Y-11610660D02*
X16304956Y-11650660D01*
X16304956Y-11610660D02*
X16264956Y-11650660D01*
X16270544Y-7362002D02*
X16310544Y-7402002D01*
X16310544Y-7362002D02*
X16270544Y-7402002D01*
X16273592Y-11979214D02*
X16313592Y-12019214D01*
X16313592Y-11979214D02*
X16273592Y-12019214D01*
X16274221Y-6113100D02*
X16314221Y-6153100D01*
X16314221Y-6113100D02*
X16274221Y-6153100D01*
X16276640Y-11432860D02*
X16316640Y-11472860D01*
X16316640Y-11432860D02*
X16276640Y-11472860D01*
X16292134Y-6777802D02*
X16332134Y-6817802D01*
X16332134Y-6777802D02*
X16292134Y-6817802D01*
X16292134Y-7895402D02*
X16332134Y-7935402D01*
X16332134Y-7895402D02*
X16292134Y-7935402D01*
X16296960Y-11523284D02*
X16336960Y-11563284D01*
X16336960Y-11523284D02*
X16296960Y-11563284D01*
X16303818Y-6900738D02*
X16343818Y-6940738D01*
X16343818Y-6900738D02*
X16303818Y-6940738D01*
X16304072Y-7483160D02*
X16344072Y-7523160D01*
X16344072Y-7483160D02*
X16304072Y-7523160D01*
X16309152Y-6424996D02*
X16349152Y-6464996D01*
X16349152Y-6424996D02*
X16309152Y-6464996D01*
X16331250Y-7019356D02*
X16371250Y-7059356D01*
X16371250Y-7019356D02*
X16331250Y-7059356D01*
X16343720Y-6167100D02*
X16383720Y-6207100D01*
X16383720Y-6167100D02*
X16343720Y-6207100D01*
X16357412Y-8006146D02*
X16397412Y-8046146D01*
X16397412Y-8006146D02*
X16357412Y-8046146D01*
X16361222Y-9939340D02*
X16401222Y-9979340D01*
X16401222Y-9939340D02*
X16361222Y-9979340D01*
X16397544Y-8133654D02*
X16437544Y-8173654D01*
X16437544Y-8133654D02*
X16397544Y-8173654D01*
X16479078Y-9938070D02*
X16519078Y-9978070D01*
X16519078Y-9938070D02*
X16479078Y-9978070D01*
X16479332Y-9130604D02*
X16519332Y-9170604D01*
X16519332Y-9130604D02*
X16479332Y-9170604D01*
X16496350Y-10671622D02*
X16536350Y-10711622D01*
X16536350Y-10671622D02*
X16496350Y-10711622D01*
X16516162Y-10960928D02*
X16556162Y-11000928D01*
X16556162Y-10960928D02*
X16516162Y-11000928D01*
X16517940Y-11400727D02*
X16557940Y-11440727D01*
X16557940Y-11400727D02*
X16517940Y-11440727D01*
X16526576Y-11167684D02*
X16566576Y-11207684D01*
X16566576Y-11167684D02*
X16526576Y-11207684D01*
X16528100Y-11260140D02*
X16568100Y-11300140D01*
X16568100Y-11260140D02*
X16528100Y-11300140D01*
X16539784Y-9378762D02*
X16579784Y-9418762D01*
X16579784Y-9378762D02*
X16539784Y-9418762D01*
X16606332Y-8892352D02*
X16646332Y-8932352D01*
X16646332Y-8892352D02*
X16606332Y-8932352D01*
X16627668Y-7444044D02*
X16667668Y-7484044D01*
X16667668Y-7444044D02*
X16627668Y-7484044D01*
X16630208Y-7534468D02*
X16670208Y-7574468D01*
X16670208Y-7534468D02*
X16630208Y-7574468D01*
X16635796Y-9479600D02*
X16675796Y-9519600D01*
X16675796Y-9479600D02*
X16635796Y-9519600D01*
X16645831Y-7168708D02*
X16685831Y-7208708D01*
X16685831Y-7168708D02*
X16645831Y-7208708D01*
X16654592Y-6392230D02*
X16694592Y-6432230D01*
X16694592Y-6392230D02*
X16654592Y-6432230D01*
X16704884Y-7722601D02*
X16744884Y-7762601D01*
X16744884Y-7722601D02*
X16704884Y-7762601D01*
X16705392Y-8321614D02*
X16745392Y-8361614D01*
X16745392Y-8321614D02*
X16705392Y-8361614D01*
X16710472Y-7583744D02*
X16750472Y-7623744D01*
X16750472Y-7583744D02*
X16710472Y-7623744D01*
X16752636Y-6189792D02*
X16792636Y-6229792D01*
X16792636Y-6189792D02*
X16752636Y-6229792D01*
X16768638Y-6882450D02*
X16808638Y-6922450D01*
X16808638Y-6882450D02*
X16768638Y-6922450D01*
X16776004Y-7646736D02*
X16816004Y-7686736D01*
X16816004Y-7646736D02*
X16776004Y-7686736D01*
X16821978Y-9020622D02*
X16861978Y-9060622D01*
X16861978Y-9020622D02*
X16821978Y-9060622D01*
X16825026Y-8724204D02*
X16865026Y-8764204D01*
X16865026Y-8724204D02*
X16825026Y-8764204D01*
X16827312Y-7754940D02*
X16867312Y-7794940D01*
X16867312Y-7754940D02*
X16827312Y-7794940D01*
X16832459Y-10911082D02*
X16872459Y-10951082D01*
X16872459Y-10911082D02*
X16832459Y-10951082D01*
X16833662Y-11060750D02*
X16873662Y-11100750D01*
X16873662Y-11060750D02*
X16833662Y-11100750D01*
X16840266Y-10352090D02*
X16880266Y-10392090D01*
X16880266Y-10352090D02*
X16840266Y-10392090D01*
X16865158Y-8314248D02*
X16905158Y-8354248D01*
X16905158Y-8314248D02*
X16865158Y-8354248D01*
X16866682Y-7994716D02*
X16906682Y-8034716D01*
X16906682Y-7994716D02*
X16866682Y-8034716D01*
X16870238Y-8097078D02*
X16910238Y-8137078D01*
X16910238Y-8097078D02*
X16870238Y-8137078D01*
X16894114Y-8485444D02*
X16934114Y-8525444D01*
X16934114Y-8485444D02*
X16894114Y-8525444D01*
X16898432Y-5936300D02*
X16938432Y-5976300D01*
X16938432Y-5936300D02*
X16898432Y-5976300D01*
X16909862Y-10453690D02*
X16949862Y-10493690D01*
X16949862Y-10453690D02*
X16909862Y-10493690D01*
X17017304Y-11688892D02*
X17057304Y-11728892D01*
X17057304Y-11688892D02*
X17017304Y-11728892D01*
X17102648Y-6535232D02*
X17142648Y-6575232D01*
X17142648Y-6535232D02*
X17102648Y-6575232D01*
X17113570Y-10897174D02*
X17153570Y-10937174D01*
X17153570Y-10897174D02*
X17113570Y-10937174D01*
X17123476Y-6135436D02*
X17163476Y-6175436D01*
X17163476Y-6135436D02*
X17123476Y-6175436D01*
X17127540Y-6288852D02*
X17167540Y-6328852D01*
X17167540Y-6288852D02*
X17127540Y-6328852D01*
X17128556Y-6443284D02*
X17168556Y-6483284D01*
X17168556Y-6443284D02*
X17128556Y-6483284D01*
X17197644Y-11352596D02*
X17237644Y-11392596D01*
X17237644Y-11352596D02*
X17197644Y-11392596D01*
X17201708Y-6872036D02*
X17241708Y-6912036D01*
X17241708Y-6872036D02*
X17201708Y-6912036D01*
X17222790Y-8855522D02*
X17262790Y-8895522D01*
X17262790Y-8855522D02*
X17222790Y-8895522D01*
X17224568Y-10359456D02*
X17264568Y-10399456D01*
X17264568Y-10359456D02*
X17224568Y-10399456D01*
X17228632Y-9729282D02*
X17268632Y-9769282D01*
X17268632Y-9729282D02*
X17228632Y-9769282D01*
X17228886Y-8110540D02*
X17268886Y-8150540D01*
X17268886Y-8110540D02*
X17228886Y-8150540D01*
X17247936Y-6554359D02*
X17287936Y-6594359D01*
X17287936Y-6554359D02*
X17247936Y-6594359D01*
X17284512Y-6269548D02*
X17324512Y-6309548D01*
X17324512Y-6269548D02*
X17284512Y-6309548D01*
X17549688Y-6868988D02*
X17589688Y-6908988D01*
X17589688Y-6868988D02*
X17549688Y-6908988D01*
X17572294Y-6381562D02*
X17612294Y-6421562D01*
X17612294Y-6381562D02*
X17572294Y-6421562D01*
X17573564Y-7533452D02*
X17613564Y-7573452D01*
X17613564Y-7533452D02*
X17573564Y-7573452D01*
X17589312Y-11688384D02*
X17629312Y-11728384D01*
X17629312Y-11688384D02*
X17589312Y-11728384D01*
X17596932Y-12210608D02*
X17636932Y-12250608D01*
X17636932Y-12210608D02*
X17596932Y-12250608D01*
X17664496Y-5822508D02*
X17704496Y-5862508D01*
X17704496Y-5822508D02*
X17664496Y-5862508D01*
X17664750Y-10344216D02*
X17704750Y-10384216D01*
X17704750Y-10344216D02*
X17664750Y-10384216D01*
X17667036Y-6987860D02*
X17707036Y-7027860D01*
X17707036Y-6987860D02*
X17667036Y-7027860D01*
X17667544Y-6554359D02*
X17707544Y-6594359D01*
X17707544Y-6554359D02*
X17667544Y-6594359D01*
X17669068Y-7352096D02*
X17709068Y-7392096D01*
X17709068Y-7352096D02*
X17669068Y-7392096D01*
X17669068Y-8054152D02*
X17709068Y-8094152D01*
X17709068Y-8054152D02*
X17669068Y-8094152D01*
X17694976Y-11042970D02*
X17734976Y-11082970D01*
X17734976Y-11042970D02*
X17694976Y-11082970D01*
X17697008Y-10915208D02*
X17737008Y-10955208D01*
X17737008Y-10915208D02*
X17697008Y-10955208D01*
D13*
X14173830Y-9833610D02*
G75*
G03*
X14173830Y-9833610I-40000J0D01*
G01*
X14173830Y-10087610D02*
G75*
G03*
X14173830Y-10087610I-40000J0D01*
G01*
X14173830Y-10341610D02*
G75*
G03*
X14173830Y-10341610I-40000J0D01*
G01*
X14173830Y-10595610D02*
G75*
G03*
X14173830Y-10595610I-40000J0D01*
G01*
X14173830Y-10849610D02*
G75*
G03*
X14173830Y-10849610I-40000J0D01*
G01*
X14173830Y-11103610D02*
G75*
G03*
X14173830Y-11103610I-40000J0D01*
G01*
X14173830Y-11357610D02*
G75*
G03*
X14173830Y-11357610I-40000J0D01*
G01*
X14173830Y-11611610D02*
G75*
G03*
X14173830Y-11611610I-40000J0D01*
G01*
X14173830Y-11865610D02*
G75*
G03*
X14173830Y-11865610I-40000J0D01*
G01*
X14427830Y-9579610D02*
G75*
G03*
X14427830Y-9579610I-40000J0D01*
G01*
X14427830Y-9833610D02*
G75*
G03*
X14427830Y-9833610I-40000J0D01*
G01*
X14427830Y-10087610D02*
G75*
G03*
X14427830Y-10087610I-40000J0D01*
G01*
X14427830Y-10341610D02*
G75*
G03*
X14427830Y-10341610I-40000J0D01*
G01*
X14427830Y-10595610D02*
G75*
G03*
X14427830Y-10595610I-40000J0D01*
G01*
X14427830Y-10849610D02*
G75*
G03*
X14427830Y-10849610I-40000J0D01*
G01*
X14427830Y-11103610D02*
G75*
G03*
X14427830Y-11103610I-40000J0D01*
G01*
X14427830Y-11357610D02*
G75*
G03*
X14427830Y-11357610I-40000J0D01*
G01*
X14427830Y-11611610D02*
G75*
G03*
X14427830Y-11611610I-40000J0D01*
G01*
X14427830Y-11865610D02*
G75*
G03*
X14427830Y-11865610I-40000J0D01*
G01*
X14427830Y-12119610D02*
G75*
G03*
X14427830Y-12119610I-40000J0D01*
G01*
X14681830Y-9579610D02*
G75*
G03*
X14681830Y-9579610I-40000J0D01*
G01*
X14681830Y-9833610D02*
G75*
G03*
X14681830Y-9833610I-40000J0D01*
G01*
X14681830Y-11865610D02*
G75*
G03*
X14681830Y-11865610I-40000J0D01*
G01*
X14681830Y-12119610D02*
G75*
G03*
X14681830Y-12119610I-40000J0D01*
G01*
X14935830Y-9579610D02*
G75*
G03*
X14935830Y-9579610I-40000J0D01*
G01*
X14935830Y-9833610D02*
G75*
G03*
X14935830Y-9833610I-40000J0D01*
G01*
X14935830Y-11865610D02*
G75*
G03*
X14935830Y-11865610I-40000J0D01*
G01*
X14935830Y-12119610D02*
G75*
G03*
X14935830Y-12119610I-40000J0D01*
G01*
X15189830Y-9579610D02*
G75*
G03*
X15189830Y-9579610I-40000J0D01*
G01*
X15189830Y-9833610D02*
G75*
G03*
X15189830Y-9833610I-40000J0D01*
G01*
X15189830Y-11865610D02*
G75*
G03*
X15189830Y-11865610I-40000J0D01*
G01*
X15189830Y-12119610D02*
G75*
G03*
X15189830Y-12119610I-40000J0D01*
G01*
X15443830Y-9579610D02*
G75*
G03*
X15443830Y-9579610I-40000J0D01*
G01*
X15443830Y-9833610D02*
G75*
G03*
X15443830Y-9833610I-40000J0D01*
G01*
X15443830Y-11865610D02*
G75*
G03*
X15443830Y-11865610I-40000J0D01*
G01*
X15443830Y-12119610D02*
G75*
G03*
X15443830Y-12119610I-40000J0D01*
G01*
X15697830Y-9579610D02*
G75*
G03*
X15697830Y-9579610I-40000J0D01*
G01*
X15697830Y-9833610D02*
G75*
G03*
X15697830Y-9833610I-40000J0D01*
G01*
X15697830Y-11865610D02*
G75*
G03*
X15697830Y-11865610I-40000J0D01*
G01*
X15697830Y-12119610D02*
G75*
G03*
X15697830Y-12119610I-40000J0D01*
G01*
X15951830Y-9579610D02*
G75*
G03*
X15951830Y-9579610I-40000J0D01*
G01*
X15951830Y-9833610D02*
G75*
G03*
X15951830Y-9833610I-40000J0D01*
G01*
X15951830Y-11865610D02*
G75*
G03*
X15951830Y-11865610I-40000J0D01*
G01*
X15951830Y-12119610D02*
G75*
G03*
X15951830Y-12119610I-40000J0D01*
G01*
X16205830Y-9579610D02*
G75*
G03*
X16205830Y-9579610I-40000J0D01*
G01*
X16205830Y-9833610D02*
G75*
G03*
X16205830Y-9833610I-40000J0D01*
G01*
X16205830Y-11865610D02*
G75*
G03*
X16205830Y-11865610I-40000J0D01*
G01*
X16205830Y-12119610D02*
G75*
G03*
X16205830Y-12119610I-40000J0D01*
G01*
X16459830Y-9579610D02*
G75*
G03*
X16459830Y-9579610I-40000J0D01*
G01*
X16459830Y-9833610D02*
G75*
G03*
X16459830Y-9833610I-40000J0D01*
G01*
X16459830Y-10087610D02*
G75*
G03*
X16459830Y-10087610I-40000J0D01*
G01*
X16459830Y-10341610D02*
G75*
G03*
X16459830Y-10341610I-40000J0D01*
G01*
X16459830Y-10595610D02*
G75*
G03*
X16459830Y-10595610I-40000J0D01*
G01*
X16459830Y-10849610D02*
G75*
G03*
X16459830Y-10849610I-40000J0D01*
G01*
X16459830Y-11103610D02*
G75*
G03*
X16459830Y-11103610I-40000J0D01*
G01*
X16459830Y-11357610D02*
G75*
G03*
X16459830Y-11357610I-40000J0D01*
G01*
X16459830Y-11611610D02*
G75*
G03*
X16459830Y-11611610I-40000J0D01*
G01*
X16459830Y-11865610D02*
G75*
G03*
X16459830Y-11865610I-40000J0D01*
G01*
X16459830Y-12119610D02*
G75*
G03*
X16459830Y-12119610I-40000J0D01*
G01*
X16713830Y-9833610D02*
G75*
G03*
X16713830Y-9833610I-40000J0D01*
G01*
X16713830Y-10087610D02*
G75*
G03*
X16713830Y-10087610I-40000J0D01*
G01*
X16713830Y-10341610D02*
G75*
G03*
X16713830Y-10341610I-40000J0D01*
G01*
X16713830Y-10595610D02*
G75*
G03*
X16713830Y-10595610I-40000J0D01*
G01*
X16713830Y-10849610D02*
G75*
G03*
X16713830Y-10849610I-40000J0D01*
G01*
X16713830Y-11103610D02*
G75*
G03*
X16713830Y-11103610I-40000J0D01*
G01*
X16713830Y-11357610D02*
G75*
G03*
X16713830Y-11357610I-40000J0D01*
G01*
X16713830Y-11611610D02*
G75*
G03*
X16713830Y-11611610I-40000J0D01*
G01*
X16713830Y-11865610D02*
G75*
G03*
X16713830Y-11865610I-40000J0D01*
G01*
D14*
X13116560Y-5721134D02*
X13116560Y-5821134D01*
X13066560Y-5771134D02*
X13166560Y-5771134D01*
X13116560Y-5975134D02*
X13116560Y-6075134D01*
X13066560Y-6025134D02*
X13166560Y-6025134D01*
X13162026Y-6861340D02*
X13162026Y-6961340D01*
X13112026Y-6911340D02*
X13212026Y-6911340D01*
X13162026Y-7115340D02*
X13162026Y-7215340D01*
X13112026Y-7165340D02*
X13212026Y-7165340D01*
X13370560Y-5721134D02*
X13370560Y-5821134D01*
X13320560Y-5771134D02*
X13420560Y-5771134D01*
X13370560Y-5975134D02*
X13370560Y-6075134D01*
X13320560Y-6025134D02*
X13420560Y-6025134D01*
X13624560Y-5721134D02*
X13624560Y-5821134D01*
X13574560Y-5771134D02*
X13674560Y-5771134D01*
X13624560Y-5975134D02*
X13624560Y-6075134D01*
X13574560Y-6025134D02*
X13674560Y-6025134D01*
X13878560Y-5721134D02*
X13878560Y-5821134D01*
X13828560Y-5771134D02*
X13928560Y-5771134D01*
X13878560Y-5975134D02*
X13878560Y-6075134D01*
X13828560Y-6025134D02*
X13928560Y-6025134D01*
X14132560Y-5721134D02*
X14132560Y-5821134D01*
X14082560Y-5771134D02*
X14182560Y-5771134D01*
X14132560Y-5975134D02*
X14132560Y-6075134D01*
X14082560Y-6025134D02*
X14182560Y-6025134D01*
D11*
X13225121Y-12780058D02*
X13225121Y-12580058D01*
X13272740Y-12580058D01*
X13301311Y-12589582D01*
X13320359Y-12608630D01*
X13329883Y-12627677D01*
X13339407Y-12665772D01*
X13339407Y-12694344D01*
X13329883Y-12732439D01*
X13320359Y-12751487D01*
X13301311Y-12770534D01*
X13272740Y-12780058D01*
X13225121Y-12780058D01*
X13425121Y-12780058D02*
X13425121Y-12646725D01*
X13425121Y-12684820D02*
X13434645Y-12665772D01*
X13444169Y-12656249D01*
X13463216Y-12646725D01*
X13482264Y-12646725D01*
X13548930Y-12780058D02*
X13548930Y-12646725D01*
X13548930Y-12580058D02*
X13539407Y-12589582D01*
X13548930Y-12599106D01*
X13558454Y-12589582D01*
X13548930Y-12580058D01*
X13548930Y-12599106D01*
X13672740Y-12780058D02*
X13653692Y-12770534D01*
X13644169Y-12751487D01*
X13644169Y-12580058D01*
X13777502Y-12780058D02*
X13758454Y-12770534D01*
X13748930Y-12751487D01*
X13748930Y-12580058D01*
X14006073Y-12780058D02*
X14006073Y-12580058D01*
X14072740Y-12722915D01*
X14139407Y-12580058D01*
X14139407Y-12780058D01*
X14320359Y-12780058D02*
X14320359Y-12675296D01*
X14310835Y-12656249D01*
X14291788Y-12646725D01*
X14253692Y-12646725D01*
X14234645Y-12656249D01*
X14320359Y-12770534D02*
X14301311Y-12780058D01*
X14253692Y-12780058D01*
X14234645Y-12770534D01*
X14225121Y-12751487D01*
X14225121Y-12732439D01*
X14234645Y-12713391D01*
X14253692Y-12703868D01*
X14301311Y-12703868D01*
X14320359Y-12694344D01*
X14415597Y-12646725D02*
X14415597Y-12846725D01*
X14415597Y-12656249D02*
X14434645Y-12646725D01*
X14472740Y-12646725D01*
X14491788Y-12656249D01*
X14501311Y-12665772D01*
X14510835Y-12684820D01*
X14510835Y-12741963D01*
X14501311Y-12761010D01*
X14491788Y-12770534D01*
X14472740Y-12780058D01*
X14434645Y-12780058D01*
X14415597Y-12770534D01*
X14596550Y-12761010D02*
X14606073Y-12770534D01*
X14596550Y-12780058D01*
X14587026Y-12770534D01*
X14596550Y-12761010D01*
X14596550Y-12780058D01*
X14596550Y-12656249D02*
X14606073Y-12665772D01*
X14596550Y-12675296D01*
X14587026Y-12665772D01*
X14596550Y-12656249D01*
X14596550Y-12675296D01*
D12*
X12927502Y-13089582D02*
X12967502Y-13129582D01*
X12967502Y-13089582D02*
X12927502Y-13129582D01*
D11*
X13263216Y-13000058D02*
X13282264Y-13000058D01*
X13301311Y-13009582D01*
X13310835Y-13019106D01*
X13320359Y-13038153D01*
X13329883Y-13076249D01*
X13329883Y-13123868D01*
X13320359Y-13161963D01*
X13310835Y-13181010D01*
X13301311Y-13190534D01*
X13282264Y-13200058D01*
X13263216Y-13200058D01*
X13244169Y-13190534D01*
X13234645Y-13181010D01*
X13225121Y-13161963D01*
X13215597Y-13123868D01*
X13215597Y-13076249D01*
X13225121Y-13038153D01*
X13234645Y-13019106D01*
X13244169Y-13009582D01*
X13263216Y-13000058D01*
X13415597Y-13181010D02*
X13425121Y-13190534D01*
X13415597Y-13200058D01*
X13406073Y-13190534D01*
X13415597Y-13181010D01*
X13415597Y-13200058D01*
X13596550Y-13066725D02*
X13596550Y-13200058D01*
X13548930Y-12990534D02*
X13501311Y-13133391D01*
X13625121Y-13133391D01*
X13739407Y-13000058D02*
X13758454Y-13000058D01*
X13777502Y-13009582D01*
X13787026Y-13019106D01*
X13796550Y-13038153D01*
X13806073Y-13076249D01*
X13806073Y-13123868D01*
X13796550Y-13161963D01*
X13787026Y-13181010D01*
X13777502Y-13190534D01*
X13758454Y-13200058D01*
X13739407Y-13200058D01*
X13720359Y-13190534D01*
X13710835Y-13181010D01*
X13701311Y-13161963D01*
X13691788Y-13123868D01*
X13691788Y-13076249D01*
X13701311Y-13038153D01*
X13710835Y-13019106D01*
X13720359Y-13009582D01*
X13739407Y-13000058D01*
X13929883Y-13000058D02*
X13948930Y-13000058D01*
X13967978Y-13009582D01*
X13977502Y-13019106D01*
X13987026Y-13038153D01*
X13996550Y-13076249D01*
X13996550Y-13123868D01*
X13987026Y-13161963D01*
X13977502Y-13181010D01*
X13967978Y-13190534D01*
X13948930Y-13200058D01*
X13929883Y-13200058D01*
X13910835Y-13190534D01*
X13901311Y-13181010D01*
X13891788Y-13161963D01*
X13882264Y-13123868D01*
X13882264Y-13076249D01*
X13891788Y-13038153D01*
X13901311Y-13019106D01*
X13910835Y-13009582D01*
X13929883Y-13000058D01*
X14082264Y-13200058D02*
X14082264Y-13066725D01*
X14082264Y-13085772D02*
X14091788Y-13076249D01*
X14110835Y-13066725D01*
X14139407Y-13066725D01*
X14158454Y-13076249D01*
X14167978Y-13095296D01*
X14167978Y-13200058D01*
X14167978Y-13095296D02*
X14177502Y-13076249D01*
X14196550Y-13066725D01*
X14225121Y-13066725D01*
X14244169Y-13076249D01*
X14253692Y-13095296D01*
X14253692Y-13200058D01*
X14348930Y-13200058D02*
X14348930Y-13066725D01*
X14348930Y-13085772D02*
X14358454Y-13076249D01*
X14377502Y-13066725D01*
X14406073Y-13066725D01*
X14425121Y-13076249D01*
X14434645Y-13095296D01*
X14434645Y-13200058D01*
X14434645Y-13095296D02*
X14444169Y-13076249D01*
X14463216Y-13066725D01*
X14491788Y-13066725D01*
X14510835Y-13076249D01*
X14520359Y-13095296D01*
X14520359Y-13200058D01*
X14910835Y-12990534D02*
X14739407Y-13247677D01*
X15167978Y-13000058D02*
X15187026Y-13000058D01*
X15206073Y-13009582D01*
X15215597Y-13019106D01*
X15225121Y-13038153D01*
X15234645Y-13076249D01*
X15234645Y-13123868D01*
X15225121Y-13161963D01*
X15215597Y-13181010D01*
X15206073Y-13190534D01*
X15187026Y-13200058D01*
X15167978Y-13200058D01*
X15148930Y-13190534D01*
X15139407Y-13181010D01*
X15129883Y-13161963D01*
X15120359Y-13123868D01*
X15120359Y-13076249D01*
X15129883Y-13038153D01*
X15139407Y-13019106D01*
X15148930Y-13009582D01*
X15167978Y-13000058D01*
X15320359Y-13181010D02*
X15329883Y-13190534D01*
X15320359Y-13200058D01*
X15310835Y-13190534D01*
X15320359Y-13181010D01*
X15320359Y-13200058D01*
X15453692Y-13000058D02*
X15472740Y-13000058D01*
X15491788Y-13009582D01*
X15501311Y-13019106D01*
X15510835Y-13038153D01*
X15520359Y-13076249D01*
X15520359Y-13123868D01*
X15510835Y-13161963D01*
X15501311Y-13181010D01*
X15491788Y-13190534D01*
X15472740Y-13200058D01*
X15453692Y-13200058D01*
X15434645Y-13190534D01*
X15425121Y-13181010D01*
X15415597Y-13161963D01*
X15406073Y-13123868D01*
X15406073Y-13076249D01*
X15415597Y-13038153D01*
X15425121Y-13019106D01*
X15434645Y-13009582D01*
X15453692Y-13000058D01*
X15710835Y-13200058D02*
X15596550Y-13200058D01*
X15653692Y-13200058D02*
X15653692Y-13000058D01*
X15634645Y-13028630D01*
X15615597Y-13047677D01*
X15596550Y-13057201D01*
X15891788Y-13000058D02*
X15796550Y-13000058D01*
X15787026Y-13095296D01*
X15796550Y-13085772D01*
X15815597Y-13076249D01*
X15863216Y-13076249D01*
X15882264Y-13085772D01*
X15891788Y-13095296D01*
X15901311Y-13114344D01*
X15901311Y-13161963D01*
X15891788Y-13181010D01*
X15882264Y-13190534D01*
X15863216Y-13200058D01*
X15815597Y-13200058D01*
X15796550Y-13190534D01*
X15787026Y-13181010D01*
X15967978Y-13000058D02*
X16101311Y-13000058D01*
X16015597Y-13200058D01*
X16167978Y-13000058D02*
X16167978Y-13038153D01*
X16244169Y-13000058D02*
X16244169Y-13038153D01*
X16539407Y-13276249D02*
X16529883Y-13266725D01*
X16510835Y-13238153D01*
X16501311Y-13219106D01*
X16491788Y-13190534D01*
X16482264Y-13142915D01*
X16482264Y-13104820D01*
X16491788Y-13057201D01*
X16501311Y-13028630D01*
X16510835Y-13009582D01*
X16529883Y-12981010D01*
X16539407Y-12971487D01*
X16606073Y-13019106D02*
X16615597Y-13009582D01*
X16634645Y-13000058D01*
X16682264Y-13000058D01*
X16701311Y-13009582D01*
X16710835Y-13019106D01*
X16720359Y-13038153D01*
X16720359Y-13057201D01*
X16710835Y-13085772D01*
X16596550Y-13200058D01*
X16720359Y-13200058D01*
X16901312Y-13000058D02*
X16806073Y-13000058D01*
X16796550Y-13095296D01*
X16806073Y-13085772D01*
X16825121Y-13076249D01*
X16872740Y-13076249D01*
X16891788Y-13085772D01*
X16901312Y-13095296D01*
X16910835Y-13114344D01*
X16910835Y-13161963D01*
X16901312Y-13181010D01*
X16891788Y-13190534D01*
X16872740Y-13200058D01*
X16825121Y-13200058D01*
X16806073Y-13190534D01*
X16796550Y-13181010D01*
X17082264Y-13000058D02*
X17044169Y-13000058D01*
X17025121Y-13009582D01*
X17015597Y-13019106D01*
X16996550Y-13047677D01*
X16987026Y-13085772D01*
X16987026Y-13161963D01*
X16996550Y-13181010D01*
X17006073Y-13190534D01*
X17025121Y-13200058D01*
X17063216Y-13200058D01*
X17082264Y-13190534D01*
X17091788Y-13181010D01*
X17101312Y-13161963D01*
X17101312Y-13114344D01*
X17091788Y-13095296D01*
X17082264Y-13085772D01*
X17063216Y-13076249D01*
X17025121Y-13076249D01*
X17006073Y-13085772D01*
X16996550Y-13095296D01*
X16987026Y-13114344D01*
X17339407Y-13200058D02*
X17339407Y-13000058D01*
X17425121Y-13200058D02*
X17425121Y-13095296D01*
X17415597Y-13076249D01*
X17396550Y-13066725D01*
X17367978Y-13066725D01*
X17348931Y-13076249D01*
X17339407Y-13085772D01*
X17548931Y-13200058D02*
X17529883Y-13190534D01*
X17520359Y-13181010D01*
X17510835Y-13161963D01*
X17510835Y-13104820D01*
X17520359Y-13085772D01*
X17529883Y-13076249D01*
X17548931Y-13066725D01*
X17577502Y-13066725D01*
X17596550Y-13076249D01*
X17606073Y-13085772D01*
X17615597Y-13104820D01*
X17615597Y-13161963D01*
X17606073Y-13181010D01*
X17596550Y-13190534D01*
X17577502Y-13200058D01*
X17548931Y-13200058D01*
X17729883Y-13200058D02*
X17710835Y-13190534D01*
X17701312Y-13171487D01*
X17701312Y-13000058D01*
X17882264Y-13190534D02*
X17863216Y-13200058D01*
X17825121Y-13200058D01*
X17806073Y-13190534D01*
X17796550Y-13171487D01*
X17796550Y-13095296D01*
X17806073Y-13076249D01*
X17825121Y-13066725D01*
X17863216Y-13066725D01*
X17882264Y-13076249D01*
X17891788Y-13095296D01*
X17891788Y-13114344D01*
X17796550Y-13133391D01*
X17967978Y-13190534D02*
X17987026Y-13200058D01*
X18025121Y-13200058D01*
X18044169Y-13190534D01*
X18053692Y-13171487D01*
X18053692Y-13161963D01*
X18044169Y-13142915D01*
X18025121Y-13133391D01*
X17996550Y-13133391D01*
X17977502Y-13123868D01*
X17967978Y-13104820D01*
X17967978Y-13095296D01*
X17977502Y-13076249D01*
X17996550Y-13066725D01*
X18025121Y-13066725D01*
X18044169Y-13076249D01*
X18120359Y-13276249D02*
X18129883Y-13266725D01*
X18148931Y-13238153D01*
X18158454Y-13219106D01*
X18167978Y-13190534D01*
X18177502Y-13142915D01*
X18177502Y-13104820D01*
X18167978Y-13057201D01*
X18158454Y-13028630D01*
X18148931Y-13009582D01*
X18129883Y-12981010D01*
X18120359Y-12971487D01*
D13*
X12967502Y-13373582D02*
G75*
G03*
X12967502Y-13373582I-40000J0D01*
G01*
D11*
X13263216Y-13264058D02*
X13282264Y-13264058D01*
X13301311Y-13273582D01*
X13310835Y-13283106D01*
X13320359Y-13302153D01*
X13329883Y-13340249D01*
X13329883Y-13387868D01*
X13320359Y-13425963D01*
X13310835Y-13445010D01*
X13301311Y-13454534D01*
X13282264Y-13464058D01*
X13263216Y-13464058D01*
X13244169Y-13454534D01*
X13234645Y-13445010D01*
X13225121Y-13425963D01*
X13215597Y-13387868D01*
X13215597Y-13340249D01*
X13225121Y-13302153D01*
X13234645Y-13283106D01*
X13244169Y-13273582D01*
X13263216Y-13264058D01*
X13415597Y-13445010D02*
X13425121Y-13454534D01*
X13415597Y-13464058D01*
X13406073Y-13454534D01*
X13415597Y-13445010D01*
X13415597Y-13464058D01*
X13539407Y-13349772D02*
X13520359Y-13340249D01*
X13510835Y-13330725D01*
X13501311Y-13311677D01*
X13501311Y-13302153D01*
X13510835Y-13283106D01*
X13520359Y-13273582D01*
X13539407Y-13264058D01*
X13577502Y-13264058D01*
X13596550Y-13273582D01*
X13606073Y-13283106D01*
X13615597Y-13302153D01*
X13615597Y-13311677D01*
X13606073Y-13330725D01*
X13596550Y-13340249D01*
X13577502Y-13349772D01*
X13539407Y-13349772D01*
X13520359Y-13359296D01*
X13510835Y-13368820D01*
X13501311Y-13387868D01*
X13501311Y-13425963D01*
X13510835Y-13445010D01*
X13520359Y-13454534D01*
X13539407Y-13464058D01*
X13577502Y-13464058D01*
X13596550Y-13454534D01*
X13606073Y-13445010D01*
X13615597Y-13425963D01*
X13615597Y-13387868D01*
X13606073Y-13368820D01*
X13596550Y-13359296D01*
X13577502Y-13349772D01*
X13739407Y-13264058D02*
X13758454Y-13264058D01*
X13777502Y-13273582D01*
X13787026Y-13283106D01*
X13796550Y-13302153D01*
X13806073Y-13340249D01*
X13806073Y-13387868D01*
X13796550Y-13425963D01*
X13787026Y-13445010D01*
X13777502Y-13454534D01*
X13758454Y-13464058D01*
X13739407Y-13464058D01*
X13720359Y-13454534D01*
X13710835Y-13445010D01*
X13701311Y-13425963D01*
X13691788Y-13387868D01*
X13691788Y-13340249D01*
X13701311Y-13302153D01*
X13710835Y-13283106D01*
X13720359Y-13273582D01*
X13739407Y-13264058D01*
X13929883Y-13264058D02*
X13948930Y-13264058D01*
X13967978Y-13273582D01*
X13977502Y-13283106D01*
X13987026Y-13302153D01*
X13996550Y-13340249D01*
X13996550Y-13387868D01*
X13987026Y-13425963D01*
X13977502Y-13445010D01*
X13967978Y-13454534D01*
X13948930Y-13464058D01*
X13929883Y-13464058D01*
X13910835Y-13454534D01*
X13901311Y-13445010D01*
X13891788Y-13425963D01*
X13882264Y-13387868D01*
X13882264Y-13340249D01*
X13891788Y-13302153D01*
X13901311Y-13283106D01*
X13910835Y-13273582D01*
X13929883Y-13264058D01*
X14082264Y-13464058D02*
X14082264Y-13330725D01*
X14082264Y-13349772D02*
X14091788Y-13340249D01*
X14110835Y-13330725D01*
X14139407Y-13330725D01*
X14158454Y-13340249D01*
X14167978Y-13359296D01*
X14167978Y-13464058D01*
X14167978Y-13359296D02*
X14177502Y-13340249D01*
X14196550Y-13330725D01*
X14225121Y-13330725D01*
X14244169Y-13340249D01*
X14253692Y-13359296D01*
X14253692Y-13464058D01*
X14348930Y-13464058D02*
X14348930Y-13330725D01*
X14348930Y-13349772D02*
X14358454Y-13340249D01*
X14377502Y-13330725D01*
X14406073Y-13330725D01*
X14425121Y-13340249D01*
X14434645Y-13359296D01*
X14434645Y-13464058D01*
X14434645Y-13359296D02*
X14444169Y-13340249D01*
X14463216Y-13330725D01*
X14491788Y-13330725D01*
X14510835Y-13340249D01*
X14520359Y-13359296D01*
X14520359Y-13464058D01*
X14910835Y-13254534D02*
X14739407Y-13511677D01*
X15167978Y-13264058D02*
X15187026Y-13264058D01*
X15206073Y-13273582D01*
X15215597Y-13283106D01*
X15225121Y-13302153D01*
X15234645Y-13340249D01*
X15234645Y-13387868D01*
X15225121Y-13425963D01*
X15215597Y-13445010D01*
X15206073Y-13454534D01*
X15187026Y-13464058D01*
X15167978Y-13464058D01*
X15148930Y-13454534D01*
X15139407Y-13445010D01*
X15129883Y-13425963D01*
X15120359Y-13387868D01*
X15120359Y-13340249D01*
X15129883Y-13302153D01*
X15139407Y-13283106D01*
X15148930Y-13273582D01*
X15167978Y-13264058D01*
X15320359Y-13445010D02*
X15329883Y-13454534D01*
X15320359Y-13464058D01*
X15310835Y-13454534D01*
X15320359Y-13445010D01*
X15320359Y-13464058D01*
X15453692Y-13264058D02*
X15472740Y-13264058D01*
X15491788Y-13273582D01*
X15501311Y-13283106D01*
X15510835Y-13302153D01*
X15520359Y-13340249D01*
X15520359Y-13387868D01*
X15510835Y-13425963D01*
X15501311Y-13445010D01*
X15491788Y-13454534D01*
X15472740Y-13464058D01*
X15453692Y-13464058D01*
X15434645Y-13454534D01*
X15425121Y-13445010D01*
X15415597Y-13425963D01*
X15406073Y-13387868D01*
X15406073Y-13340249D01*
X15415597Y-13302153D01*
X15425121Y-13283106D01*
X15434645Y-13273582D01*
X15453692Y-13264058D01*
X15587026Y-13264058D02*
X15710835Y-13264058D01*
X15644169Y-13340249D01*
X15672740Y-13340249D01*
X15691788Y-13349772D01*
X15701311Y-13359296D01*
X15710835Y-13378344D01*
X15710835Y-13425963D01*
X15701311Y-13445010D01*
X15691788Y-13454534D01*
X15672740Y-13464058D01*
X15615597Y-13464058D01*
X15596550Y-13454534D01*
X15587026Y-13445010D01*
X15901311Y-13464058D02*
X15787026Y-13464058D01*
X15844169Y-13464058D02*
X15844169Y-13264058D01*
X15825121Y-13292630D01*
X15806073Y-13311677D01*
X15787026Y-13321201D01*
X16082264Y-13264058D02*
X15987026Y-13264058D01*
X15977502Y-13359296D01*
X15987026Y-13349772D01*
X16006073Y-13340249D01*
X16053692Y-13340249D01*
X16072740Y-13349772D01*
X16082264Y-13359296D01*
X16091788Y-13378344D01*
X16091788Y-13425963D01*
X16082264Y-13445010D01*
X16072740Y-13454534D01*
X16053692Y-13464058D01*
X16006073Y-13464058D01*
X15987026Y-13454534D01*
X15977502Y-13445010D01*
X16167978Y-13264058D02*
X16167978Y-13302153D01*
X16244169Y-13264058D02*
X16244169Y-13302153D01*
X16539407Y-13540249D02*
X16529883Y-13530725D01*
X16510835Y-13502153D01*
X16501311Y-13483106D01*
X16491788Y-13454534D01*
X16482264Y-13406915D01*
X16482264Y-13368820D01*
X16491788Y-13321201D01*
X16501311Y-13292630D01*
X16510835Y-13273582D01*
X16529883Y-13245010D01*
X16539407Y-13235487D01*
X16701311Y-13264058D02*
X16663216Y-13264058D01*
X16644169Y-13273582D01*
X16634645Y-13283106D01*
X16615597Y-13311677D01*
X16606073Y-13349772D01*
X16606073Y-13425963D01*
X16615597Y-13445010D01*
X16625121Y-13454534D01*
X16644169Y-13464058D01*
X16682264Y-13464058D01*
X16701311Y-13454534D01*
X16710835Y-13445010D01*
X16720359Y-13425963D01*
X16720359Y-13378344D01*
X16710835Y-13359296D01*
X16701311Y-13349772D01*
X16682264Y-13340249D01*
X16644169Y-13340249D01*
X16625121Y-13349772D01*
X16615597Y-13359296D01*
X16606073Y-13378344D01*
X16834645Y-13349772D02*
X16815597Y-13340249D01*
X16806073Y-13330725D01*
X16796550Y-13311677D01*
X16796550Y-13302153D01*
X16806073Y-13283106D01*
X16815597Y-13273582D01*
X16834645Y-13264058D01*
X16872740Y-13264058D01*
X16891788Y-13273582D01*
X16901312Y-13283106D01*
X16910835Y-13302153D01*
X16910835Y-13311677D01*
X16901312Y-13330725D01*
X16891788Y-13340249D01*
X16872740Y-13349772D01*
X16834645Y-13349772D01*
X16815597Y-13359296D01*
X16806073Y-13368820D01*
X16796550Y-13387868D01*
X16796550Y-13425963D01*
X16806073Y-13445010D01*
X16815597Y-13454534D01*
X16834645Y-13464058D01*
X16872740Y-13464058D01*
X16891788Y-13454534D01*
X16901312Y-13445010D01*
X16910835Y-13425963D01*
X16910835Y-13387868D01*
X16901312Y-13368820D01*
X16891788Y-13359296D01*
X16872740Y-13349772D01*
X17148931Y-13464058D02*
X17148931Y-13264058D01*
X17234645Y-13464058D02*
X17234645Y-13359296D01*
X17225121Y-13340249D01*
X17206073Y-13330725D01*
X17177502Y-13330725D01*
X17158454Y-13340249D01*
X17148931Y-13349772D01*
X17358454Y-13464058D02*
X17339407Y-13454534D01*
X17329883Y-13445010D01*
X17320359Y-13425963D01*
X17320359Y-13368820D01*
X17329883Y-13349772D01*
X17339407Y-13340249D01*
X17358454Y-13330725D01*
X17387026Y-13330725D01*
X17406073Y-13340249D01*
X17415597Y-13349772D01*
X17425121Y-13368820D01*
X17425121Y-13425963D01*
X17415597Y-13445010D01*
X17406073Y-13454534D01*
X17387026Y-13464058D01*
X17358454Y-13464058D01*
X17539407Y-13464058D02*
X17520359Y-13454534D01*
X17510835Y-13435487D01*
X17510835Y-13264058D01*
X17691788Y-13454534D02*
X17672740Y-13464058D01*
X17634645Y-13464058D01*
X17615597Y-13454534D01*
X17606073Y-13435487D01*
X17606073Y-13359296D01*
X17615597Y-13340249D01*
X17634645Y-13330725D01*
X17672740Y-13330725D01*
X17691788Y-13340249D01*
X17701312Y-13359296D01*
X17701312Y-13378344D01*
X17606073Y-13397391D01*
X17777502Y-13454534D02*
X17796550Y-13464058D01*
X17834645Y-13464058D01*
X17853692Y-13454534D01*
X17863216Y-13435487D01*
X17863216Y-13425963D01*
X17853692Y-13406915D01*
X17834645Y-13397391D01*
X17806073Y-13397391D01*
X17787026Y-13387868D01*
X17777502Y-13368820D01*
X17777502Y-13359296D01*
X17787026Y-13340249D01*
X17806073Y-13330725D01*
X17834645Y-13330725D01*
X17853692Y-13340249D01*
X17929883Y-13540249D02*
X17939407Y-13530725D01*
X17958454Y-13502153D01*
X17967978Y-13483106D01*
X17977502Y-13454534D01*
X17987026Y-13406915D01*
X17987026Y-13368820D01*
X17977502Y-13321201D01*
X17967978Y-13292630D01*
X17958454Y-13273582D01*
X17939407Y-13245010D01*
X17929883Y-13235487D01*
D14*
X12917502Y-13587582D02*
X12917502Y-13687582D01*
X12867502Y-13637582D02*
X12967502Y-13637582D01*
D11*
X13329883Y-13728058D02*
X13215597Y-13728058D01*
X13272740Y-13728058D02*
X13272740Y-13528058D01*
X13253692Y-13556630D01*
X13234645Y-13575677D01*
X13215597Y-13585201D01*
X13415597Y-13709010D02*
X13425121Y-13718534D01*
X13415597Y-13728058D01*
X13406073Y-13718534D01*
X13415597Y-13709010D01*
X13415597Y-13728058D01*
X13548930Y-13528058D02*
X13567978Y-13528058D01*
X13587026Y-13537582D01*
X13596550Y-13547106D01*
X13606073Y-13566153D01*
X13615597Y-13604249D01*
X13615597Y-13651868D01*
X13606073Y-13689963D01*
X13596550Y-13709010D01*
X13587026Y-13718534D01*
X13567978Y-13728058D01*
X13548930Y-13728058D01*
X13529883Y-13718534D01*
X13520359Y-13709010D01*
X13510835Y-13689963D01*
X13501311Y-13651868D01*
X13501311Y-13604249D01*
X13510835Y-13566153D01*
X13520359Y-13547106D01*
X13529883Y-13537582D01*
X13548930Y-13528058D01*
X13739407Y-13528058D02*
X13758454Y-13528058D01*
X13777502Y-13537582D01*
X13787026Y-13547106D01*
X13796550Y-13566153D01*
X13806073Y-13604249D01*
X13806073Y-13651868D01*
X13796550Y-13689963D01*
X13787026Y-13709010D01*
X13777502Y-13718534D01*
X13758454Y-13728058D01*
X13739407Y-13728058D01*
X13720359Y-13718534D01*
X13710835Y-13709010D01*
X13701311Y-13689963D01*
X13691788Y-13651868D01*
X13691788Y-13604249D01*
X13701311Y-13566153D01*
X13710835Y-13547106D01*
X13720359Y-13537582D01*
X13739407Y-13528058D01*
X13929883Y-13528058D02*
X13948930Y-13528058D01*
X13967978Y-13537582D01*
X13977502Y-13547106D01*
X13987026Y-13566153D01*
X13996550Y-13604249D01*
X13996550Y-13651868D01*
X13987026Y-13689963D01*
X13977502Y-13709010D01*
X13967978Y-13718534D01*
X13948930Y-13728058D01*
X13929883Y-13728058D01*
X13910835Y-13718534D01*
X13901311Y-13709010D01*
X13891788Y-13689963D01*
X13882264Y-13651868D01*
X13882264Y-13604249D01*
X13891788Y-13566153D01*
X13901311Y-13547106D01*
X13910835Y-13537582D01*
X13929883Y-13528058D01*
X14082264Y-13728058D02*
X14082264Y-13594725D01*
X14082264Y-13613772D02*
X14091788Y-13604249D01*
X14110835Y-13594725D01*
X14139407Y-13594725D01*
X14158454Y-13604249D01*
X14167978Y-13623296D01*
X14167978Y-13728058D01*
X14167978Y-13623296D02*
X14177502Y-13604249D01*
X14196550Y-13594725D01*
X14225121Y-13594725D01*
X14244169Y-13604249D01*
X14253692Y-13623296D01*
X14253692Y-13728058D01*
X14348930Y-13728058D02*
X14348930Y-13594725D01*
X14348930Y-13613772D02*
X14358454Y-13604249D01*
X14377502Y-13594725D01*
X14406073Y-13594725D01*
X14425121Y-13604249D01*
X14434645Y-13623296D01*
X14434645Y-13728058D01*
X14434645Y-13623296D02*
X14444169Y-13604249D01*
X14463216Y-13594725D01*
X14491788Y-13594725D01*
X14510835Y-13604249D01*
X14520359Y-13623296D01*
X14520359Y-13728058D01*
X14910835Y-13518534D02*
X14739407Y-13775677D01*
X15167978Y-13528058D02*
X15187026Y-13528058D01*
X15206073Y-13537582D01*
X15215597Y-13547106D01*
X15225121Y-13566153D01*
X15234645Y-13604249D01*
X15234645Y-13651868D01*
X15225121Y-13689963D01*
X15215597Y-13709010D01*
X15206073Y-13718534D01*
X15187026Y-13728058D01*
X15167978Y-13728058D01*
X15148930Y-13718534D01*
X15139407Y-13709010D01*
X15129883Y-13689963D01*
X15120359Y-13651868D01*
X15120359Y-13604249D01*
X15129883Y-13566153D01*
X15139407Y-13547106D01*
X15148930Y-13537582D01*
X15167978Y-13528058D01*
X15320359Y-13709010D02*
X15329883Y-13718534D01*
X15320359Y-13728058D01*
X15310835Y-13718534D01*
X15320359Y-13709010D01*
X15320359Y-13728058D01*
X15453692Y-13528058D02*
X15472740Y-13528058D01*
X15491788Y-13537582D01*
X15501311Y-13547106D01*
X15510835Y-13566153D01*
X15520359Y-13604249D01*
X15520359Y-13651868D01*
X15510835Y-13689963D01*
X15501311Y-13709010D01*
X15491788Y-13718534D01*
X15472740Y-13728058D01*
X15453692Y-13728058D01*
X15434645Y-13718534D01*
X15425121Y-13709010D01*
X15415597Y-13689963D01*
X15406073Y-13651868D01*
X15406073Y-13604249D01*
X15415597Y-13566153D01*
X15425121Y-13547106D01*
X15434645Y-13537582D01*
X15453692Y-13528058D01*
X15587026Y-13528058D02*
X15710835Y-13528058D01*
X15644169Y-13604249D01*
X15672740Y-13604249D01*
X15691788Y-13613772D01*
X15701311Y-13623296D01*
X15710835Y-13642344D01*
X15710835Y-13689963D01*
X15701311Y-13709010D01*
X15691788Y-13718534D01*
X15672740Y-13728058D01*
X15615597Y-13728058D01*
X15596550Y-13718534D01*
X15587026Y-13709010D01*
X15806073Y-13728058D02*
X15844169Y-13728058D01*
X15863216Y-13718534D01*
X15872740Y-13709010D01*
X15891788Y-13680439D01*
X15901311Y-13642344D01*
X15901311Y-13566153D01*
X15891788Y-13547106D01*
X15882264Y-13537582D01*
X15863216Y-13528058D01*
X15825121Y-13528058D01*
X15806073Y-13537582D01*
X15796550Y-13547106D01*
X15787026Y-13566153D01*
X15787026Y-13613772D01*
X15796550Y-13632820D01*
X15806073Y-13642344D01*
X15825121Y-13651868D01*
X15863216Y-13651868D01*
X15882264Y-13642344D01*
X15891788Y-13632820D01*
X15901311Y-13613772D01*
X16072740Y-13594725D02*
X16072740Y-13728058D01*
X16025121Y-13518534D02*
X15977502Y-13661391D01*
X16101311Y-13661391D01*
X16167978Y-13528058D02*
X16167978Y-13566153D01*
X16244169Y-13528058D02*
X16244169Y-13566153D01*
X16539407Y-13804249D02*
X16529883Y-13794725D01*
X16510835Y-13766153D01*
X16501311Y-13747106D01*
X16491788Y-13718534D01*
X16482264Y-13670915D01*
X16482264Y-13632820D01*
X16491788Y-13585201D01*
X16501311Y-13556630D01*
X16510835Y-13537582D01*
X16529883Y-13509010D01*
X16539407Y-13499487D01*
X16720359Y-13728058D02*
X16606073Y-13728058D01*
X16663216Y-13728058D02*
X16663216Y-13528058D01*
X16644169Y-13556630D01*
X16625121Y-13575677D01*
X16606073Y-13585201D01*
X16796550Y-13547106D02*
X16806073Y-13537582D01*
X16825121Y-13528058D01*
X16872740Y-13528058D01*
X16891788Y-13537582D01*
X16901312Y-13547106D01*
X16910835Y-13566153D01*
X16910835Y-13585201D01*
X16901312Y-13613772D01*
X16787026Y-13728058D01*
X16910835Y-13728058D01*
X17148931Y-13728058D02*
X17148931Y-13528058D01*
X17234645Y-13728058D02*
X17234645Y-13623296D01*
X17225121Y-13604249D01*
X17206073Y-13594725D01*
X17177502Y-13594725D01*
X17158454Y-13604249D01*
X17148931Y-13613772D01*
X17358454Y-13728058D02*
X17339407Y-13718534D01*
X17329883Y-13709010D01*
X17320359Y-13689963D01*
X17320359Y-13632820D01*
X17329883Y-13613772D01*
X17339407Y-13604249D01*
X17358454Y-13594725D01*
X17387026Y-13594725D01*
X17406073Y-13604249D01*
X17415597Y-13613772D01*
X17425121Y-13632820D01*
X17425121Y-13689963D01*
X17415597Y-13709010D01*
X17406073Y-13718534D01*
X17387026Y-13728058D01*
X17358454Y-13728058D01*
X17539407Y-13728058D02*
X17520359Y-13718534D01*
X17510835Y-13699487D01*
X17510835Y-13528058D01*
X17691788Y-13718534D02*
X17672740Y-13728058D01*
X17634645Y-13728058D01*
X17615597Y-13718534D01*
X17606073Y-13699487D01*
X17606073Y-13623296D01*
X17615597Y-13604249D01*
X17634645Y-13594725D01*
X17672740Y-13594725D01*
X17691788Y-13604249D01*
X17701312Y-13623296D01*
X17701312Y-13642344D01*
X17606073Y-13661391D01*
X17777502Y-13718534D02*
X17796550Y-13728058D01*
X17834645Y-13728058D01*
X17853692Y-13718534D01*
X17863216Y-13699487D01*
X17863216Y-13689963D01*
X17853692Y-13670915D01*
X17834645Y-13661391D01*
X17806073Y-13661391D01*
X17787026Y-13651868D01*
X17777502Y-13632820D01*
X17777502Y-13623296D01*
X17787026Y-13604249D01*
X17806073Y-13594725D01*
X17834645Y-13594725D01*
X17853692Y-13604249D01*
X17929883Y-13804249D02*
X17939407Y-13794725D01*
X17958454Y-13766153D01*
X17967978Y-13747106D01*
X17977502Y-13718534D01*
X17987026Y-13670915D01*
X17987026Y-13632820D01*
X17977502Y-13585201D01*
X17967978Y-13556630D01*
X17958454Y-13537582D01*
X17939407Y-13509010D01*
X17929883Y-13499487D01*
M02*
