G04 #@! TF.GenerationSoftware,KiCad,Pcbnew,(6.0.0)*
G04 #@! TF.CreationDate,2022-01-09T18:19:29+00:00*
G04 #@! TF.ProjectId,ElectronULA,456c6563-7472-46f6-9e55-4c412e6b6963,rev?*
G04 #@! TF.SameCoordinates,Original*
G04 #@! TF.FileFunction,Soldermask,Top*
G04 #@! TF.FilePolarity,Negative*
%FSLAX46Y46*%
G04 Gerber Fmt 4.6, Leading zero omitted, Abs format (unit mm)*
G04 Created by KiCad (PCBNEW (6.0.0)) date 2022-01-09 18:19:29*
%MOMM*%
%LPD*%
G01*
G04 APERTURE LIST*
G04 Aperture macros list*
%AMRoundRect*
0 Rectangle with rounded corners*
0 $1 Rounding radius*
0 $2 $3 $4 $5 $6 $7 $8 $9 X,Y pos of 4 corners*
0 Add a 4 corners polygon primitive as box body*
4,1,4,$2,$3,$4,$5,$6,$7,$8,$9,$2,$3,0*
0 Add four circle primitives for the rounded corners*
1,1,$1+$1,$2,$3*
1,1,$1+$1,$4,$5*
1,1,$1+$1,$6,$7*
1,1,$1+$1,$8,$9*
0 Add four rect primitives between the rounded corners*
20,1,$1+$1,$2,$3,$4,$5,0*
20,1,$1+$1,$4,$5,$6,$7,0*
20,1,$1+$1,$6,$7,$8,$9,0*
20,1,$1+$1,$8,$9,$2,$3,0*%
G04 Aperture macros list end*
%ADD10R,1.100000X0.400000*%
%ADD11R,1.422400X1.422400*%
%ADD12C,1.422400*%
%ADD13R,0.400000X1.100000*%
%ADD14R,0.650000X1.060000*%
%ADD15RoundRect,0.249999X0.325001X0.450001X-0.325001X0.450001X-0.325001X-0.450001X0.325001X-0.450001X0*%
%ADD16RoundRect,0.249999X0.450001X-0.325001X0.450001X0.325001X-0.450001X0.325001X-0.450001X-0.325001X0*%
%ADD17RoundRect,0.249999X-0.450001X0.325001X-0.450001X-0.325001X0.450001X-0.325001X0.450001X0.325001X0*%
%ADD18R,1.000000X1.000000*%
%ADD19R,1.470000X0.280000*%
%ADD20R,0.280000X1.470000*%
%ADD21R,8.930000X8.700000*%
%ADD22RoundRect,0.249999X-0.325001X-0.450001X0.325001X-0.450001X0.325001X0.450001X-0.325001X0.450001X0*%
%ADD23RoundRect,0.237500X0.287500X0.237500X-0.287500X0.237500X-0.287500X-0.237500X0.287500X-0.237500X0*%
%ADD24R,1.700000X1.700000*%
%ADD25O,1.700000X1.700000*%
%ADD26R,0.760000X1.600000*%
%ADD27R,1.450000X0.450000*%
G04 APERTURE END LIST*
D10*
X152367100Y-116503400D03*
X152367100Y-115853400D03*
X152367100Y-115203400D03*
X152367100Y-114553400D03*
X152367100Y-113903400D03*
X152367100Y-113253400D03*
X152367100Y-112603400D03*
X152367100Y-111953400D03*
X152367100Y-111303400D03*
X152367100Y-110653400D03*
X152367100Y-110003400D03*
X152367100Y-109353400D03*
X146667100Y-109353400D03*
X146667100Y-110003400D03*
X146667100Y-110653400D03*
X146667100Y-111303400D03*
X146667100Y-111953400D03*
X146667100Y-112603400D03*
X146667100Y-113253400D03*
X146667100Y-113903400D03*
X146667100Y-114553400D03*
X146667100Y-115203400D03*
X146667100Y-115853400D03*
X146667100Y-116503400D03*
X156027000Y-109328000D03*
X156027000Y-109978000D03*
X156027000Y-110628000D03*
X156027000Y-111278000D03*
X156027000Y-111928000D03*
X156027000Y-112578000D03*
X156027000Y-113228000D03*
X156027000Y-113878000D03*
X156027000Y-114528000D03*
X156027000Y-115178000D03*
X156027000Y-115828000D03*
X156027000Y-116478000D03*
X161727000Y-116478000D03*
X161727000Y-115828000D03*
X161727000Y-115178000D03*
X161727000Y-114528000D03*
X161727000Y-113878000D03*
X161727000Y-113228000D03*
X161727000Y-112578000D03*
X161727000Y-111928000D03*
X161727000Y-111278000D03*
X161727000Y-110628000D03*
X161727000Y-109978000D03*
X161727000Y-109328000D03*
X152341700Y-107156200D03*
X152341700Y-106506200D03*
X152341700Y-105856200D03*
X152341700Y-105206200D03*
X152341700Y-104556200D03*
X152341700Y-103906200D03*
X152341700Y-103256200D03*
X152341700Y-102606200D03*
X152341700Y-101956200D03*
X152341700Y-101306200D03*
X152341700Y-100656200D03*
X152341700Y-100006200D03*
X146641700Y-100006200D03*
X146641700Y-100656200D03*
X146641700Y-101306200D03*
X146641700Y-101956200D03*
X146641700Y-102606200D03*
X146641700Y-103256200D03*
X146641700Y-103906200D03*
X146641700Y-104556200D03*
X146641700Y-105206200D03*
X146641700Y-105856200D03*
X146641700Y-106506200D03*
X146641700Y-107156200D03*
D11*
X141338300Y-98336100D03*
D12*
X143878300Y-98336100D03*
X141338300Y-100876100D03*
X143878300Y-100876100D03*
X141338300Y-103416100D03*
X143878300Y-103416100D03*
X141338300Y-105956100D03*
X143878300Y-105956100D03*
X141338300Y-108496100D03*
X143878300Y-108496100D03*
X141338300Y-111036100D03*
X143878300Y-111036100D03*
X141338300Y-113576100D03*
X143878300Y-113576100D03*
X141338300Y-116116100D03*
X143878300Y-116116100D03*
X141338300Y-118656100D03*
X143878300Y-121196100D03*
X143878300Y-118656100D03*
X146418300Y-121196100D03*
X146418300Y-118656100D03*
X148958300Y-121196100D03*
X148958300Y-118656100D03*
X151498300Y-121196100D03*
X151498300Y-118656100D03*
X154038300Y-121196100D03*
X154038300Y-118656100D03*
X156578300Y-121196100D03*
X156578300Y-118656100D03*
X159118300Y-121196100D03*
X159118300Y-118656100D03*
X161658300Y-121196100D03*
X161658300Y-118656100D03*
X164198300Y-121196100D03*
X166738300Y-118656100D03*
X164198300Y-118656100D03*
X166738300Y-116116100D03*
X164198300Y-116116100D03*
X166738300Y-113576100D03*
X164198300Y-113576100D03*
X166738300Y-111036100D03*
X164198300Y-111036100D03*
X166738300Y-108496100D03*
X164198300Y-108496100D03*
X166738300Y-105956100D03*
X164198300Y-105956100D03*
X166738300Y-103416100D03*
X164198300Y-103416100D03*
X166738300Y-100876100D03*
X164198300Y-100876100D03*
X166738300Y-98336100D03*
X164198300Y-95796100D03*
X164198300Y-98336100D03*
X161658300Y-95796100D03*
X161658300Y-98336100D03*
X159118300Y-95796100D03*
X159118300Y-98336100D03*
X156578300Y-95796100D03*
X156578300Y-98336100D03*
X154038300Y-95796100D03*
X154038300Y-98336100D03*
X151498300Y-95796100D03*
X151498300Y-98336100D03*
X148958300Y-95796100D03*
X148958300Y-98336100D03*
X146418300Y-95796100D03*
X146418300Y-98336100D03*
X143878300Y-95796100D03*
D10*
X156027000Y-100107800D03*
X156027000Y-100757800D03*
X156027000Y-101407800D03*
X156027000Y-102057800D03*
X156027000Y-102707800D03*
X156027000Y-103357800D03*
X156027000Y-104007800D03*
X156027000Y-104657800D03*
X156027000Y-105307800D03*
X156027000Y-105957800D03*
X156027000Y-106607800D03*
X156027000Y-107257800D03*
X161727000Y-107257800D03*
X161727000Y-106607800D03*
X161727000Y-105957800D03*
X161727000Y-105307800D03*
X161727000Y-104657800D03*
X161727000Y-104007800D03*
X161727000Y-103357800D03*
X161727000Y-102707800D03*
X161727000Y-102057800D03*
X161727000Y-101407800D03*
X161727000Y-100757800D03*
X161727000Y-100107800D03*
D13*
X144148860Y-92141160D03*
X144798860Y-92141160D03*
X145448860Y-92141160D03*
X146098860Y-92141160D03*
X146748860Y-92141160D03*
X147398860Y-92141160D03*
X148048860Y-92141160D03*
X148698860Y-92141160D03*
X149348860Y-92141160D03*
X149998860Y-92141160D03*
X150648860Y-92141160D03*
X151298860Y-92141160D03*
X151298860Y-86441160D03*
X150648860Y-86441160D03*
X149998860Y-86441160D03*
X149348860Y-86441160D03*
X148698860Y-86441160D03*
X148048860Y-86441160D03*
X147398860Y-86441160D03*
X146748860Y-86441160D03*
X146098860Y-86441160D03*
X145448860Y-86441160D03*
X144798860Y-86441160D03*
X144148860Y-86441160D03*
D14*
X158477200Y-88291000D03*
X159427200Y-88291000D03*
X160377200Y-88291000D03*
X160377200Y-86091000D03*
X158477200Y-86091000D03*
D15*
X165007200Y-90401000D03*
X162957200Y-90401000D03*
D16*
X165557200Y-88176000D03*
X165557200Y-86126000D03*
D17*
X141576920Y-89351720D03*
X141576920Y-91401720D03*
D16*
X156297200Y-88321000D03*
X156297200Y-86271000D03*
D18*
X141576920Y-95891720D03*
X141576920Y-93391720D03*
D17*
X139232640Y-93620480D03*
X139232640Y-95670480D03*
X162957200Y-86131000D03*
X162957200Y-88181000D03*
D19*
X143467200Y-61871000D03*
X143467200Y-62371000D03*
X143467200Y-62871000D03*
X143467200Y-63371000D03*
X143467200Y-63871000D03*
X143467200Y-64371000D03*
X143467200Y-64871000D03*
X143467200Y-65371000D03*
X143467200Y-65871000D03*
X143467200Y-66371000D03*
X143467200Y-66871000D03*
X143467200Y-67371000D03*
X143467200Y-67871000D03*
X143467200Y-68371000D03*
X143467200Y-68871000D03*
X143467200Y-69371000D03*
X143467200Y-69871000D03*
X143467200Y-70371000D03*
X143467200Y-70871000D03*
X143467200Y-71371000D03*
X143467200Y-71871000D03*
X143467200Y-72371000D03*
X143467200Y-72871000D03*
X143467200Y-73371000D03*
X143467200Y-73871000D03*
X143467200Y-74371000D03*
X143467200Y-74871000D03*
X143467200Y-75371000D03*
X143467200Y-75871000D03*
X143467200Y-76371000D03*
X143467200Y-76871000D03*
X143467200Y-77371000D03*
X143467200Y-77871000D03*
X143467200Y-78371000D03*
X143467200Y-78871000D03*
X143467200Y-79371000D03*
D20*
X145387200Y-81291000D03*
X145887200Y-81291000D03*
X146387200Y-81291000D03*
X146887200Y-81291000D03*
X147387200Y-81291000D03*
X147887200Y-81291000D03*
X148387200Y-81291000D03*
X148887200Y-81291000D03*
X149387200Y-81291000D03*
X149887200Y-81291000D03*
X150387200Y-81291000D03*
X150887200Y-81291000D03*
X151387200Y-81291000D03*
X151887200Y-81291000D03*
X152387200Y-81291000D03*
X152887200Y-81291000D03*
X153387200Y-81291000D03*
X153887200Y-81291000D03*
X154387200Y-81291000D03*
X154887200Y-81291000D03*
X155387200Y-81291000D03*
X155887200Y-81291000D03*
X156387200Y-81291000D03*
X156887200Y-81291000D03*
X157387200Y-81291000D03*
X157887200Y-81291000D03*
X158387200Y-81291000D03*
X158887200Y-81291000D03*
X159387200Y-81291000D03*
X159887200Y-81291000D03*
X160387200Y-81291000D03*
X160887200Y-81291000D03*
X161387200Y-81291000D03*
X161887200Y-81291000D03*
X162387200Y-81291000D03*
X162887200Y-81291000D03*
D19*
X164807200Y-79371000D03*
X164807200Y-78871000D03*
X164807200Y-78371000D03*
X164807200Y-77871000D03*
X164807200Y-77371000D03*
X164807200Y-76871000D03*
X164807200Y-76371000D03*
X164807200Y-75871000D03*
X164807200Y-75371000D03*
X164807200Y-74871000D03*
X164807200Y-74371000D03*
X164807200Y-73871000D03*
X164807200Y-73371000D03*
X164807200Y-72871000D03*
X164807200Y-72371000D03*
X164807200Y-71871000D03*
X164807200Y-71371000D03*
X164807200Y-70871000D03*
X164807200Y-70371000D03*
X164807200Y-69871000D03*
X164807200Y-69371000D03*
X164807200Y-68871000D03*
X164807200Y-68371000D03*
X164807200Y-67871000D03*
X164807200Y-67371000D03*
X164807200Y-66871000D03*
X164807200Y-66371000D03*
X164807200Y-65871000D03*
X164807200Y-65371000D03*
X164807200Y-64871000D03*
X164807200Y-64371000D03*
X164807200Y-63871000D03*
X164807200Y-63371000D03*
X164807200Y-62871000D03*
X164807200Y-62371000D03*
X164807200Y-61871000D03*
D20*
X162887200Y-59951000D03*
X162387200Y-59951000D03*
X161887200Y-59951000D03*
X161387200Y-59951000D03*
X160887200Y-59951000D03*
X160387200Y-59951000D03*
X159887200Y-59951000D03*
X159387200Y-59951000D03*
X158887200Y-59951000D03*
X158387200Y-59951000D03*
X157887200Y-59951000D03*
X157387200Y-59951000D03*
X156887200Y-59951000D03*
X156387200Y-59951000D03*
X155887200Y-59951000D03*
X155387200Y-59951000D03*
X154887200Y-59951000D03*
X154387200Y-59951000D03*
X153887200Y-59951000D03*
X153387200Y-59951000D03*
X152887200Y-59951000D03*
X152387200Y-59951000D03*
X151887200Y-59951000D03*
X151387200Y-59951000D03*
X150887200Y-59951000D03*
X150387200Y-59951000D03*
X149887200Y-59951000D03*
X149387200Y-59951000D03*
X148887200Y-59951000D03*
X148387200Y-59951000D03*
X147887200Y-59951000D03*
X147387200Y-59951000D03*
X146887200Y-59951000D03*
X146387200Y-59951000D03*
X145887200Y-59951000D03*
X145387200Y-59951000D03*
D21*
X154137200Y-70621000D03*
D22*
X158385400Y-84378800D03*
X160435400Y-84378800D03*
D10*
X170392720Y-109328220D03*
X170392720Y-109978220D03*
X170392720Y-110628220D03*
X170392720Y-111278220D03*
X170392720Y-111928220D03*
X170392720Y-112578220D03*
X170392720Y-113228220D03*
X170392720Y-113878220D03*
X170392720Y-114528220D03*
X170392720Y-115178220D03*
X170392720Y-115828220D03*
X170392720Y-116478220D03*
X176092720Y-116478220D03*
X176092720Y-115828220D03*
X176092720Y-115178220D03*
X176092720Y-114528220D03*
X176092720Y-113878220D03*
X176092720Y-113228220D03*
X176092720Y-112578220D03*
X176092720Y-111928220D03*
X176092720Y-111278220D03*
X176092720Y-110628220D03*
X176092720Y-109978220D03*
X176092720Y-109328220D03*
D23*
X168139080Y-93154500D03*
X166389080Y-93154500D03*
D24*
X141325600Y-57711340D03*
D25*
X141325600Y-60251340D03*
X138785600Y-57711340D03*
X138785600Y-60251340D03*
X136245600Y-57711340D03*
X136245600Y-60251340D03*
X133705600Y-57711340D03*
X133705600Y-60251340D03*
X131165600Y-57711340D03*
X131165600Y-60251340D03*
D24*
X131620260Y-69113400D03*
D25*
X131620260Y-71653400D03*
D26*
X175844200Y-59954160D03*
X174574200Y-59954160D03*
X173304200Y-59954160D03*
X172034200Y-59954160D03*
X172034200Y-67574160D03*
X173304200Y-67574160D03*
X174574200Y-67574160D03*
X175844200Y-67574160D03*
D27*
X134149040Y-78034600D03*
X134149040Y-78684600D03*
X134149040Y-79334600D03*
X134149040Y-79984600D03*
X134149040Y-80634600D03*
X134149040Y-81284600D03*
X134149040Y-81934600D03*
X140049040Y-81934600D03*
X140049040Y-81284600D03*
X140049040Y-80634600D03*
X140049040Y-79984600D03*
X140049040Y-79334600D03*
X140049040Y-78684600D03*
X140049040Y-78034600D03*
M02*
