G04 #@! TF.GenerationSoftware,KiCad,Pcbnew,(6.0.0)*
G04 #@! TF.CreationDate,2022-07-21T19:31:28+01:00*
G04 #@! TF.ProjectId,ElectronULA,456c6563-7472-46f6-9e55-4c412e6b6963,rev?*
G04 #@! TF.SameCoordinates,Original*
G04 #@! TF.FileFunction,Legend,Top*
G04 #@! TF.FilePolarity,Positive*
%FSLAX46Y46*%
G04 Gerber Fmt 4.6, Leading zero omitted, Abs format (unit mm)*
G04 Created by KiCad (PCBNEW (6.0.0)) date 2022-07-21 19:31:28*
%MOMM*%
%LPD*%
G01*
G04 APERTURE LIST*
G04 Aperture macros list*
%AMRoundRect*
0 Rectangle with rounded corners*
0 $1 Rounding radius*
0 $2 $3 $4 $5 $6 $7 $8 $9 X,Y pos of 4 corners*
0 Add a 4 corners polygon primitive as box body*
4,1,4,$2,$3,$4,$5,$6,$7,$8,$9,$2,$3,0*
0 Add four circle primitives for the rounded corners*
1,1,$1+$1,$2,$3*
1,1,$1+$1,$4,$5*
1,1,$1+$1,$6,$7*
1,1,$1+$1,$8,$9*
0 Add four rect primitives between the rounded corners*
20,1,$1+$1,$2,$3,$4,$5,0*
20,1,$1+$1,$4,$5,$6,$7,0*
20,1,$1+$1,$6,$7,$8,$9,0*
20,1,$1+$1,$8,$9,$2,$3,0*%
G04 Aperture macros list end*
%ADD10C,0.200000*%
%ADD11C,0.150000*%
%ADD12C,0.125000*%
%ADD13C,0.120000*%
%ADD14C,0.127000*%
%ADD15R,1.100000X0.400000*%
%ADD16R,1.422400X1.422400*%
%ADD17C,1.422400*%
%ADD18R,0.400000X1.100000*%
%ADD19R,0.650000X1.060000*%
%ADD20RoundRect,0.249999X0.325001X0.450001X-0.325001X0.450001X-0.325001X-0.450001X0.325001X-0.450001X0*%
%ADD21RoundRect,0.249999X0.450001X-0.325001X0.450001X0.325001X-0.450001X0.325001X-0.450001X-0.325001X0*%
%ADD22RoundRect,0.249999X-0.450001X0.325001X-0.450001X-0.325001X0.450001X-0.325001X0.450001X0.325001X0*%
%ADD23R,1.000000X1.000000*%
%ADD24R,1.470000X0.280000*%
%ADD25R,0.280000X1.470000*%
%ADD26R,8.930000X8.700000*%
%ADD27RoundRect,0.249999X-0.325001X-0.450001X0.325001X-0.450001X0.325001X0.450001X-0.325001X0.450001X0*%
%ADD28RoundRect,0.237500X0.287500X0.237500X-0.287500X0.237500X-0.287500X-0.237500X0.287500X-0.237500X0*%
%ADD29R,1.700000X1.700000*%
%ADD30O,1.700000X1.700000*%
%ADD31R,0.760000X1.600000*%
%ADD32R,1.450000X0.450000*%
G04 APERTURE END LIST*
D10*
X141890405Y-94284847D02*
X141604691Y-95046752D01*
X141318977Y-94284847D01*
D11*
X133802215Y-68641340D02*
X133706977Y-68593720D01*
X133564120Y-68593720D01*
X133421262Y-68641340D01*
X133326024Y-68736578D01*
X133278405Y-68831816D01*
X133230786Y-69022292D01*
X133230786Y-69165149D01*
X133278405Y-69355625D01*
X133326024Y-69450863D01*
X133421262Y-69546101D01*
X133564120Y-69593720D01*
X133659358Y-69593720D01*
X133802215Y-69546101D01*
X133849834Y-69498482D01*
X133849834Y-69165149D01*
X133659358Y-69165149D01*
X134278405Y-69593720D02*
X134278405Y-68593720D01*
X134849834Y-69593720D01*
X134849834Y-68593720D01*
X135326024Y-69593720D02*
X135326024Y-68593720D01*
X135564120Y-68593720D01*
X135706977Y-68641340D01*
X135802215Y-68736578D01*
X135849834Y-68831816D01*
X135897453Y-69022292D01*
X135897453Y-69165149D01*
X135849834Y-69355625D01*
X135802215Y-69450863D01*
X135706977Y-69546101D01*
X135564120Y-69593720D01*
X135326024Y-69593720D01*
X133259580Y-64243103D02*
X133259580Y-63671675D01*
X134259580Y-63957389D02*
X133259580Y-63957389D01*
X134259580Y-63338341D02*
X133259580Y-63338341D01*
X133259580Y-63100246D01*
X133307200Y-62957389D01*
X133402438Y-62862151D01*
X133497676Y-62814532D01*
X133688152Y-62766913D01*
X133831009Y-62766913D01*
X134021485Y-62814532D01*
X134116723Y-62862151D01*
X134211961Y-62957389D01*
X134259580Y-63100246D01*
X134259580Y-63338341D01*
X133259580Y-62147865D02*
X133259580Y-61957389D01*
X133307200Y-61862151D01*
X133402438Y-61766913D01*
X133592914Y-61719294D01*
X133926247Y-61719294D01*
X134116723Y-61766913D01*
X134211961Y-61862151D01*
X134259580Y-61957389D01*
X134259580Y-62147865D01*
X134211961Y-62243103D01*
X134116723Y-62338341D01*
X133926247Y-62385960D01*
X133592914Y-62385960D01*
X133402438Y-62338341D01*
X133307200Y-62243103D01*
X133259580Y-62147865D01*
X140836400Y-63693229D02*
X140836400Y-63121800D01*
X141836400Y-63407515D02*
X140836400Y-63407515D01*
X141836400Y-62788467D02*
X140836400Y-62788467D01*
X140836400Y-62550372D01*
X140884020Y-62407515D01*
X140979258Y-62312277D01*
X141074496Y-62264658D01*
X141264972Y-62217039D01*
X141407829Y-62217039D01*
X141598305Y-62264658D01*
X141693543Y-62312277D01*
X141788781Y-62407515D01*
X141836400Y-62550372D01*
X141836400Y-62788467D01*
X141836400Y-61788467D02*
X140836400Y-61788467D01*
X143411035Y-57300240D02*
X143315797Y-57252620D01*
X143172940Y-57252620D01*
X143030082Y-57300240D01*
X142934844Y-57395478D01*
X142887225Y-57490716D01*
X142839606Y-57681192D01*
X142839606Y-57824049D01*
X142887225Y-58014525D01*
X142934844Y-58109763D01*
X143030082Y-58205001D01*
X143172940Y-58252620D01*
X143268178Y-58252620D01*
X143411035Y-58205001D01*
X143458654Y-58157382D01*
X143458654Y-57824049D01*
X143268178Y-57824049D01*
X143887225Y-58252620D02*
X143887225Y-57252620D01*
X144458654Y-58252620D01*
X144458654Y-57252620D01*
X144934844Y-58252620D02*
X144934844Y-57252620D01*
X145172940Y-57252620D01*
X145315797Y-57300240D01*
X145411035Y-57395478D01*
X145458654Y-57490716D01*
X145506273Y-57681192D01*
X145506273Y-57824049D01*
X145458654Y-58014525D01*
X145411035Y-58109763D01*
X145315797Y-58205001D01*
X145172940Y-58252620D01*
X144934844Y-58252620D01*
X177735811Y-60658131D02*
X176878668Y-60658131D01*
X177307240Y-60658131D02*
X177307240Y-59158131D01*
X177164382Y-59372417D01*
X177021525Y-59515274D01*
X176878668Y-59586702D01*
X133135334Y-78481180D02*
X132563905Y-78481180D01*
X132849620Y-78481180D02*
X132849620Y-77481180D01*
X132754381Y-77624038D01*
X132659143Y-77719276D01*
X132563905Y-77766895D01*
X135845300Y-64305013D02*
X135845300Y-63733584D01*
X136845300Y-64019299D02*
X135845300Y-64019299D01*
X136845300Y-63400251D02*
X135845300Y-63400251D01*
X136559586Y-63066918D01*
X135845300Y-62733584D01*
X136845300Y-62733584D01*
X136797681Y-62305013D02*
X136845300Y-62162156D01*
X136845300Y-61924060D01*
X136797681Y-61828822D01*
X136750062Y-61781203D01*
X136654824Y-61733584D01*
X136559586Y-61733584D01*
X136464348Y-61781203D01*
X136416729Y-61828822D01*
X136369110Y-61924060D01*
X136321491Y-62114537D01*
X136273872Y-62209775D01*
X136226253Y-62257394D01*
X136131015Y-62305013D01*
X136035777Y-62305013D01*
X135940539Y-62257394D01*
X135892920Y-62209775D01*
X135845300Y-62114537D01*
X135845300Y-61876441D01*
X135892920Y-61733584D01*
X154141134Y-107637840D02*
X153569705Y-107637840D01*
X153855420Y-107637840D02*
X153855420Y-106637840D01*
X153760181Y-106780698D01*
X153664943Y-106875936D01*
X153569705Y-106923555D01*
X143903011Y-61298211D02*
X143045868Y-61298211D01*
X143474440Y-61298211D02*
X143474440Y-59798211D01*
X143331582Y-60012497D01*
X143188725Y-60155354D01*
X143045868Y-60226782D01*
X148397080Y-58587900D02*
X147825652Y-58587900D01*
X148111366Y-58587900D02*
X148111366Y-57587900D01*
X148016128Y-57730758D01*
X147920890Y-57825996D01*
X147825652Y-57873615D01*
X149016128Y-57587900D02*
X149111366Y-57587900D01*
X149206604Y-57635520D01*
X149254223Y-57683139D01*
X149301842Y-57778377D01*
X149349461Y-57968853D01*
X149349461Y-58206948D01*
X149301842Y-58397424D01*
X149254223Y-58492662D01*
X149206604Y-58540281D01*
X149111366Y-58587900D01*
X149016128Y-58587900D01*
X148920890Y-58540281D01*
X148873271Y-58492662D01*
X148825652Y-58397424D01*
X148778033Y-58206948D01*
X148778033Y-57968853D01*
X148825652Y-57778377D01*
X148873271Y-57683139D01*
X148920890Y-57635520D01*
X149016128Y-57587900D01*
X149778033Y-58587900D02*
X149778033Y-57587900D01*
X150111366Y-58302186D01*
X150444700Y-57587900D01*
X150444700Y-58587900D01*
X151111366Y-57587900D02*
X151206604Y-57587900D01*
X151301842Y-57635520D01*
X151349461Y-57683139D01*
X151397080Y-57778377D01*
X151444700Y-57968853D01*
X151444700Y-58206948D01*
X151397080Y-58397424D01*
X151349461Y-58492662D01*
X151301842Y-58540281D01*
X151206604Y-58587900D01*
X151111366Y-58587900D01*
X151016128Y-58540281D01*
X150968509Y-58492662D01*
X150920890Y-58397424D01*
X150873271Y-58206948D01*
X150873271Y-57968853D01*
X150920890Y-57778377D01*
X150968509Y-57683139D01*
X151016128Y-57635520D01*
X151111366Y-57587900D01*
X152016128Y-58016472D02*
X151920890Y-57968853D01*
X151873271Y-57921234D01*
X151825652Y-57825996D01*
X151825652Y-57778377D01*
X151873271Y-57683139D01*
X151920890Y-57635520D01*
X152016128Y-57587900D01*
X152206604Y-57587900D01*
X152301842Y-57635520D01*
X152349461Y-57683139D01*
X152397080Y-57778377D01*
X152397080Y-57825996D01*
X152349461Y-57921234D01*
X152301842Y-57968853D01*
X152206604Y-58016472D01*
X152016128Y-58016472D01*
X151920890Y-58064091D01*
X151873271Y-58111710D01*
X151825652Y-58206948D01*
X151825652Y-58397424D01*
X151873271Y-58492662D01*
X151920890Y-58540281D01*
X152016128Y-58587900D01*
X152206604Y-58587900D01*
X152301842Y-58540281D01*
X152349461Y-58492662D01*
X152397080Y-58397424D01*
X152397080Y-58206948D01*
X152349461Y-58111710D01*
X152301842Y-58064091D01*
X152206604Y-58016472D01*
X152778033Y-58540281D02*
X152920890Y-58587900D01*
X153158985Y-58587900D01*
X153254223Y-58540281D01*
X153301842Y-58492662D01*
X153349461Y-58397424D01*
X153349461Y-58302186D01*
X153301842Y-58206948D01*
X153254223Y-58159329D01*
X153158985Y-58111710D01*
X152968509Y-58064091D01*
X152873271Y-58016472D01*
X152825652Y-57968853D01*
X152778033Y-57873615D01*
X152778033Y-57778377D01*
X152825652Y-57683139D01*
X152873271Y-57635520D01*
X152968509Y-57587900D01*
X153206604Y-57587900D01*
X153349461Y-57635520D01*
X154349461Y-58492662D02*
X154301842Y-58540281D01*
X154158985Y-58587900D01*
X154063747Y-58587900D01*
X153920890Y-58540281D01*
X153825652Y-58445043D01*
X153778033Y-58349805D01*
X153730414Y-58159329D01*
X153730414Y-58016472D01*
X153778033Y-57825996D01*
X153825652Y-57730758D01*
X153920890Y-57635520D01*
X154063747Y-57587900D01*
X154158985Y-57587900D01*
X154301842Y-57635520D01*
X154349461Y-57683139D01*
X154778033Y-58064091D02*
X155111366Y-58064091D01*
X155254223Y-58587900D02*
X154778033Y-58587900D01*
X154778033Y-57587900D01*
X155254223Y-57587900D01*
X156206604Y-58587900D02*
X155635176Y-58587900D01*
X155920890Y-58587900D02*
X155920890Y-57587900D01*
X155825652Y-57730758D01*
X155730414Y-57825996D01*
X155635176Y-57873615D01*
X157063747Y-57921234D02*
X157063747Y-58587900D01*
X156825652Y-57540281D02*
X156587557Y-58254567D01*
X157206604Y-58254567D01*
X158016128Y-57921234D02*
X158016128Y-58587900D01*
X157778033Y-57540281D02*
X157539938Y-58254567D01*
X158158985Y-58254567D01*
X159111366Y-58492662D02*
X159063747Y-58540281D01*
X158920890Y-58587900D01*
X158825652Y-58587900D01*
X158682795Y-58540281D01*
X158587557Y-58445043D01*
X158539938Y-58349805D01*
X158492319Y-58159329D01*
X158492319Y-58016472D01*
X158539938Y-57825996D01*
X158587557Y-57730758D01*
X158682795Y-57635520D01*
X158825652Y-57587900D01*
X158920890Y-57587900D01*
X159063747Y-57635520D01*
X159111366Y-57683139D01*
X159682795Y-58016472D02*
X159587557Y-57968853D01*
X159539938Y-57921234D01*
X159492319Y-57825996D01*
X159492319Y-57778377D01*
X159539938Y-57683139D01*
X159587557Y-57635520D01*
X159682795Y-57587900D01*
X159873271Y-57587900D01*
X159968509Y-57635520D01*
X160016128Y-57683139D01*
X160063747Y-57778377D01*
X160063747Y-57825996D01*
X160016128Y-57921234D01*
X159968509Y-57968853D01*
X159873271Y-58016472D01*
X159682795Y-58016472D01*
X159587557Y-58064091D01*
X159539938Y-58111710D01*
X159492319Y-58206948D01*
X159492319Y-58397424D01*
X159539938Y-58492662D01*
X159587557Y-58540281D01*
X159682795Y-58587900D01*
X159873271Y-58587900D01*
X159968509Y-58540281D01*
X160016128Y-58492662D01*
X160063747Y-58397424D01*
X160063747Y-58206948D01*
X160016128Y-58111710D01*
X159968509Y-58064091D01*
X159873271Y-58016472D01*
X161016128Y-57635520D02*
X160920890Y-57587900D01*
X160778033Y-57587900D01*
X160635176Y-57635520D01*
X160539938Y-57730758D01*
X160492319Y-57825996D01*
X160444700Y-58016472D01*
X160444700Y-58159329D01*
X160492319Y-58349805D01*
X160539938Y-58445043D01*
X160635176Y-58540281D01*
X160778033Y-58587900D01*
X160873271Y-58587900D01*
X161016128Y-58540281D01*
X161063747Y-58492662D01*
X161063747Y-58159329D01*
X160873271Y-58159329D01*
X169391294Y-109713020D02*
X168819865Y-109713020D01*
X169105580Y-109713020D02*
X169105580Y-108713020D01*
X169010341Y-108855878D01*
X168915103Y-108951116D01*
X168819865Y-108998735D01*
X130653540Y-64239614D02*
X130653540Y-63668185D01*
X131653540Y-63953900D02*
X130653540Y-63953900D01*
X131558302Y-62763423D02*
X131605921Y-62811042D01*
X131653540Y-62953900D01*
X131653540Y-63049138D01*
X131605921Y-63191995D01*
X131510683Y-63287233D01*
X131415445Y-63334852D01*
X131224969Y-63382471D01*
X131082112Y-63382471D01*
X130891636Y-63334852D01*
X130796398Y-63287233D01*
X130701160Y-63191995D01*
X130653540Y-63049138D01*
X130653540Y-62953900D01*
X130701160Y-62811042D01*
X130748779Y-62763423D01*
X131653540Y-62334852D02*
X130653540Y-62334852D01*
X131653540Y-61763423D02*
X131082112Y-62191995D01*
X130653540Y-61763423D02*
X131224969Y-62334852D01*
X153770294Y-116929160D02*
X153198865Y-116929160D01*
X153484580Y-116929160D02*
X153484580Y-115929160D01*
X153389341Y-116072018D01*
X153294103Y-116167256D01*
X153198865Y-116214875D01*
X143473134Y-92491820D02*
X142901705Y-92491820D01*
X143187420Y-92491820D02*
X143187420Y-91491820D01*
X143092181Y-91634678D01*
X142996943Y-91729916D01*
X142901705Y-91777535D01*
X155304454Y-109766360D02*
X154733025Y-109766360D01*
X155018740Y-109766360D02*
X155018740Y-108766360D01*
X154923501Y-108909218D01*
X154828263Y-109004456D01*
X154733025Y-109052075D01*
D12*
X176712571Y-99629859D02*
X176712571Y-99296525D01*
X177236380Y-99153668D02*
X177236380Y-99629859D01*
X176236380Y-99629859D01*
X176236380Y-99153668D01*
X177236380Y-98582240D02*
X177188761Y-98677478D01*
X177093523Y-98725097D01*
X176236380Y-98725097D01*
X177188761Y-97820335D02*
X177236380Y-97915573D01*
X177236380Y-98106049D01*
X177188761Y-98201287D01*
X177093523Y-98248906D01*
X176712571Y-98248906D01*
X176617333Y-98201287D01*
X176569714Y-98106049D01*
X176569714Y-97915573D01*
X176617333Y-97820335D01*
X176712571Y-97772716D01*
X176807809Y-97772716D01*
X176903047Y-98248906D01*
X177188761Y-96915573D02*
X177236380Y-97010811D01*
X177236380Y-97201287D01*
X177188761Y-97296525D01*
X177141142Y-97344144D01*
X177045904Y-97391763D01*
X176760190Y-97391763D01*
X176664952Y-97344144D01*
X176617333Y-97296525D01*
X176569714Y-97201287D01*
X176569714Y-97010811D01*
X176617333Y-96915573D01*
X176569714Y-96629859D02*
X176569714Y-96248906D01*
X176236380Y-96487001D02*
X177093523Y-96487001D01*
X177188761Y-96439382D01*
X177236380Y-96344144D01*
X177236380Y-96248906D01*
X177236380Y-95915573D02*
X176569714Y-95915573D01*
X176760190Y-95915573D02*
X176664952Y-95867954D01*
X176617333Y-95820335D01*
X176569714Y-95725097D01*
X176569714Y-95629859D01*
X177236380Y-95153668D02*
X177188761Y-95248906D01*
X177141142Y-95296525D01*
X177045904Y-95344144D01*
X176760190Y-95344144D01*
X176664952Y-95296525D01*
X176617333Y-95248906D01*
X176569714Y-95153668D01*
X176569714Y-95010811D01*
X176617333Y-94915573D01*
X176664952Y-94867954D01*
X176760190Y-94820335D01*
X177045904Y-94820335D01*
X177141142Y-94867954D01*
X177188761Y-94915573D01*
X177236380Y-95010811D01*
X177236380Y-95153668D01*
X176569714Y-94391763D02*
X177236380Y-94391763D01*
X176664952Y-94391763D02*
X176617333Y-94344144D01*
X176569714Y-94248906D01*
X176569714Y-94106049D01*
X176617333Y-94010811D01*
X176712571Y-93963192D01*
X177236380Y-93963192D01*
X176236380Y-92725097D02*
X177045904Y-92725097D01*
X177141142Y-92677478D01*
X177188761Y-92629859D01*
X177236380Y-92534620D01*
X177236380Y-92344144D01*
X177188761Y-92248906D01*
X177141142Y-92201287D01*
X177045904Y-92153668D01*
X176236380Y-92153668D01*
X177236380Y-91201287D02*
X177236380Y-91677478D01*
X176236380Y-91677478D01*
X176950666Y-90915573D02*
X176950666Y-90439382D01*
X177236380Y-91010811D02*
X176236380Y-90677478D01*
X177236380Y-90344144D01*
X176855428Y-89248906D02*
X176855428Y-88487001D01*
X176236380Y-87391763D02*
X177236380Y-87058430D01*
X176236380Y-86725097D01*
X177236380Y-85867954D02*
X177236380Y-86439382D01*
X177236380Y-86153668D02*
X176236380Y-86153668D01*
X176379238Y-86248906D01*
X176474476Y-86344144D01*
X176522095Y-86439382D01*
X177141142Y-85439382D02*
X177188761Y-85391763D01*
X177236380Y-85439382D01*
X177188761Y-85487001D01*
X177141142Y-85439382D01*
X177236380Y-85439382D01*
X176236380Y-84772716D02*
X176236380Y-84677478D01*
X176284000Y-84582240D01*
X176331619Y-84534620D01*
X176426857Y-84487001D01*
X176617333Y-84439382D01*
X176855428Y-84439382D01*
X177045904Y-84487001D01*
X177141142Y-84534620D01*
X177188761Y-84582240D01*
X177236380Y-84677478D01*
X177236380Y-84772716D01*
X177188761Y-84867954D01*
X177141142Y-84915573D01*
X177045904Y-84963192D01*
X176855428Y-85010811D01*
X176617333Y-85010811D01*
X176426857Y-84963192D01*
X176331619Y-84915573D01*
X176284000Y-84867954D01*
X176236380Y-84772716D01*
X176569714Y-83582240D02*
X177236380Y-83582240D01*
X176188761Y-83820335D02*
X176903047Y-84058430D01*
X176903047Y-83439382D01*
D11*
X155027594Y-100497900D02*
X154456165Y-100497900D01*
X154741880Y-100497900D02*
X154741880Y-99497900D01*
X154646641Y-99640758D01*
X154551403Y-99735996D01*
X154456165Y-99783615D01*
X133784363Y-71154040D02*
X133308173Y-71154040D01*
X133260554Y-71630231D01*
X133308173Y-71582612D01*
X133403411Y-71534993D01*
X133641506Y-71534993D01*
X133736744Y-71582612D01*
X133784363Y-71630231D01*
X133831982Y-71725469D01*
X133831982Y-71963564D01*
X133784363Y-72058802D01*
X133736744Y-72106421D01*
X133641506Y-72154040D01*
X133403411Y-72154040D01*
X133308173Y-72106421D01*
X133260554Y-72058802D01*
X134117697Y-71154040D02*
X134451030Y-72154040D01*
X134784363Y-71154040D01*
X144297495Y-109266740D02*
X144297495Y-110076264D01*
X144345114Y-110171502D01*
X144392733Y-110219121D01*
X144487971Y-110266740D01*
X144678447Y-110266740D01*
X144773685Y-110219121D01*
X144821304Y-110171502D01*
X144868923Y-110076264D01*
X144868923Y-109266740D01*
X145297495Y-109361979D02*
X145345114Y-109314360D01*
X145440352Y-109266740D01*
X145678447Y-109266740D01*
X145773685Y-109314360D01*
X145821304Y-109361979D01*
X145868923Y-109457217D01*
X145868923Y-109552455D01*
X145821304Y-109695312D01*
X145249876Y-110266740D01*
X145868923Y-110266740D01*
X162471195Y-109190540D02*
X162471195Y-110000064D01*
X162518814Y-110095302D01*
X162566433Y-110142921D01*
X162661671Y-110190540D01*
X162852147Y-110190540D01*
X162947385Y-110142921D01*
X162995004Y-110095302D01*
X163042623Y-110000064D01*
X163042623Y-109190540D01*
X163947385Y-109190540D02*
X163756909Y-109190540D01*
X163661671Y-109238160D01*
X163614052Y-109285779D01*
X163518814Y-109428636D01*
X163471195Y-109619112D01*
X163471195Y-110000064D01*
X163518814Y-110095302D01*
X163566433Y-110142921D01*
X163661671Y-110190540D01*
X163852147Y-110190540D01*
X163947385Y-110142921D01*
X163995004Y-110095302D01*
X164042623Y-110000064D01*
X164042623Y-109761969D01*
X163995004Y-109666731D01*
X163947385Y-109619112D01*
X163852147Y-109571493D01*
X163661671Y-109571493D01*
X163566433Y-109619112D01*
X163518814Y-109666731D01*
X163471195Y-109761969D01*
X144297495Y-99208340D02*
X144297495Y-100017864D01*
X144345114Y-100113102D01*
X144392733Y-100160721D01*
X144487971Y-100208340D01*
X144678447Y-100208340D01*
X144773685Y-100160721D01*
X144821304Y-100113102D01*
X144868923Y-100017864D01*
X144868923Y-99208340D01*
X145773685Y-99541674D02*
X145773685Y-100208340D01*
X145535590Y-99160721D02*
X145297495Y-99875007D01*
X145916542Y-99875007D01*
X153276395Y-91423480D02*
X153276395Y-92233004D01*
X153324014Y-92328242D01*
X153371633Y-92375861D01*
X153466871Y-92423480D01*
X153657347Y-92423480D01*
X153752585Y-92375861D01*
X153800204Y-92328242D01*
X153847823Y-92233004D01*
X153847823Y-91423480D01*
X154371633Y-92423480D02*
X154562109Y-92423480D01*
X154657347Y-92375861D01*
X154704966Y-92328242D01*
X154800204Y-92185385D01*
X154847823Y-91994909D01*
X154847823Y-91613957D01*
X154800204Y-91518719D01*
X154752585Y-91471100D01*
X154657347Y-91423480D01*
X154466871Y-91423480D01*
X154371633Y-91471100D01*
X154324014Y-91518719D01*
X154276395Y-91613957D01*
X154276395Y-91852052D01*
X154324014Y-91947290D01*
X154371633Y-91994909D01*
X154466871Y-92042528D01*
X154657347Y-92042528D01*
X154752585Y-91994909D01*
X154800204Y-91947290D01*
X154847823Y-91852052D01*
X162552475Y-99256600D02*
X162552475Y-100066124D01*
X162600094Y-100161362D01*
X162647713Y-100208981D01*
X162742951Y-100256600D01*
X162933427Y-100256600D01*
X163028665Y-100208981D01*
X163076284Y-100161362D01*
X163123903Y-100066124D01*
X163123903Y-99256600D01*
X163504856Y-99256600D02*
X164123903Y-99256600D01*
X163790570Y-99637553D01*
X163933427Y-99637553D01*
X164028665Y-99685172D01*
X164076284Y-99732791D01*
X164123903Y-99828029D01*
X164123903Y-100066124D01*
X164076284Y-100161362D01*
X164028665Y-100208981D01*
X163933427Y-100256600D01*
X163647713Y-100256600D01*
X163552475Y-100208981D01*
X163504856Y-100161362D01*
X147005295Y-84149940D02*
X147005295Y-84959464D01*
X147052914Y-85054702D01*
X147100533Y-85102321D01*
X147195771Y-85149940D01*
X147386247Y-85149940D01*
X147481485Y-85102321D01*
X147529104Y-85054702D01*
X147576723Y-84959464D01*
X147576723Y-84149940D01*
X147957676Y-84149940D02*
X148624342Y-84149940D01*
X148195771Y-85149940D01*
X158359104Y-90188142D02*
X158311485Y-90235761D01*
X158168628Y-90283380D01*
X158073390Y-90283380D01*
X157930533Y-90235761D01*
X157835295Y-90140523D01*
X157787676Y-90045285D01*
X157740057Y-89854809D01*
X157740057Y-89711952D01*
X157787676Y-89521476D01*
X157835295Y-89426238D01*
X157930533Y-89331000D01*
X158073390Y-89283380D01*
X158168628Y-89283380D01*
X158311485Y-89331000D01*
X158359104Y-89378619D01*
X158787676Y-90283380D02*
X158787676Y-89283380D01*
X159121009Y-89997666D01*
X159454342Y-89283380D01*
X159454342Y-90283380D01*
X159930533Y-90283380D02*
X159930533Y-89283380D01*
X160311485Y-89283380D01*
X160406723Y-89331000D01*
X160454342Y-89378619D01*
X160501961Y-89473857D01*
X160501961Y-89616714D01*
X160454342Y-89711952D01*
X160406723Y-89759571D01*
X160311485Y-89807190D01*
X159930533Y-89807190D01*
X161454342Y-90283380D02*
X160882914Y-90283380D01*
X161168628Y-90283380D02*
X161168628Y-89283380D01*
X161073390Y-89426238D01*
X160978152Y-89521476D01*
X160882914Y-89569095D01*
X163324302Y-92460082D02*
X163276683Y-92507701D01*
X163133826Y-92555320D01*
X163038588Y-92555320D01*
X162895731Y-92507701D01*
X162800493Y-92412463D01*
X162752874Y-92317225D01*
X162705255Y-92126749D01*
X162705255Y-91983892D01*
X162752874Y-91793416D01*
X162800493Y-91698178D01*
X162895731Y-91602940D01*
X163038588Y-91555320D01*
X163133826Y-91555320D01*
X163276683Y-91602940D01*
X163324302Y-91650559D01*
X163705255Y-91650559D02*
X163752874Y-91602940D01*
X163848112Y-91555320D01*
X164086207Y-91555320D01*
X164181445Y-91602940D01*
X164229064Y-91650559D01*
X164276683Y-91745797D01*
X164276683Y-91841035D01*
X164229064Y-91983892D01*
X163657636Y-92555320D01*
X164276683Y-92555320D01*
X164895731Y-91555320D02*
X164990969Y-91555320D01*
X165086207Y-91602940D01*
X165133826Y-91650559D01*
X165181445Y-91745797D01*
X165229064Y-91936273D01*
X165229064Y-92174368D01*
X165181445Y-92364844D01*
X165133826Y-92460082D01*
X165086207Y-92507701D01*
X164990969Y-92555320D01*
X164895731Y-92555320D01*
X164800493Y-92507701D01*
X164752874Y-92460082D01*
X164705255Y-92364844D01*
X164657636Y-92174368D01*
X164657636Y-91936273D01*
X164705255Y-91745797D01*
X164752874Y-91650559D01*
X164800493Y-91602940D01*
X164895731Y-91555320D01*
X165349893Y-85044540D02*
X165016560Y-84568350D01*
X164778464Y-85044540D02*
X164778464Y-84044540D01*
X165159417Y-84044540D01*
X165254655Y-84092160D01*
X165302274Y-84139779D01*
X165349893Y-84235017D01*
X165349893Y-84377874D01*
X165302274Y-84473112D01*
X165254655Y-84520731D01*
X165159417Y-84568350D01*
X164778464Y-84568350D01*
X165683226Y-84044540D02*
X166302274Y-84044540D01*
X165968940Y-84425493D01*
X166111798Y-84425493D01*
X166207036Y-84473112D01*
X166254655Y-84520731D01*
X166302274Y-84615969D01*
X166302274Y-84854064D01*
X166254655Y-84949302D01*
X166207036Y-84996921D01*
X166111798Y-85044540D01*
X165826083Y-85044540D01*
X165730845Y-84996921D01*
X165683226Y-84949302D01*
X141412933Y-88336380D02*
X141079600Y-87860190D01*
X140841504Y-88336380D02*
X140841504Y-87336380D01*
X141222457Y-87336380D01*
X141317695Y-87384000D01*
X141365314Y-87431619D01*
X141412933Y-87526857D01*
X141412933Y-87669714D01*
X141365314Y-87764952D01*
X141317695Y-87812571D01*
X141222457Y-87860190D01*
X140841504Y-87860190D01*
X142270076Y-87336380D02*
X142079600Y-87336380D01*
X141984361Y-87384000D01*
X141936742Y-87431619D01*
X141841504Y-87574476D01*
X141793885Y-87764952D01*
X141793885Y-88145904D01*
X141841504Y-88241142D01*
X141889123Y-88288761D01*
X141984361Y-88336380D01*
X142174838Y-88336380D01*
X142270076Y-88288761D01*
X142317695Y-88241142D01*
X142365314Y-88145904D01*
X142365314Y-87907809D01*
X142317695Y-87812571D01*
X142270076Y-87764952D01*
X142174838Y-87717333D01*
X141984361Y-87717333D01*
X141889123Y-87764952D01*
X141841504Y-87812571D01*
X141793885Y-87907809D01*
X156195733Y-85059780D02*
X155862400Y-84583590D01*
X155624304Y-85059780D02*
X155624304Y-84059780D01*
X156005257Y-84059780D01*
X156100495Y-84107400D01*
X156148114Y-84155019D01*
X156195733Y-84250257D01*
X156195733Y-84393114D01*
X156148114Y-84488352D01*
X156100495Y-84535971D01*
X156005257Y-84583590D01*
X155624304Y-84583590D01*
X157100495Y-84059780D02*
X156624304Y-84059780D01*
X156576685Y-84535971D01*
X156624304Y-84488352D01*
X156719542Y-84440733D01*
X156957638Y-84440733D01*
X157052876Y-84488352D01*
X157100495Y-84535971D01*
X157148114Y-84631209D01*
X157148114Y-84869304D01*
X157100495Y-84964542D01*
X157052876Y-85012161D01*
X156957638Y-85059780D01*
X156719542Y-85059780D01*
X156624304Y-85012161D01*
X156576685Y-84964542D01*
X142832864Y-94478100D02*
X142832864Y-93478100D01*
X143070960Y-93478100D01*
X143213817Y-93525720D01*
X143309055Y-93620958D01*
X143356674Y-93716196D01*
X143404293Y-93906672D01*
X143404293Y-94049529D01*
X143356674Y-94240005D01*
X143309055Y-94335243D01*
X143213817Y-94430481D01*
X143070960Y-94478100D01*
X142832864Y-94478100D01*
X144356674Y-94478100D02*
X143785245Y-94478100D01*
X144070960Y-94478100D02*
X144070960Y-93478100D01*
X143975721Y-93620958D01*
X143880483Y-93716196D01*
X143785245Y-93763815D01*
X137272733Y-95245180D02*
X136939400Y-94768990D01*
X136701304Y-95245180D02*
X136701304Y-94245180D01*
X137082257Y-94245180D01*
X137177495Y-94292800D01*
X137225114Y-94340419D01*
X137272733Y-94435657D01*
X137272733Y-94578514D01*
X137225114Y-94673752D01*
X137177495Y-94721371D01*
X137082257Y-94768990D01*
X136701304Y-94768990D01*
X138225114Y-95245180D02*
X137653685Y-95245180D01*
X137939400Y-95245180D02*
X137939400Y-94245180D01*
X137844161Y-94388038D01*
X137748923Y-94483276D01*
X137653685Y-94530895D01*
X162830213Y-85029300D02*
X162496880Y-84553110D01*
X162258784Y-85029300D02*
X162258784Y-84029300D01*
X162639737Y-84029300D01*
X162734975Y-84076920D01*
X162782594Y-84124539D01*
X162830213Y-84219777D01*
X162830213Y-84362634D01*
X162782594Y-84457872D01*
X162734975Y-84505491D01*
X162639737Y-84553110D01*
X162258784Y-84553110D01*
X163687356Y-84362634D02*
X163687356Y-85029300D01*
X163449260Y-83981681D02*
X163211165Y-84695967D01*
X163830213Y-84695967D01*
X163931353Y-59370735D02*
X163931353Y-60180622D01*
X163978993Y-60275903D01*
X164026634Y-60323543D01*
X164121914Y-60371184D01*
X164312476Y-60371184D01*
X164407757Y-60323543D01*
X164455397Y-60275903D01*
X164503038Y-60180622D01*
X164503038Y-59370735D01*
X165503487Y-60371184D02*
X164931802Y-60371184D01*
X165217644Y-60371184D02*
X165217644Y-59370735D01*
X165122363Y-59513656D01*
X165027083Y-59608937D01*
X164931802Y-59656577D01*
X159233733Y-83341180D02*
X158900400Y-82864990D01*
X158662304Y-83341180D02*
X158662304Y-82341180D01*
X159043257Y-82341180D01*
X159138495Y-82388800D01*
X159186114Y-82436419D01*
X159233733Y-82531657D01*
X159233733Y-82674514D01*
X159186114Y-82769752D01*
X159138495Y-82817371D01*
X159043257Y-82864990D01*
X158662304Y-82864990D01*
X159614685Y-82436419D02*
X159662304Y-82388800D01*
X159757542Y-82341180D01*
X159995638Y-82341180D01*
X160090876Y-82388800D01*
X160138495Y-82436419D01*
X160186114Y-82531657D01*
X160186114Y-82626895D01*
X160138495Y-82769752D01*
X159567066Y-83341180D01*
X160186114Y-83341180D01*
X172394975Y-107336340D02*
X172394975Y-108145864D01*
X172442594Y-108241102D01*
X172490213Y-108288721D01*
X172585451Y-108336340D01*
X172775927Y-108336340D01*
X172871165Y-108288721D01*
X172918784Y-108241102D01*
X172966403Y-108145864D01*
X172966403Y-107336340D01*
X173918784Y-107336340D02*
X173442594Y-107336340D01*
X173394975Y-107812531D01*
X173442594Y-107764912D01*
X173537832Y-107717293D01*
X173775927Y-107717293D01*
X173871165Y-107764912D01*
X173918784Y-107812531D01*
X173966403Y-107907769D01*
X173966403Y-108145864D01*
X173918784Y-108241102D01*
X173871165Y-108288721D01*
X173775927Y-108336340D01*
X173537832Y-108336340D01*
X173442594Y-108288721D01*
X173394975Y-108241102D01*
X166639002Y-92021920D02*
X166305669Y-91545730D01*
X166067574Y-92021920D02*
X166067574Y-91021920D01*
X166448526Y-91021920D01*
X166543764Y-91069540D01*
X166591383Y-91117159D01*
X166639002Y-91212397D01*
X166639002Y-91355254D01*
X166591383Y-91450492D01*
X166543764Y-91498111D01*
X166448526Y-91545730D01*
X166067574Y-91545730D01*
X167591383Y-92021920D02*
X167019955Y-92021920D01*
X167305669Y-92021920D02*
X167305669Y-91021920D01*
X167210431Y-91164778D01*
X167115193Y-91260016D01*
X167019955Y-91307635D01*
X167924717Y-91021920D02*
X168543764Y-91021920D01*
X168210431Y-91402873D01*
X168353288Y-91402873D01*
X168448526Y-91450492D01*
X168496145Y-91498111D01*
X168543764Y-91593349D01*
X168543764Y-91831444D01*
X168496145Y-91926682D01*
X168448526Y-91974301D01*
X168353288Y-92021920D01*
X168067574Y-92021920D01*
X167972336Y-91974301D01*
X167924717Y-91926682D01*
X134871982Y-65172340D02*
X134871982Y-65886626D01*
X134824363Y-66029483D01*
X134729125Y-66124721D01*
X134586268Y-66172340D01*
X134491030Y-66172340D01*
X135205316Y-65172340D02*
X135776744Y-65172340D01*
X135491030Y-66172340D02*
X135491030Y-65172340D01*
X136062459Y-65886626D02*
X136538649Y-65886626D01*
X135967220Y-66172340D02*
X136300554Y-65172340D01*
X136633887Y-66172340D01*
X137491030Y-65219960D02*
X137395792Y-65172340D01*
X137252935Y-65172340D01*
X137110078Y-65219960D01*
X137014840Y-65315198D01*
X136967220Y-65410436D01*
X136919601Y-65600912D01*
X136919601Y-65743769D01*
X136967220Y-65934245D01*
X137014840Y-66029483D01*
X137110078Y-66124721D01*
X137252935Y-66172340D01*
X137348173Y-66172340D01*
X137491030Y-66124721D01*
X137538649Y-66077102D01*
X137538649Y-65743769D01*
X137348173Y-65743769D01*
X138491030Y-66172340D02*
X137919601Y-66172340D01*
X138205316Y-66172340D02*
X138205316Y-65172340D01*
X138110078Y-65315198D01*
X138014840Y-65410436D01*
X137919601Y-65458055D01*
X131286926Y-66235780D02*
X131286926Y-66950066D01*
X131239307Y-67092923D01*
X131144069Y-67188161D01*
X131001212Y-67235780D01*
X130905974Y-67235780D01*
X132286926Y-67235780D02*
X131715498Y-67235780D01*
X132001212Y-67235780D02*
X132001212Y-66235780D01*
X131905974Y-66378638D01*
X131810736Y-66473876D01*
X131715498Y-66521495D01*
X178184441Y-64945093D02*
X178232060Y-64802236D01*
X178232060Y-64564140D01*
X178184441Y-64468902D01*
X178136822Y-64421283D01*
X178041584Y-64373664D01*
X177946346Y-64373664D01*
X177851108Y-64421283D01*
X177803489Y-64468902D01*
X177755870Y-64564140D01*
X177708251Y-64754617D01*
X177660632Y-64849855D01*
X177613013Y-64897474D01*
X177517775Y-64945093D01*
X177422537Y-64945093D01*
X177327299Y-64897474D01*
X177279680Y-64849855D01*
X177232060Y-64754617D01*
X177232060Y-64516521D01*
X177279680Y-64373664D01*
X177232060Y-64040331D02*
X178232060Y-63802236D01*
X177517775Y-63611760D01*
X178232060Y-63421283D01*
X177232060Y-63183188D01*
X178232060Y-62278426D02*
X178232060Y-62849855D01*
X178232060Y-62564140D02*
X177232060Y-62564140D01*
X177374918Y-62659379D01*
X177470156Y-62754617D01*
X177517775Y-62849855D01*
X135860944Y-75886980D02*
X135860944Y-76696504D01*
X135908563Y-76791742D01*
X135956182Y-76839361D01*
X136051420Y-76886980D01*
X136241897Y-76886980D01*
X136337135Y-76839361D01*
X136384754Y-76791742D01*
X136432373Y-76696504D01*
X136432373Y-75886980D01*
X137432373Y-76886980D02*
X136860944Y-76886980D01*
X137146659Y-76886980D02*
X137146659Y-75886980D01*
X137051420Y-76029838D01*
X136956182Y-76125076D01*
X136860944Y-76172695D01*
X138051420Y-75886980D02*
X138146659Y-75886980D01*
X138241897Y-75934600D01*
X138289516Y-75982219D01*
X138337135Y-76077457D01*
X138384754Y-76267933D01*
X138384754Y-76506028D01*
X138337135Y-76696504D01*
X138289516Y-76791742D01*
X138241897Y-76839361D01*
X138146659Y-76886980D01*
X138051420Y-76886980D01*
X137956182Y-76839361D01*
X137908563Y-76791742D01*
X137860944Y-76696504D01*
X137813325Y-76506028D01*
X137813325Y-76267933D01*
X137860944Y-76077457D01*
X137908563Y-75982219D01*
X137956182Y-75934600D01*
X138051420Y-75886980D01*
X152917100Y-117003400D02*
X147192100Y-117003400D01*
X151842100Y-108903400D02*
X147192100Y-108903400D01*
X151842100Y-108903400D02*
X151842100Y-108928400D01*
X147192100Y-116953400D02*
X147192100Y-116928400D01*
X147192100Y-108903400D02*
X147192100Y-108928400D01*
X161202000Y-108878000D02*
X161202000Y-108903000D01*
X156552000Y-116928000D02*
X156552000Y-116903000D01*
X155477000Y-108828000D02*
X161202000Y-108828000D01*
X161202000Y-116928000D02*
X161202000Y-116903000D01*
X156552000Y-116928000D02*
X161202000Y-116928000D01*
X151816700Y-99556200D02*
X151816700Y-99581200D01*
X147166700Y-99556200D02*
X147166700Y-99581200D01*
X151816700Y-99556200D02*
X147166700Y-99556200D01*
X152891700Y-107656200D02*
X147166700Y-107656200D01*
X147166700Y-107606200D02*
X147166700Y-107581200D01*
D13*
X169663300Y-124121100D02*
X169663300Y-92871100D01*
X169663300Y-92871100D02*
X155038300Y-92871100D01*
X138413300Y-124121100D02*
X169663300Y-124121100D01*
X138413300Y-93871100D02*
X138413300Y-124121100D01*
X153038300Y-92871100D02*
X139413300Y-92871100D01*
X139413300Y-92871100D02*
X138413300Y-93871100D01*
D11*
X156552000Y-107707800D02*
X156552000Y-107682800D01*
X155477000Y-99607800D02*
X161202000Y-99607800D01*
X156552000Y-107707800D02*
X161202000Y-107707800D01*
X161202000Y-99657800D02*
X161202000Y-99682800D01*
X161202000Y-107707800D02*
X161202000Y-107682800D01*
X151748860Y-91616160D02*
X151748860Y-86966160D01*
X143648860Y-92691160D02*
X143648860Y-86966160D01*
X151748860Y-86966160D02*
X151723860Y-86966160D01*
X143698860Y-86966160D02*
X143723860Y-86966160D01*
X151748860Y-91616160D02*
X151723860Y-91616160D01*
D13*
X157817200Y-86291000D02*
X157817200Y-88741000D01*
X161037200Y-88091000D02*
X161037200Y-86291000D01*
X164243452Y-89691000D02*
X163720948Y-89691000D01*
X164243452Y-91111000D02*
X163720948Y-91111000D01*
X164847200Y-87412252D02*
X164847200Y-86889748D01*
X166267200Y-87412252D02*
X166267200Y-86889748D01*
X140866920Y-90115468D02*
X140866920Y-90637972D01*
X142286920Y-90115468D02*
X142286920Y-90637972D01*
X157007200Y-87557252D02*
X157007200Y-87034748D01*
X155587200Y-87557252D02*
X155587200Y-87034748D01*
X140726920Y-96541720D02*
X142426920Y-96541720D01*
X140726920Y-96541720D02*
X140726920Y-93391720D01*
X142426920Y-96541720D02*
X142426920Y-93391720D01*
X138522640Y-94384228D02*
X138522640Y-94906732D01*
X139942640Y-94384228D02*
X139942640Y-94906732D01*
X162247200Y-86894748D02*
X162247200Y-87417252D01*
X163667200Y-86894748D02*
X163667200Y-87417252D01*
D14*
X163387200Y-80621000D02*
X164137200Y-80621000D01*
X144137200Y-60621000D02*
X144887200Y-60621000D01*
X163387200Y-60621000D02*
X164137200Y-60621000D01*
X164137200Y-80621000D02*
X164137200Y-79871000D01*
X144137200Y-61371000D02*
X144137200Y-60621000D01*
X144137200Y-79871000D02*
X144137200Y-80621000D01*
X144137200Y-80621000D02*
X144887200Y-80621000D01*
X164137200Y-60621000D02*
X164137200Y-61371000D01*
D10*
X142487200Y-61871000D02*
G75*
G03*
X142487200Y-61871000I-100000J0D01*
G01*
D13*
X159149148Y-85088800D02*
X159671652Y-85088800D01*
X159149148Y-83668800D02*
X159671652Y-83668800D01*
D11*
X169842720Y-108828220D02*
X175567720Y-108828220D01*
X175567720Y-108878220D02*
X175567720Y-108903220D01*
X170917720Y-116928220D02*
X170917720Y-116903220D01*
X170917720Y-116928220D02*
X175567720Y-116928220D01*
X175567720Y-116928220D02*
X175567720Y-116903220D01*
D13*
X167435347Y-93664500D02*
X167092813Y-93664500D01*
X167435347Y-92644500D02*
X167092813Y-92644500D01*
X140055600Y-56381340D02*
X129835600Y-56381340D01*
X140055600Y-58981340D02*
X142655600Y-58981340D01*
X142655600Y-61581340D02*
X129835600Y-61581340D01*
X141325600Y-56381340D02*
X142655600Y-56381340D01*
X129835600Y-56381340D02*
X129835600Y-61581340D01*
X142655600Y-58981340D02*
X142655600Y-61581340D01*
X140055600Y-56381340D02*
X140055600Y-58981340D01*
X142655600Y-56381340D02*
X142655600Y-57711340D01*
X130290260Y-70383400D02*
X132950260Y-70383400D01*
X130290260Y-70383400D02*
X130290260Y-72983400D01*
X130290260Y-67783400D02*
X131620260Y-67783400D01*
X132950260Y-70383400D02*
X132950260Y-72983400D01*
X130290260Y-69113400D02*
X130290260Y-67783400D01*
X130290260Y-72983400D02*
X132950260Y-72983400D01*
X170704200Y-61004160D02*
X170704200Y-66524160D01*
X177174200Y-66524160D02*
X175905200Y-66524160D01*
X171974200Y-66524160D02*
X170704200Y-66524160D01*
X177174200Y-61004160D02*
X177174200Y-66524160D01*
X171974200Y-61004160D02*
X170704200Y-61004160D01*
X176524200Y-59154160D02*
X176524200Y-61004160D01*
X177174200Y-61004160D02*
X176524200Y-61004160D01*
D11*
X134774040Y-77484600D02*
X133424040Y-77484600D01*
X139424040Y-82609600D02*
X139424040Y-82384600D01*
X134774040Y-82609600D02*
X134774040Y-82384600D01*
X134774040Y-77359600D02*
X139424040Y-77359600D01*
X134774040Y-77359600D02*
X134774040Y-77484600D01*
X134774040Y-82609600D02*
X139424040Y-82609600D01*
X139424040Y-77359600D02*
X139424040Y-77584600D01*
%LPC*%
D15*
X152367100Y-116503400D03*
X152367100Y-115853400D03*
X152367100Y-115203400D03*
X152367100Y-114553400D03*
X152367100Y-113903400D03*
X152367100Y-113253400D03*
X152367100Y-112603400D03*
X152367100Y-111953400D03*
X152367100Y-111303400D03*
X152367100Y-110653400D03*
X152367100Y-110003400D03*
X152367100Y-109353400D03*
X146667100Y-109353400D03*
X146667100Y-110003400D03*
X146667100Y-110653400D03*
X146667100Y-111303400D03*
X146667100Y-111953400D03*
X146667100Y-112603400D03*
X146667100Y-113253400D03*
X146667100Y-113903400D03*
X146667100Y-114553400D03*
X146667100Y-115203400D03*
X146667100Y-115853400D03*
X146667100Y-116503400D03*
X156027000Y-109328000D03*
X156027000Y-109978000D03*
X156027000Y-110628000D03*
X156027000Y-111278000D03*
X156027000Y-111928000D03*
X156027000Y-112578000D03*
X156027000Y-113228000D03*
X156027000Y-113878000D03*
X156027000Y-114528000D03*
X156027000Y-115178000D03*
X156027000Y-115828000D03*
X156027000Y-116478000D03*
X161727000Y-116478000D03*
X161727000Y-115828000D03*
X161727000Y-115178000D03*
X161727000Y-114528000D03*
X161727000Y-113878000D03*
X161727000Y-113228000D03*
X161727000Y-112578000D03*
X161727000Y-111928000D03*
X161727000Y-111278000D03*
X161727000Y-110628000D03*
X161727000Y-109978000D03*
X161727000Y-109328000D03*
X152341700Y-107156200D03*
X152341700Y-106506200D03*
X152341700Y-105856200D03*
X152341700Y-105206200D03*
X152341700Y-104556200D03*
X152341700Y-103906200D03*
X152341700Y-103256200D03*
X152341700Y-102606200D03*
X152341700Y-101956200D03*
X152341700Y-101306200D03*
X152341700Y-100656200D03*
X152341700Y-100006200D03*
X146641700Y-100006200D03*
X146641700Y-100656200D03*
X146641700Y-101306200D03*
X146641700Y-101956200D03*
X146641700Y-102606200D03*
X146641700Y-103256200D03*
X146641700Y-103906200D03*
X146641700Y-104556200D03*
X146641700Y-105206200D03*
X146641700Y-105856200D03*
X146641700Y-106506200D03*
X146641700Y-107156200D03*
D16*
X141338300Y-98336100D03*
D17*
X143878300Y-98336100D03*
X141338300Y-100876100D03*
X143878300Y-100876100D03*
X141338300Y-103416100D03*
X143878300Y-103416100D03*
X141338300Y-105956100D03*
X143878300Y-105956100D03*
X141338300Y-108496100D03*
X143878300Y-108496100D03*
X141338300Y-111036100D03*
X143878300Y-111036100D03*
X141338300Y-113576100D03*
X143878300Y-113576100D03*
X141338300Y-116116100D03*
X143878300Y-116116100D03*
X141338300Y-118656100D03*
X143878300Y-121196100D03*
X143878300Y-118656100D03*
X146418300Y-121196100D03*
X146418300Y-118656100D03*
X148958300Y-121196100D03*
X148958300Y-118656100D03*
X151498300Y-121196100D03*
X151498300Y-118656100D03*
X154038300Y-121196100D03*
X154038300Y-118656100D03*
X156578300Y-121196100D03*
X156578300Y-118656100D03*
X159118300Y-121196100D03*
X159118300Y-118656100D03*
X161658300Y-121196100D03*
X161658300Y-118656100D03*
X164198300Y-121196100D03*
X166738300Y-118656100D03*
X164198300Y-118656100D03*
X166738300Y-116116100D03*
X164198300Y-116116100D03*
X166738300Y-113576100D03*
X164198300Y-113576100D03*
X166738300Y-111036100D03*
X164198300Y-111036100D03*
X166738300Y-108496100D03*
X164198300Y-108496100D03*
X166738300Y-105956100D03*
X164198300Y-105956100D03*
X166738300Y-103416100D03*
X164198300Y-103416100D03*
X166738300Y-100876100D03*
X164198300Y-100876100D03*
X166738300Y-98336100D03*
X164198300Y-95796100D03*
X164198300Y-98336100D03*
X161658300Y-95796100D03*
X161658300Y-98336100D03*
X159118300Y-95796100D03*
X159118300Y-98336100D03*
X156578300Y-95796100D03*
X156578300Y-98336100D03*
X154038300Y-95796100D03*
X154038300Y-98336100D03*
X151498300Y-95796100D03*
X151498300Y-98336100D03*
X148958300Y-95796100D03*
X148958300Y-98336100D03*
X146418300Y-95796100D03*
X146418300Y-98336100D03*
X143878300Y-95796100D03*
D15*
X156027000Y-100107800D03*
X156027000Y-100757800D03*
X156027000Y-101407800D03*
X156027000Y-102057800D03*
X156027000Y-102707800D03*
X156027000Y-103357800D03*
X156027000Y-104007800D03*
X156027000Y-104657800D03*
X156027000Y-105307800D03*
X156027000Y-105957800D03*
X156027000Y-106607800D03*
X156027000Y-107257800D03*
X161727000Y-107257800D03*
X161727000Y-106607800D03*
X161727000Y-105957800D03*
X161727000Y-105307800D03*
X161727000Y-104657800D03*
X161727000Y-104007800D03*
X161727000Y-103357800D03*
X161727000Y-102707800D03*
X161727000Y-102057800D03*
X161727000Y-101407800D03*
X161727000Y-100757800D03*
X161727000Y-100107800D03*
D18*
X144148860Y-92141160D03*
X144798860Y-92141160D03*
X145448860Y-92141160D03*
X146098860Y-92141160D03*
X146748860Y-92141160D03*
X147398860Y-92141160D03*
X148048860Y-92141160D03*
X148698860Y-92141160D03*
X149348860Y-92141160D03*
X149998860Y-92141160D03*
X150648860Y-92141160D03*
X151298860Y-92141160D03*
X151298860Y-86441160D03*
X150648860Y-86441160D03*
X149998860Y-86441160D03*
X149348860Y-86441160D03*
X148698860Y-86441160D03*
X148048860Y-86441160D03*
X147398860Y-86441160D03*
X146748860Y-86441160D03*
X146098860Y-86441160D03*
X145448860Y-86441160D03*
X144798860Y-86441160D03*
X144148860Y-86441160D03*
D19*
X158477200Y-88291000D03*
X159427200Y-88291000D03*
X160377200Y-88291000D03*
X160377200Y-86091000D03*
X158477200Y-86091000D03*
D20*
X165007200Y-90401000D03*
X162957200Y-90401000D03*
D21*
X165557200Y-88176000D03*
X165557200Y-86126000D03*
D22*
X141576920Y-89351720D03*
X141576920Y-91401720D03*
D21*
X156297200Y-88321000D03*
X156297200Y-86271000D03*
D23*
X141576920Y-95891720D03*
X141576920Y-93391720D03*
D22*
X139232640Y-93620480D03*
X139232640Y-95670480D03*
X162957200Y-86131000D03*
X162957200Y-88181000D03*
D24*
X143467200Y-61871000D03*
X143467200Y-62371000D03*
X143467200Y-62871000D03*
X143467200Y-63371000D03*
X143467200Y-63871000D03*
X143467200Y-64371000D03*
X143467200Y-64871000D03*
X143467200Y-65371000D03*
X143467200Y-65871000D03*
X143467200Y-66371000D03*
X143467200Y-66871000D03*
X143467200Y-67371000D03*
X143467200Y-67871000D03*
X143467200Y-68371000D03*
X143467200Y-68871000D03*
X143467200Y-69371000D03*
X143467200Y-69871000D03*
X143467200Y-70371000D03*
X143467200Y-70871000D03*
X143467200Y-71371000D03*
X143467200Y-71871000D03*
X143467200Y-72371000D03*
X143467200Y-72871000D03*
X143467200Y-73371000D03*
X143467200Y-73871000D03*
X143467200Y-74371000D03*
X143467200Y-74871000D03*
X143467200Y-75371000D03*
X143467200Y-75871000D03*
X143467200Y-76371000D03*
X143467200Y-76871000D03*
X143467200Y-77371000D03*
X143467200Y-77871000D03*
X143467200Y-78371000D03*
X143467200Y-78871000D03*
X143467200Y-79371000D03*
D25*
X145387200Y-81291000D03*
X145887200Y-81291000D03*
X146387200Y-81291000D03*
X146887200Y-81291000D03*
X147387200Y-81291000D03*
X147887200Y-81291000D03*
X148387200Y-81291000D03*
X148887200Y-81291000D03*
X149387200Y-81291000D03*
X149887200Y-81291000D03*
X150387200Y-81291000D03*
X150887200Y-81291000D03*
X151387200Y-81291000D03*
X151887200Y-81291000D03*
X152387200Y-81291000D03*
X152887200Y-81291000D03*
X153387200Y-81291000D03*
X153887200Y-81291000D03*
X154387200Y-81291000D03*
X154887200Y-81291000D03*
X155387200Y-81291000D03*
X155887200Y-81291000D03*
X156387200Y-81291000D03*
X156887200Y-81291000D03*
X157387200Y-81291000D03*
X157887200Y-81291000D03*
X158387200Y-81291000D03*
X158887200Y-81291000D03*
X159387200Y-81291000D03*
X159887200Y-81291000D03*
X160387200Y-81291000D03*
X160887200Y-81291000D03*
X161387200Y-81291000D03*
X161887200Y-81291000D03*
X162387200Y-81291000D03*
X162887200Y-81291000D03*
D24*
X164807200Y-79371000D03*
X164807200Y-78871000D03*
X164807200Y-78371000D03*
X164807200Y-77871000D03*
X164807200Y-77371000D03*
X164807200Y-76871000D03*
X164807200Y-76371000D03*
X164807200Y-75871000D03*
X164807200Y-75371000D03*
X164807200Y-74871000D03*
X164807200Y-74371000D03*
X164807200Y-73871000D03*
X164807200Y-73371000D03*
X164807200Y-72871000D03*
X164807200Y-72371000D03*
X164807200Y-71871000D03*
X164807200Y-71371000D03*
X164807200Y-70871000D03*
X164807200Y-70371000D03*
X164807200Y-69871000D03*
X164807200Y-69371000D03*
X164807200Y-68871000D03*
X164807200Y-68371000D03*
X164807200Y-67871000D03*
X164807200Y-67371000D03*
X164807200Y-66871000D03*
X164807200Y-66371000D03*
X164807200Y-65871000D03*
X164807200Y-65371000D03*
X164807200Y-64871000D03*
X164807200Y-64371000D03*
X164807200Y-63871000D03*
X164807200Y-63371000D03*
X164807200Y-62871000D03*
X164807200Y-62371000D03*
X164807200Y-61871000D03*
D25*
X162887200Y-59951000D03*
X162387200Y-59951000D03*
X161887200Y-59951000D03*
X161387200Y-59951000D03*
X160887200Y-59951000D03*
X160387200Y-59951000D03*
X159887200Y-59951000D03*
X159387200Y-59951000D03*
X158887200Y-59951000D03*
X158387200Y-59951000D03*
X157887200Y-59951000D03*
X157387200Y-59951000D03*
X156887200Y-59951000D03*
X156387200Y-59951000D03*
X155887200Y-59951000D03*
X155387200Y-59951000D03*
X154887200Y-59951000D03*
X154387200Y-59951000D03*
X153887200Y-59951000D03*
X153387200Y-59951000D03*
X152887200Y-59951000D03*
X152387200Y-59951000D03*
X151887200Y-59951000D03*
X151387200Y-59951000D03*
X150887200Y-59951000D03*
X150387200Y-59951000D03*
X149887200Y-59951000D03*
X149387200Y-59951000D03*
X148887200Y-59951000D03*
X148387200Y-59951000D03*
X147887200Y-59951000D03*
X147387200Y-59951000D03*
X146887200Y-59951000D03*
X146387200Y-59951000D03*
X145887200Y-59951000D03*
X145387200Y-59951000D03*
D26*
X154137200Y-70621000D03*
D27*
X158385400Y-84378800D03*
X160435400Y-84378800D03*
D15*
X170392720Y-109328220D03*
X170392720Y-109978220D03*
X170392720Y-110628220D03*
X170392720Y-111278220D03*
X170392720Y-111928220D03*
X170392720Y-112578220D03*
X170392720Y-113228220D03*
X170392720Y-113878220D03*
X170392720Y-114528220D03*
X170392720Y-115178220D03*
X170392720Y-115828220D03*
X170392720Y-116478220D03*
X176092720Y-116478220D03*
X176092720Y-115828220D03*
X176092720Y-115178220D03*
X176092720Y-114528220D03*
X176092720Y-113878220D03*
X176092720Y-113228220D03*
X176092720Y-112578220D03*
X176092720Y-111928220D03*
X176092720Y-111278220D03*
X176092720Y-110628220D03*
X176092720Y-109978220D03*
X176092720Y-109328220D03*
D28*
X168139080Y-93154500D03*
X166389080Y-93154500D03*
D29*
X141325600Y-57711340D03*
D30*
X141325600Y-60251340D03*
X138785600Y-57711340D03*
X138785600Y-60251340D03*
X136245600Y-57711340D03*
X136245600Y-60251340D03*
X133705600Y-57711340D03*
X133705600Y-60251340D03*
X131165600Y-57711340D03*
X131165600Y-60251340D03*
D29*
X131620260Y-69113400D03*
D30*
X131620260Y-71653400D03*
D31*
X175844200Y-59954160D03*
X174574200Y-59954160D03*
X173304200Y-59954160D03*
X172034200Y-59954160D03*
X172034200Y-67574160D03*
X173304200Y-67574160D03*
X174574200Y-67574160D03*
X175844200Y-67574160D03*
D32*
X134149040Y-78034600D03*
X134149040Y-78684600D03*
X134149040Y-79334600D03*
X134149040Y-79984600D03*
X134149040Y-80634600D03*
X134149040Y-81284600D03*
X134149040Y-81934600D03*
X140049040Y-81934600D03*
X140049040Y-81284600D03*
X140049040Y-80634600D03*
X140049040Y-79984600D03*
X140049040Y-79334600D03*
X140049040Y-78684600D03*
X140049040Y-78034600D03*
M02*
