G04 #@! TF.GenerationSoftware,KiCad,Pcbnew,(6.0.0)*
G04 #@! TF.CreationDate,2022-07-21T19:31:28+01:00*
G04 #@! TF.ProjectId,ElectronULA,456c6563-7472-46f6-9e55-4c412e6b6963,rev?*
G04 #@! TF.SameCoordinates,Original*
G04 #@! TF.FileFunction,Legend,Bot*
G04 #@! TF.FilePolarity,Positive*
%FSLAX46Y46*%
G04 Gerber Fmt 4.6, Leading zero omitted, Abs format (unit mm)*
G04 Created by KiCad (PCBNEW (6.0.0)) date 2022-07-21 19:31:28*
%MOMM*%
%LPD*%
G01*
G04 APERTURE LIST*
G04 Aperture macros list*
%AMRoundRect*
0 Rectangle with rounded corners*
0 $1 Rounding radius*
0 $2 $3 $4 $5 $6 $7 $8 $9 X,Y pos of 4 corners*
0 Add a 4 corners polygon primitive as box body*
4,1,4,$2,$3,$4,$5,$6,$7,$8,$9,$2,$3,0*
0 Add four circle primitives for the rounded corners*
1,1,$1+$1,$2,$3*
1,1,$1+$1,$4,$5*
1,1,$1+$1,$6,$7*
1,1,$1+$1,$8,$9*
0 Add four rect primitives between the rounded corners*
20,1,$1+$1,$2,$3,$4,$5,0*
20,1,$1+$1,$4,$5,$6,$7,0*
20,1,$1+$1,$6,$7,$8,$9,0*
20,1,$1+$1,$8,$9,$2,$3,0*%
G04 Aperture macros list end*
%ADD10C,0.125000*%
%ADD11C,0.200000*%
%ADD12C,0.150000*%
%ADD13C,0.120000*%
%ADD14R,1.422400X1.422400*%
%ADD15C,1.422400*%
%ADD16R,1.700000X1.700000*%
%ADD17O,1.700000X1.700000*%
%ADD18RoundRect,0.237500X0.237500X-0.287500X0.237500X0.287500X-0.237500X0.287500X-0.237500X-0.287500X0*%
%ADD19RoundRect,0.237500X-0.287500X-0.237500X0.287500X-0.237500X0.287500X0.237500X-0.287500X0.237500X0*%
%ADD20RoundRect,0.237500X-0.237500X0.287500X-0.237500X-0.287500X0.237500X-0.287500X0.237500X0.287500X0*%
%ADD21RoundRect,0.237500X0.287500X0.237500X-0.287500X0.237500X-0.287500X-0.237500X0.287500X-0.237500X0*%
%ADD22RoundRect,0.249999X0.450001X-0.325001X0.450001X0.325001X-0.450001X0.325001X-0.450001X-0.325001X0*%
%ADD23RoundRect,0.249999X-0.325001X-0.450001X0.325001X-0.450001X0.325001X0.450001X-0.325001X0.450001X0*%
%ADD24R,1.800000X1.800000*%
%ADD25R,1.500000X2.000000*%
%ADD26R,3.800000X2.000000*%
%ADD27R,1.000000X1.000000*%
%ADD28R,1.750000X0.700000*%
%ADD29R,1.000000X1.450000*%
%ADD30R,1.550000X1.000000*%
%ADD31R,1.500000X1.300000*%
%ADD32R,1.400000X0.800000*%
%ADD33R,1.500000X1.500000*%
%ADD34R,1.500000X0.800000*%
%ADD35RoundRect,0.250000X-0.475000X0.337500X-0.475000X-0.337500X0.475000X-0.337500X0.475000X0.337500X0*%
G04 APERTURE END LIST*
D10*
X177071620Y-99848750D02*
X177038286Y-99748750D01*
X177004953Y-99715416D01*
X176938286Y-99682083D01*
X176838286Y-99682083D01*
X176771620Y-99715416D01*
X176738286Y-99748750D01*
X176704953Y-99815416D01*
X176704953Y-100082083D01*
X177404953Y-100082083D01*
X177404953Y-99848750D01*
X177371620Y-99782083D01*
X177338286Y-99748750D01*
X177271620Y-99715416D01*
X177204953Y-99715416D01*
X177138286Y-99748750D01*
X177104953Y-99782083D01*
X177071620Y-99848750D01*
X177071620Y-100082083D01*
X176704953Y-99282083D02*
X176738286Y-99348750D01*
X176771620Y-99382083D01*
X176838286Y-99415416D01*
X177038286Y-99415416D01*
X177104953Y-99382083D01*
X177138286Y-99348750D01*
X177171620Y-99282083D01*
X177171620Y-99182083D01*
X177138286Y-99115416D01*
X177104953Y-99082083D01*
X177038286Y-99048750D01*
X176838286Y-99048750D01*
X176771620Y-99082083D01*
X176738286Y-99115416D01*
X176704953Y-99182083D01*
X176704953Y-99282083D01*
X176704953Y-98448750D02*
X177071620Y-98448750D01*
X177138286Y-98482083D01*
X177171620Y-98548750D01*
X177171620Y-98682083D01*
X177138286Y-98748750D01*
X176738286Y-98448750D02*
X176704953Y-98515416D01*
X176704953Y-98682083D01*
X176738286Y-98748750D01*
X176804953Y-98782083D01*
X176871620Y-98782083D01*
X176938286Y-98748750D01*
X176971620Y-98682083D01*
X176971620Y-98515416D01*
X177004953Y-98448750D01*
X176704953Y-98115416D02*
X177171620Y-98115416D01*
X177038286Y-98115416D02*
X177104953Y-98082083D01*
X177138286Y-98048750D01*
X177171620Y-97982083D01*
X177171620Y-97915416D01*
X176704953Y-97382083D02*
X177404953Y-97382083D01*
X176738286Y-97382083D02*
X176704953Y-97448750D01*
X176704953Y-97582083D01*
X176738286Y-97648750D01*
X176771620Y-97682083D01*
X176838286Y-97715416D01*
X177038286Y-97715416D01*
X177104953Y-97682083D01*
X177138286Y-97648750D01*
X177171620Y-97582083D01*
X177171620Y-97448750D01*
X177138286Y-97382083D01*
X176971620Y-96515416D02*
X176971620Y-95982083D01*
X176904953Y-95148750D02*
X176904953Y-94815416D01*
X176704953Y-95215416D02*
X177404953Y-94982083D01*
X176704953Y-94748750D01*
X177171620Y-94515416D02*
X176704953Y-94515416D01*
X177104953Y-94515416D02*
X177138286Y-94482083D01*
X177171620Y-94415416D01*
X177171620Y-94315416D01*
X177138286Y-94248750D01*
X177071620Y-94215416D01*
X176704953Y-94215416D01*
X176704953Y-93582083D02*
X177404953Y-93582083D01*
X176738286Y-93582083D02*
X176704953Y-93648750D01*
X176704953Y-93782083D01*
X176738286Y-93848750D01*
X176771620Y-93882083D01*
X176838286Y-93915416D01*
X177038286Y-93915416D01*
X177104953Y-93882083D01*
X177138286Y-93848750D01*
X177171620Y-93782083D01*
X177171620Y-93648750D01*
X177138286Y-93582083D01*
X177171620Y-93315416D02*
X176704953Y-93148750D01*
X177171620Y-92982083D02*
X176704953Y-93148750D01*
X176538286Y-93215416D01*
X176504953Y-93248750D01*
X176471620Y-93315416D01*
X177071620Y-91948750D02*
X177038286Y-91848750D01*
X177004953Y-91815416D01*
X176938286Y-91782083D01*
X176838286Y-91782083D01*
X176771620Y-91815416D01*
X176738286Y-91848750D01*
X176704953Y-91915416D01*
X176704953Y-92182083D01*
X177404953Y-92182083D01*
X177404953Y-91948750D01*
X177371620Y-91882083D01*
X177338286Y-91848750D01*
X177271620Y-91815416D01*
X177204953Y-91815416D01*
X177138286Y-91848750D01*
X177104953Y-91882083D01*
X177071620Y-91948750D01*
X177071620Y-92182083D01*
X177171620Y-91182083D02*
X176704953Y-91182083D01*
X177171620Y-91482083D02*
X176804953Y-91482083D01*
X176738286Y-91448750D01*
X176704953Y-91382083D01*
X176704953Y-91282083D01*
X176738286Y-91215416D01*
X176771620Y-91182083D01*
X176704953Y-90848750D02*
X177171620Y-90848750D01*
X177038286Y-90848750D02*
X177104953Y-90815416D01*
X177138286Y-90782083D01*
X177171620Y-90715416D01*
X177171620Y-90648750D01*
X177171620Y-90115416D02*
X176604953Y-90115416D01*
X176538286Y-90148750D01*
X176504953Y-90182083D01*
X176471620Y-90248750D01*
X176471620Y-90348750D01*
X176504953Y-90415416D01*
X176738286Y-90115416D02*
X176704953Y-90182083D01*
X176704953Y-90315416D01*
X176738286Y-90382083D01*
X176771620Y-90415416D01*
X176838286Y-90448750D01*
X177038286Y-90448750D01*
X177104953Y-90415416D01*
X177138286Y-90382083D01*
X177171620Y-90315416D01*
X177171620Y-90182083D01*
X177138286Y-90115416D01*
X176738286Y-89515416D02*
X176704953Y-89582083D01*
X176704953Y-89715416D01*
X176738286Y-89782083D01*
X176804953Y-89815416D01*
X177071620Y-89815416D01*
X177138286Y-89782083D01*
X177171620Y-89715416D01*
X177171620Y-89582083D01*
X177138286Y-89515416D01*
X177071620Y-89482083D01*
X177004953Y-89482083D01*
X176938286Y-89815416D01*
X176738286Y-89215416D02*
X176704953Y-89148750D01*
X176704953Y-89015416D01*
X176738286Y-88948750D01*
X176804953Y-88915416D01*
X176838286Y-88915416D01*
X176904953Y-88948750D01*
X176938286Y-89015416D01*
X176938286Y-89115416D01*
X176971620Y-89182083D01*
X177038286Y-89215416D01*
X177071620Y-89215416D01*
X177138286Y-89182083D01*
X177171620Y-89115416D01*
X177171620Y-89015416D01*
X177138286Y-88948750D01*
X176738286Y-88648750D02*
X176704953Y-88582083D01*
X176704953Y-88448750D01*
X176738286Y-88382083D01*
X176804953Y-88348750D01*
X176838286Y-88348750D01*
X176904953Y-88382083D01*
X176938286Y-88448750D01*
X176938286Y-88548750D01*
X176971620Y-88615416D01*
X177038286Y-88648750D01*
X177071620Y-88648750D01*
X177138286Y-88615416D01*
X177171620Y-88548750D01*
X177171620Y-88448750D01*
X177138286Y-88382083D01*
X176438286Y-87315416D02*
X176471620Y-87348750D01*
X176571620Y-87415416D01*
X176638286Y-87448750D01*
X176738286Y-87482083D01*
X176904953Y-87515416D01*
X177038286Y-87515416D01*
X177204953Y-87482083D01*
X177304953Y-87448750D01*
X177371620Y-87415416D01*
X177471620Y-87348750D01*
X177504953Y-87315416D01*
X177071620Y-86815416D02*
X177038286Y-86715416D01*
X177004953Y-86682083D01*
X176938286Y-86648750D01*
X176838286Y-86648750D01*
X176771620Y-86682083D01*
X176738286Y-86715416D01*
X176704953Y-86782083D01*
X176704953Y-87048750D01*
X177404953Y-87048750D01*
X177404953Y-86815416D01*
X177371620Y-86748750D01*
X177338286Y-86715416D01*
X177271620Y-86682083D01*
X177204953Y-86682083D01*
X177138286Y-86715416D01*
X177104953Y-86748750D01*
X177071620Y-86815416D01*
X177071620Y-87048750D01*
X177171620Y-86048750D02*
X176704953Y-86048750D01*
X177171620Y-86348750D02*
X176804953Y-86348750D01*
X176738286Y-86315416D01*
X176704953Y-86248750D01*
X176704953Y-86148750D01*
X176738286Y-86082083D01*
X176771620Y-86048750D01*
X176704953Y-85415416D02*
X177404953Y-85415416D01*
X176738286Y-85415416D02*
X176704953Y-85482083D01*
X176704953Y-85615416D01*
X176738286Y-85682083D01*
X176771620Y-85715416D01*
X176838286Y-85748750D01*
X177038286Y-85748750D01*
X177104953Y-85715416D01*
X177138286Y-85682083D01*
X177171620Y-85615416D01*
X177171620Y-85482083D01*
X177138286Y-85415416D01*
X177171620Y-84782083D02*
X176604953Y-84782083D01*
X176538286Y-84815416D01*
X176504953Y-84848750D01*
X176471620Y-84915416D01*
X176471620Y-85015416D01*
X176504953Y-85082083D01*
X176738286Y-84782083D02*
X176704953Y-84848750D01*
X176704953Y-84982083D01*
X176738286Y-85048750D01*
X176771620Y-85082083D01*
X176838286Y-85115416D01*
X177038286Y-85115416D01*
X177104953Y-85082083D01*
X177138286Y-85048750D01*
X177171620Y-84982083D01*
X177171620Y-84848750D01*
X177138286Y-84782083D01*
X176704953Y-84448750D02*
X177171620Y-84448750D01*
X177404953Y-84448750D02*
X177371620Y-84482083D01*
X177338286Y-84448750D01*
X177371620Y-84415416D01*
X177404953Y-84448750D01*
X177338286Y-84448750D01*
X176738286Y-83848750D02*
X176704953Y-83915416D01*
X176704953Y-84048750D01*
X176738286Y-84115416D01*
X176804953Y-84148750D01*
X177071620Y-84148750D01*
X177138286Y-84115416D01*
X177171620Y-84048750D01*
X177171620Y-83915416D01*
X177138286Y-83848750D01*
X177071620Y-83815416D01*
X177004953Y-83815416D01*
X176938286Y-84148750D01*
X176438286Y-83582083D02*
X176471620Y-83548750D01*
X176571620Y-83482083D01*
X176638286Y-83448750D01*
X176738286Y-83415416D01*
X176904953Y-83382083D01*
X177038286Y-83382083D01*
X177204953Y-83415416D01*
X177304953Y-83448750D01*
X177371620Y-83482083D01*
X177471620Y-83548750D01*
X177504953Y-83582083D01*
X175944620Y-99848750D02*
X175944620Y-100082083D01*
X175577953Y-100082083D02*
X176277953Y-100082083D01*
X176277953Y-99748750D01*
X175577953Y-99482083D02*
X176277953Y-99482083D01*
X176277953Y-99215416D01*
X176244620Y-99148750D01*
X176211286Y-99115416D01*
X176144620Y-99082083D01*
X176044620Y-99082083D01*
X175977953Y-99115416D01*
X175944620Y-99148750D01*
X175911286Y-99215416D01*
X175911286Y-99482083D01*
X176244620Y-98415416D02*
X176277953Y-98482083D01*
X176277953Y-98582083D01*
X176244620Y-98682083D01*
X176177953Y-98748750D01*
X176111286Y-98782083D01*
X175977953Y-98815416D01*
X175877953Y-98815416D01*
X175744620Y-98782083D01*
X175677953Y-98748750D01*
X175611286Y-98682083D01*
X175577953Y-98582083D01*
X175577953Y-98515416D01*
X175611286Y-98415416D01*
X175644620Y-98382083D01*
X175877953Y-98382083D01*
X175877953Y-98515416D01*
X175777953Y-98115416D02*
X175777953Y-97782083D01*
X175577953Y-98182083D02*
X176277953Y-97948750D01*
X175577953Y-97715416D01*
X175644620Y-96548750D02*
X175611286Y-96582083D01*
X175577953Y-96682083D01*
X175577953Y-96748750D01*
X175611286Y-96848750D01*
X175677953Y-96915416D01*
X175744620Y-96948750D01*
X175877953Y-96982083D01*
X175977953Y-96982083D01*
X176111286Y-96948750D01*
X176177953Y-96915416D01*
X176244620Y-96848750D01*
X176277953Y-96748750D01*
X176277953Y-96682083D01*
X176244620Y-96582083D01*
X176211286Y-96548750D01*
X175577953Y-96148750D02*
X175611286Y-96215416D01*
X175644620Y-96248750D01*
X175711286Y-96282083D01*
X175911286Y-96282083D01*
X175977953Y-96248750D01*
X176011286Y-96215416D01*
X176044620Y-96148750D01*
X176044620Y-96048750D01*
X176011286Y-95982083D01*
X175977953Y-95948750D01*
X175911286Y-95915416D01*
X175711286Y-95915416D01*
X175644620Y-95948750D01*
X175611286Y-95982083D01*
X175577953Y-96048750D01*
X175577953Y-96148750D01*
X175577953Y-95315416D02*
X176277953Y-95315416D01*
X175611286Y-95315416D02*
X175577953Y-95382083D01*
X175577953Y-95515416D01*
X175611286Y-95582083D01*
X175644620Y-95615416D01*
X175711286Y-95648750D01*
X175911286Y-95648750D01*
X175977953Y-95615416D01*
X176011286Y-95582083D01*
X176044620Y-95515416D01*
X176044620Y-95382083D01*
X176011286Y-95315416D01*
X175611286Y-94715416D02*
X175577953Y-94782083D01*
X175577953Y-94915416D01*
X175611286Y-94982083D01*
X175677953Y-95015416D01*
X175944620Y-95015416D01*
X176011286Y-94982083D01*
X176044620Y-94915416D01*
X176044620Y-94782083D01*
X176011286Y-94715416D01*
X175944620Y-94682083D01*
X175877953Y-94682083D01*
X175811286Y-95015416D01*
X175844620Y-93848750D02*
X175844620Y-93315416D01*
X175577953Y-92448750D02*
X176277953Y-92448750D01*
X176277953Y-92282083D01*
X176244620Y-92182083D01*
X176177953Y-92115416D01*
X176111286Y-92082083D01*
X175977953Y-92048750D01*
X175877953Y-92048750D01*
X175744620Y-92082083D01*
X175677953Y-92115416D01*
X175611286Y-92182083D01*
X175577953Y-92282083D01*
X175577953Y-92448750D01*
X175577953Y-91448750D02*
X175944620Y-91448750D01*
X176011286Y-91482083D01*
X176044620Y-91548750D01*
X176044620Y-91682083D01*
X176011286Y-91748750D01*
X175611286Y-91448750D02*
X175577953Y-91515416D01*
X175577953Y-91682083D01*
X175611286Y-91748750D01*
X175677953Y-91782083D01*
X175744620Y-91782083D01*
X175811286Y-91748750D01*
X175844620Y-91682083D01*
X175844620Y-91515416D01*
X175877953Y-91448750D01*
X176044620Y-91182083D02*
X175577953Y-91015416D01*
X176044620Y-90848750D01*
X175611286Y-90315416D02*
X175577953Y-90382083D01*
X175577953Y-90515416D01*
X175611286Y-90582083D01*
X175677953Y-90615416D01*
X175944620Y-90615416D01*
X176011286Y-90582083D01*
X176044620Y-90515416D01*
X176044620Y-90382083D01*
X176011286Y-90315416D01*
X175944620Y-90282083D01*
X175877953Y-90282083D01*
X175811286Y-90615416D01*
X175944620Y-89215416D02*
X175911286Y-89115416D01*
X175877953Y-89082083D01*
X175811286Y-89048750D01*
X175711286Y-89048750D01*
X175644620Y-89082083D01*
X175611286Y-89115416D01*
X175577953Y-89182083D01*
X175577953Y-89448750D01*
X176277953Y-89448750D01*
X176277953Y-89215416D01*
X176244620Y-89148750D01*
X176211286Y-89115416D01*
X176144620Y-89082083D01*
X176077953Y-89082083D01*
X176011286Y-89115416D01*
X175977953Y-89148750D01*
X175944620Y-89215416D01*
X175944620Y-89448750D01*
X175577953Y-88448750D02*
X175944620Y-88448750D01*
X176011286Y-88482083D01*
X176044620Y-88548750D01*
X176044620Y-88682083D01*
X176011286Y-88748750D01*
X175611286Y-88448750D02*
X175577953Y-88515416D01*
X175577953Y-88682083D01*
X175611286Y-88748750D01*
X175677953Y-88782083D01*
X175744620Y-88782083D01*
X175811286Y-88748750D01*
X175844620Y-88682083D01*
X175844620Y-88515416D01*
X175877953Y-88448750D01*
X176044620Y-88115416D02*
X175577953Y-88115416D01*
X175977953Y-88115416D02*
X176011286Y-88082083D01*
X176044620Y-88015416D01*
X176044620Y-87915416D01*
X176011286Y-87848750D01*
X175944620Y-87815416D01*
X175577953Y-87815416D01*
X175577953Y-87482083D02*
X176277953Y-87482083D01*
X175844620Y-87415416D02*
X175577953Y-87215416D01*
X176044620Y-87215416D02*
X175777953Y-87482083D01*
X175611286Y-86948750D02*
X175577953Y-86882083D01*
X175577953Y-86748750D01*
X175611286Y-86682083D01*
X175677953Y-86648750D01*
X175711286Y-86648750D01*
X175777953Y-86682083D01*
X175811286Y-86748750D01*
X175811286Y-86848750D01*
X175844620Y-86915416D01*
X175911286Y-86948750D01*
X175944620Y-86948750D01*
X176011286Y-86915416D01*
X176044620Y-86848750D01*
X176044620Y-86748750D01*
X176011286Y-86682083D01*
X175311286Y-85615416D02*
X175344620Y-85648750D01*
X175444620Y-85715416D01*
X175511286Y-85748750D01*
X175611286Y-85782083D01*
X175777953Y-85815416D01*
X175911286Y-85815416D01*
X176077953Y-85782083D01*
X176177953Y-85748750D01*
X176244620Y-85715416D01*
X176344620Y-85648750D01*
X176377953Y-85615416D01*
X175577953Y-85348750D02*
X176277953Y-85348750D01*
X175944620Y-85348750D02*
X175944620Y-84948750D01*
X175577953Y-84948750D02*
X176277953Y-84948750D01*
X175577953Y-84515416D02*
X175611286Y-84582083D01*
X175644620Y-84615416D01*
X175711286Y-84648750D01*
X175911286Y-84648750D01*
X175977953Y-84615416D01*
X176011286Y-84582083D01*
X176044620Y-84515416D01*
X176044620Y-84415416D01*
X176011286Y-84348750D01*
X175977953Y-84315416D01*
X175911286Y-84282083D01*
X175711286Y-84282083D01*
X175644620Y-84315416D01*
X175611286Y-84348750D01*
X175577953Y-84415416D01*
X175577953Y-84515416D01*
X176044620Y-83682083D02*
X175477953Y-83682083D01*
X175411286Y-83715416D01*
X175377953Y-83748750D01*
X175344620Y-83815416D01*
X175344620Y-83915416D01*
X175377953Y-83982083D01*
X175611286Y-83682083D02*
X175577953Y-83748750D01*
X175577953Y-83882083D01*
X175611286Y-83948750D01*
X175644620Y-83982083D01*
X175711286Y-84015416D01*
X175911286Y-84015416D01*
X175977953Y-83982083D01*
X176011286Y-83948750D01*
X176044620Y-83882083D01*
X176044620Y-83748750D01*
X176011286Y-83682083D01*
X175577953Y-83248750D02*
X175611286Y-83315416D01*
X175677953Y-83348750D01*
X176277953Y-83348750D01*
X175611286Y-82715416D02*
X175577953Y-82782083D01*
X175577953Y-82915416D01*
X175611286Y-82982083D01*
X175677953Y-83015416D01*
X175944620Y-83015416D01*
X176011286Y-82982083D01*
X176044620Y-82915416D01*
X176044620Y-82782083D01*
X176011286Y-82715416D01*
X175944620Y-82682083D01*
X175877953Y-82682083D01*
X175811286Y-83015416D01*
X176044620Y-82482083D02*
X176044620Y-82215416D01*
X176277953Y-82382083D02*
X175677953Y-82382083D01*
X175611286Y-82348750D01*
X175577953Y-82282083D01*
X175577953Y-82215416D01*
X175311286Y-82048750D02*
X175344620Y-82015416D01*
X175444620Y-81948750D01*
X175511286Y-81915416D01*
X175611286Y-81882083D01*
X175777953Y-81848750D01*
X175911286Y-81848750D01*
X176077953Y-81882083D01*
X176177953Y-81915416D01*
X176244620Y-81948750D01*
X176344620Y-82015416D01*
X176377953Y-82048750D01*
X173057286Y-99882083D02*
X173090620Y-99915416D01*
X173190620Y-99982083D01*
X173257286Y-100015416D01*
X173357286Y-100048750D01*
X173523953Y-100082083D01*
X173657286Y-100082083D01*
X173823953Y-100048750D01*
X173923953Y-100015416D01*
X173990620Y-99982083D01*
X174090620Y-99915416D01*
X174123953Y-99882083D01*
X173390620Y-99215416D02*
X173357286Y-99248750D01*
X173323953Y-99348750D01*
X173323953Y-99415416D01*
X173357286Y-99515416D01*
X173423953Y-99582083D01*
X173490620Y-99615416D01*
X173623953Y-99648750D01*
X173723953Y-99648750D01*
X173857286Y-99615416D01*
X173923953Y-99582083D01*
X173990620Y-99515416D01*
X174023953Y-99415416D01*
X174023953Y-99348750D01*
X173990620Y-99248750D01*
X173957286Y-99215416D01*
X173057286Y-98982083D02*
X173090620Y-98948750D01*
X173190620Y-98882083D01*
X173257286Y-98848750D01*
X173357286Y-98815416D01*
X173523953Y-98782083D01*
X173657286Y-98782083D01*
X173823953Y-98815416D01*
X173923953Y-98848750D01*
X173990620Y-98882083D01*
X174090620Y-98948750D01*
X174123953Y-98982083D01*
X173957286Y-97948750D02*
X173990620Y-97915416D01*
X174023953Y-97848750D01*
X174023953Y-97682083D01*
X173990620Y-97615416D01*
X173957286Y-97582083D01*
X173890620Y-97548750D01*
X173823953Y-97548750D01*
X173723953Y-97582083D01*
X173323953Y-97982083D01*
X173323953Y-97548750D01*
X174023953Y-97115416D02*
X174023953Y-97048750D01*
X173990620Y-96982083D01*
X173957286Y-96948750D01*
X173890620Y-96915416D01*
X173757286Y-96882083D01*
X173590620Y-96882083D01*
X173457286Y-96915416D01*
X173390620Y-96948750D01*
X173357286Y-96982083D01*
X173323953Y-97048750D01*
X173323953Y-97115416D01*
X173357286Y-97182083D01*
X173390620Y-97215416D01*
X173457286Y-97248750D01*
X173590620Y-97282083D01*
X173757286Y-97282083D01*
X173890620Y-97248750D01*
X173957286Y-97215416D01*
X173990620Y-97182083D01*
X174023953Y-97115416D01*
X173957286Y-96615416D02*
X173990620Y-96582083D01*
X174023953Y-96515416D01*
X174023953Y-96348750D01*
X173990620Y-96282083D01*
X173957286Y-96248750D01*
X173890620Y-96215416D01*
X173823953Y-96215416D01*
X173723953Y-96248750D01*
X173323953Y-96648750D01*
X173323953Y-96215416D01*
X173323953Y-95548750D02*
X173323953Y-95948750D01*
X173323953Y-95748750D02*
X174023953Y-95748750D01*
X173923953Y-95815416D01*
X173857286Y-95882083D01*
X173823953Y-95948750D01*
X173523953Y-94748750D02*
X173523953Y-94415416D01*
X173323953Y-94815416D02*
X174023953Y-94582083D01*
X173323953Y-94348750D01*
X173790620Y-94115416D02*
X173323953Y-94115416D01*
X173723953Y-94115416D02*
X173757286Y-94082083D01*
X173790620Y-94015416D01*
X173790620Y-93915416D01*
X173757286Y-93848750D01*
X173690620Y-93815416D01*
X173323953Y-93815416D01*
X173323953Y-93182083D02*
X174023953Y-93182083D01*
X173357286Y-93182083D02*
X173323953Y-93248750D01*
X173323953Y-93382083D01*
X173357286Y-93448750D01*
X173390620Y-93482083D01*
X173457286Y-93515416D01*
X173657286Y-93515416D01*
X173723953Y-93482083D01*
X173757286Y-93448750D01*
X173790620Y-93382083D01*
X173790620Y-93248750D01*
X173757286Y-93182083D01*
X173790620Y-92915416D02*
X173323953Y-92748750D01*
X173790620Y-92582083D02*
X173323953Y-92748750D01*
X173157286Y-92815416D01*
X173123953Y-92848750D01*
X173090620Y-92915416D01*
X173690620Y-91548750D02*
X173657286Y-91448750D01*
X173623953Y-91415416D01*
X173557286Y-91382083D01*
X173457286Y-91382083D01*
X173390620Y-91415416D01*
X173357286Y-91448750D01*
X173323953Y-91515416D01*
X173323953Y-91782083D01*
X174023953Y-91782083D01*
X174023953Y-91548750D01*
X173990620Y-91482083D01*
X173957286Y-91448750D01*
X173890620Y-91415416D01*
X173823953Y-91415416D01*
X173757286Y-91448750D01*
X173723953Y-91482083D01*
X173690620Y-91548750D01*
X173690620Y-91782083D01*
X173790620Y-90782083D02*
X173323953Y-90782083D01*
X173790620Y-91082083D02*
X173423953Y-91082083D01*
X173357286Y-91048750D01*
X173323953Y-90982083D01*
X173323953Y-90882083D01*
X173357286Y-90815416D01*
X173390620Y-90782083D01*
X173323953Y-90448750D02*
X173790620Y-90448750D01*
X173657286Y-90448750D02*
X173723953Y-90415416D01*
X173757286Y-90382083D01*
X173790620Y-90315416D01*
X173790620Y-90248750D01*
X173790620Y-89715416D02*
X173223953Y-89715416D01*
X173157286Y-89748750D01*
X173123953Y-89782083D01*
X173090620Y-89848750D01*
X173090620Y-89948750D01*
X173123953Y-90015416D01*
X173357286Y-89715416D02*
X173323953Y-89782083D01*
X173323953Y-89915416D01*
X173357286Y-89982083D01*
X173390620Y-90015416D01*
X173457286Y-90048750D01*
X173657286Y-90048750D01*
X173723953Y-90015416D01*
X173757286Y-89982083D01*
X173790620Y-89915416D01*
X173790620Y-89782083D01*
X173757286Y-89715416D01*
X173357286Y-89115416D02*
X173323953Y-89182083D01*
X173323953Y-89315416D01*
X173357286Y-89382083D01*
X173423953Y-89415416D01*
X173690620Y-89415416D01*
X173757286Y-89382083D01*
X173790620Y-89315416D01*
X173790620Y-89182083D01*
X173757286Y-89115416D01*
X173690620Y-89082083D01*
X173623953Y-89082083D01*
X173557286Y-89415416D01*
X173357286Y-88815416D02*
X173323953Y-88748750D01*
X173323953Y-88615416D01*
X173357286Y-88548750D01*
X173423953Y-88515416D01*
X173457286Y-88515416D01*
X173523953Y-88548750D01*
X173557286Y-88615416D01*
X173557286Y-88715416D01*
X173590620Y-88782083D01*
X173657286Y-88815416D01*
X173690620Y-88815416D01*
X173757286Y-88782083D01*
X173790620Y-88715416D01*
X173790620Y-88615416D01*
X173757286Y-88548750D01*
X173357286Y-88248750D02*
X173323953Y-88182083D01*
X173323953Y-88048750D01*
X173357286Y-87982083D01*
X173423953Y-87948750D01*
X173457286Y-87948750D01*
X173523953Y-87982083D01*
X173557286Y-88048750D01*
X173557286Y-88148750D01*
X173590620Y-88215416D01*
X173657286Y-88248750D01*
X173690620Y-88248750D01*
X173757286Y-88215416D01*
X173790620Y-88148750D01*
X173790620Y-88048750D01*
X173757286Y-87982083D01*
D11*
X133677707Y-74585485D02*
X134439612Y-74299771D01*
X133677707Y-74014057D01*
D12*
X147449777Y-115853482D02*
X147497396Y-115901101D01*
X147640253Y-115948720D01*
X147735491Y-115948720D01*
X147878348Y-115901101D01*
X147973586Y-115805863D01*
X148021205Y-115710625D01*
X148068824Y-115520149D01*
X148068824Y-115377292D01*
X148021205Y-115186816D01*
X147973586Y-115091578D01*
X147878348Y-114996340D01*
X147735491Y-114948720D01*
X147640253Y-114948720D01*
X147497396Y-114996340D01*
X147449777Y-115043959D01*
X146497396Y-115948720D02*
X147068824Y-115948720D01*
X146783110Y-115948720D02*
X146783110Y-114948720D01*
X146878348Y-115091578D01*
X146973586Y-115186816D01*
X147068824Y-115234435D01*
X146164062Y-114948720D02*
X145497396Y-114948720D01*
X145925967Y-115948720D01*
X162547537Y-101779342D02*
X162595156Y-101826961D01*
X162738013Y-101874580D01*
X162833251Y-101874580D01*
X162976108Y-101826961D01*
X163071346Y-101731723D01*
X163118965Y-101636485D01*
X163166584Y-101446009D01*
X163166584Y-101303152D01*
X163118965Y-101112676D01*
X163071346Y-101017438D01*
X162976108Y-100922200D01*
X162833251Y-100874580D01*
X162738013Y-100874580D01*
X162595156Y-100922200D01*
X162547537Y-100969819D01*
X162214203Y-100874580D02*
X161595156Y-100874580D01*
X161928489Y-101255533D01*
X161785632Y-101255533D01*
X161690394Y-101303152D01*
X161642775Y-101350771D01*
X161595156Y-101446009D01*
X161595156Y-101684104D01*
X161642775Y-101779342D01*
X161690394Y-101826961D01*
X161785632Y-101874580D01*
X162071346Y-101874580D01*
X162166584Y-101826961D01*
X162214203Y-101779342D01*
X160976108Y-100874580D02*
X160880870Y-100874580D01*
X160785632Y-100922200D01*
X160738013Y-100969819D01*
X160690394Y-101065057D01*
X160642775Y-101255533D01*
X160642775Y-101493628D01*
X160690394Y-101684104D01*
X160738013Y-101779342D01*
X160785632Y-101826961D01*
X160880870Y-101874580D01*
X160976108Y-101874580D01*
X161071346Y-101826961D01*
X161118965Y-101779342D01*
X161166584Y-101684104D01*
X161214203Y-101493628D01*
X161214203Y-101255533D01*
X161166584Y-101065057D01*
X161118965Y-100969819D01*
X161071346Y-100922200D01*
X160976108Y-100874580D01*
X154137506Y-104460302D02*
X154185125Y-104507921D01*
X154327982Y-104555540D01*
X154423220Y-104555540D01*
X154566078Y-104507921D01*
X154661316Y-104412683D01*
X154708935Y-104317445D01*
X154756554Y-104126969D01*
X154756554Y-103984112D01*
X154708935Y-103793636D01*
X154661316Y-103698398D01*
X154566078Y-103603160D01*
X154423220Y-103555540D01*
X154327982Y-103555540D01*
X154185125Y-103603160D01*
X154137506Y-103650779D01*
X153756554Y-103650779D02*
X153708935Y-103603160D01*
X153613697Y-103555540D01*
X153375601Y-103555540D01*
X153280363Y-103603160D01*
X153232744Y-103650779D01*
X153185125Y-103746017D01*
X153185125Y-103841255D01*
X153232744Y-103984112D01*
X153804173Y-104555540D01*
X153185125Y-104555540D01*
X146870657Y-103003622D02*
X146918276Y-103051241D01*
X147061133Y-103098860D01*
X147156371Y-103098860D01*
X147299228Y-103051241D01*
X147394466Y-102956003D01*
X147442085Y-102860765D01*
X147489704Y-102670289D01*
X147489704Y-102527432D01*
X147442085Y-102336956D01*
X147394466Y-102241718D01*
X147299228Y-102146480D01*
X147156371Y-102098860D01*
X147061133Y-102098860D01*
X146918276Y-102146480D01*
X146870657Y-102194099D01*
X145918276Y-103098860D02*
X146489704Y-103098860D01*
X146203990Y-103098860D02*
X146203990Y-102098860D01*
X146299228Y-102241718D01*
X146394466Y-102336956D01*
X146489704Y-102384575D01*
X145061133Y-102432194D02*
X145061133Y-103098860D01*
X145299228Y-102051241D02*
X145537323Y-102765527D01*
X144918276Y-102765527D01*
X160660057Y-110938142D02*
X160707676Y-110985761D01*
X160850533Y-111033380D01*
X160945771Y-111033380D01*
X161088628Y-110985761D01*
X161183866Y-110890523D01*
X161231485Y-110795285D01*
X161279104Y-110604809D01*
X161279104Y-110461952D01*
X161231485Y-110271476D01*
X161183866Y-110176238D01*
X161088628Y-110081000D01*
X160945771Y-110033380D01*
X160850533Y-110033380D01*
X160707676Y-110081000D01*
X160660057Y-110128619D01*
X159707676Y-111033380D02*
X160279104Y-111033380D01*
X159993390Y-111033380D02*
X159993390Y-110033380D01*
X160088628Y-110176238D01*
X160183866Y-110271476D01*
X160279104Y-110319095D01*
X158802914Y-110033380D02*
X159279104Y-110033380D01*
X159326723Y-110509571D01*
X159279104Y-110461952D01*
X159183866Y-110414333D01*
X158945771Y-110414333D01*
X158850533Y-110461952D01*
X158802914Y-110509571D01*
X158755295Y-110604809D01*
X158755295Y-110842904D01*
X158802914Y-110938142D01*
X158850533Y-110985761D01*
X158945771Y-111033380D01*
X159183866Y-111033380D01*
X159279104Y-110985761D01*
X159326723Y-110938142D01*
X176264866Y-108408742D02*
X176312485Y-108456361D01*
X176455342Y-108503980D01*
X176550580Y-108503980D01*
X176693438Y-108456361D01*
X176788676Y-108361123D01*
X176836295Y-108265885D01*
X176883914Y-108075409D01*
X176883914Y-107932552D01*
X176836295Y-107742076D01*
X176788676Y-107646838D01*
X176693438Y-107551600D01*
X176550580Y-107503980D01*
X176455342Y-107503980D01*
X176312485Y-107551600D01*
X176264866Y-107599219D01*
X175312485Y-108503980D02*
X175883914Y-108503980D01*
X175598200Y-108503980D02*
X175598200Y-107503980D01*
X175693438Y-107646838D01*
X175788676Y-107742076D01*
X175883914Y-107789695D01*
X153513866Y-102148142D02*
X153561485Y-102195761D01*
X153704342Y-102243380D01*
X153799580Y-102243380D01*
X153942438Y-102195761D01*
X154037676Y-102100523D01*
X154085295Y-102005285D01*
X154132914Y-101814809D01*
X154132914Y-101671952D01*
X154085295Y-101481476D01*
X154037676Y-101386238D01*
X153942438Y-101291000D01*
X153799580Y-101243380D01*
X153704342Y-101243380D01*
X153561485Y-101291000D01*
X153513866Y-101338619D01*
X152609104Y-101243380D02*
X153085295Y-101243380D01*
X153132914Y-101719571D01*
X153085295Y-101671952D01*
X152990057Y-101624333D01*
X152751961Y-101624333D01*
X152656723Y-101671952D01*
X152609104Y-101719571D01*
X152561485Y-101814809D01*
X152561485Y-102052904D01*
X152609104Y-102148142D01*
X152656723Y-102195761D01*
X152751961Y-102243380D01*
X152990057Y-102243380D01*
X153085295Y-102195761D01*
X153132914Y-102148142D01*
X145488866Y-91264702D02*
X145536485Y-91312321D01*
X145679342Y-91359940D01*
X145774580Y-91359940D01*
X145917438Y-91312321D01*
X146012676Y-91217083D01*
X146060295Y-91121845D01*
X146107914Y-90931369D01*
X146107914Y-90788512D01*
X146060295Y-90598036D01*
X146012676Y-90502798D01*
X145917438Y-90407560D01*
X145774580Y-90359940D01*
X145679342Y-90359940D01*
X145536485Y-90407560D01*
X145488866Y-90455179D01*
X145155533Y-90359940D02*
X144488866Y-90359940D01*
X144917438Y-91359940D01*
X156083866Y-115788142D02*
X156131485Y-115835761D01*
X156274342Y-115883380D01*
X156369580Y-115883380D01*
X156512438Y-115835761D01*
X156607676Y-115740523D01*
X156655295Y-115645285D01*
X156702914Y-115454809D01*
X156702914Y-115311952D01*
X156655295Y-115121476D01*
X156607676Y-115026238D01*
X156512438Y-114931000D01*
X156369580Y-114883380D01*
X156274342Y-114883380D01*
X156131485Y-114931000D01*
X156083866Y-114978619D01*
X155750533Y-114883380D02*
X155131485Y-114883380D01*
X155464819Y-115264333D01*
X155321961Y-115264333D01*
X155226723Y-115311952D01*
X155179104Y-115359571D01*
X155131485Y-115454809D01*
X155131485Y-115692904D01*
X155179104Y-115788142D01*
X155226723Y-115835761D01*
X155321961Y-115883380D01*
X155607676Y-115883380D01*
X155702914Y-115835761D01*
X155750533Y-115788142D01*
X151913866Y-110658142D02*
X151961485Y-110705761D01*
X152104342Y-110753380D01*
X152199580Y-110753380D01*
X152342438Y-110705761D01*
X152437676Y-110610523D01*
X152485295Y-110515285D01*
X152532914Y-110324809D01*
X152532914Y-110181952D01*
X152485295Y-109991476D01*
X152437676Y-109896238D01*
X152342438Y-109801000D01*
X152199580Y-109753380D01*
X152104342Y-109753380D01*
X151961485Y-109801000D01*
X151913866Y-109848619D01*
X151437676Y-110753380D02*
X151247200Y-110753380D01*
X151151961Y-110705761D01*
X151104342Y-110658142D01*
X151009104Y-110515285D01*
X150961485Y-110324809D01*
X150961485Y-109943857D01*
X151009104Y-109848619D01*
X151056723Y-109801000D01*
X151151961Y-109753380D01*
X151342438Y-109753380D01*
X151437676Y-109801000D01*
X151485295Y-109848619D01*
X151532914Y-109943857D01*
X151532914Y-110181952D01*
X151485295Y-110277190D01*
X151437676Y-110324809D01*
X151342438Y-110372428D01*
X151151961Y-110372428D01*
X151056723Y-110324809D01*
X151009104Y-110277190D01*
X150961485Y-110181952D01*
X162157706Y-63565042D02*
X162205325Y-63612661D01*
X162348182Y-63660280D01*
X162443420Y-63660280D01*
X162586278Y-63612661D01*
X162681516Y-63517423D01*
X162729135Y-63422185D01*
X162776754Y-63231709D01*
X162776754Y-63088852D01*
X162729135Y-62898376D01*
X162681516Y-62803138D01*
X162586278Y-62707900D01*
X162443420Y-62660280D01*
X162348182Y-62660280D01*
X162205325Y-62707900D01*
X162157706Y-62755519D01*
X161300563Y-62993614D02*
X161300563Y-63660280D01*
X161538659Y-62612661D02*
X161776754Y-63326947D01*
X161157706Y-63326947D01*
X161677646Y-73923182D02*
X161725265Y-73970801D01*
X161868122Y-74018420D01*
X161963360Y-74018420D01*
X162106218Y-73970801D01*
X162201456Y-73875563D01*
X162249075Y-73780325D01*
X162296694Y-73589849D01*
X162296694Y-73446992D01*
X162249075Y-73256516D01*
X162201456Y-73161278D01*
X162106218Y-73066040D01*
X161963360Y-73018420D01*
X161868122Y-73018420D01*
X161725265Y-73066040D01*
X161677646Y-73113659D01*
X160820503Y-73018420D02*
X161010980Y-73018420D01*
X161106218Y-73066040D01*
X161153837Y-73113659D01*
X161249075Y-73256516D01*
X161296694Y-73446992D01*
X161296694Y-73827944D01*
X161249075Y-73923182D01*
X161201456Y-73970801D01*
X161106218Y-74018420D01*
X160915741Y-74018420D01*
X160820503Y-73970801D01*
X160772884Y-73923182D01*
X160725265Y-73827944D01*
X160725265Y-73589849D01*
X160772884Y-73494611D01*
X160820503Y-73446992D01*
X160915741Y-73399373D01*
X161106218Y-73399373D01*
X161201456Y-73446992D01*
X161249075Y-73494611D01*
X161296694Y-73589849D01*
X153798542Y-59650333D02*
X153846161Y-59602714D01*
X153893780Y-59459857D01*
X153893780Y-59364619D01*
X153846161Y-59221761D01*
X153750923Y-59126523D01*
X153655685Y-59078904D01*
X153465209Y-59031285D01*
X153322352Y-59031285D01*
X153131876Y-59078904D01*
X153036638Y-59126523D01*
X152941400Y-59221761D01*
X152893780Y-59364619D01*
X152893780Y-59459857D01*
X152941400Y-59602714D01*
X152989019Y-59650333D01*
X153322352Y-60221761D02*
X153274733Y-60126523D01*
X153227114Y-60078904D01*
X153131876Y-60031285D01*
X153084257Y-60031285D01*
X152989019Y-60078904D01*
X152941400Y-60126523D01*
X152893780Y-60221761D01*
X152893780Y-60412238D01*
X152941400Y-60507476D01*
X152989019Y-60555095D01*
X153084257Y-60602714D01*
X153131876Y-60602714D01*
X153227114Y-60555095D01*
X153274733Y-60507476D01*
X153322352Y-60412238D01*
X153322352Y-60221761D01*
X153369971Y-60126523D01*
X153417590Y-60078904D01*
X153512828Y-60031285D01*
X153703304Y-60031285D01*
X153798542Y-60078904D01*
X153846161Y-60126523D01*
X153893780Y-60221761D01*
X153893780Y-60412238D01*
X153846161Y-60507476D01*
X153798542Y-60555095D01*
X153703304Y-60602714D01*
X153512828Y-60602714D01*
X153417590Y-60555095D01*
X153369971Y-60507476D01*
X153322352Y-60412238D01*
X163060617Y-77910962D02*
X163108236Y-77958581D01*
X163251093Y-78006200D01*
X163346331Y-78006200D01*
X163489188Y-77958581D01*
X163584426Y-77863343D01*
X163632045Y-77768105D01*
X163679664Y-77577629D01*
X163679664Y-77434772D01*
X163632045Y-77244296D01*
X163584426Y-77149058D01*
X163489188Y-77053820D01*
X163346331Y-77006200D01*
X163251093Y-77006200D01*
X163108236Y-77053820D01*
X163060617Y-77101439D01*
X162108236Y-78006200D02*
X162679664Y-78006200D01*
X162393950Y-78006200D02*
X162393950Y-77006200D01*
X162489188Y-77149058D01*
X162584426Y-77244296D01*
X162679664Y-77291915D01*
X161774902Y-77006200D02*
X161155855Y-77006200D01*
X161489188Y-77387153D01*
X161346331Y-77387153D01*
X161251093Y-77434772D01*
X161203474Y-77482391D01*
X161155855Y-77577629D01*
X161155855Y-77815724D01*
X161203474Y-77910962D01*
X161251093Y-77958581D01*
X161346331Y-78006200D01*
X161632045Y-78006200D01*
X161727283Y-77958581D01*
X161774902Y-77910962D01*
X148064457Y-60605942D02*
X148112076Y-60653561D01*
X148254933Y-60701180D01*
X148350171Y-60701180D01*
X148493028Y-60653561D01*
X148588266Y-60558323D01*
X148635885Y-60463085D01*
X148683504Y-60272609D01*
X148683504Y-60129752D01*
X148635885Y-59939276D01*
X148588266Y-59844038D01*
X148493028Y-59748800D01*
X148350171Y-59701180D01*
X148254933Y-59701180D01*
X148112076Y-59748800D01*
X148064457Y-59796419D01*
X147112076Y-60701180D02*
X147683504Y-60701180D01*
X147397790Y-60701180D02*
X147397790Y-59701180D01*
X147493028Y-59844038D01*
X147588266Y-59939276D01*
X147683504Y-59986895D01*
X146635885Y-60701180D02*
X146445409Y-60701180D01*
X146350171Y-60653561D01*
X146302552Y-60605942D01*
X146207314Y-60463085D01*
X146159695Y-60272609D01*
X146159695Y-59891657D01*
X146207314Y-59796419D01*
X146254933Y-59748800D01*
X146350171Y-59701180D01*
X146540647Y-59701180D01*
X146635885Y-59748800D01*
X146683504Y-59796419D01*
X146731123Y-59891657D01*
X146731123Y-60129752D01*
X146683504Y-60224990D01*
X146635885Y-60272609D01*
X146540647Y-60320228D01*
X146350171Y-60320228D01*
X146254933Y-60272609D01*
X146207314Y-60224990D01*
X146159695Y-60129752D01*
X167363377Y-79462902D02*
X167410996Y-79510521D01*
X167553853Y-79558140D01*
X167649091Y-79558140D01*
X167791948Y-79510521D01*
X167887186Y-79415283D01*
X167934805Y-79320045D01*
X167982424Y-79129569D01*
X167982424Y-78986712D01*
X167934805Y-78796236D01*
X167887186Y-78700998D01*
X167791948Y-78605760D01*
X167649091Y-78558140D01*
X167553853Y-78558140D01*
X167410996Y-78605760D01*
X167363377Y-78653379D01*
X166982424Y-78653379D02*
X166934805Y-78605760D01*
X166839567Y-78558140D01*
X166601472Y-78558140D01*
X166506234Y-78605760D01*
X166458615Y-78653379D01*
X166410996Y-78748617D01*
X166410996Y-78843855D01*
X166458615Y-78986712D01*
X167030043Y-79558140D01*
X166410996Y-79558140D01*
X166030043Y-78653379D02*
X165982424Y-78605760D01*
X165887186Y-78558140D01*
X165649091Y-78558140D01*
X165553853Y-78605760D01*
X165506234Y-78653379D01*
X165458615Y-78748617D01*
X165458615Y-78843855D01*
X165506234Y-78986712D01*
X166077662Y-79558140D01*
X165458615Y-79558140D01*
X166314357Y-59015902D02*
X166361976Y-59063521D01*
X166504833Y-59111140D01*
X166600071Y-59111140D01*
X166742928Y-59063521D01*
X166838166Y-58968283D01*
X166885785Y-58873045D01*
X166933404Y-58682569D01*
X166933404Y-58539712D01*
X166885785Y-58349236D01*
X166838166Y-58253998D01*
X166742928Y-58158760D01*
X166600071Y-58111140D01*
X166504833Y-58111140D01*
X166361976Y-58158760D01*
X166314357Y-58206379D01*
X165361976Y-59111140D02*
X165933404Y-59111140D01*
X165647690Y-59111140D02*
X165647690Y-58111140D01*
X165742928Y-58253998D01*
X165838166Y-58349236D01*
X165933404Y-58396855D01*
X164790547Y-58539712D02*
X164885785Y-58492093D01*
X164933404Y-58444474D01*
X164981023Y-58349236D01*
X164981023Y-58301617D01*
X164933404Y-58206379D01*
X164885785Y-58158760D01*
X164790547Y-58111140D01*
X164600071Y-58111140D01*
X164504833Y-58158760D01*
X164457214Y-58206379D01*
X164409595Y-58301617D01*
X164409595Y-58349236D01*
X164457214Y-58444474D01*
X164504833Y-58492093D01*
X164600071Y-58539712D01*
X164790547Y-58539712D01*
X164885785Y-58587331D01*
X164933404Y-58634950D01*
X164981023Y-58730188D01*
X164981023Y-58920664D01*
X164933404Y-59015902D01*
X164885785Y-59063521D01*
X164790547Y-59111140D01*
X164600071Y-59111140D01*
X164504833Y-59063521D01*
X164457214Y-59015902D01*
X164409595Y-58920664D01*
X164409595Y-58730188D01*
X164457214Y-58634950D01*
X164504833Y-58587331D01*
X164600071Y-58539712D01*
X141384257Y-74837562D02*
X141431876Y-74885181D01*
X141574733Y-74932800D01*
X141669971Y-74932800D01*
X141812828Y-74885181D01*
X141908066Y-74789943D01*
X141955685Y-74694705D01*
X142003304Y-74504229D01*
X142003304Y-74361372D01*
X141955685Y-74170896D01*
X141908066Y-74075658D01*
X141812828Y-73980420D01*
X141669971Y-73932800D01*
X141574733Y-73932800D01*
X141431876Y-73980420D01*
X141384257Y-74028039D01*
X141003304Y-74028039D02*
X140955685Y-73980420D01*
X140860447Y-73932800D01*
X140622352Y-73932800D01*
X140527114Y-73980420D01*
X140479495Y-74028039D01*
X140431876Y-74123277D01*
X140431876Y-74218515D01*
X140479495Y-74361372D01*
X141050923Y-74932800D01*
X140431876Y-74932800D01*
X140098542Y-73932800D02*
X139479495Y-73932800D01*
X139812828Y-74313753D01*
X139669971Y-74313753D01*
X139574733Y-74361372D01*
X139527114Y-74408991D01*
X139479495Y-74504229D01*
X139479495Y-74742324D01*
X139527114Y-74837562D01*
X139574733Y-74885181D01*
X139669971Y-74932800D01*
X139955685Y-74932800D01*
X140050923Y-74885181D01*
X140098542Y-74837562D01*
X143670057Y-80758142D02*
X143717676Y-80805761D01*
X143860533Y-80853380D01*
X143955771Y-80853380D01*
X144098628Y-80805761D01*
X144193866Y-80710523D01*
X144241485Y-80615285D01*
X144289104Y-80424809D01*
X144289104Y-80281952D01*
X144241485Y-80091476D01*
X144193866Y-79996238D01*
X144098628Y-79901000D01*
X143955771Y-79853380D01*
X143860533Y-79853380D01*
X143717676Y-79901000D01*
X143670057Y-79948619D01*
X143289104Y-79948619D02*
X143241485Y-79901000D01*
X143146247Y-79853380D01*
X142908152Y-79853380D01*
X142812914Y-79901000D01*
X142765295Y-79948619D01*
X142717676Y-80043857D01*
X142717676Y-80139095D01*
X142765295Y-80281952D01*
X143336723Y-80853380D01*
X142717676Y-80853380D01*
X141812914Y-79853380D02*
X142289104Y-79853380D01*
X142336723Y-80329571D01*
X142289104Y-80281952D01*
X142193866Y-80234333D01*
X141955771Y-80234333D01*
X141860533Y-80281952D01*
X141812914Y-80329571D01*
X141765295Y-80424809D01*
X141765295Y-80662904D01*
X141812914Y-80758142D01*
X141860533Y-80805761D01*
X141955771Y-80853380D01*
X142193866Y-80853380D01*
X142289104Y-80805761D01*
X142336723Y-80758142D01*
X153929317Y-81096102D02*
X153976936Y-81143721D01*
X154119793Y-81191340D01*
X154215031Y-81191340D01*
X154357888Y-81143721D01*
X154453126Y-81048483D01*
X154500745Y-80953245D01*
X154548364Y-80762769D01*
X154548364Y-80619912D01*
X154500745Y-80429436D01*
X154453126Y-80334198D01*
X154357888Y-80238960D01*
X154215031Y-80191340D01*
X154119793Y-80191340D01*
X153976936Y-80238960D01*
X153929317Y-80286579D01*
X153548364Y-80286579D02*
X153500745Y-80238960D01*
X153405507Y-80191340D01*
X153167412Y-80191340D01*
X153072174Y-80238960D01*
X153024555Y-80286579D01*
X152976936Y-80381817D01*
X152976936Y-80477055D01*
X153024555Y-80619912D01*
X153595983Y-81191340D01*
X152976936Y-81191340D01*
X152643602Y-80191340D02*
X151976936Y-80191340D01*
X152405507Y-81191340D01*
X143385777Y-66219342D02*
X143433396Y-66266961D01*
X143576253Y-66314580D01*
X143671491Y-66314580D01*
X143814348Y-66266961D01*
X143909586Y-66171723D01*
X143957205Y-66076485D01*
X144004824Y-65886009D01*
X144004824Y-65743152D01*
X143957205Y-65552676D01*
X143909586Y-65457438D01*
X143814348Y-65362200D01*
X143671491Y-65314580D01*
X143576253Y-65314580D01*
X143433396Y-65362200D01*
X143385777Y-65409819D01*
X143004824Y-65409819D02*
X142957205Y-65362200D01*
X142861967Y-65314580D01*
X142623872Y-65314580D01*
X142528634Y-65362200D01*
X142481015Y-65409819D01*
X142433396Y-65505057D01*
X142433396Y-65600295D01*
X142481015Y-65743152D01*
X143052443Y-66314580D01*
X142433396Y-66314580D01*
X141957205Y-66314580D02*
X141766729Y-66314580D01*
X141671491Y-66266961D01*
X141623872Y-66219342D01*
X141528634Y-66076485D01*
X141481015Y-65886009D01*
X141481015Y-65505057D01*
X141528634Y-65409819D01*
X141576253Y-65362200D01*
X141671491Y-65314580D01*
X141861967Y-65314580D01*
X141957205Y-65362200D01*
X142004824Y-65409819D01*
X142052443Y-65505057D01*
X142052443Y-65743152D01*
X142004824Y-65838390D01*
X141957205Y-65886009D01*
X141861967Y-65933628D01*
X141671491Y-65933628D01*
X141576253Y-65886009D01*
X141528634Y-65838390D01*
X141481015Y-65743152D01*
X140737886Y-69380360D02*
X141071220Y-68904170D01*
X141309315Y-69380360D02*
X141309315Y-68380360D01*
X140928362Y-68380360D01*
X140833124Y-68427980D01*
X140785505Y-68475599D01*
X140737886Y-68570837D01*
X140737886Y-68713694D01*
X140785505Y-68808932D01*
X140833124Y-68856551D01*
X140928362Y-68904170D01*
X141309315Y-68904170D01*
X140404553Y-68380360D02*
X139737886Y-68380360D01*
X140166458Y-69380360D01*
X152131020Y-59701133D02*
X151654830Y-59367800D01*
X152131020Y-59129704D02*
X151131020Y-59129704D01*
X151131020Y-59510657D01*
X151178640Y-59605895D01*
X151226259Y-59653514D01*
X151321497Y-59701133D01*
X151464354Y-59701133D01*
X151559592Y-59653514D01*
X151607211Y-59605895D01*
X151654830Y-59510657D01*
X151654830Y-59129704D01*
X151559592Y-60272561D02*
X151511973Y-60177323D01*
X151464354Y-60129704D01*
X151369116Y-60082085D01*
X151321497Y-60082085D01*
X151226259Y-60129704D01*
X151178640Y-60177323D01*
X151131020Y-60272561D01*
X151131020Y-60463038D01*
X151178640Y-60558276D01*
X151226259Y-60605895D01*
X151321497Y-60653514D01*
X151369116Y-60653514D01*
X151464354Y-60605895D01*
X151511973Y-60558276D01*
X151559592Y-60463038D01*
X151559592Y-60272561D01*
X151607211Y-60177323D01*
X151654830Y-60129704D01*
X151750068Y-60082085D01*
X151940544Y-60082085D01*
X152035782Y-60129704D01*
X152083401Y-60177323D01*
X152131020Y-60272561D01*
X152131020Y-60463038D01*
X152083401Y-60558276D01*
X152035782Y-60605895D01*
X151940544Y-60653514D01*
X151750068Y-60653514D01*
X151654830Y-60605895D01*
X151607211Y-60558276D01*
X151559592Y-60463038D01*
X150210780Y-59675733D02*
X149734590Y-59342400D01*
X150210780Y-59104304D02*
X149210780Y-59104304D01*
X149210780Y-59485257D01*
X149258400Y-59580495D01*
X149306019Y-59628114D01*
X149401257Y-59675733D01*
X149544114Y-59675733D01*
X149639352Y-59628114D01*
X149686971Y-59580495D01*
X149734590Y-59485257D01*
X149734590Y-59104304D01*
X150210780Y-60151923D02*
X150210780Y-60342400D01*
X150163161Y-60437638D01*
X150115542Y-60485257D01*
X149972685Y-60580495D01*
X149782209Y-60628114D01*
X149401257Y-60628114D01*
X149306019Y-60580495D01*
X149258400Y-60532876D01*
X149210780Y-60437638D01*
X149210780Y-60247161D01*
X149258400Y-60151923D01*
X149306019Y-60104304D01*
X149401257Y-60056685D01*
X149639352Y-60056685D01*
X149734590Y-60104304D01*
X149782209Y-60151923D01*
X149829828Y-60247161D01*
X149829828Y-60437638D01*
X149782209Y-60532876D01*
X149734590Y-60580495D01*
X149639352Y-60628114D01*
X144991057Y-58618380D02*
X145324390Y-58142190D01*
X145562485Y-58618380D02*
X145562485Y-57618380D01*
X145181533Y-57618380D01*
X145086295Y-57666000D01*
X145038676Y-57713619D01*
X144991057Y-57808857D01*
X144991057Y-57951714D01*
X145038676Y-58046952D01*
X145086295Y-58094571D01*
X145181533Y-58142190D01*
X145562485Y-58142190D01*
X144038676Y-58618380D02*
X144610104Y-58618380D01*
X144324390Y-58618380D02*
X144324390Y-57618380D01*
X144419628Y-57761238D01*
X144514866Y-57856476D01*
X144610104Y-57904095D01*
X143419628Y-57618380D02*
X143324390Y-57618380D01*
X143229152Y-57666000D01*
X143181533Y-57713619D01*
X143133914Y-57808857D01*
X143086295Y-57999333D01*
X143086295Y-58237428D01*
X143133914Y-58427904D01*
X143181533Y-58523142D01*
X143229152Y-58570761D01*
X143324390Y-58618380D01*
X143419628Y-58618380D01*
X143514866Y-58570761D01*
X143562485Y-58523142D01*
X143610104Y-58427904D01*
X143657723Y-58237428D01*
X143657723Y-57999333D01*
X143610104Y-57808857D01*
X143562485Y-57713619D01*
X143514866Y-57666000D01*
X143419628Y-57618380D01*
X164655737Y-70466222D02*
X164703356Y-70513841D01*
X164846213Y-70561460D01*
X164941451Y-70561460D01*
X165084308Y-70513841D01*
X165179546Y-70418603D01*
X165227165Y-70323365D01*
X165274784Y-70132889D01*
X165274784Y-69990032D01*
X165227165Y-69799556D01*
X165179546Y-69704318D01*
X165084308Y-69609080D01*
X164941451Y-69561460D01*
X164846213Y-69561460D01*
X164703356Y-69609080D01*
X164655737Y-69656699D01*
X164274784Y-69656699D02*
X164227165Y-69609080D01*
X164131927Y-69561460D01*
X163893832Y-69561460D01*
X163798594Y-69609080D01*
X163750975Y-69656699D01*
X163703356Y-69751937D01*
X163703356Y-69847175D01*
X163750975Y-69990032D01*
X164322403Y-70561460D01*
X163703356Y-70561460D01*
X162750975Y-70561460D02*
X163322403Y-70561460D01*
X163036689Y-70561460D02*
X163036689Y-69561460D01*
X163131927Y-69704318D01*
X163227165Y-69799556D01*
X163322403Y-69847175D01*
X155595580Y-58767742D02*
X155119390Y-58434409D01*
X155595580Y-58196314D02*
X154595580Y-58196314D01*
X154595580Y-58577266D01*
X154643200Y-58672504D01*
X154690819Y-58720123D01*
X154786057Y-58767742D01*
X154928914Y-58767742D01*
X155024152Y-58720123D01*
X155071771Y-58672504D01*
X155119390Y-58577266D01*
X155119390Y-58196314D01*
X155595580Y-59720123D02*
X155595580Y-59148695D01*
X155595580Y-59434409D02*
X154595580Y-59434409D01*
X154738438Y-59339171D01*
X154833676Y-59243933D01*
X154881295Y-59148695D01*
X155595580Y-60672504D02*
X155595580Y-60101076D01*
X155595580Y-60386790D02*
X154595580Y-60386790D01*
X154738438Y-60291552D01*
X154833676Y-60196314D01*
X154881295Y-60101076D01*
X144848817Y-73239902D02*
X144896436Y-73287521D01*
X145039293Y-73335140D01*
X145134531Y-73335140D01*
X145277388Y-73287521D01*
X145372626Y-73192283D01*
X145420245Y-73097045D01*
X145467864Y-72906569D01*
X145467864Y-72763712D01*
X145420245Y-72573236D01*
X145372626Y-72477998D01*
X145277388Y-72382760D01*
X145134531Y-72335140D01*
X145039293Y-72335140D01*
X144896436Y-72382760D01*
X144848817Y-72430379D01*
X144467864Y-72430379D02*
X144420245Y-72382760D01*
X144325007Y-72335140D01*
X144086912Y-72335140D01*
X143991674Y-72382760D01*
X143944055Y-72430379D01*
X143896436Y-72525617D01*
X143896436Y-72620855D01*
X143944055Y-72763712D01*
X144515483Y-73335140D01*
X143896436Y-73335140D01*
X143039293Y-72335140D02*
X143229769Y-72335140D01*
X143325007Y-72382760D01*
X143372626Y-72430379D01*
X143467864Y-72573236D01*
X143515483Y-72763712D01*
X143515483Y-73144664D01*
X143467864Y-73239902D01*
X143420245Y-73287521D01*
X143325007Y-73335140D01*
X143134531Y-73335140D01*
X143039293Y-73287521D01*
X142991674Y-73239902D01*
X142944055Y-73144664D01*
X142944055Y-72906569D01*
X142991674Y-72811331D01*
X143039293Y-72763712D01*
X143134531Y-72716093D01*
X143325007Y-72716093D01*
X143420245Y-72763712D01*
X143467864Y-72811331D01*
X143515483Y-72906569D01*
X169529997Y-108307142D02*
X169577616Y-108354761D01*
X169720473Y-108402380D01*
X169815711Y-108402380D01*
X169958568Y-108354761D01*
X170053806Y-108259523D01*
X170101425Y-108164285D01*
X170149044Y-107973809D01*
X170149044Y-107830952D01*
X170101425Y-107640476D01*
X170053806Y-107545238D01*
X169958568Y-107450000D01*
X169815711Y-107402380D01*
X169720473Y-107402380D01*
X169577616Y-107450000D01*
X169529997Y-107497619D01*
X168577616Y-108402380D02*
X169149044Y-108402380D01*
X168863330Y-108402380D02*
X168863330Y-107402380D01*
X168958568Y-107545238D01*
X169053806Y-107640476D01*
X169149044Y-107688095D01*
X167625235Y-108402380D02*
X168196663Y-108402380D01*
X167910949Y-108402380D02*
X167910949Y-107402380D01*
X168006187Y-107545238D01*
X168101425Y-107640476D01*
X168196663Y-107688095D01*
X174322977Y-62587142D02*
X174370596Y-62634761D01*
X174513453Y-62682380D01*
X174608691Y-62682380D01*
X174751548Y-62634761D01*
X174846786Y-62539523D01*
X174894405Y-62444285D01*
X174942024Y-62253809D01*
X174942024Y-62110952D01*
X174894405Y-61920476D01*
X174846786Y-61825238D01*
X174751548Y-61730000D01*
X174608691Y-61682380D01*
X174513453Y-61682380D01*
X174370596Y-61730000D01*
X174322977Y-61777619D01*
X173989643Y-61682380D02*
X173370596Y-61682380D01*
X173703929Y-62063333D01*
X173561072Y-62063333D01*
X173465834Y-62110952D01*
X173418215Y-62158571D01*
X173370596Y-62253809D01*
X173370596Y-62491904D01*
X173418215Y-62587142D01*
X173465834Y-62634761D01*
X173561072Y-62682380D01*
X173846786Y-62682380D01*
X173942024Y-62634761D01*
X173989643Y-62587142D01*
X172418215Y-62682380D02*
X172989643Y-62682380D01*
X172703929Y-62682380D02*
X172703929Y-61682380D01*
X172799167Y-61825238D01*
X172894405Y-61920476D01*
X172989643Y-61968095D01*
X175510723Y-73546720D02*
X174844057Y-74546720D01*
X174844057Y-73546720D02*
X175510723Y-74546720D01*
X173939295Y-74546720D02*
X174510723Y-74546720D01*
X174225009Y-74546720D02*
X174225009Y-73546720D01*
X174320247Y-73689578D01*
X174415485Y-73784816D01*
X174510723Y-73832435D01*
X160032937Y-61733702D02*
X160080556Y-61781321D01*
X160223413Y-61828940D01*
X160318651Y-61828940D01*
X160461508Y-61781321D01*
X160556746Y-61686083D01*
X160604365Y-61590845D01*
X160651984Y-61400369D01*
X160651984Y-61257512D01*
X160604365Y-61067036D01*
X160556746Y-60971798D01*
X160461508Y-60876560D01*
X160318651Y-60828940D01*
X160223413Y-60828940D01*
X160080556Y-60876560D01*
X160032937Y-60924179D01*
X159080556Y-61828940D02*
X159651984Y-61828940D01*
X159366270Y-61828940D02*
X159366270Y-60828940D01*
X159461508Y-60971798D01*
X159556746Y-61067036D01*
X159651984Y-61114655D01*
X158461508Y-60828940D02*
X158366270Y-60828940D01*
X158271032Y-60876560D01*
X158223413Y-60924179D01*
X158175794Y-61019417D01*
X158128175Y-61209893D01*
X158128175Y-61447988D01*
X158175794Y-61638464D01*
X158223413Y-61733702D01*
X158271032Y-61781321D01*
X158366270Y-61828940D01*
X158461508Y-61828940D01*
X158556746Y-61781321D01*
X158604365Y-61733702D01*
X158651984Y-61638464D01*
X158699603Y-61447988D01*
X158699603Y-61209893D01*
X158651984Y-61019417D01*
X158604365Y-60924179D01*
X158556746Y-60876560D01*
X158461508Y-60828940D01*
X156141324Y-70453000D02*
X156141324Y-71262524D01*
X156093705Y-71357762D01*
X156046086Y-71405381D01*
X155950848Y-71453000D01*
X155760372Y-71453000D01*
X155665134Y-71405381D01*
X155617515Y-71357762D01*
X155569896Y-71262524D01*
X155569896Y-70453000D01*
X154950848Y-70881572D02*
X155046086Y-70833953D01*
X155093705Y-70786334D01*
X155141324Y-70691096D01*
X155141324Y-70643477D01*
X155093705Y-70548239D01*
X155046086Y-70500620D01*
X154950848Y-70453000D01*
X154760372Y-70453000D01*
X154665134Y-70500620D01*
X154617515Y-70548239D01*
X154569896Y-70643477D01*
X154569896Y-70691096D01*
X154617515Y-70786334D01*
X154665134Y-70833953D01*
X154760372Y-70881572D01*
X154950848Y-70881572D01*
X155046086Y-70929191D01*
X155093705Y-70976810D01*
X155141324Y-71072048D01*
X155141324Y-71262524D01*
X155093705Y-71357762D01*
X155046086Y-71405381D01*
X154950848Y-71453000D01*
X154760372Y-71453000D01*
X154665134Y-71405381D01*
X154617515Y-71357762D01*
X154569896Y-71262524D01*
X154569896Y-71072048D01*
X154617515Y-70976810D01*
X154665134Y-70929191D01*
X154760372Y-70881572D01*
X142654257Y-62510942D02*
X142701876Y-62558561D01*
X142844733Y-62606180D01*
X142939971Y-62606180D01*
X143082828Y-62558561D01*
X143178066Y-62463323D01*
X143225685Y-62368085D01*
X143273304Y-62177609D01*
X143273304Y-62034752D01*
X143225685Y-61844276D01*
X143178066Y-61749038D01*
X143082828Y-61653800D01*
X142939971Y-61606180D01*
X142844733Y-61606180D01*
X142701876Y-61653800D01*
X142654257Y-61701419D01*
X141701876Y-62606180D02*
X142273304Y-62606180D01*
X141987590Y-62606180D02*
X141987590Y-61606180D01*
X142082828Y-61749038D01*
X142178066Y-61844276D01*
X142273304Y-61891895D01*
X141320923Y-61701419D02*
X141273304Y-61653800D01*
X141178066Y-61606180D01*
X140939971Y-61606180D01*
X140844733Y-61653800D01*
X140797114Y-61701419D01*
X140749495Y-61796657D01*
X140749495Y-61891895D01*
X140797114Y-62034752D01*
X141368542Y-62606180D01*
X140749495Y-62606180D01*
X140355580Y-109440742D02*
X139879390Y-109107409D01*
X140355580Y-108869314D02*
X139355580Y-108869314D01*
X139355580Y-109250266D01*
X139403200Y-109345504D01*
X139450819Y-109393123D01*
X139546057Y-109440742D01*
X139688914Y-109440742D01*
X139784152Y-109393123D01*
X139831771Y-109345504D01*
X139879390Y-109250266D01*
X139879390Y-108869314D01*
X140355580Y-110393123D02*
X140355580Y-109821695D01*
X140355580Y-110107409D02*
X139355580Y-110107409D01*
X139498438Y-110012171D01*
X139593676Y-109916933D01*
X139641295Y-109821695D01*
X139450819Y-110774076D02*
X139403200Y-110821695D01*
X139355580Y-110916933D01*
X139355580Y-111155028D01*
X139403200Y-111250266D01*
X139450819Y-111297885D01*
X139546057Y-111345504D01*
X139641295Y-111345504D01*
X139784152Y-111297885D01*
X140355580Y-110726457D01*
X140355580Y-111345504D01*
X176677580Y-116781342D02*
X176201390Y-116448009D01*
X176677580Y-116209914D02*
X175677580Y-116209914D01*
X175677580Y-116590866D01*
X175725200Y-116686104D01*
X175772819Y-116733723D01*
X175868057Y-116781342D01*
X176010914Y-116781342D01*
X176106152Y-116733723D01*
X176153771Y-116686104D01*
X176201390Y-116590866D01*
X176201390Y-116209914D01*
X176677580Y-117733723D02*
X176677580Y-117162295D01*
X176677580Y-117448009D02*
X175677580Y-117448009D01*
X175820438Y-117352771D01*
X175915676Y-117257533D01*
X175963295Y-117162295D01*
X176010914Y-118590866D02*
X176677580Y-118590866D01*
X175629961Y-118352771D02*
X176344247Y-118114676D01*
X176344247Y-118733723D01*
X156827457Y-76347580D02*
X157160790Y-75871390D01*
X157398885Y-76347580D02*
X157398885Y-75347580D01*
X157017933Y-75347580D01*
X156922695Y-75395200D01*
X156875076Y-75442819D01*
X156827457Y-75538057D01*
X156827457Y-75680914D01*
X156875076Y-75776152D01*
X156922695Y-75823771D01*
X157017933Y-75871390D01*
X157398885Y-75871390D01*
X155875076Y-76347580D02*
X156446504Y-76347580D01*
X156160790Y-76347580D02*
X156160790Y-75347580D01*
X156256028Y-75490438D01*
X156351266Y-75585676D01*
X156446504Y-75633295D01*
X154970314Y-75347580D02*
X155446504Y-75347580D01*
X155494123Y-75823771D01*
X155446504Y-75776152D01*
X155351266Y-75728533D01*
X155113171Y-75728533D01*
X155017933Y-75776152D01*
X154970314Y-75823771D01*
X154922695Y-75919009D01*
X154922695Y-76157104D01*
X154970314Y-76252342D01*
X155017933Y-76299961D01*
X155113171Y-76347580D01*
X155351266Y-76347580D01*
X155446504Y-76299961D01*
X155494123Y-76252342D01*
X167383697Y-83860880D02*
X167717030Y-83384690D01*
X167955125Y-83860880D02*
X167955125Y-82860880D01*
X167574173Y-82860880D01*
X167478935Y-82908500D01*
X167431316Y-82956119D01*
X167383697Y-83051357D01*
X167383697Y-83194214D01*
X167431316Y-83289452D01*
X167478935Y-83337071D01*
X167574173Y-83384690D01*
X167955125Y-83384690D01*
X166431316Y-83860880D02*
X167002744Y-83860880D01*
X166717030Y-83860880D02*
X166717030Y-82860880D01*
X166812268Y-83003738D01*
X166907506Y-83098976D01*
X167002744Y-83146595D01*
X165574173Y-82860880D02*
X165764649Y-82860880D01*
X165859887Y-82908500D01*
X165907506Y-82956119D01*
X166002744Y-83098976D01*
X166050363Y-83289452D01*
X166050363Y-83670404D01*
X166002744Y-83765642D01*
X165955125Y-83813261D01*
X165859887Y-83860880D01*
X165669411Y-83860880D01*
X165574173Y-83813261D01*
X165526554Y-83765642D01*
X165478935Y-83670404D01*
X165478935Y-83432309D01*
X165526554Y-83337071D01*
X165574173Y-83289452D01*
X165669411Y-83241833D01*
X165859887Y-83241833D01*
X165955125Y-83289452D01*
X166002744Y-83337071D01*
X166050363Y-83432309D01*
X166560737Y-62027060D02*
X166894070Y-61550870D01*
X167132165Y-62027060D02*
X167132165Y-61027060D01*
X166751213Y-61027060D01*
X166655975Y-61074680D01*
X166608356Y-61122299D01*
X166560737Y-61217537D01*
X166560737Y-61360394D01*
X166608356Y-61455632D01*
X166655975Y-61503251D01*
X166751213Y-61550870D01*
X167132165Y-61550870D01*
X166179784Y-61122299D02*
X166132165Y-61074680D01*
X166036927Y-61027060D01*
X165798832Y-61027060D01*
X165703594Y-61074680D01*
X165655975Y-61122299D01*
X165608356Y-61217537D01*
X165608356Y-61312775D01*
X165655975Y-61455632D01*
X166227403Y-62027060D01*
X165608356Y-62027060D01*
X164655975Y-62027060D02*
X165227403Y-62027060D01*
X164941689Y-62027060D02*
X164941689Y-61027060D01*
X165036927Y-61169918D01*
X165132165Y-61265156D01*
X165227403Y-61312775D01*
X166575977Y-63637420D02*
X166909310Y-63161230D01*
X167147405Y-63637420D02*
X167147405Y-62637420D01*
X166766453Y-62637420D01*
X166671215Y-62685040D01*
X166623596Y-62732659D01*
X166575977Y-62827897D01*
X166575977Y-62970754D01*
X166623596Y-63065992D01*
X166671215Y-63113611D01*
X166766453Y-63161230D01*
X167147405Y-63161230D01*
X166195024Y-62732659D02*
X166147405Y-62685040D01*
X166052167Y-62637420D01*
X165814072Y-62637420D01*
X165718834Y-62685040D01*
X165671215Y-62732659D01*
X165623596Y-62827897D01*
X165623596Y-62923135D01*
X165671215Y-63065992D01*
X166242643Y-63637420D01*
X165623596Y-63637420D01*
X165242643Y-62732659D02*
X165195024Y-62685040D01*
X165099786Y-62637420D01*
X164861691Y-62637420D01*
X164766453Y-62685040D01*
X164718834Y-62732659D01*
X164671215Y-62827897D01*
X164671215Y-62923135D01*
X164718834Y-63065992D01*
X165290262Y-63637420D01*
X164671215Y-63637420D01*
X166555657Y-65161420D02*
X166888990Y-64685230D01*
X167127085Y-65161420D02*
X167127085Y-64161420D01*
X166746133Y-64161420D01*
X166650895Y-64209040D01*
X166603276Y-64256659D01*
X166555657Y-64351897D01*
X166555657Y-64494754D01*
X166603276Y-64589992D01*
X166650895Y-64637611D01*
X166746133Y-64685230D01*
X167127085Y-64685230D01*
X166174704Y-64256659D02*
X166127085Y-64209040D01*
X166031847Y-64161420D01*
X165793752Y-64161420D01*
X165698514Y-64209040D01*
X165650895Y-64256659D01*
X165603276Y-64351897D01*
X165603276Y-64447135D01*
X165650895Y-64589992D01*
X166222323Y-65161420D01*
X165603276Y-65161420D01*
X165269942Y-64161420D02*
X164650895Y-64161420D01*
X164984228Y-64542373D01*
X164841371Y-64542373D01*
X164746133Y-64589992D01*
X164698514Y-64637611D01*
X164650895Y-64732849D01*
X164650895Y-64970944D01*
X164698514Y-65066182D01*
X164746133Y-65113801D01*
X164841371Y-65161420D01*
X165127085Y-65161420D01*
X165222323Y-65113801D01*
X165269942Y-65066182D01*
X166586137Y-66924180D02*
X166919470Y-66447990D01*
X167157565Y-66924180D02*
X167157565Y-65924180D01*
X166776613Y-65924180D01*
X166681375Y-65971800D01*
X166633756Y-66019419D01*
X166586137Y-66114657D01*
X166586137Y-66257514D01*
X166633756Y-66352752D01*
X166681375Y-66400371D01*
X166776613Y-66447990D01*
X167157565Y-66447990D01*
X166205184Y-66019419D02*
X166157565Y-65971800D01*
X166062327Y-65924180D01*
X165824232Y-65924180D01*
X165728994Y-65971800D01*
X165681375Y-66019419D01*
X165633756Y-66114657D01*
X165633756Y-66209895D01*
X165681375Y-66352752D01*
X166252803Y-66924180D01*
X165633756Y-66924180D01*
X164776613Y-66257514D02*
X164776613Y-66924180D01*
X165014708Y-65876561D02*
X165252803Y-66590847D01*
X164633756Y-66590847D01*
X146054977Y-85360182D02*
X146102596Y-85407801D01*
X146245453Y-85455420D01*
X146340691Y-85455420D01*
X146483548Y-85407801D01*
X146578786Y-85312563D01*
X146626405Y-85217325D01*
X146674024Y-85026849D01*
X146674024Y-84883992D01*
X146626405Y-84693516D01*
X146578786Y-84598278D01*
X146483548Y-84503040D01*
X146340691Y-84455420D01*
X146245453Y-84455420D01*
X146102596Y-84503040D01*
X146054977Y-84550659D01*
X145102596Y-85455420D02*
X145674024Y-85455420D01*
X145388310Y-85455420D02*
X145388310Y-84455420D01*
X145483548Y-84598278D01*
X145578786Y-84693516D01*
X145674024Y-84741135D01*
X144245453Y-84455420D02*
X144435929Y-84455420D01*
X144531167Y-84503040D01*
X144578786Y-84550659D01*
X144674024Y-84693516D01*
X144721643Y-84883992D01*
X144721643Y-85264944D01*
X144674024Y-85360182D01*
X144626405Y-85407801D01*
X144531167Y-85455420D01*
X144340691Y-85455420D01*
X144245453Y-85407801D01*
X144197834Y-85360182D01*
X144150215Y-85264944D01*
X144150215Y-85026849D01*
X144197834Y-84931611D01*
X144245453Y-84883992D01*
X144340691Y-84836373D01*
X144531167Y-84836373D01*
X144626405Y-84883992D01*
X144674024Y-84931611D01*
X144721643Y-85026849D01*
X143401017Y-68016380D02*
X143734350Y-67540190D01*
X143972445Y-68016380D02*
X143972445Y-67016380D01*
X143591493Y-67016380D01*
X143496255Y-67064000D01*
X143448636Y-67111619D01*
X143401017Y-67206857D01*
X143401017Y-67349714D01*
X143448636Y-67444952D01*
X143496255Y-67492571D01*
X143591493Y-67540190D01*
X143972445Y-67540190D01*
X143020064Y-67111619D02*
X142972445Y-67064000D01*
X142877207Y-67016380D01*
X142639112Y-67016380D01*
X142543874Y-67064000D01*
X142496255Y-67111619D01*
X142448636Y-67206857D01*
X142448636Y-67302095D01*
X142496255Y-67444952D01*
X143067683Y-68016380D01*
X142448636Y-68016380D01*
X141829588Y-67016380D02*
X141734350Y-67016380D01*
X141639112Y-67064000D01*
X141591493Y-67111619D01*
X141543874Y-67206857D01*
X141496255Y-67397333D01*
X141496255Y-67635428D01*
X141543874Y-67825904D01*
X141591493Y-67921142D01*
X141639112Y-67968761D01*
X141734350Y-68016380D01*
X141829588Y-68016380D01*
X141924826Y-67968761D01*
X141972445Y-67921142D01*
X142020064Y-67825904D01*
X142067683Y-67635428D01*
X142067683Y-67397333D01*
X142020064Y-67206857D01*
X141972445Y-67111619D01*
X141924826Y-67064000D01*
X141829588Y-67016380D01*
X134960597Y-79004420D02*
X135293930Y-78528230D01*
X135532025Y-79004420D02*
X135532025Y-78004420D01*
X135151073Y-78004420D01*
X135055835Y-78052040D01*
X135008216Y-78099659D01*
X134960597Y-78194897D01*
X134960597Y-78337754D01*
X135008216Y-78432992D01*
X135055835Y-78480611D01*
X135151073Y-78528230D01*
X135532025Y-78528230D01*
X134008216Y-79004420D02*
X134579644Y-79004420D01*
X134293930Y-79004420D02*
X134293930Y-78004420D01*
X134389168Y-78147278D01*
X134484406Y-78242516D01*
X134579644Y-78290135D01*
X133674882Y-78004420D02*
X133008216Y-78004420D01*
X133436787Y-79004420D01*
X134932657Y-77665840D02*
X135265990Y-77189650D01*
X135504085Y-77665840D02*
X135504085Y-76665840D01*
X135123133Y-76665840D01*
X135027895Y-76713460D01*
X134980276Y-76761079D01*
X134932657Y-76856317D01*
X134932657Y-76999174D01*
X134980276Y-77094412D01*
X135027895Y-77142031D01*
X135123133Y-77189650D01*
X135504085Y-77189650D01*
X133980276Y-77665840D02*
X134551704Y-77665840D01*
X134265990Y-77665840D02*
X134265990Y-76665840D01*
X134361228Y-76808698D01*
X134456466Y-76903936D01*
X134551704Y-76951555D01*
X133408847Y-77094412D02*
X133504085Y-77046793D01*
X133551704Y-76999174D01*
X133599323Y-76903936D01*
X133599323Y-76856317D01*
X133551704Y-76761079D01*
X133504085Y-76713460D01*
X133408847Y-76665840D01*
X133218371Y-76665840D01*
X133123133Y-76713460D01*
X133075514Y-76761079D01*
X133027895Y-76856317D01*
X133027895Y-76903936D01*
X133075514Y-76999174D01*
X133123133Y-77046793D01*
X133218371Y-77094412D01*
X133408847Y-77094412D01*
X133504085Y-77142031D01*
X133551704Y-77189650D01*
X133599323Y-77284888D01*
X133599323Y-77475364D01*
X133551704Y-77570602D01*
X133504085Y-77618221D01*
X133408847Y-77665840D01*
X133218371Y-77665840D01*
X133123133Y-77618221D01*
X133075514Y-77570602D01*
X133027895Y-77475364D01*
X133027895Y-77284888D01*
X133075514Y-77189650D01*
X133123133Y-77142031D01*
X133218371Y-77094412D01*
X140330180Y-104284542D02*
X139853990Y-103951209D01*
X140330180Y-103713114D02*
X139330180Y-103713114D01*
X139330180Y-104094066D01*
X139377800Y-104189304D01*
X139425419Y-104236923D01*
X139520657Y-104284542D01*
X139663514Y-104284542D01*
X139758752Y-104236923D01*
X139806371Y-104189304D01*
X139853990Y-104094066D01*
X139853990Y-103713114D01*
X140330180Y-105236923D02*
X140330180Y-104665495D01*
X140330180Y-104951209D02*
X139330180Y-104951209D01*
X139473038Y-104855971D01*
X139568276Y-104760733D01*
X139615895Y-104665495D01*
X140330180Y-105713114D02*
X140330180Y-105903590D01*
X140282561Y-105998828D01*
X140234942Y-106046447D01*
X140092085Y-106141685D01*
X139901609Y-106189304D01*
X139520657Y-106189304D01*
X139425419Y-106141685D01*
X139377800Y-106094066D01*
X139330180Y-105998828D01*
X139330180Y-105808352D01*
X139377800Y-105713114D01*
X139425419Y-105665495D01*
X139520657Y-105617876D01*
X139758752Y-105617876D01*
X139853990Y-105665495D01*
X139901609Y-105713114D01*
X139949228Y-105808352D01*
X139949228Y-105998828D01*
X139901609Y-106094066D01*
X139853990Y-106141685D01*
X139758752Y-106189304D01*
X134919957Y-76472040D02*
X135253290Y-75995850D01*
X135491385Y-76472040D02*
X135491385Y-75472040D01*
X135110433Y-75472040D01*
X135015195Y-75519660D01*
X134967576Y-75567279D01*
X134919957Y-75662517D01*
X134919957Y-75805374D01*
X134967576Y-75900612D01*
X135015195Y-75948231D01*
X135110433Y-75995850D01*
X135491385Y-75995850D01*
X134539004Y-75567279D02*
X134491385Y-75519660D01*
X134396147Y-75472040D01*
X134158052Y-75472040D01*
X134062814Y-75519660D01*
X134015195Y-75567279D01*
X133967576Y-75662517D01*
X133967576Y-75757755D01*
X134015195Y-75900612D01*
X134586623Y-76472040D01*
X133967576Y-76472040D01*
X133062814Y-75472040D02*
X133539004Y-75472040D01*
X133586623Y-75948231D01*
X133539004Y-75900612D01*
X133443766Y-75852993D01*
X133205671Y-75852993D01*
X133110433Y-75900612D01*
X133062814Y-75948231D01*
X133015195Y-76043469D01*
X133015195Y-76281564D01*
X133062814Y-76376802D01*
X133110433Y-76424421D01*
X133205671Y-76472040D01*
X133443766Y-76472040D01*
X133539004Y-76424421D01*
X133586623Y-76376802D01*
X134806915Y-73057400D02*
X134806915Y-72057400D01*
X134568820Y-72057400D01*
X134425962Y-72105020D01*
X134330724Y-72200258D01*
X134283105Y-72295496D01*
X134235486Y-72485972D01*
X134235486Y-72628829D01*
X134283105Y-72819305D01*
X134330724Y-72914543D01*
X134425962Y-73009781D01*
X134568820Y-73057400D01*
X134806915Y-73057400D01*
X133854534Y-72152639D02*
X133806915Y-72105020D01*
X133711677Y-72057400D01*
X133473581Y-72057400D01*
X133378343Y-72105020D01*
X133330724Y-72152639D01*
X133283105Y-72247877D01*
X133283105Y-72343115D01*
X133330724Y-72485972D01*
X133902153Y-73057400D01*
X133283105Y-73057400D01*
X166421060Y-121038382D02*
X165944870Y-120705049D01*
X166421060Y-120466954D02*
X165421060Y-120466954D01*
X165421060Y-120847906D01*
X165468680Y-120943144D01*
X165516299Y-120990763D01*
X165611537Y-121038382D01*
X165754394Y-121038382D01*
X165849632Y-120990763D01*
X165897251Y-120943144D01*
X165944870Y-120847906D01*
X165944870Y-120466954D01*
X165516299Y-121419335D02*
X165468680Y-121466954D01*
X165421060Y-121562192D01*
X165421060Y-121800287D01*
X165468680Y-121895525D01*
X165516299Y-121943144D01*
X165611537Y-121990763D01*
X165706775Y-121990763D01*
X165849632Y-121943144D01*
X166421060Y-121371716D01*
X166421060Y-121990763D01*
X165421060Y-122847906D02*
X165421060Y-122657430D01*
X165468680Y-122562192D01*
X165516299Y-122514573D01*
X165659156Y-122419335D01*
X165849632Y-122371716D01*
X166230584Y-122371716D01*
X166325822Y-122419335D01*
X166373441Y-122466954D01*
X166421060Y-122562192D01*
X166421060Y-122752668D01*
X166373441Y-122847906D01*
X166325822Y-122895525D01*
X166230584Y-122943144D01*
X165992489Y-122943144D01*
X165897251Y-122895525D01*
X165849632Y-122847906D01*
X165802013Y-122752668D01*
X165802013Y-122562192D01*
X165849632Y-122466954D01*
X165897251Y-122419335D01*
X165992489Y-122371716D01*
X169916100Y-118066582D02*
X169439910Y-117733249D01*
X169916100Y-117495154D02*
X168916100Y-117495154D01*
X168916100Y-117876106D01*
X168963720Y-117971344D01*
X169011339Y-118018963D01*
X169106577Y-118066582D01*
X169249434Y-118066582D01*
X169344672Y-118018963D01*
X169392291Y-117971344D01*
X169439910Y-117876106D01*
X169439910Y-117495154D01*
X169011339Y-118447535D02*
X168963720Y-118495154D01*
X168916100Y-118590392D01*
X168916100Y-118828487D01*
X168963720Y-118923725D01*
X169011339Y-118971344D01*
X169106577Y-119018963D01*
X169201815Y-119018963D01*
X169344672Y-118971344D01*
X169916100Y-118399916D01*
X169916100Y-119018963D01*
X168916100Y-119352297D02*
X168916100Y-120018963D01*
X169916100Y-119590392D01*
X171922700Y-118066582D02*
X171446510Y-117733249D01*
X171922700Y-117495154D02*
X170922700Y-117495154D01*
X170922700Y-117876106D01*
X170970320Y-117971344D01*
X171017939Y-118018963D01*
X171113177Y-118066582D01*
X171256034Y-118066582D01*
X171351272Y-118018963D01*
X171398891Y-117971344D01*
X171446510Y-117876106D01*
X171446510Y-117495154D01*
X171017939Y-118447535D02*
X170970320Y-118495154D01*
X170922700Y-118590392D01*
X170922700Y-118828487D01*
X170970320Y-118923725D01*
X171017939Y-118971344D01*
X171113177Y-119018963D01*
X171208415Y-119018963D01*
X171351272Y-118971344D01*
X171922700Y-118399916D01*
X171922700Y-119018963D01*
X171351272Y-119590392D02*
X171303653Y-119495154D01*
X171256034Y-119447535D01*
X171160796Y-119399916D01*
X171113177Y-119399916D01*
X171017939Y-119447535D01*
X170970320Y-119495154D01*
X170922700Y-119590392D01*
X170922700Y-119780868D01*
X170970320Y-119876106D01*
X171017939Y-119923725D01*
X171113177Y-119971344D01*
X171160796Y-119971344D01*
X171256034Y-119923725D01*
X171303653Y-119876106D01*
X171351272Y-119780868D01*
X171351272Y-119590392D01*
X171398891Y-119495154D01*
X171446510Y-119447535D01*
X171541748Y-119399916D01*
X171732224Y-119399916D01*
X171827462Y-119447535D01*
X171875081Y-119495154D01*
X171922700Y-119590392D01*
X171922700Y-119780868D01*
X171875081Y-119876106D01*
X171827462Y-119923725D01*
X171732224Y-119971344D01*
X171541748Y-119971344D01*
X171446510Y-119923725D01*
X171398891Y-119876106D01*
X171351272Y-119780868D01*
X173914060Y-118081822D02*
X173437870Y-117748489D01*
X173914060Y-117510394D02*
X172914060Y-117510394D01*
X172914060Y-117891346D01*
X172961680Y-117986584D01*
X173009299Y-118034203D01*
X173104537Y-118081822D01*
X173247394Y-118081822D01*
X173342632Y-118034203D01*
X173390251Y-117986584D01*
X173437870Y-117891346D01*
X173437870Y-117510394D01*
X173009299Y-118462775D02*
X172961680Y-118510394D01*
X172914060Y-118605632D01*
X172914060Y-118843727D01*
X172961680Y-118938965D01*
X173009299Y-118986584D01*
X173104537Y-119034203D01*
X173199775Y-119034203D01*
X173342632Y-118986584D01*
X173914060Y-118415156D01*
X173914060Y-119034203D01*
X173914060Y-119510394D02*
X173914060Y-119700870D01*
X173866441Y-119796108D01*
X173818822Y-119843727D01*
X173675965Y-119938965D01*
X173485489Y-119986584D01*
X173104537Y-119986584D01*
X173009299Y-119938965D01*
X172961680Y-119891346D01*
X172914060Y-119796108D01*
X172914060Y-119605632D01*
X172961680Y-119510394D01*
X173009299Y-119462775D01*
X173104537Y-119415156D01*
X173342632Y-119415156D01*
X173437870Y-119462775D01*
X173485489Y-119510394D01*
X173533108Y-119605632D01*
X173533108Y-119796108D01*
X173485489Y-119891346D01*
X173437870Y-119938965D01*
X173342632Y-119986584D01*
X132368040Y-97230606D02*
X133082326Y-97230606D01*
X133225183Y-97182987D01*
X133320421Y-97087749D01*
X133368040Y-96944892D01*
X133368040Y-96849654D01*
X132463279Y-97659178D02*
X132415660Y-97706797D01*
X132368040Y-97802035D01*
X132368040Y-98040130D01*
X132415660Y-98135368D01*
X132463279Y-98182987D01*
X132558517Y-98230606D01*
X132653755Y-98230606D01*
X132796612Y-98182987D01*
X133368040Y-97611559D01*
X133368040Y-98230606D01*
X153703257Y-77522342D02*
X153750876Y-77569961D01*
X153893733Y-77617580D01*
X153988971Y-77617580D01*
X154131828Y-77569961D01*
X154227066Y-77474723D01*
X154274685Y-77379485D01*
X154322304Y-77189009D01*
X154322304Y-77046152D01*
X154274685Y-76855676D01*
X154227066Y-76760438D01*
X154131828Y-76665200D01*
X153988971Y-76617580D01*
X153893733Y-76617580D01*
X153750876Y-76665200D01*
X153703257Y-76712819D01*
X153322304Y-76712819D02*
X153274685Y-76665200D01*
X153179447Y-76617580D01*
X152941352Y-76617580D01*
X152846114Y-76665200D01*
X152798495Y-76712819D01*
X152750876Y-76808057D01*
X152750876Y-76903295D01*
X152798495Y-77046152D01*
X153369923Y-77617580D01*
X152750876Y-77617580D01*
X152179447Y-77046152D02*
X152274685Y-76998533D01*
X152322304Y-76950914D01*
X152369923Y-76855676D01*
X152369923Y-76808057D01*
X152322304Y-76712819D01*
X152274685Y-76665200D01*
X152179447Y-76617580D01*
X151988971Y-76617580D01*
X151893733Y-76665200D01*
X151846114Y-76712819D01*
X151798495Y-76808057D01*
X151798495Y-76855676D01*
X151846114Y-76950914D01*
X151893733Y-76998533D01*
X151988971Y-77046152D01*
X152179447Y-77046152D01*
X152274685Y-77093771D01*
X152322304Y-77141390D01*
X152369923Y-77236628D01*
X152369923Y-77427104D01*
X152322304Y-77522342D01*
X152274685Y-77569961D01*
X152179447Y-77617580D01*
X151988971Y-77617580D01*
X151893733Y-77569961D01*
X151846114Y-77522342D01*
X151798495Y-77427104D01*
X151798495Y-77236628D01*
X151846114Y-77141390D01*
X151893733Y-77093771D01*
X151988971Y-77046152D01*
D13*
X148367200Y-115792267D02*
X148367200Y-115449733D01*
X149387200Y-115792267D02*
X149387200Y-115449733D01*
X161670933Y-99591000D02*
X162013467Y-99591000D01*
X161670933Y-100611000D02*
X162013467Y-100611000D01*
X153547200Y-106437267D02*
X153547200Y-106094733D01*
X154567200Y-106437267D02*
X154567200Y-106094733D01*
X146021520Y-105383147D02*
X146021520Y-105040613D01*
X145001520Y-105383147D02*
X145001520Y-105040613D01*
X162217200Y-110264733D02*
X162217200Y-110607267D01*
X161197200Y-110264733D02*
X161197200Y-110607267D01*
X176612720Y-110126953D02*
X176612720Y-110469487D01*
X175592720Y-110126953D02*
X175592720Y-110469487D01*
X153378467Y-99651000D02*
X153035933Y-99651000D01*
X153378467Y-100671000D02*
X153035933Y-100671000D01*
X145095933Y-91647560D02*
X145438467Y-91647560D01*
X145095933Y-92667560D02*
X145438467Y-92667560D01*
X153387200Y-115737267D02*
X153387200Y-115394733D01*
X154407200Y-115737267D02*
X154407200Y-115394733D01*
X154347200Y-110084733D02*
X154347200Y-110427267D01*
X153327200Y-110084733D02*
X153327200Y-110427267D01*
X162091187Y-63988220D02*
X161748653Y-63988220D01*
X162091187Y-65008220D02*
X161748653Y-65008220D01*
X161682247Y-74486040D02*
X161339713Y-74486040D01*
X161682247Y-75506040D02*
X161339713Y-75506040D01*
X152883140Y-62546413D02*
X152883140Y-62888947D01*
X153903140Y-62546413D02*
X153903140Y-62888947D01*
X159675100Y-78662347D02*
X159675100Y-78319813D01*
X160695100Y-78662347D02*
X160695100Y-78319813D01*
X148393880Y-62480373D02*
X148393880Y-62822907D01*
X147373880Y-62480373D02*
X147373880Y-62822907D01*
X166536553Y-81025460D02*
X166879087Y-81025460D01*
X166536553Y-80005460D02*
X166879087Y-80005460D01*
X165505313Y-59776900D02*
X165847847Y-59776900D01*
X165505313Y-60796900D02*
X165847847Y-60796900D01*
X140747567Y-72344820D02*
X140405033Y-72344820D01*
X140747567Y-73364820D02*
X140405033Y-73364820D01*
X143198467Y-81321000D02*
X142855933Y-81321000D01*
X143198467Y-82341000D02*
X142855933Y-82341000D01*
X153115193Y-78798960D02*
X153457727Y-78798960D01*
X153115193Y-79818960D02*
X153457727Y-79818960D01*
X145967633Y-66374740D02*
X146310167Y-66374740D01*
X145967633Y-65354740D02*
X146310167Y-65354740D01*
X140387253Y-70880700D02*
X140729787Y-70880700D01*
X140387253Y-69860700D02*
X140729787Y-69860700D01*
X152193720Y-62782267D02*
X152193720Y-62439733D01*
X151173720Y-62782267D02*
X151173720Y-62439733D01*
X149268720Y-62690827D02*
X149268720Y-62348293D01*
X150288720Y-62690827D02*
X150288720Y-62348293D01*
X147331613Y-57729660D02*
X147674147Y-57729660D01*
X147331613Y-58749660D02*
X147674147Y-58749660D01*
X161481040Y-69831133D02*
X161481040Y-70173667D01*
X162501040Y-69831133D02*
X162501040Y-70173667D01*
X154678920Y-62848307D02*
X154678920Y-62505773D01*
X155698920Y-62848307D02*
X155698920Y-62505773D01*
X146947960Y-73184652D02*
X146947960Y-72662148D01*
X145527960Y-73184652D02*
X145527960Y-72662148D01*
X169282840Y-110074893D02*
X169282840Y-110417427D01*
X168262840Y-110074893D02*
X168262840Y-110417427D01*
X173444268Y-64695140D02*
X173966772Y-64695140D01*
X173444268Y-63275140D02*
X173966772Y-63275140D01*
D12*
X174921520Y-73058840D02*
X174521520Y-73058840D01*
X177575520Y-73058840D02*
X177275520Y-73058840D01*
X177575520Y-65731840D02*
X177275520Y-65731840D01*
X177575520Y-65795340D02*
X177575520Y-72995340D01*
X171994520Y-65795340D02*
X171994520Y-72995340D01*
X174921520Y-65731840D02*
X174521520Y-65731840D01*
X171994520Y-65731840D02*
X172294520Y-65731840D01*
X171994520Y-73058840D02*
X172294520Y-73058840D01*
D13*
X159261993Y-63174340D02*
X159604527Y-63174340D01*
X159261993Y-62154340D02*
X159604527Y-62154340D01*
X147323760Y-68920440D02*
X148583760Y-68920440D01*
X154143760Y-74930440D02*
X154143760Y-68920440D01*
X147323760Y-72680440D02*
X147323760Y-68920440D01*
X154143760Y-68920440D02*
X152883760Y-68920440D01*
X144680400Y-61456387D02*
X144680400Y-61113853D01*
X143660400Y-61456387D02*
X143660400Y-61113853D01*
X138085100Y-110290427D02*
X138085100Y-109947893D01*
X139105100Y-110290427D02*
X139105100Y-109947893D01*
X176669160Y-120615527D02*
X176669160Y-120272993D01*
X175649160Y-120615527D02*
X175649160Y-120272993D01*
X155567920Y-78565827D02*
X155567920Y-78223293D01*
X156587920Y-78565827D02*
X156587920Y-78223293D01*
X166569573Y-81468500D02*
X166912107Y-81468500D01*
X166569573Y-82488500D02*
X166912107Y-82488500D01*
X169579107Y-61013880D02*
X169236573Y-61013880D01*
X169579107Y-62033880D02*
X169236573Y-62033880D01*
X169609587Y-62593760D02*
X169267053Y-62593760D01*
X169609587Y-63613760D02*
X169267053Y-63613760D01*
X169629907Y-65188560D02*
X169287373Y-65188560D01*
X169629907Y-64168560D02*
X169287373Y-64168560D01*
X169640067Y-66875120D02*
X169297533Y-66875120D01*
X169640067Y-65855120D02*
X169297533Y-65855120D01*
X145175933Y-86937560D02*
X145518467Y-86937560D01*
X145175933Y-85917560D02*
X145518467Y-85917560D01*
X146363507Y-68074000D02*
X146020973Y-68074000D01*
X146363507Y-67054000D02*
X146020973Y-67054000D01*
X138032307Y-78960440D02*
X137689773Y-78960440D01*
X138032307Y-77940440D02*
X137689773Y-77940440D01*
X138057707Y-76472320D02*
X137715173Y-76472320D01*
X138057707Y-77492320D02*
X137715173Y-77492320D01*
X138062240Y-105116447D02*
X138062240Y-104773913D01*
X139082240Y-105116447D02*
X139082240Y-104773913D01*
X138062787Y-76085160D02*
X137720253Y-76085160D01*
X138062787Y-75065160D02*
X137720253Y-75065160D01*
X135968820Y-73605020D02*
X132818820Y-73605020D01*
X135968820Y-73605020D02*
X135968820Y-75305020D01*
X135968820Y-75305020D02*
X132818820Y-75305020D01*
X167845200Y-121910927D02*
X167845200Y-121568393D01*
X166825200Y-121910927D02*
X166825200Y-121568393D01*
X168874980Y-121895687D02*
X168874980Y-121553153D01*
X169894980Y-121895687D02*
X169894980Y-121553153D01*
X170927300Y-121885527D02*
X170927300Y-121542993D01*
X171947300Y-121885527D02*
X171947300Y-121542993D01*
X172918660Y-121918547D02*
X172918660Y-121576013D01*
X173938660Y-121918547D02*
X173938660Y-121576013D01*
X138119940Y-83569900D02*
X131819940Y-83569900D01*
X141829940Y-83569900D02*
X140019940Y-83569900D01*
X137419940Y-96439900D02*
X131819940Y-96439900D01*
X141829940Y-96439900D02*
X141829940Y-85179900D01*
X141829940Y-83679900D02*
X141829940Y-83569900D01*
X140669940Y-96439900D02*
X141829940Y-96439900D01*
X149988600Y-76903948D02*
X149988600Y-77426452D01*
X151458600Y-76903948D02*
X151458600Y-77426452D01*
%LPC*%
D14*
X141338300Y-98336100D03*
D15*
X143878300Y-98336100D03*
X141338300Y-100876100D03*
X143878300Y-100876100D03*
X141338300Y-103416100D03*
X143878300Y-103416100D03*
X141338300Y-105956100D03*
X143878300Y-105956100D03*
X141338300Y-108496100D03*
X143878300Y-108496100D03*
X141338300Y-111036100D03*
X143878300Y-111036100D03*
X141338300Y-113576100D03*
X143878300Y-113576100D03*
X141338300Y-116116100D03*
X143878300Y-116116100D03*
X141338300Y-118656100D03*
X143878300Y-121196100D03*
X143878300Y-118656100D03*
X146418300Y-121196100D03*
X146418300Y-118656100D03*
X148958300Y-121196100D03*
X148958300Y-118656100D03*
X151498300Y-121196100D03*
X151498300Y-118656100D03*
X154038300Y-121196100D03*
X154038300Y-118656100D03*
X156578300Y-121196100D03*
X156578300Y-118656100D03*
X159118300Y-121196100D03*
X159118300Y-118656100D03*
X161658300Y-121196100D03*
X161658300Y-118656100D03*
X164198300Y-121196100D03*
X166738300Y-118656100D03*
X164198300Y-118656100D03*
X166738300Y-116116100D03*
X164198300Y-116116100D03*
X166738300Y-113576100D03*
X164198300Y-113576100D03*
X166738300Y-111036100D03*
X164198300Y-111036100D03*
X166738300Y-108496100D03*
X164198300Y-108496100D03*
X166738300Y-105956100D03*
X164198300Y-105956100D03*
X166738300Y-103416100D03*
X164198300Y-103416100D03*
X166738300Y-100876100D03*
X164198300Y-100876100D03*
X166738300Y-98336100D03*
X164198300Y-95796100D03*
X164198300Y-98336100D03*
X161658300Y-95796100D03*
X161658300Y-98336100D03*
X159118300Y-95796100D03*
X159118300Y-98336100D03*
X156578300Y-95796100D03*
X156578300Y-98336100D03*
X154038300Y-95796100D03*
X154038300Y-98336100D03*
X151498300Y-95796100D03*
X151498300Y-98336100D03*
X148958300Y-95796100D03*
X148958300Y-98336100D03*
X146418300Y-95796100D03*
X146418300Y-98336100D03*
X143878300Y-95796100D03*
D16*
X141325600Y-57711340D03*
D17*
X141325600Y-60251340D03*
X138785600Y-57711340D03*
X138785600Y-60251340D03*
X136245600Y-57711340D03*
X136245600Y-60251340D03*
X133705600Y-57711340D03*
X133705600Y-60251340D03*
X131165600Y-57711340D03*
X131165600Y-60251340D03*
D16*
X131620260Y-69113400D03*
D17*
X131620260Y-71653400D03*
D18*
X148877200Y-116496000D03*
X148877200Y-114746000D03*
D19*
X160967200Y-100101000D03*
X162717200Y-100101000D03*
D18*
X154057200Y-107141000D03*
X154057200Y-105391000D03*
X145511520Y-106086880D03*
X145511520Y-104336880D03*
D20*
X161707200Y-109561000D03*
X161707200Y-111311000D03*
X176102720Y-109423220D03*
X176102720Y-111173220D03*
D21*
X154082200Y-100161000D03*
X152332200Y-100161000D03*
D19*
X144392200Y-92157560D03*
X146142200Y-92157560D03*
D18*
X153897200Y-116441000D03*
X153897200Y-114691000D03*
D20*
X153837200Y-109381000D03*
X153837200Y-111131000D03*
D21*
X162794920Y-64498220D03*
X161044920Y-64498220D03*
X162385980Y-74996040D03*
X160635980Y-74996040D03*
D20*
X153393140Y-61842680D03*
X153393140Y-63592680D03*
D18*
X160185100Y-79366080D03*
X160185100Y-77616080D03*
D20*
X147883880Y-61776640D03*
X147883880Y-63526640D03*
D19*
X165832820Y-80515460D03*
X167582820Y-80515460D03*
X164801580Y-60286900D03*
X166551580Y-60286900D03*
D21*
X141451300Y-72854820D03*
X139701300Y-72854820D03*
X143902200Y-81831000D03*
X142152200Y-81831000D03*
D19*
X152411460Y-79308960D03*
X154161460Y-79308960D03*
X145263900Y-65864740D03*
X147013900Y-65864740D03*
X139683520Y-70370700D03*
X141433520Y-70370700D03*
D18*
X151683720Y-63486000D03*
X151683720Y-61736000D03*
X149778720Y-63394560D03*
X149778720Y-61644560D03*
D19*
X146627880Y-58239660D03*
X148377880Y-58239660D03*
D20*
X161991040Y-69127400D03*
X161991040Y-70877400D03*
D18*
X155188920Y-63552040D03*
X155188920Y-61802040D03*
D22*
X146237960Y-73948400D03*
X146237960Y-71898400D03*
D20*
X168772840Y-109371160D03*
X168772840Y-111121160D03*
D23*
X172680520Y-63985140D03*
X174730520Y-63985140D03*
D24*
X176880520Y-66855340D03*
X176880520Y-71935340D03*
X172689520Y-71935340D03*
X172689520Y-66855340D03*
D19*
X158558260Y-62664340D03*
X160308260Y-62664340D03*
D25*
X153033760Y-73980440D03*
X150733760Y-73980440D03*
X148433760Y-73980440D03*
D26*
X150733760Y-67680440D03*
D18*
X144170400Y-62160120D03*
X144170400Y-60410120D03*
X138595100Y-110994160D03*
X138595100Y-109244160D03*
X176159160Y-121319260D03*
X176159160Y-119569260D03*
X156077920Y-79269560D03*
X156077920Y-77519560D03*
D19*
X165865840Y-81978500D03*
X167615840Y-81978500D03*
D21*
X170282840Y-61523880D03*
X168532840Y-61523880D03*
X170313320Y-63103760D03*
X168563320Y-63103760D03*
X170333640Y-64678560D03*
X168583640Y-64678560D03*
X170343800Y-66365120D03*
X168593800Y-66365120D03*
D19*
X144472200Y-86427560D03*
X146222200Y-86427560D03*
D21*
X147067240Y-67564000D03*
X145317240Y-67564000D03*
X138736040Y-78450440D03*
X136986040Y-78450440D03*
X138761440Y-76982320D03*
X137011440Y-76982320D03*
D18*
X138572240Y-105820180D03*
X138572240Y-104070180D03*
D21*
X138766520Y-75575160D03*
X137016520Y-75575160D03*
D27*
X135318820Y-74455020D03*
X132818820Y-74455020D03*
D18*
X167335200Y-122614660D03*
X167335200Y-120864660D03*
X169384980Y-122599420D03*
X169384980Y-120849420D03*
X171437300Y-122589260D03*
X171437300Y-120839260D03*
X173428660Y-122622280D03*
X173428660Y-120872280D03*
D28*
X130694940Y-86829900D03*
X130694940Y-87929900D03*
X130694940Y-89029900D03*
X130694940Y-90129900D03*
X130694940Y-91229900D03*
X130694940Y-92329900D03*
X130694940Y-93429900D03*
X130694940Y-94529900D03*
D29*
X139919940Y-95654900D03*
D30*
X141494940Y-84429900D03*
D31*
X130819940Y-95729900D03*
D32*
X139069940Y-84029900D03*
D33*
X130819940Y-84379900D03*
D34*
X138419940Y-95979900D03*
D35*
X150723600Y-76127700D03*
X150723600Y-78202700D03*
M02*
