%FSLAX45Y45*%
G04 Gerber Fmt 4.5, Leading zero omitted, Abs format (unit mm)*
G04 Created by KiCad (PCBNEW (6.0.0)) date 2022-01-09 18:23:21*
%MOMM*%
%LPD*%
G01*
G04 APERTURE LIST*
%TA.AperFunction,Profile*%
%ADD10C,0.050000*%
%TD*%
%ADD11C,0.200000*%
G04 APERTURE END LIST*
D10*
X17866170Y-5628370D02*
X17868392Y-12467082D01*
X12970002Y-12467082D02*
X12970320Y-5627100D01*
X17868392Y-12467082D02*
X12970002Y-12467082D01*
X12970320Y-5627100D02*
X17866170Y-5628370D01*
D11*
X13225121Y-12780058D02*
X13225121Y-12580058D01*
X13272740Y-12580058D01*
X13301311Y-12589582D01*
X13320359Y-12608630D01*
X13329883Y-12627677D01*
X13339407Y-12665772D01*
X13339407Y-12694344D01*
X13329883Y-12732439D01*
X13320359Y-12751487D01*
X13301311Y-12770534D01*
X13272740Y-12780058D01*
X13225121Y-12780058D01*
X13425121Y-12780058D02*
X13425121Y-12646725D01*
X13425121Y-12684820D02*
X13434645Y-12665772D01*
X13444169Y-12656249D01*
X13463216Y-12646725D01*
X13482264Y-12646725D01*
X13548930Y-12780058D02*
X13548930Y-12646725D01*
X13548930Y-12580058D02*
X13539407Y-12589582D01*
X13548930Y-12599106D01*
X13558454Y-12589582D01*
X13548930Y-12580058D01*
X13548930Y-12599106D01*
X13672740Y-12780058D02*
X13653692Y-12770534D01*
X13644169Y-12751487D01*
X13644169Y-12580058D01*
X13777502Y-12780058D02*
X13758454Y-12770534D01*
X13748930Y-12751487D01*
X13748930Y-12580058D01*
X14006073Y-12780058D02*
X14006073Y-12580058D01*
X14072740Y-12722915D01*
X14139407Y-12580058D01*
X14139407Y-12780058D01*
X14320359Y-12780058D02*
X14320359Y-12675296D01*
X14310835Y-12656249D01*
X14291788Y-12646725D01*
X14253692Y-12646725D01*
X14234645Y-12656249D01*
X14320359Y-12770534D02*
X14301311Y-12780058D01*
X14253692Y-12780058D01*
X14234645Y-12770534D01*
X14225121Y-12751487D01*
X14225121Y-12732439D01*
X14234645Y-12713391D01*
X14253692Y-12703868D01*
X14301311Y-12703868D01*
X14320359Y-12694344D01*
X14415597Y-12646725D02*
X14415597Y-12846725D01*
X14415597Y-12656249D02*
X14434645Y-12646725D01*
X14472740Y-12646725D01*
X14491788Y-12656249D01*
X14501311Y-12665772D01*
X14510835Y-12684820D01*
X14510835Y-12741963D01*
X14501311Y-12761010D01*
X14491788Y-12770534D01*
X14472740Y-12780058D01*
X14434645Y-12780058D01*
X14415597Y-12770534D01*
X14596550Y-12761010D02*
X14606073Y-12770534D01*
X14596550Y-12780058D01*
X14587026Y-12770534D01*
X14596550Y-12761010D01*
X14596550Y-12780058D01*
X14596550Y-12656249D02*
X14606073Y-12665772D01*
X14596550Y-12675296D01*
X14587026Y-12665772D01*
X14596550Y-12656249D01*
X14596550Y-12675296D01*
M02*
