M48
; DRILL file {KiCad (6.0.0)} date Thu Jul 21 19:31:33 2022
; FORMAT={-:-/ absolute / metric / decimal}
; #@! TF.CreationDate,2022-07-21T19:31:33+01:00
; #@! TF.GenerationSoftware,Kicad,Pcbnew,(6.0.0)
; #@! TF.FileFunction,Plated,1,4,PTH
FMAT,2
METRIC
; #@! TA.AperFunction,Plated,PTH,ViaDrill
T1C0.400
; #@! TA.AperFunction,Plated,PTH,ComponentDrill
T2C0.800
; #@! TA.AperFunction,Plated,PTH,ComponentDrill
T3C1.000
%
G90
G05
T1
X132.044Y-111.376
X132.316Y-118.593
X132.57Y-90.106
X132.654Y-63.741
X132.794Y-115.065
X132.839Y-104.498
X132.895Y-92.398
X132.936Y-99.654
X134.112Y-82.575
X134.153Y-121.679
X135.27Y-113.007
X135.27Y-107.178
X135.364Y-78.682
X135.941Y-108.433
X135.961Y-79.48
X135.984Y-80.947
X136.047Y-77.17
X136.218Y-67.302
X136.688Y-114.427
X136.997Y-79.299
X137.069Y-92.41
X137.377Y-81.031
X137.462Y-82.012
X137.658Y-71.316
X137.818Y-85.814
X137.866Y-87.917
X138.137Y-79.761
X138.27Y-95.049
X138.582Y-103.198
X138.595Y-108.151
X138.654Y-70.396
X138.687Y-72.86
X138.725Y-97.45
X138.735Y-81.712
X140.097Y-77.131
X140.155Y-106.937
X140.457Y-92.657
X140.47Y-122.852
X140.566Y-94.272
X141.217Y-79.011
X141.237Y-77.731
X142.007Y-72.823
X142.062Y-70.371
X142.067Y-69.258
X142.105Y-63.16
X143.037Y-80.501
X143.467Y-92.148
X143.477Y-86.448
X144.729Y-68.875
X144.807Y-64.121
X144.831Y-70.881
X144.861Y-76.853
X144.861Y-79.332
X144.866Y-65.86
X144.871Y-78.301
X144.907Y-62.181
X145.08Y-104.358
X145.212Y-115.811
X145.336Y-79.888
X145.467Y-107.142
X145.506Y-99.782
X145.637Y-61.081
X145.74Y-93.95
X145.76Y-58.235
X145.897Y-91.087
X145.898Y-87.757
X146.731Y-77.386
X146.858Y-63.533
X146.883Y-79.888
X147.047Y-91.018
X147.069Y-68.532
X147.394Y-71.887
X147.432Y-109.078
X147.65Y-87.96
X147.687Y-95.281
X147.707Y-97.021
X147.795Y-65.888
X147.797Y-100.941
X147.827Y-116.501
X147.847Y-104.371
X147.889Y-61.293
X148.381Y-58.731
X148.44Y-87.96
X148.626Y-70.051
X148.667Y-111.311
X148.692Y-113.848
X149.25Y-87.96
X149.522Y-78.214
X149.715Y-76.149
X149.779Y-61.645
X149.938Y-103.815
X150.167Y-93.939
X150.631Y-104.396
X150.652Y-103.26
X150.693Y-106.37
X150.861Y-107.441
X150.894Y-58.367
X150.975Y-105.296
X151.356Y-100.284
X151.384Y-79.903
X151.539Y-109.101
X151.674Y-64.44
X151.719Y-61.328
X151.778Y-76.134
X151.78Y-123.441
X151.981Y-86.744
X152.055Y-92.144
X152.367Y-79.919
X152.593Y-72.507
X152.639Y-96.718
X152.757Y-95.361
X153.035Y-75.413
X153.419Y-61.493
X153.457Y-72.507
X153.547Y-107.201
X153.847Y-113.231
X153.853Y-111.971
X153.927Y-115.911
X154.033Y-92.641
X154.173Y-78.387
X154.193Y-63.599
X154.61Y-103.231
X154.638Y-105.395
X154.717Y-109.281
X154.894Y-58.364
X154.983Y-122.644
X155.018Y-120.109
X155.037Y-99.99
X155.189Y-61.802
X155.379Y-80.124
X155.603Y-57.655
X156.017Y-117.081
X156.035Y-107.757
X156.088Y-76.54
X156.317Y-84.981
X156.591Y-57.655
X156.705Y-91.445
X156.976Y-109.98
X157.139Y-115.212
X157.281Y-106.297
X157.29Y-111.481
X157.336Y-103.726
X157.336Y-104.63
X157.338Y-102.683
X157.409Y-114.27
X157.518Y-107.676
X157.551Y-57.615
X157.64Y-101.822
X157.646Y-100.014
X157.654Y-100.918
X157.831Y-105.479
X157.857Y-95.521
X158.25Y-65.08
X158.347Y-83.161
X158.473Y-116.243
X158.552Y-57.625
X158.697Y-61.411
X158.793Y-109.687
X158.803Y-110.688
X159.066Y-104.796
X159.245Y-86.086
X159.398Y-58.506
X159.718Y-75.024
X159.784Y-116.911
X160.077Y-61.411
X160.137Y-114.005
X160.183Y-76.563
X160.2Y-79.931
X160.377Y-89.461
X160.419Y-119.868
X160.427Y-97.021
X160.584Y-111.923
X160.607Y-100.131
X160.64Y-109.472
X160.752Y-106.606
X160.927Y-63.546
X161.394Y-79.083
X161.734Y-117.081
X161.737Y-107.775
X161.882Y-80.025
X162.027Y-71.887
X162.641Y-76.594
X162.829Y-82.862
X162.85Y-116.307
X162.905Y-73.82
X162.936Y-119.992
X162.942Y-61.331
X162.966Y-114.529
X163.121Y-67.978
X163.121Y-79.154
X163.17Y-115.433
X163.238Y-69.207
X163.241Y-75.032
X163.292Y-64.45
X163.512Y-70.394
X163.637Y-61.871
X163.774Y-80.261
X163.812Y-99.593
X164.175Y-81.537
X164.991Y-99.581
X164.993Y-91.506
X165.163Y-106.916
X165.362Y-109.809
X165.379Y-114.207
X165.466Y-111.877
X165.481Y-112.801
X165.598Y-93.988
X166.263Y-89.124
X166.477Y-74.64
X166.502Y-75.545
X166.558Y-94.996
X166.658Y-71.887
X166.746Y-64.122
X167.249Y-77.426
X167.254Y-83.416
X167.305Y-76.037
X167.726Y-62.098
X167.886Y-69.025
X167.96Y-76.667
X168.42Y-90.406
X168.45Y-87.442
X168.473Y-77.749
X168.525Y-109.311
X168.537Y-110.807
X168.603Y-103.721
X168.852Y-83.342
X168.867Y-80.147
X168.902Y-81.171
X169.141Y-85.054
X169.184Y-59.563
X169.299Y-104.737
X170.373Y-117.089
X171.226Y-65.552
X171.336Y-109.172
X171.435Y-61.554
X171.475Y-63.089
X171.486Y-64.633
X172.176Y-113.726
X172.217Y-68.92
X172.428Y-88.755
X172.446Y-103.795
X172.486Y-97.493
X172.489Y-81.305
X172.679Y-65.744
X173.045Y-62.895
X175.697Y-68.89
X175.923Y-64.016
X175.936Y-75.535
X176.093Y-117.084
X176.169Y-122.306
X176.845Y-58.425
X176.847Y-103.642
X176.87Y-70.079
X176.875Y-65.744
X176.891Y-73.721
X176.891Y-80.742
X177.15Y-110.63
X177.17Y-109.352
T2
X141.338Y-98.336
X141.338Y-100.876
X141.338Y-103.416
X141.338Y-105.956
X141.338Y-108.496
X141.338Y-111.036
X141.338Y-113.576
X141.338Y-116.116
X141.338Y-118.656
X143.878Y-95.796
X143.878Y-98.336
X143.878Y-100.876
X143.878Y-103.416
X143.878Y-105.956
X143.878Y-108.496
X143.878Y-111.036
X143.878Y-113.576
X143.878Y-116.116
X143.878Y-118.656
X143.878Y-121.196
X146.418Y-95.796
X146.418Y-98.336
X146.418Y-118.656
X146.418Y-121.196
X148.958Y-95.796
X148.958Y-98.336
X148.958Y-118.656
X148.958Y-121.196
X151.498Y-95.796
X151.498Y-98.336
X151.498Y-118.656
X151.498Y-121.196
X154.038Y-95.796
X154.038Y-98.336
X154.038Y-118.656
X154.038Y-121.196
X156.578Y-95.796
X156.578Y-98.336
X156.578Y-118.656
X156.578Y-121.196
X159.118Y-95.796
X159.118Y-98.336
X159.118Y-118.656
X159.118Y-121.196
X161.658Y-95.796
X161.658Y-98.336
X161.658Y-118.656
X161.658Y-121.196
X164.198Y-95.796
X164.198Y-98.336
X164.198Y-100.876
X164.198Y-103.416
X164.198Y-105.956
X164.198Y-108.496
X164.198Y-111.036
X164.198Y-113.576
X164.198Y-116.116
X164.198Y-118.656
X164.198Y-121.196
X166.738Y-98.336
X166.738Y-100.876
X166.738Y-103.416
X166.738Y-105.956
X166.738Y-108.496
X166.738Y-111.036
X166.738Y-113.576
X166.738Y-116.116
X166.738Y-118.656
T3
X131.166Y-57.711
X131.166Y-60.251
X131.62Y-69.113
X131.62Y-71.653
X133.706Y-57.711
X133.706Y-60.251
X136.246Y-57.711
X136.246Y-60.251
X138.786Y-57.711
X138.786Y-60.251
X141.326Y-57.711
X141.326Y-60.251
T0
M30
