G04 #@! TF.GenerationSoftware,KiCad,Pcbnew,(6.0.0)*
G04 #@! TF.CreationDate,2022-01-09T18:19:29+00:00*
G04 #@! TF.ProjectId,ElectronULA,456c6563-7472-46f6-9e55-4c412e6b6963,rev?*
G04 #@! TF.SameCoordinates,Original*
G04 #@! TF.FileFunction,Soldermask,Bot*
G04 #@! TF.FilePolarity,Negative*
%FSLAX46Y46*%
G04 Gerber Fmt 4.6, Leading zero omitted, Abs format (unit mm)*
G04 Created by KiCad (PCBNEW (6.0.0)) date 2022-01-09 18:19:29*
%MOMM*%
%LPD*%
G01*
G04 APERTURE LIST*
G04 Aperture macros list*
%AMRoundRect*
0 Rectangle with rounded corners*
0 $1 Rounding radius*
0 $2 $3 $4 $5 $6 $7 $8 $9 X,Y pos of 4 corners*
0 Add a 4 corners polygon primitive as box body*
4,1,4,$2,$3,$4,$5,$6,$7,$8,$9,$2,$3,0*
0 Add four circle primitives for the rounded corners*
1,1,$1+$1,$2,$3*
1,1,$1+$1,$4,$5*
1,1,$1+$1,$6,$7*
1,1,$1+$1,$8,$9*
0 Add four rect primitives between the rounded corners*
20,1,$1+$1,$2,$3,$4,$5,0*
20,1,$1+$1,$4,$5,$6,$7,0*
20,1,$1+$1,$6,$7,$8,$9,0*
20,1,$1+$1,$8,$9,$2,$3,0*%
G04 Aperture macros list end*
%ADD10R,1.422400X1.422400*%
%ADD11C,1.422400*%
%ADD12R,1.700000X1.700000*%
%ADD13O,1.700000X1.700000*%
%ADD14RoundRect,0.237500X0.237500X-0.287500X0.237500X0.287500X-0.237500X0.287500X-0.237500X-0.287500X0*%
%ADD15RoundRect,0.237500X-0.287500X-0.237500X0.287500X-0.237500X0.287500X0.237500X-0.287500X0.237500X0*%
%ADD16RoundRect,0.237500X-0.237500X0.287500X-0.237500X-0.287500X0.237500X-0.287500X0.237500X0.287500X0*%
%ADD17RoundRect,0.237500X0.287500X0.237500X-0.287500X0.237500X-0.287500X-0.237500X0.287500X-0.237500X0*%
%ADD18RoundRect,0.249999X0.450001X-0.325001X0.450001X0.325001X-0.450001X0.325001X-0.450001X-0.325001X0*%
%ADD19RoundRect,0.249999X-0.325001X-0.450001X0.325001X-0.450001X0.325001X0.450001X-0.325001X0.450001X0*%
%ADD20R,1.800000X1.800000*%
%ADD21R,1.500000X2.000000*%
%ADD22R,3.800000X2.000000*%
%ADD23R,1.000000X1.000000*%
%ADD24R,1.750000X0.700000*%
%ADD25R,1.000000X1.450000*%
%ADD26R,1.550000X1.000000*%
%ADD27R,1.500000X1.300000*%
%ADD28R,1.400000X0.800000*%
%ADD29R,1.500000X1.500000*%
%ADD30R,1.500000X0.800000*%
%ADD31RoundRect,0.250000X-0.475000X0.337500X-0.475000X-0.337500X0.475000X-0.337500X0.475000X0.337500X0*%
G04 APERTURE END LIST*
D10*
X141338300Y-98336100D03*
D11*
X143878300Y-98336100D03*
X141338300Y-100876100D03*
X143878300Y-100876100D03*
X141338300Y-103416100D03*
X143878300Y-103416100D03*
X141338300Y-105956100D03*
X143878300Y-105956100D03*
X141338300Y-108496100D03*
X143878300Y-108496100D03*
X141338300Y-111036100D03*
X143878300Y-111036100D03*
X141338300Y-113576100D03*
X143878300Y-113576100D03*
X141338300Y-116116100D03*
X143878300Y-116116100D03*
X141338300Y-118656100D03*
X143878300Y-121196100D03*
X143878300Y-118656100D03*
X146418300Y-121196100D03*
X146418300Y-118656100D03*
X148958300Y-121196100D03*
X148958300Y-118656100D03*
X151498300Y-121196100D03*
X151498300Y-118656100D03*
X154038300Y-121196100D03*
X154038300Y-118656100D03*
X156578300Y-121196100D03*
X156578300Y-118656100D03*
X159118300Y-121196100D03*
X159118300Y-118656100D03*
X161658300Y-121196100D03*
X161658300Y-118656100D03*
X164198300Y-121196100D03*
X166738300Y-118656100D03*
X164198300Y-118656100D03*
X166738300Y-116116100D03*
X164198300Y-116116100D03*
X166738300Y-113576100D03*
X164198300Y-113576100D03*
X166738300Y-111036100D03*
X164198300Y-111036100D03*
X166738300Y-108496100D03*
X164198300Y-108496100D03*
X166738300Y-105956100D03*
X164198300Y-105956100D03*
X166738300Y-103416100D03*
X164198300Y-103416100D03*
X166738300Y-100876100D03*
X164198300Y-100876100D03*
X166738300Y-98336100D03*
X164198300Y-95796100D03*
X164198300Y-98336100D03*
X161658300Y-95796100D03*
X161658300Y-98336100D03*
X159118300Y-95796100D03*
X159118300Y-98336100D03*
X156578300Y-95796100D03*
X156578300Y-98336100D03*
X154038300Y-95796100D03*
X154038300Y-98336100D03*
X151498300Y-95796100D03*
X151498300Y-98336100D03*
X148958300Y-95796100D03*
X148958300Y-98336100D03*
X146418300Y-95796100D03*
X146418300Y-98336100D03*
X143878300Y-95796100D03*
D12*
X141325600Y-57711340D03*
D13*
X141325600Y-60251340D03*
X138785600Y-57711340D03*
X138785600Y-60251340D03*
X136245600Y-57711340D03*
X136245600Y-60251340D03*
X133705600Y-57711340D03*
X133705600Y-60251340D03*
X131165600Y-57711340D03*
X131165600Y-60251340D03*
D12*
X131620260Y-69113400D03*
D13*
X131620260Y-71653400D03*
D14*
X148877200Y-116496000D03*
X148877200Y-114746000D03*
D15*
X160967200Y-100101000D03*
X162717200Y-100101000D03*
D14*
X154057200Y-107141000D03*
X154057200Y-105391000D03*
X145511520Y-106086880D03*
X145511520Y-104336880D03*
D16*
X161707200Y-109561000D03*
X161707200Y-111311000D03*
X176102720Y-109423220D03*
X176102720Y-111173220D03*
D17*
X154082200Y-100161000D03*
X152332200Y-100161000D03*
D15*
X144392200Y-92157560D03*
X146142200Y-92157560D03*
D14*
X153897200Y-116441000D03*
X153897200Y-114691000D03*
D16*
X153837200Y-109381000D03*
X153837200Y-111131000D03*
D17*
X162794920Y-64498220D03*
X161044920Y-64498220D03*
X162385980Y-74996040D03*
X160635980Y-74996040D03*
D16*
X153393140Y-61842680D03*
X153393140Y-63592680D03*
D14*
X160185100Y-79366080D03*
X160185100Y-77616080D03*
D16*
X147883880Y-61776640D03*
X147883880Y-63526640D03*
D15*
X165832820Y-80515460D03*
X167582820Y-80515460D03*
X164801580Y-60286900D03*
X166551580Y-60286900D03*
D17*
X141451300Y-72854820D03*
X139701300Y-72854820D03*
X143902200Y-81831000D03*
X142152200Y-81831000D03*
D15*
X152411460Y-79308960D03*
X154161460Y-79308960D03*
X145263900Y-65864740D03*
X147013900Y-65864740D03*
X139683520Y-70370700D03*
X141433520Y-70370700D03*
D14*
X151683720Y-63486000D03*
X151683720Y-61736000D03*
X149778720Y-63394560D03*
X149778720Y-61644560D03*
D15*
X146627880Y-58239660D03*
X148377880Y-58239660D03*
D16*
X161991040Y-69127400D03*
X161991040Y-70877400D03*
D14*
X155188920Y-63552040D03*
X155188920Y-61802040D03*
D18*
X146237960Y-73948400D03*
X146237960Y-71898400D03*
D16*
X168772840Y-109371160D03*
X168772840Y-111121160D03*
D19*
X172680520Y-63985140D03*
X174730520Y-63985140D03*
D20*
X176880520Y-66855340D03*
X176880520Y-71935340D03*
X172689520Y-71935340D03*
X172689520Y-66855340D03*
D15*
X158558260Y-62664340D03*
X160308260Y-62664340D03*
D21*
X153033760Y-73980440D03*
X150733760Y-73980440D03*
X148433760Y-73980440D03*
D22*
X150733760Y-67680440D03*
D14*
X144170400Y-62160120D03*
X144170400Y-60410120D03*
X138595100Y-110994160D03*
X138595100Y-109244160D03*
X176159160Y-121319260D03*
X176159160Y-119569260D03*
X156077920Y-79269560D03*
X156077920Y-77519560D03*
D15*
X165865840Y-81978500D03*
X167615840Y-81978500D03*
D17*
X170282840Y-61523880D03*
X168532840Y-61523880D03*
X170313320Y-63103760D03*
X168563320Y-63103760D03*
X170333640Y-64678560D03*
X168583640Y-64678560D03*
X170343800Y-66365120D03*
X168593800Y-66365120D03*
D15*
X144472200Y-86427560D03*
X146222200Y-86427560D03*
D17*
X147067240Y-67564000D03*
X145317240Y-67564000D03*
X138736040Y-78450440D03*
X136986040Y-78450440D03*
X138761440Y-76982320D03*
X137011440Y-76982320D03*
D14*
X138572240Y-105820180D03*
X138572240Y-104070180D03*
D17*
X138766520Y-75575160D03*
X137016520Y-75575160D03*
D23*
X135318820Y-74455020D03*
X132818820Y-74455020D03*
D14*
X167335200Y-122614660D03*
X167335200Y-120864660D03*
X169384980Y-122599420D03*
X169384980Y-120849420D03*
X171437300Y-122589260D03*
X171437300Y-120839260D03*
X173428660Y-122622280D03*
X173428660Y-120872280D03*
D24*
X130694940Y-86829900D03*
X130694940Y-87929900D03*
X130694940Y-89029900D03*
X130694940Y-90129900D03*
X130694940Y-91229900D03*
X130694940Y-92329900D03*
X130694940Y-93429900D03*
X130694940Y-94529900D03*
D25*
X139919940Y-95654900D03*
D26*
X141494940Y-84429900D03*
D27*
X130819940Y-95729900D03*
D28*
X139069940Y-84029900D03*
D29*
X130819940Y-84379900D03*
D30*
X138419940Y-95979900D03*
D31*
X150723600Y-76127700D03*
X150723600Y-78202700D03*
M02*
